<svg width="28" height="28" viewBox="0 0 28 28" fill="none" xmlns="http://www.w3.org/2000/svg">
<g clip-path="url(#clip0_114_189)">
<path d="M19.285 12.9033L18.0483 11.6666L12.355 17.36L9.88167 14.8866L8.645 16.1233L12.355 19.8333L19.285 12.9033ZM22.1667 3.49996H21V1.16663H18.6667V3.49996H9.33333V1.16663H7V3.49996H5.83333C4.53833 3.49996 3.51167 4.54996 3.51167 5.83329L3.5 22.1666C3.5 23.45 4.53833 24.5 5.83333 24.5H22.1667C23.45 24.5 24.5 23.45 24.5 22.1666V5.83329C24.5 4.54996 23.45 3.49996 22.1667 3.49996ZM22.1667 22.1666H5.83333V9.33329H22.1667V22.1666Z" fill="#7F56D9"/>
</g>
<defs>
<clipPath id="clip0_114_189">
<rect width="28" height="28" fill="white"/>
</clipPath>
</defs>
</svg>
