<svg width="530" height="294" viewBox="0 0 530 294" fill="none" xmlns="http://www.w3.org/2000/svg">
<path d="M233.559 374.248C233.559 374.248 87.6047 293.042 90.6927 284.31C93.7807 275.579 111.761 274.027 109.221 267.859C106.681 261.691 73.7319 81.8455 82.4709 71.0375C91.2099 60.2295 273.649 -4.5181 286.495 0.623421C299.341 5.76494 280.319 24.2621 280.319 24.2621C280.319 24.2621 439.135 88.0215 442.215 95.1857C445.295 102.35 424.745 104.951 423.201 105.461C421.657 105.971 438.1 127.077 439.135 142.463C440.169 157.849 424.228 329.534 419.063 345.499C413.898 361.464 404.163 360.939 402.079 356.801C399.994 352.663 400.018 346.526 400.018 346.526C400.018 346.526 253.091 379.382 233.559 374.248Z" fill="#7F56D9"/>
<path opacity="0.7" d="M233.559 374.248C233.559 374.248 87.6047 293.042 90.6927 284.31C93.7807 275.579 111.761 274.027 109.221 267.859C106.681 261.691 73.7319 81.8455 82.4709 71.0375C91.2099 60.2295 273.649 -4.5181 286.495 0.623421C299.341 5.76494 280.319 24.2621 280.319 24.2621C280.319 24.2621 439.135 88.0215 442.215 95.1857C445.295 102.35 424.745 104.951 423.201 105.461C421.657 105.971 438.1 127.077 439.135 142.463C440.169 157.849 424.228 329.534 419.063 345.499C413.898 361.464 404.163 360.939 402.079 356.801C399.994 352.663 400.018 346.526 400.018 346.526C400.018 346.526 253.091 379.382 233.559 374.248Z" fill="white"/>
<path d="M409.837 22.2008H294.037V189.601H409.837V22.2008Z" stroke="#263238" stroke-width="0.772" stroke-linecap="round" stroke-linejoin="round"/>
<path d="M388.862 51.8224L325.056 123.487" stroke="#263238" stroke-width="0.772" stroke-linecap="round" stroke-linejoin="round"/>
<path d="M401.608 37.5018L394.505 45.4766" stroke="#263238" stroke-width="0.772" stroke-linecap="round" stroke-linejoin="round"/>
<path d="M386.291 64.6531L350.702 104.627" stroke="#263238" stroke-width="0.772" stroke-linecap="round" stroke-linejoin="round"/>
<path d="M337.648 26.1843L302.051 66.1585" stroke="#263238" stroke-width="0.772" stroke-linecap="round" stroke-linejoin="round"/>
<path d="M407.035 131.779L371.446 171.753" stroke="#263238" stroke-width="0.772" stroke-linecap="round" stroke-linejoin="round"/>
<path d="M232.393 22.2008H116.593V189.601H232.393V22.2008Z" stroke="#263238" stroke-width="0.772" stroke-linecap="round" stroke-linejoin="round"/>
<path d="M178.878 37.1235L143.289 77.0977" stroke="#263238" stroke-width="0.772" stroke-linecap="round" stroke-linejoin="round"/>
<path d="M176.384 143.019L168.935 151.387" stroke="#263238" stroke-width="0.772" stroke-linecap="round" stroke-linejoin="round"/>
<path d="M204.524 111.413L179.704 139.29" stroke="#263238" stroke-width="0.772" stroke-linecap="round" stroke-linejoin="round"/>
<path d="M180.407 52.332L136.179 101.609" stroke="#263238" stroke-width="0.772" stroke-linecap="round" stroke-linejoin="round"/>
<path d="M203.335 26.1843L185.347 46.3876" stroke="#263238" stroke-width="0.772" stroke-linecap="round" stroke-linejoin="round"/>
<path d="M157.602 136.681L126.375 171.753" stroke="#263238" stroke-width="0.772" stroke-linecap="round" stroke-linejoin="round"/>
<path d="M222.087 65.0314L166.349 127.633" stroke="#263238" stroke-width="0.772" stroke-linecap="round" stroke-linejoin="round"/>
<path d="M423.293 194.696H104.843V208.708H423.293V194.696Z" stroke="#263238" stroke-width="0.772" stroke-linecap="round" stroke-linejoin="round"/>
<path d="M423.293 208.708H104.843V221.3H423.293V208.708Z" stroke="#263238" stroke-width="0.772" stroke-linecap="round" stroke-linejoin="round"/>
<path d="M215.239 221.307H106.966V255.7H215.239V221.307Z" stroke="#263238" stroke-width="0.772" stroke-linecap="round" stroke-linejoin="round"/>
<path d="M170.231 235.319H151.974V241.688H170.231V235.319Z" stroke="#263238" stroke-width="0.772" stroke-linecap="round" stroke-linejoin="round"/>
<path d="M400.666 243.001V255.7H292.393V221.307H400.666V238.044" stroke="#263238" stroke-width="0.772" stroke-linecap="round" stroke-linejoin="round"/>
<path d="M355.658 235.319H337.4V241.688H355.658V235.319Z" stroke="#263238" stroke-width="0.772" stroke-linecap="round" stroke-linejoin="round"/>
<path d="M260.34 23.2662H236.199V55.1035H260.34V23.2662Z" stroke="#263238" stroke-width="0.772" stroke-linecap="round" stroke-linejoin="round"/>
<path d="M246.745 23.2662H236.199V55.1035H246.745V23.2662Z" stroke="#263238" stroke-width="0.772" stroke-linecap="round" stroke-linejoin="round"/>
<path d="M290.077 23.2662H265.937V55.1035H290.077V23.2662Z" stroke="#263238" stroke-width="0.772" stroke-linecap="round" stroke-linejoin="round"/>
<path d="M276.088 23.2662H265.937V55.1035H276.088V23.2662Z" stroke="#263238" stroke-width="0.772" stroke-linecap="round" stroke-linejoin="round"/>
<path d="M260.34 61.7504H236.199V93.5877H260.34V61.7504Z" stroke="#263238" stroke-width="0.772" stroke-linecap="round" stroke-linejoin="round"/>
<path d="M246.745 61.7504H236.199V93.5877H246.745V61.7504Z" stroke="#263238" stroke-width="0.772" stroke-linecap="round" stroke-linejoin="round"/>
<path d="M290.077 61.7504H265.937V93.5877H290.077V61.7504Z" stroke="#263238" stroke-width="0.772" stroke-linecap="round" stroke-linejoin="round"/>
<path d="M276.088 61.7504H265.937V93.5877H276.088V61.7504Z" stroke="#263238" stroke-width="0.772" stroke-linecap="round" stroke-linejoin="round"/>
<path d="M260.34 100.235H236.199V132.072H260.34V100.235Z" stroke="#263238" stroke-width="0.772" stroke-linecap="round" stroke-linejoin="round"/>
<path d="M246.745 100.235H236.199V132.072H246.745V100.235Z" stroke="#263238" stroke-width="0.772" stroke-linecap="round" stroke-linejoin="round"/>
<path d="M290.077 100.235H265.937V132.072H290.077V100.235Z" stroke="#263238" stroke-width="0.772" stroke-linecap="round" stroke-linejoin="round"/>
<path d="M276.088 100.235H265.937V132.072H276.088V100.235Z" stroke="#263238" stroke-width="0.772" stroke-linecap="round" stroke-linejoin="round"/>
<path d="M260.34 138.711H236.199V170.548H260.34V138.711Z" stroke="#263238" stroke-width="0.772" stroke-linecap="round" stroke-linejoin="round"/>
<path d="M246.745 138.711H236.199V170.548H246.745V138.711Z" stroke="#263238" stroke-width="0.772" stroke-linecap="round" stroke-linejoin="round"/>
<path d="M290.077 138.711H265.937V170.548H290.077V138.711Z" stroke="#263238" stroke-width="0.772" stroke-linecap="round" stroke-linejoin="round"/>
<path d="M276.088 138.711H265.937V170.548H276.088V138.711Z" stroke="#263238" stroke-width="0.772" stroke-linecap="round" stroke-linejoin="round"/>
<path d="M255.537 113.127H249.23V132.049H255.537V113.127Z" fill="#CCCCCC" stroke="#263238" stroke-width="0.772" stroke-linecap="round" stroke-linejoin="round"/>
<path d="M255.537 110.942H249.23V113.135H255.537V110.942Z" fill="white" stroke="#263238" stroke-width="0.772" stroke-linecap="round" stroke-linejoin="round"/>
<path d="M253.863 106.827H251.076V110.965H253.863V106.827Z" fill="white" stroke="#263238" stroke-width="0.772" stroke-linecap="round" stroke-linejoin="round"/>
<path d="M279.052 113.127H272.745V132.049H279.052V113.127Z" fill="#263238" stroke="#263238" stroke-width="0.772" stroke-linecap="round" stroke-linejoin="round"/>
<path d="M279.052 110.942H272.745V113.135H279.052V110.942Z" fill="white" stroke="#263238" stroke-width="0.772" stroke-linecap="round" stroke-linejoin="round"/>
<path d="M277.37 106.827H274.583V110.965H277.37V106.827Z" fill="white" stroke="#263238" stroke-width="0.772" stroke-linecap="round" stroke-linejoin="round"/>
<path d="M287.182 117.551H280.875V132.049H287.182V117.551Z" fill="white" stroke="#263238" stroke-width="0.772" stroke-linecap="round" stroke-linejoin="round"/>
<path d="M287.182 115.868H280.875V117.543H287.182V115.868Z" fill="white" stroke="#263238" stroke-width="0.772" stroke-linecap="round" stroke-linejoin="round"/>
<path d="M285.507 112.718H282.72V115.891H285.507V112.718Z" fill="white" stroke="#263238" stroke-width="0.772" stroke-linecap="round" stroke-linejoin="round"/>
<path d="M257.244 44.1642H240.985V55.1652H257.244V44.1642Z" fill="#CCCCCC" stroke="#263238" stroke-width="0.772" stroke-linecap="round" stroke-linejoin="round"/>
<path d="M257.244 44.1642H240.985V48.0087H257.244V44.1642Z" fill="white" stroke="#263238" stroke-width="0.772" stroke-linecap="round" stroke-linejoin="round"/>
<path d="M397.578 184.159H390.398V208.554H397.578V184.159Z" fill="white" stroke="#263238" stroke-width="0.772" stroke-linecap="round" stroke-linejoin="round"/>
<path d="M397.578 184.159H390.398V190.782H397.578V184.159Z" fill="#263238" stroke="#263238" stroke-width="0.772" stroke-linecap="round" stroke-linejoin="round"/>
<path d="M410.524 188.683H399.739V208.554H410.524V188.683Z" fill="white" stroke="#263238" stroke-width="0.772" stroke-linecap="round" stroke-linejoin="round"/>
<path d="M410.524 188.683H399.739V194.079H410.524V188.683Z" fill="#263238" stroke="#263238" stroke-width="0.772" stroke-linecap="round" stroke-linejoin="round"/>
<path d="M124.707 178.94H113.914V208.554H124.707V178.94Z" fill="#263238" stroke="#263238" stroke-width="0.772" stroke-linecap="round" stroke-linejoin="round"/>
<path d="M124.707 178.94H113.914V186.976H124.707V178.94Z" fill="white" stroke="#263238" stroke-width="0.772" stroke-linecap="round" stroke-linejoin="round"/>
<path d="M248.729 205.443C248.729 205.443 256.093 205.335 259.143 206.701C262.192 208.067 264.925 213.116 265.558 217.957C266.191 222.797 267.658 255.283 267.588 258.633C267.519 261.984 265.272 265.998 263.065 267.257C260.857 268.515 256.541 269.573 256.541 269.573L255.908 269.303C255.908 269.303 260.749 264.941 261.065 261.266C261.382 257.591 259.382 234.447 259.382 234.447L257.838 215.1C257.838 215.1 254.889 210.468 252.581 208.477C250.273 206.485 248.729 205.443 248.729 205.443Z" fill="#CCCCCC" stroke="#263238" stroke-width="0.772" stroke-linecap="round" stroke-linejoin="round"/>
<path d="M254.001 207.002C254.001 207.002 257.499 210.021 258.217 211.341C258.67 212.186 259.035 213.076 259.305 213.996H262.802C262.802 213.996 260.988 209.171 259.066 207.967C257.144 206.763 254.001 207.002 254.001 207.002Z" fill="white"/>
<path d="M215.734 205.705C213.953 207.267 212.697 209.34 212.136 211.642C211.086 215.641 211.82 223.423 211.82 223.739C211.82 224.056 213.086 248.659 213.611 251.601C214.136 254.542 215.927 260.965 219.918 262.54C223.909 264.115 258.719 266.354 258.719 266.354C258.136 267.095 257.504 267.796 256.827 268.453C255.878 269.341 253.361 268.453 253.361 268.453L214.552 264.671C214.552 264.671 210.561 263.296 208.245 255.831C205.929 248.366 205.196 223.654 205.196 223.654C205.196 223.654 204.354 213.665 205.929 210.723C207.504 207.782 210.353 205.25 212.105 205.149C213.858 205.049 216.521 205.149 216.521 205.149L215.734 205.705Z" fill="#263238" stroke="#263238" stroke-width="0.772" stroke-linecap="round" stroke-linejoin="round"/>
<path d="M254.38 269.441C247.169 269.441 218.868 266.353 215.054 265.481C209.959 264.308 207.102 255.893 206.5 253.044C205.821 249.825 204.292 222.164 204.292 219.848C204.292 219.64 204.292 219.385 204.292 219.076C204.238 216.567 204.122 211.356 206.994 207.38C210.128 203.026 215.262 203.845 216.034 203.991C218.088 204.038 246.289 204.694 249.832 205.705C253.561 206.771 257.946 212.028 258.687 216.312C259.382 220.311 262.092 256.611 261.551 260.316C261.011 264.022 258.718 268.453 255.893 269.264C255.396 269.378 254.889 269.438 254.38 269.441ZM214.236 205.589C213.103 205.549 211.978 205.785 210.958 206.279C209.938 206.773 209.054 207.509 208.384 208.423C205.844 211.943 205.952 216.768 206.006 219.084C206.006 219.385 206.006 219.647 206.006 219.856C206.006 222.311 207.55 249.74 208.175 252.674C208.832 255.762 211.572 262.903 215.448 263.798C219.701 264.779 253.167 268.26 255.422 267.658C257.251 267.133 259.367 263.536 259.853 260.108C260.339 256.68 257.661 220.404 256.997 216.614C256.333 212.823 252.504 208.253 249.362 207.35C246.544 206.578 224.256 205.883 215.911 205.697H215.741C215.24 205.602 214.73 205.558 214.22 205.566L214.236 205.589Z" fill="#CCCCCC" stroke="#263238" stroke-width="0.772" stroke-linecap="round" stroke-linejoin="round"/>
<path d="M249.833 205.728C249.833 205.728 255.654 206.624 256.433 206.037C257.213 205.45 256.626 201.56 255.746 201.266C254.866 200.973 240.468 200.263 231.042 199.583C221.616 198.904 215.139 199.583 214.452 201.753C213.765 203.922 216.637 204.285 216.637 204.285L247.239 205.458L249.833 205.728Z" fill="#263238" stroke="#263238" stroke-width="0.772" stroke-linecap="round" stroke-linejoin="round"/>
<path d="M204.555 165.855C204.306 165.531 204.006 165.249 203.667 165.021C202.988 164.562 202.16 164.38 201.351 164.511V164.38L134.11 169.853L141.475 239.604L205.057 232.131C206.627 232.006 208.141 231.494 209.465 230.641C211.935 229.159 214.413 228.41 214.66 216.791C214.907 205.172 206.037 167.839 204.555 165.855Z" fill="#263238" stroke="#263238" stroke-width="0.772" stroke-linecap="round" stroke-linejoin="round"/>
<path d="M130.52 173.945L137.275 239.858C137.275 239.858 139.004 241.14 141.475 239.604C143.945 238.067 146.423 237.288 146.67 225.26C146.917 213.232 138.263 173.281 136.781 171.22C136.535 170.885 136.235 170.593 135.893 170.355C133.446 168.68 130.211 170.919 130.52 173.945Z" fill="#263238" stroke="#263238" stroke-width="0.772" stroke-linecap="round" stroke-linejoin="round"/>
<path d="M138.665 174.817C138.665 174.817 146.138 216.807 146.701 225.26C147.265 233.713 144.617 236.369 144.617 236.369" stroke="#707070" stroke-width="0.772" stroke-linecap="round" stroke-linejoin="round"/>
<path d="M201.197 280.041H205.18V296.701C205.18 297.035 205.048 297.355 204.812 297.591C204.576 297.827 204.256 297.959 203.922 297.959H202.463C202.129 297.959 201.809 297.827 201.573 297.591C201.337 297.355 201.204 297.035 201.204 296.701V280.041H201.197Z" fill="#CCCCCC" stroke="#263238" stroke-width="0.772" stroke-linecap="round" stroke-linejoin="round"/>
<path d="M269.503 338.574C269.36 338.571 269.218 338.553 269.079 338.52C264.709 337.408 254.349 334.66 252.604 332.9C250.968 331.263 239.249 297.612 232.409 277.702C232.318 277.486 232.273 277.253 232.276 277.019C232.279 276.784 232.33 276.553 232.426 276.339C232.522 276.125 232.661 275.933 232.834 275.775C233.007 275.617 233.211 275.496 233.433 275.42C233.654 275.343 233.889 275.313 234.123 275.332C234.357 275.35 234.585 275.416 234.792 275.526C234.999 275.635 235.181 275.787 235.328 275.97C235.474 276.153 235.582 276.364 235.643 276.59C242.321 296.045 253.399 327.542 255.09 330.538C256.348 331.41 263.69 333.626 269.92 335.208C270.329 335.305 270.687 335.55 270.927 335.895C271.167 336.24 271.271 336.661 271.219 337.078C271.168 337.495 270.964 337.878 270.647 338.154C270.331 338.43 269.923 338.58 269.503 338.574Z" fill="#CCCCCC" stroke="#263238" stroke-width="0.772" stroke-linecap="round" stroke-linejoin="round"/>
<path d="M260.579 339.693C260.438 339.695 260.298 339.676 260.162 339.639C255.785 338.535 243.657 334.691 241.912 332.938C240.268 331.302 228.549 297.65 221.717 277.74C221.569 277.313 221.598 276.844 221.796 276.437C221.994 276.03 222.346 275.719 222.774 275.571C223.202 275.424 223.671 275.452 224.078 275.651C224.485 275.849 224.796 276.201 224.944 276.629C231.629 296.083 242.7 327.581 244.39 330.576C245.649 331.449 254.766 334.753 260.996 336.328C261.405 336.425 261.763 336.669 262.003 337.014C262.243 337.359 262.347 337.78 262.295 338.197C262.243 338.614 262.04 338.997 261.723 339.273C261.406 339.549 260.999 339.699 260.579 339.693Z" fill="#CCCCCC" stroke="#263238" stroke-width="0.772" stroke-linecap="round" stroke-linejoin="round"/>
<path d="M224.944 276.59C224.796 276.162 224.485 275.81 224.078 275.612C223.671 275.414 223.202 275.385 222.774 275.533C222.346 275.68 221.994 275.991 221.796 276.398C221.598 276.805 221.569 277.274 221.717 277.702C222.45 279.84 223.261 282.141 224.033 284.534L227.499 284.094L224.944 276.59Z" fill="#263238" stroke="#263238" stroke-width="0.772" stroke-linecap="round" stroke-linejoin="round"/>
<path d="M235.643 276.59C235.582 276.364 235.474 276.153 235.328 275.97C235.181 275.787 234.999 275.635 234.792 275.526C234.585 275.416 234.357 275.35 234.123 275.332C233.889 275.313 233.654 275.343 233.433 275.42C233.211 275.496 233.007 275.617 232.834 275.775C232.661 275.933 232.522 276.125 232.426 276.339C232.33 276.553 232.279 276.784 232.276 277.019C232.273 277.253 232.318 277.486 232.409 277.702C233.011 279.447 233.644 281.299 234.316 283.229L237.774 282.782L235.643 276.59Z" fill="#263238" stroke="#263238" stroke-width="0.772" stroke-linecap="round" stroke-linejoin="round"/>
<path d="M221.716 277.702C222.45 279.84 223.26 282.141 224.032 284.534H224.171L221.716 277.702Z" fill="#263238" stroke="#263238" stroke-width="0.772" stroke-linecap="round" stroke-linejoin="round"/>
<path d="M203.976 242.777C203.976 242.777 146.153 249.663 142.71 251.215C139.267 252.766 138.919 253.446 139.097 254.48C139.275 255.515 139.267 274.622 140.641 274.961C142.015 275.301 197.954 282.681 199.846 282.535C201.737 282.388 266.624 274.104 267.488 273.07C268.353 272.035 268.361 272.035 268.361 270.985C268.361 269.936 267.326 250.334 266.639 248.96C265.952 247.586 209.843 242.784 206.917 242.784L203.976 242.777Z" fill="#263238" stroke="#263238" stroke-width="0.772" stroke-linecap="round" stroke-linejoin="round"/>
<path d="M142.702 254.951C142.702 254.951 197.862 260.262 201.907 260.262C205.952 260.262 263.142 250.913 263.142 250.913" stroke="#707070" stroke-width="0.772" stroke-linecap="round" stroke-linejoin="round"/>
<path d="M171.089 212.499C171.089 212.499 178.446 212.391 181.495 213.757C184.545 215.124 187.285 220.172 187.911 225.013C188.536 229.853 190.018 262.339 189.91 265.705C189.802 269.071 187.594 273.07 185.386 274.328C183.178 275.587 178.238 276.374 178.238 276.374C178.238 276.374 183.078 272.012 183.395 268.337C183.711 264.663 181.712 241.518 181.712 241.518L180.168 222.172C180.168 222.172 177.226 217.54 174.91 215.548C172.594 213.556 171.089 212.499 171.089 212.499Z" fill="#CCCCCC" stroke="#263238" stroke-width="0.772" stroke-linecap="round" stroke-linejoin="round"/>
<path d="M176.261 213.857C176.261 213.857 179.758 216.868 180.476 218.196C180.929 219.041 181.294 219.931 181.564 220.852H185.062C185.062 220.852 183.247 216.027 181.325 214.822C179.403 213.618 176.261 213.857 176.261 213.857Z" fill="white"/>
<path d="M136.619 235.265C141.288 235.265 145.072 229.918 145.072 223.322C145.072 216.726 141.288 211.379 136.619 211.379C131.95 211.379 128.166 216.726 128.166 223.322C128.166 229.918 131.95 235.265 136.619 235.265Z" fill="#CCCCCC" stroke="#263238" stroke-width="0.772" stroke-linecap="round" stroke-linejoin="round"/>
<path d="M138.116 212.761C136.336 214.323 135.079 216.396 134.519 218.698C133.461 222.697 134.202 230.479 134.202 230.795C134.202 231.112 135.461 255.715 135.986 258.664C136.511 261.613 138.302 268.021 142.301 269.596C146.3 271.171 181.124 273.386 181.124 273.386C180.542 274.128 179.91 274.829 179.233 275.486C178.283 276.374 175.759 275.486 175.759 275.486L136.958 271.703C136.958 271.703 132.959 270.337 130.651 262.864C128.343 255.391 127.563 230.687 127.563 230.687C127.563 230.687 126.722 220.697 128.335 217.756C129.949 214.815 132.751 212.283 134.511 212.182C136.271 212.082 138.927 212.182 138.927 212.182L138.116 212.761Z" fill="#263238" stroke="#263238" stroke-width="0.772" stroke-linecap="round" stroke-linejoin="round"/>
<path d="M176.755 276.474C169.545 276.474 141.243 273.386 137.437 272.514C132.342 271.341 129.478 262.926 128.876 260.077C128.204 256.858 126.675 229.197 126.675 226.881C126.675 226.673 126.675 226.418 126.675 226.109C126.621 223.6 126.506 218.389 129.37 214.413C132.504 210.059 137.638 210.878 138.41 211.024C140.471 211.071 168.672 211.727 172.216 212.738C175.937 213.803 180.322 219.061 181.071 223.345C181.765 227.344 184.467 263.644 183.935 267.349C183.402 271.055 181.094 275.486 178.276 276.297C177.777 276.411 177.267 276.471 176.755 276.474ZM136.611 212.622C135.479 212.582 134.353 212.818 133.333 213.312C132.313 213.806 131.43 214.542 130.759 215.456C128.227 218.976 128.335 223.801 128.382 226.117C128.382 226.418 128.382 226.68 128.382 226.889C128.382 229.344 129.926 256.773 130.551 259.707C131.207 262.795 133.948 269.943 137.815 270.831C142.077 271.812 175.543 275.293 177.79 274.691C179.619 274.166 181.742 270.569 182.229 267.141C182.715 263.713 180.028 227.437 179.372 223.646C178.716 219.856 174.871 215.293 171.729 214.382C168.919 213.61 146.632 212.916 138.279 212.73H138.117C137.614 212.644 137.105 212.607 136.596 212.622H136.611Z" fill="#CCCCCC" stroke="#263238" stroke-width="0.772" stroke-linecap="round" stroke-linejoin="round"/>
<path d="M172.2 212.784C172.2 212.784 178.013 213.68 178.793 213.101C179.573 212.522 178.986 208.616 178.114 208.322C177.241 208.029 162.836 207.319 153.41 206.639C143.984 205.96 137.499 206.639 136.819 208.809C136.14 210.978 139.058 211.341 139.058 211.341L169.66 212.514L172.2 212.784Z" fill="#263238" stroke="#263238" stroke-width="0.772" stroke-linecap="round" stroke-linejoin="round"/>
<path d="M292.794 195.098L292.022 237.735L296.855 290.834L298.847 331.024L297.388 334.668C297.388 334.668 295.936 339.763 294.84 341.214C293.744 342.666 281.376 347.769 282.488 351.412C283.6 355.056 293.041 352.864 294.84 352.864C296.639 352.864 305.764 348.865 305.764 348.865C305.764 348.865 310.859 349.228 312.31 347.406C312.916 346.579 313.329 345.627 313.519 344.62C313.709 343.612 313.67 342.575 313.407 341.585C313.044 339.763 313.044 334.637 313.044 331.387C313.044 328.137 312.31 320.833 312.31 319.745C312.31 318.656 316.317 246.583 316.317 246.583L320.316 229.838L327.596 254.225L333.772 312.465L334.498 333.209L336.32 339.763C336.32 339.763 336.682 347.043 337.045 348.131C337.408 349.22 342.874 353.589 345.422 355.079C347.969 356.569 357.774 358.723 358.546 354.717C359.318 350.71 356.361 346.348 354.176 344.163L351.991 341.979C351.991 341.979 350.903 334.699 350.54 332.514C350.177 330.329 349.081 331.055 349.444 327.781C349.806 324.508 350.177 277.185 350.177 272.089C350.177 266.994 352.354 226.233 351.628 221.137C350.903 216.042 349.76 193.785 349.76 193.785L294.439 188.69L292.794 195.098Z" fill="#263238" stroke="#263238" stroke-width="0.772" stroke-linecap="round" stroke-linejoin="round"/>
<path d="M306.96 111.591L294.771 119.133C294.771 119.133 297.658 128.752 295.411 138.217C293.165 147.682 292.686 151.21 292.686 151.21L293.327 182.808L291.397 196.758C291.397 196.758 300.383 199.166 304.39 200.448C308.396 201.729 316.417 203.976 316.417 203.976L319.791 196.92L322.03 204.292C322.03 204.292 334.22 204.292 338.551 202.532C342.882 200.772 352.184 195.955 352.184 195.955L349.297 157.625V148.485L348.34 116.246L336.76 112.231L332.429 110.147L308.69 110.633L306.96 111.591Z" fill="#263238" stroke="#263238" stroke-width="0.772" stroke-linecap="round" stroke-linejoin="round"/>
<path d="M348.317 116.246C348.317 116.246 353.999 117.52 357.334 122.283C360.669 127.046 370.365 147.396 370.365 147.396C370.365 147.396 373.384 153.912 374.496 155.981L375.615 158.05C375.615 158.05 377.522 163.925 376.564 166.789C375.607 169.653 370.388 171.714 368.775 172.193C367.153 172.565 365.507 172.823 363.85 172.965L357.813 161.385L348.911 145.945C348.911 145.945 347.877 117.674 348.317 116.246Z" stroke="#263238" stroke-width="0.772" stroke-linecap="round" stroke-linejoin="round"/>
<path d="M375.746 158.49C375.669 158.212 375.615 158.05 375.615 158.05L374.496 155.957C373.384 153.889 370.365 147.373 370.365 147.373C370.365 147.373 360.669 127.031 357.334 122.26C353.999 117.489 348.317 116.223 348.317 116.223C347.877 117.651 348.911 145.945 348.911 145.945L356.685 159.408C361.04 158.482 369.493 157.046 375.746 158.49Z" fill="#7F56D9" stroke="#263238" stroke-width="0.772" stroke-linecap="round" stroke-linejoin="round"/>
<path d="M365.277 153.595C359.403 156.297 356.685 159.431 356.685 159.431" stroke="#263238" stroke-width="0.772" stroke-linecap="round" stroke-linejoin="round"/>
<path d="M367.508 152.646C367.508 152.646 370.681 152.483 372.14 153.117" stroke="#263238" stroke-width="0.772" stroke-linecap="round" stroke-linejoin="round"/>
<path d="M348.911 145.968L351.451 129.123" stroke="#263238" stroke-width="0.772" stroke-linecap="round" stroke-linejoin="round"/>
<path d="M353.675 128.644L351.451 138.974" stroke="#263238" stroke-width="0.772" stroke-linecap="round" stroke-linejoin="round"/>
<path d="M325.072 130.188L338.103 112.702L336.768 112.239L332.437 110.147L308.698 110.633L306.938 111.591L303.433 113.76L320.903 134.836L325.072 130.188Z" fill="#7F56D9" stroke="#263238" stroke-width="0.772" stroke-linecap="round" stroke-linejoin="round"/>
<path d="M315.028 113.984L317.776 116.068L320.239 119.859L317.969 131.045L320.903 134.836L325.072 130.188L321.852 119.673L322.895 115.976L326.685 113.984L320.432 108.109L316.17 112.563L315.028 113.984Z" fill="#263238" stroke="#263238" stroke-width="0.772" stroke-linecap="round" stroke-linejoin="round"/>
<path d="M310.11 101.099L310.234 107.229L320.231 114.347L328.978 106.603L328.353 98.9761L310.11 101.099Z" fill="#C8856A" stroke="#263238" stroke-width="0.772" stroke-linecap="round" stroke-linejoin="round"/>
<path d="M312.449 70.6515C312.449 70.6515 306.976 73.2917 305.463 77.4451C303.949 81.5984 306.597 98.0189 307.539 99.3467C308.481 100.675 314.364 106.634 316.803 107.198C319.243 107.761 322.462 107.013 323.412 106.82C324.361 106.627 329.047 100.644 329.804 98.7754C330.56 96.9072 331.309 80.4636 329.989 76.5032C328.669 72.5429 320.71 67.4631 312.449 70.6515Z" fill="#C8856A" stroke="#263238" stroke-width="0.772" stroke-linecap="round" stroke-linejoin="round"/>
<path d="M305.092 87.3962C304.513 87.4201 303.961 87.6502 303.536 88.0452C303.111 88.4401 302.842 88.9739 302.776 89.5501C302.375 91.7039 306.281 96.1429 306.281 96.1429L305.092 87.3962Z" fill="#C8856A" stroke="#263238" stroke-width="0.772" stroke-linecap="round" stroke-linejoin="round"/>
<path d="M331.078 85.775C331.078 85.775 333.502 84.0225 333.502 86.8558C333.502 89.689 330.545 94.7996 330.545 94.7996L331.078 85.775Z" fill="#C8856A" stroke="#263238" stroke-width="0.772" stroke-linecap="round" stroke-linejoin="round"/>
<path d="M315.144 83.7293C314.067 83.3498 312.917 83.2268 311.785 83.3702C310.652 83.5136 309.569 83.9194 308.621 84.5553" stroke="#263238" stroke-width="0.772" stroke-linecap="round" stroke-linejoin="round"/>
<path d="M320.084 82.6947C320.084 82.6947 324.956 81.1507 326.608 83.0035" stroke="#263238" stroke-width="0.772" stroke-linecap="round" stroke-linejoin="round"/>
<path d="M316.07 93.0473C316.07 93.0473 318.456 94.0818 319.49 93.8811C320.272 93.6661 321.009 93.3131 321.667 92.8389" stroke="#263238" stroke-width="0.772" stroke-linecap="round" stroke-linejoin="round"/>
<path d="M314.31 97.6097C314.31 97.6097 320.007 98.953 323.219 96.6756" stroke="#263238" stroke-width="0.772" stroke-linecap="round" stroke-linejoin="round"/>
<path d="M312.658 88.4924C313.114 88.4924 313.484 87.9601 313.484 87.3035C313.484 86.6469 313.114 86.1146 312.658 86.1146C312.201 86.1146 311.832 86.6469 311.832 87.3035C311.832 87.9601 312.201 88.4924 312.658 88.4924Z" fill="#263238"/>
<path d="M323.111 87.7127C323.567 87.7127 323.937 87.1804 323.937 86.5238C323.937 85.8672 323.567 85.3349 323.111 85.3349C322.655 85.3349 322.285 85.8672 322.285 86.5238C322.285 87.1804 322.655 87.7127 323.111 87.7127Z" fill="#263238"/>
<path d="M315.036 88.284C314.388 89.2111 313.583 90.0183 312.658 90.6695" stroke="#263238" stroke-width="0.772" stroke-linecap="round" stroke-linejoin="round"/>
<path d="M321.15 87.9752C322.321 88.5697 323.531 89.0855 324.771 89.5192" stroke="#263238" stroke-width="0.772" stroke-linecap="round" stroke-linejoin="round"/>
<path d="M330.73 85.3504C330.73 81.5676 330.53 78.0627 330.005 76.5032C328.685 72.5352 320.741 67.4631 312.449 70.6515C312.449 70.6515 306.976 73.2917 305.463 77.4451C304.884 79.0431 304.915 82.4708 305.239 86.1532L305.301 86.215C305.301 86.215 307.895 83.899 307.686 82.4862C307.478 81.0735 306.652 78.9659 306.652 77.723C306.652 76.4801 307.787 72.7513 310.172 72.5429C312.558 72.3344 316.904 75.2372 318.865 74.7199C320.826 74.2027 322.802 72.5429 324.771 72.2341C325.631 72.1646 326.486 72.4263 327.161 72.9657C327.835 73.5052 328.278 74.2818 328.399 75.1368C328.399 76.3797 327.565 80.3092 327.874 81.3128C328.586 82.9408 329.382 84.5306 330.26 86.076L330.73 85.3504Z" fill="#263238" stroke="#263238" stroke-width="0.772" stroke-linecap="round" stroke-linejoin="round"/>
<path d="M317.483 112.347L312.48 118.971L305.239 111.73L309.238 106.225L317.483 112.347Z" fill="#7F56D9" stroke="#263238" stroke-width="0.772" stroke-linecap="round" stroke-linejoin="round"/>
<path d="M323.234 111.73L328.353 118.346L333.734 109.475L329.627 105.268L323.234 111.73Z" fill="#7F56D9" stroke="#263238" stroke-width="0.772" stroke-linecap="round" stroke-linejoin="round"/>
<path d="M294.747 119.133C294.747 119.133 288.649 121.534 286.086 123.943C283.523 126.351 279.346 135.654 279.346 136.295C279.346 136.935 267.156 156.822 267.156 156.822L236.523 181.843C236.523 181.843 227.707 181.071 226.904 181.364C226.101 181.657 223.044 181.681 221.77 181.681C220.496 181.681 219.362 182.159 219.686 183.124C220.01 184.089 222.89 184.406 222.89 184.406L226.688 185.857L220.805 191.469C220.805 191.469 213.749 196.603 213.587 197.406C213.425 198.209 213.911 198.178 215.031 197.885C216.15 197.591 220.844 195.229 220.844 195.229C220.844 195.229 214.884 199.599 214.992 200.131C215.1 200.664 215.201 201.405 216.158 201.197C217.115 200.988 222.55 198.001 222.55 198.001C222.55 198.001 216.799 201.861 217.864 202.687C218.929 203.513 219.995 202.154 219.995 202.154L227.452 198.533C227.452 198.533 222.442 202.795 222.048 203.003C221.654 203.212 222.82 203.644 224.364 203.111C225.908 202.579 231.389 198.742 231.389 198.742C231.389 198.742 234.161 196.827 235.759 195.87C237.357 194.913 240.229 191.716 240.553 191.284C240.877 190.852 273.888 174.887 276.443 171.691C278.999 168.495 292.655 151.217 292.655 151.217C294.169 145.544 295.37 139.792 296.253 133.986C297.534 125.139 294.747 119.133 294.747 119.133Z" fill="#C8856A" stroke="#263238" stroke-width="0.772" stroke-linecap="round" stroke-linejoin="round"/>
<path d="M279.346 136.295C279.346 136.758 272.923 147.365 269.403 153.14L283.801 162.404L292.663 151.21C294.177 145.536 295.378 139.784 296.261 133.979C297.535 125.139 294.717 119.133 294.717 119.133C294.717 119.133 288.618 121.534 286.055 123.943C283.492 126.351 279.346 135.654 279.346 136.295Z" fill="#7F56D9" stroke="#263238" stroke-width="0.772" stroke-linecap="round" stroke-linejoin="round"/>
<path d="M272.46 147.079L287.082 157.725" stroke="#263238" stroke-width="0.772" stroke-linecap="round" stroke-linejoin="round"/>
<path d="M285.491 134.998L292.663 151.21L288.193 133.732" stroke="#263238" stroke-width="0.772" stroke-linecap="round" stroke-linejoin="round"/>
<path d="M227.321 186.977C227.321 186.977 230.185 189.833 231.953 189.995C233.721 190.157 235.767 188.559 235.767 188.559" stroke="#263238" stroke-width="0.772" stroke-linecap="round" stroke-linejoin="round"/>
<path d="M220.844 195.221L224.781 197.939" stroke="#263238" stroke-width="0.772" stroke-linecap="round" stroke-linejoin="round"/>
<path d="M334.536 174.632C334.536 174.632 334.598 174.941 334.698 175.489C335.339 178.94 337.663 191.971 337.663 199.637C337.675 205.069 338.363 210.479 339.709 215.741L349.559 213.58L344.634 172.108L334.536 174.632Z" fill="#CCCCCC" stroke="#263238" stroke-width="0.772" stroke-linecap="round" stroke-linejoin="round"/>
<path d="M360.738 158.652C360.738 158.652 355.45 159.733 354.006 160.451C352.563 161.168 334.536 165.26 333.695 165.384C332.854 165.507 327.442 163.84 326.361 163.84C325.28 163.84 318.911 165.384 318.07 165.384C317.228 165.384 315.661 164.179 315.422 165.021C315.286 165.39 315.259 165.79 315.346 166.173C315.432 166.557 315.627 166.907 315.908 167.182L316.503 167.785C316.503 167.785 315.067 169.328 315.182 170.309C315.358 171.142 315.641 171.949 316.024 172.71L317.568 172.949C317.568 172.949 321.528 179.202 322.37 179.681C323.211 180.16 325.257 180.167 329.225 179.805C333.193 179.442 337.161 176.315 337.161 176.315L363.826 172.988C363.826 172.988 371.546 172.386 374.063 169.591C375.013 168.517 375.728 167.256 376.162 165.889C376.597 164.523 376.742 163.08 376.587 161.655C376.391 160.42 376.057 159.21 375.591 158.05C375.591 158.05 364.706 157.085 360.738 158.652Z" fill="#C8856A" stroke="#263238" stroke-width="0.772" stroke-linecap="round" stroke-linejoin="round"/>
<path d="M317.591 172.949L322.038 172.471" stroke="#263238" stroke-width="0.772" stroke-linecap="round" stroke-linejoin="round"/>
<path d="M316.502 167.785L319.629 165.739" stroke="#263238" stroke-width="0.772" stroke-linecap="round" stroke-linejoin="round"/>
<path d="M336.343 165.26C336.343 165.26 340.303 169.344 340.79 173.675C341.276 178.006 345.591 207.211 346.433 212.136C347.274 217.061 348.363 222.118 348.363 222.118C348.363 222.118 360.622 218.628 364.343 215.988C368.064 213.348 373.484 210.337 373.484 210.337C373.484 210.337 369.153 184.251 368.435 178.6C367.717 172.949 368.435 165.476 365.185 162.133C361.935 158.791 359.781 158.528 359.781 158.528L336.343 165.26Z" fill="white" stroke="#263238" stroke-width="0.772" stroke-linecap="round" stroke-linejoin="round"/>
<path d="M391.232 239.858C391.232 239.858 389.572 244.436 386.037 245.054C382.501 245.672 376.271 238.824 380.223 235.288C384.176 231.752 389.565 237.373 391.232 239.858Z" fill="#7F56D9" stroke="#263238" stroke-width="0.579" stroke-linecap="round" stroke-linejoin="round"/>
<path d="M396.637 217.424C396.637 217.424 391.441 230.1 393.549 236.33C395.656 242.56 408.51 247.138 412.254 239.032C415.998 230.926 407.684 219.501 404.534 217.007C401.384 214.514 397.679 215.347 396.637 217.424Z" fill="#7F56D9" stroke="#263238" stroke-width="0.579" stroke-linecap="round" stroke-linejoin="round"/>
<path d="M426.976 222.828C426.976 222.828 418.036 230.926 417.002 239.04C415.967 247.154 421.989 250.049 428.219 249.014C434.449 247.98 437.568 232.185 435.7 224.913C433.831 217.64 426.976 222.828 426.976 222.828Z" fill="#7F56D9" stroke="#263238" stroke-width="0.579" stroke-linecap="round" stroke-linejoin="round"/>
<path d="M428.636 267.704C428.636 267.704 418.662 268.121 418.245 272.9C417.828 277.679 422.606 278.705 427.393 274.56C432.179 270.414 432.797 267.897 428.636 267.704Z" fill="#7F56D9" stroke="#263238" stroke-width="0.579" stroke-linecap="round" stroke-linejoin="round"/>
<path d="M418.415 274.074C418.415 274.074 426.274 270.484 429.809 269.858" stroke="#263238" stroke-width="0.579" stroke-miterlimit="10"/>
<path d="M430.859 298.97C430.859 298.97 423.533 292.192 419.851 295.265C416.168 298.337 418.801 302.468 425.116 302.923C431.431 303.379 433.638 302.066 430.859 298.97Z" fill="#7F56D9" stroke="#263238" stroke-width="0.579" stroke-linecap="round" stroke-linejoin="round"/>
<path d="M392.213 296.979C392.213 296.979 402.31 287.63 407.39 291.868C412.47 296.106 408.834 301.788 400.133 302.421C391.433 303.054 388.376 301.24 392.213 296.979Z" fill="#7F56D9" stroke="#263238" stroke-width="0.579" stroke-linecap="round" stroke-linejoin="round"/>
<path d="M408.34 293.134C408.34 293.134 397.184 297.326 393.139 300.183" stroke="#263238" stroke-width="0.579" stroke-miterlimit="10"/>
<path d="M403.909 277.679C403.909 277.679 402.874 282.666 399.13 284.534C395.386 286.402 388.739 282.457 392.275 276.428C395.811 270.399 402.041 275.185 403.909 277.679Z" fill="#7F56D9" stroke="#263238" stroke-width="0.579" stroke-linecap="round" stroke-linejoin="round"/>
<path d="M395.185 262.092C395.185 262.092 393.309 257.939 386.037 260.641C378.764 263.343 375.862 267.496 380.432 268.947C385.002 270.399 395.185 262.092 395.185 262.092Z" fill="#7F56D9" stroke="#263238" stroke-width="0.579" stroke-linecap="round" stroke-linejoin="round"/>
<path d="M393.788 261.907C393.788 261.907 386.068 262.741 381.922 266.276" stroke="#263238" stroke-width="0.579" stroke-miterlimit="10"/>
<path d="M415.959 212.229C415.959 212.229 417.21 215.139 419.704 214.545C422.197 213.95 422.792 210.183 426.767 211.217C430.743 212.252 434.04 216.83 434.04 214.753C434.04 212.676 429.053 207.272 423.44 207.272C417.828 207.272 416.168 209.527 415.959 212.229Z" fill="#7F56D9" stroke="#263238" stroke-width="0.579" stroke-linecap="round" stroke-linejoin="round"/>
<path d="M395.185 262.092C395.185 262.092 404.133 260.378 407.854 270.314C408.228 271.307 408.54 272.323 408.788 273.356" stroke="#263238" stroke-width="0.579" stroke-miterlimit="10"/>
<path d="M432.519 252.457C432.519 252.457 434.395 248.296 441.667 250.998C448.939 253.7 451.842 257.854 447.272 259.313C442.702 260.772 432.519 252.457 432.519 252.457Z" fill="#7F56D9" stroke="#263238" stroke-width="0.579" stroke-linecap="round" stroke-linejoin="round"/>
<path d="M434.187 252.743C434.187 252.743 441.675 252.326 445.218 256.704" stroke="#263238" stroke-width="0.579" stroke-miterlimit="10"/>
<path d="M432.519 252.457C430.422 252.164 428.285 252.455 426.343 253.299" stroke="#263238" stroke-width="0.579" stroke-miterlimit="10"/>
<path d="M399.948 245.015C395.563 240.538 391.232 239.858 391.232 239.858C391.232 239.858 384.84 238.168 382.339 240.461" stroke="#263238" stroke-width="0.579" stroke-miterlimit="10"/>
<path d="M400.844 222.002L400.45 220.265" stroke="#263238" stroke-width="0.579" stroke-miterlimit="10"/>
<path d="M410.957 313.855C410.957 313.855 411.891 278.072 410.957 267.21C410.023 256.348 405.684 243.61 405.684 243.61L401.253 223.839" stroke="#263238" stroke-width="0.579" stroke-miterlimit="10"/>
<path d="M429.423 229.684L430.226 227.97" stroke="#263238" stroke-width="0.579" stroke-miterlimit="10"/>
<path d="M413.134 313.816C413.134 313.816 413.443 281.176 414.678 271.866C415.913 262.555 420.854 247.934 420.854 247.934L428.52 231.614" stroke="#263238" stroke-width="0.579" stroke-miterlimit="10"/>
<path d="M418.415 274.073C418.415 274.073 416.238 292.787 414.995 313.901" stroke="#263238" stroke-width="0.579" stroke-miterlimit="10"/>
<path d="M407.854 313.816C407.854 313.816 408.479 283.97 407.236 279.933C405.993 275.895 403.909 277.679 403.909 277.679C403.909 277.679 398.165 278.35 396.081 281.685" stroke="#263238" stroke-width="0.579" stroke-miterlimit="10"/>
<path d="M409.282 275.679C410.903 284.781 409.405 313.847 409.405 313.847" stroke="#263238" stroke-width="0.579" stroke-miterlimit="10"/>
<path d="M424.567 254.287C422.363 255.873 420.713 258.112 419.851 260.687C416.122 270.623 416.546 313.862 416.546 313.862" stroke="#263238" stroke-width="0.579" stroke-miterlimit="10"/>
<path d="M401.037 246.204C403.37 249.021 405.155 252.25 406.302 255.723C411.273 270.005 413.134 306.984 412.2 313.816" stroke="#263238" stroke-width="0.579" stroke-miterlimit="10"/>
<path d="M413.652 259.568C413.35 277.594 413.134 313.816 413.134 313.816" stroke="#263238" stroke-width="0.579" stroke-miterlimit="10"/>
<path d="M413.69 257.321C413.891 245.401 414.13 233.736 414.377 227.468C414.995 211.325 415.96 212.229 415.96 212.229C415.96 212.229 417.11 208.6 423.564 209.017" stroke="#263238" stroke-width="0.579" stroke-miterlimit="10"/>
<path d="M405.777 270.931C405.777 270.931 400.581 266.299 402.689 264.022C404.796 261.745 417.65 260.077 421.386 263.034C425.123 265.991 416.816 270.175 413.705 271.086C410.594 271.997 406.773 271.696 405.777 270.931Z" fill="#7F56D9" stroke="#263238" stroke-width="0.579" stroke-linecap="round" stroke-linejoin="round"/>
<path d="M410.532 267.125C410.46 267.583 410.422 268.045 410.417 268.507" stroke="#263238" stroke-width="0.579" stroke-miterlimit="10"/>
<path d="M412.323 261.721C411.786 262.829 411.339 263.978 410.988 265.157" stroke="#263238" stroke-width="0.579" stroke-miterlimit="10"/>
<path d="M405.777 301.217C405.777 301.217 400.581 296.585 402.689 294.269C404.796 291.953 417.65 290.324 421.386 293.281C425.123 296.238 416.816 300.422 413.705 301.333C410.594 302.244 406.773 301.981 405.777 301.217Z" fill="#7F56D9" stroke="#263238" stroke-width="0.579" stroke-linecap="round" stroke-linejoin="round"/>
<path d="M412.323 292.023C412.323 292.023 410.409 295.821 410.409 298.778" stroke="#263238" stroke-width="0.579" stroke-miterlimit="10"/>
<path d="M409.637 288.41C409.637 288.41 406.109 285.267 407.521 283.723C408.934 282.179 417.673 281.037 420.213 283.052C422.753 285.067 417.125 287.892 414.994 288.518C412.864 289.143 410.308 288.927 409.637 288.41Z" fill="#7F56D9" stroke="#263238" stroke-width="0.579" stroke-linecap="round" stroke-linejoin="round"/>
<path d="M414.076 282.164C413.354 283.612 412.914 285.184 412.779 286.796" stroke="#263238" stroke-width="0.579" stroke-miterlimit="10"/>
</svg>
