<svg width="21" height="21" viewBox="0 0 21 21" fill="none" xmlns="http://www.w3.org/2000/svg">
<path d="M6.75 6.78223H4.95C3.8299 6.78223 3.26984 6.78223 2.84202 7.00021C2.46569 7.19196 2.15973 7.49792 1.96799 7.87425C1.75 8.30207 1.75 8.86212 1.75 9.98223V16.5822C1.75 17.7023 1.75 18.2624 1.96799 18.6902C2.15973 19.0665 2.46569 19.3725 2.84202 19.5642C3.26984 19.7822 3.8299 19.7822 4.95 19.7822H6.75M6.75 6.78223H14.75M6.75 6.78223V5.78223C6.75 3.57309 8.54086 1.78223 10.75 1.78223C12.9591 1.78223 14.75 3.57309 14.75 5.78223V6.78223M6.75 6.78223V19.7822M14.75 6.78223H16.55C17.6701 6.78223 18.2302 6.78223 18.658 7.00021C19.0343 7.19196 19.3403 7.49792 19.532 7.87425C19.75 8.30207 19.75 8.86212 19.75 9.98223V16.5822C19.75 17.7023 19.75 18.2624 19.532 18.6902C19.3403 19.0665 19.0343 19.3725 18.658 19.5642C18.2302 19.7822 17.6701 19.7822 16.55 19.7822H14.75M14.75 6.78223V19.7822M6.75 19.7822H14.75" stroke="#F8F8FA" stroke-width="2" stroke-linecap="round"/>
</svg>
