<svg width="21" height="20" viewBox="0 0 21 20" fill="none" xmlns="http://www.w3.org/2000/svg">
<path d="M2.84202 18.346L3.29601 17.455H3.29601L2.84202 18.346ZM1.96799 17.472L2.85899 17.018L2.85899 17.018L1.96799 17.472ZM16.658 18.346L16.204 17.455H16.204L16.658 18.346ZM17.532 17.472L16.641 17.018V17.018L17.532 17.472ZM16.658 4.78198L16.204 5.67299L16.204 5.67299L16.658 4.78198ZM17.532 5.65601L16.641 6.11L17.532 5.65601ZM2.84202 4.78198L2.38803 3.89097H2.38803L2.84202 4.78198ZM1.96799 5.65601L1.07698 5.20202H1.07698L1.96799 5.65601ZM13.296 13.455L13.75 12.564L13.296 13.455ZM12.859 13.018L13.75 12.564L12.859 13.018ZM19.641 13.018L18.75 12.564L19.641 13.018ZM19.204 13.455L18.75 12.564L19.204 13.455ZM19.204 9.67299L18.75 10.564L19.204 9.67299ZM19.641 10.11L18.75 10.564L19.641 10.11ZM13.296 9.67299L13.75 10.564L13.296 9.67299ZM12.859 10.11L13.75 10.564L12.859 10.11ZM3.37861 3.63552C2.86583 3.84063 2.61641 4.4226 2.82152 4.93538C3.02664 5.44817 3.60861 5.69758 4.12139 5.49247L3.37861 3.63552ZM12.3786 1.11255L12.0072 0.184072V0.184072L12.3786 1.11255ZM12.75 4.56399C12.75 5.11628 13.1977 5.56399 13.75 5.56399C14.3023 5.56399 14.75 5.11628 14.75 4.56399H12.75ZM4.95 5.56399H14.55V3.56399H4.95V5.56399ZM14.55 17.564H4.95V19.564H14.55V17.564ZM2.75 15.364V7.76399H0.75V15.364H2.75ZM16.75 7.76399V9.81399H18.75V7.76399H16.75ZM16.75 13.7515V15.364H18.75V13.7515H16.75ZM4.95 17.564C4.37345 17.564 4.00117 17.5632 3.71784 17.5401C3.44617 17.5179 3.34545 17.4802 3.29601 17.455L2.38803 19.237C2.76641 19.4298 3.15963 19.5011 3.55497 19.5334C3.93864 19.5648 4.40645 19.564 4.95 19.564V17.564ZM0.75 15.364C0.75 15.9075 0.749222 16.3753 0.780569 16.759C0.81287 17.1544 0.884186 17.5476 1.07698 17.926L2.85899 17.018C2.8338 16.9685 2.79612 16.8678 2.77393 16.5962C2.75078 16.3128 2.75 15.9405 2.75 15.364H0.75ZM3.29601 17.455C3.10785 17.3591 2.95487 17.2061 2.85899 17.018L1.07698 17.926C1.3646 18.4905 1.82354 18.9494 2.38803 19.237L3.29601 17.455ZM14.55 19.564C15.0936 19.564 15.5614 19.5648 15.945 19.5334C16.3404 19.5011 16.7336 19.4298 17.112 19.237L16.204 17.455C16.1545 17.4802 16.0538 17.5179 15.7822 17.5401C15.4988 17.5632 15.1266 17.564 14.55 17.564V19.564ZM16.75 15.364C16.75 15.9405 16.7492 16.3128 16.7261 16.5962C16.7039 16.8678 16.6662 16.9685 16.641 17.018L18.423 17.926C18.6158 17.5476 18.6871 17.1544 18.7194 16.759C18.7508 16.3753 18.75 15.9075 18.75 15.364H16.75ZM17.112 19.237C17.6765 18.9494 18.1354 18.4905 18.423 17.926L16.641 17.018C16.5451 17.2061 16.3922 17.3591 16.204 17.455L17.112 19.237ZM14.55 5.56399C15.1266 5.56399 15.4988 5.56477 15.7822 5.58792C16.0538 5.61012 16.1545 5.64779 16.204 5.67299L17.112 3.89097C16.7336 3.69818 16.3404 3.62686 15.945 3.59456C15.5614 3.56321 15.0936 3.56399 14.55 3.56399V5.56399ZM18.75 7.76399C18.75 7.22044 18.7508 6.75264 18.7194 6.36896C18.6871 5.97362 18.6158 5.5804 18.423 5.20202L16.641 6.11C16.6662 6.15945 16.7039 6.26016 16.7261 6.53183C16.7492 6.81517 16.75 7.18744 16.75 7.76399H18.75ZM16.204 5.67299C16.3922 5.76886 16.5451 5.92184 16.641 6.11L18.423 5.20202C18.1354 4.63753 17.6765 4.17859 17.112 3.89097L16.204 5.67299ZM4.95 3.56399C4.40645 3.56399 3.93864 3.56321 3.55497 3.59456C3.15963 3.62686 2.76641 3.69818 2.38803 3.89097L3.29601 5.67299C3.34545 5.64779 3.44617 5.61012 3.71784 5.58792C4.00117 5.56477 4.37345 5.56399 4.95 5.56399V3.56399ZM2.75 7.76399C2.75 7.18744 2.75078 6.81517 2.77393 6.53183C2.79612 6.26016 2.8338 6.15945 2.85899 6.11L1.07698 5.20202C0.884186 5.5804 0.81287 5.97362 0.780569 6.36896C0.749222 6.75264 0.75 7.22044 0.75 7.76399H2.75ZM2.38803 3.89097C1.82354 4.17859 1.3646 4.63753 1.07698 5.20202L2.85899 6.11C2.95487 5.92184 3.10785 5.76886 3.29601 5.67299L2.38803 3.89097ZM14.35 10.564H18.15V8.56399H14.35V10.564ZM18.75 11.164V11.964H20.75V11.164H18.75ZM18.15 12.564H14.35V14.564H18.15V12.564ZM13.75 11.964V11.164H11.75V11.964H13.75ZM14.35 12.564C14.0535 12.564 13.8912 12.5632 13.7746 12.5537C13.6697 12.5451 13.6925 12.5347 13.75 12.564L12.842 14.346C13.1134 14.4843 13.3832 14.5284 13.6118 14.547C13.8287 14.5648 14.0865 14.564 14.35 14.564V12.564ZM11.75 11.964C11.75 12.2275 11.7492 12.4853 11.7669 12.7022C11.7856 12.9308 11.8297 13.2005 11.968 13.472L13.75 12.564C13.7793 12.6215 13.7689 12.6443 13.7603 12.5394C13.7508 12.4228 13.75 12.2605 13.75 11.964H11.75ZM13.75 12.564V12.564L11.968 13.472C12.1597 13.8483 12.4657 14.1543 12.842 14.346L13.75 12.564ZM18.75 11.964C18.75 12.2605 18.7492 12.4228 18.7397 12.5394C18.7311 12.6443 18.7207 12.6215 18.75 12.564L20.532 13.472C20.6703 13.2005 20.7144 12.9308 20.7331 12.7022C20.7508 12.4853 20.75 12.2275 20.75 11.964H18.75ZM18.15 14.564C18.4135 14.564 18.6713 14.5648 18.8882 14.547C19.1168 14.5284 19.3866 14.4843 19.658 14.346L18.75 12.564C18.8075 12.5347 18.8303 12.5451 18.7254 12.5537C18.6088 12.5632 18.4465 12.564 18.15 12.564V14.564ZM18.75 12.564V12.564L19.658 14.346C20.0343 14.1543 20.3403 13.8483 20.532 13.472L18.75 12.564ZM18.15 10.564C18.4465 10.564 18.6088 10.5648 18.7254 10.5743C18.8303 10.5829 18.8075 10.5933 18.75 10.564L19.658 8.78198C19.3866 8.64368 19.1168 8.59961 18.8882 8.58094C18.6713 8.56321 18.4135 8.56399 18.15 8.56399V10.564ZM20.75 11.164C20.75 10.9005 20.7508 10.6427 20.7331 10.4258C20.7144 10.1972 20.6703 9.92743 20.532 9.65601L18.75 10.564C18.7207 10.5065 18.7311 10.4837 18.7397 10.5886C18.7492 10.7052 18.75 10.8675 18.75 11.164H20.75ZM18.75 10.564L20.532 9.65601C20.3403 9.27969 20.0343 8.97373 19.658 8.78198L18.75 10.564ZM14.35 8.56399C14.0865 8.56399 13.8287 8.56321 13.6118 8.58094C13.3832 8.59961 13.1134 8.64368 12.842 8.78198L13.75 10.564C13.6925 10.5933 13.6697 10.5829 13.7746 10.5743C13.8912 10.5648 14.0535 10.564 14.35 10.564V8.56399ZM13.75 11.164C13.75 10.8675 13.7508 10.7052 13.7603 10.5886C13.7689 10.4837 13.7793 10.5065 13.75 10.564L11.968 9.65601C11.8297 9.92743 11.7856 10.1972 11.7669 10.4258C11.7492 10.6427 11.75 10.9005 11.75 11.164H13.75ZM12.842 8.78198C12.4657 8.97373 12.1597 9.27969 11.968 9.65601L13.75 10.564L12.842 8.78198ZM4.12139 5.49247L12.75 2.04103L12.0072 0.184072L3.37861 3.63552L4.12139 5.49247ZM12.75 2.04103V4.56399H14.75V2.04103H12.75ZM12.75 2.04103L12.75 2.04103H14.75C14.75 0.626096 13.3209 -0.341419 12.0072 0.184072L12.75 2.04103Z" fill="#F8F8FA"/>
</svg>
