<svg width="28" height="28" viewBox="0 0 28 28" fill="none" xmlns="http://www.w3.org/2000/svg">
<g clip-path="url(#clip0_114_198)">
<path d="M4.66683 7.00004H2.3335V23.3334C2.3335 24.6167 3.3835 25.6667 4.66683 25.6667H21.0002V23.3334H4.66683V7.00004ZM23.3335 2.33337H9.3335C8.05016 2.33337 7.00016 3.38337 7.00016 4.66671V18.6667C7.00016 19.95 8.05016 21 9.3335 21H23.3335C24.6168 21 25.6668 19.95 25.6668 18.6667V4.66671C25.6668 3.38337 24.6168 2.33337 23.3335 2.33337ZM22.1668 12.8334H10.5002V10.5H22.1668V12.8334ZM17.5002 17.5H10.5002V15.1667H17.5002V17.5ZM22.1668 8.16671H10.5002V5.83337H22.1668V8.16671Z" fill="#7F56D9"/>
</g>
<defs>
<clipPath id="clip0_114_198">
<rect width="28" height="28" fill="white"/>
</clipPath>
</defs>
</svg>
