<svg width="670" height="316" viewBox="0 0 670 316" fill="none" xmlns="http://www.w3.org/2000/svg">
<path d="M530.015 55.3866L529.211 56.682C525.851 61.9815 524.005 68.0991 523.873 74.3725C523.741 80.6459 525.327 86.836 528.46 92.2724C529.293 93.682 530.227 95.0286 531.257 96.3013C535.061 100.874 539.936 104.437 545.448 106.675C550.959 108.913 556.938 109.756 562.854 109.13C569.831 108.335 576.888 105.556 583.642 107.343C592.432 109.657 597.265 118.715 601.106 126.889C604.948 135.063 609.798 144.112 618.607 146.39C624.119 147.811 630.068 146.131 635.035 143.273C648.167 135.706 655.457 120.171 655.385 105.163C655.314 90.1552 648.694 75.7993 639.412 64.0698C626.406 47.6057 607.395 35.3224 586.393 32.8032C565.391 30.284 542.682 38.4133 530.015 55.3866Z" fill="#7F56D9"/>
<path d="M23.0755 129.667L23.9688 130.891C27.6724 135.957 32.6902 139.913 38.4796 142.333C44.2691 144.753 50.61 145.545 56.8167 144.622C58.4499 144.365 60.0622 143.988 61.6407 143.496C67.279 141.628 72.3697 138.398 76.4616 134.093C80.5536 129.787 83.5205 124.539 85.0996 118.813C86.8863 112.042 86.8863 104.44 91.0046 98.8027C96.3646 91.4684 106.575 90.2892 115.589 89.7085C124.603 89.1279 134.796 87.9219 140.138 80.5608C143.488 75.9512 144.104 69.8408 143.256 64.1324C141.022 49.1333 129.239 36.6267 115.241 31.2041C101.242 25.7816 85.4748 26.6839 71.1368 31.0255C51.0547 37.1001 32.6609 50.2947 22.6288 68.9117C12.5967 87.5288 11.9088 111.667 23.0755 129.667Z" fill="#7F56D9"/>
<path d="M68.4476 358.369C85.3753 358.369 99.0979 344.647 99.0979 327.719C99.0979 310.792 85.3753 297.069 68.4476 297.069C51.52 297.069 37.7974 310.792 37.7974 327.719C37.7974 344.647 51.52 358.369 68.4476 358.369Z" fill="#7F56D9"/>
<path d="M514.382 409.218H155.852C150.165 409.218 144.712 406.959 140.691 402.938C136.67 398.917 134.412 393.464 134.412 387.778V141.691C134.412 139.635 134.817 137.598 135.605 135.698C136.392 133.798 137.547 132.072 139.002 130.618C140.457 129.164 142.185 128.012 144.086 127.226C145.987 126.441 148.024 126.038 150.081 126.04H521.082C525.006 126.04 528.768 127.599 531.543 130.373C534.317 133.147 535.876 136.91 535.876 140.834V387.76C535.878 390.582 535.323 393.376 534.244 395.983C533.164 398.589 531.58 400.957 529.583 402.951C527.587 404.944 525.216 406.524 522.607 407.6C519.999 408.675 517.204 409.225 514.382 409.218Z" fill="#E0E0E0"/>
<path d="M514.382 409.218L515.276 409.155L516.348 409.146C516.785 409.146 517.241 409.012 517.839 408.941L518.733 408.798L519.715 408.539L520.787 408.262L521.931 407.842C522.784 407.522 523.617 407.149 524.423 406.726C524.861 406.502 525.317 406.216 525.737 405.948L526.407 405.537L527.068 405.046C531.549 401.772 534.567 396.871 535.474 391.396C535.536 390.994 535.59 390.592 535.652 390.181C535.715 389.77 535.706 389.35 535.733 388.93C535.795 388.091 535.804 387.233 535.795 386.358C535.795 384.571 535.795 382.754 535.795 380.908C535.795 377.156 535.795 373.166 535.795 368.938C535.795 335.08 535.751 286.108 535.724 225.593C535.724 210.46 535.724 194.627 535.724 178.095V143.058C535.724 141.968 535.724 140.87 535.67 139.798C535.516 137.617 534.875 135.5 533.792 133.601C532.71 131.702 531.215 130.071 529.417 128.827C527.6 127.563 525.515 126.737 523.324 126.415C523.048 126.415 522.78 126.317 522.503 126.299H521.672C521.118 126.299 520.555 126.299 519.992 126.299H416.392H156.066H151.743C151.019 126.299 150.295 126.299 149.59 126.299L148.527 126.353C148.169 126.353 147.821 126.451 147.472 126.505C147.118 126.544 146.768 126.616 146.427 126.719C146.088 126.809 145.739 126.889 145.4 126.987C144.729 127.208 144.073 127.471 143.435 127.773C142.138 128.372 140.934 129.154 139.861 130.096C138.796 131.029 137.862 132.102 137.083 133.285C136.328 134.476 135.727 135.757 135.296 137.1C134.888 138.448 134.659 139.845 134.617 141.254C134.573 142.665 134.617 144.103 134.617 145.524C134.617 156.935 134.617 168.25 134.617 179.471V245.89C134.617 289.44 134.617 331.444 134.617 371.457C134.617 376.459 134.617 381.429 134.617 386.366C134.617 387.608 134.662 388.823 134.751 390.038L135.028 391.825C135.144 392.414 135.314 393.004 135.466 393.611C136.142 395.939 137.209 398.135 138.619 400.106C141.435 404.034 145.517 406.873 150.179 408.146C150.76 408.28 151.323 408.477 151.912 408.566L153.699 408.834C154.887 408.896 156.066 408.968 157.272 408.95H219.493H318.483L461.854 409.146L318.519 409.218H219.529H157.228C156.039 409.218 154.833 409.164 153.654 409.102L151.868 408.825C151.269 408.736 150.688 408.539 150.081 408.405C145.33 407.092 141.173 404.187 138.307 400.177C136.866 398.165 135.776 395.924 135.082 393.549C134.939 392.95 134.76 392.352 134.635 391.762L134.358 389.922C134.269 388.689 134.206 387.439 134.224 386.206V371.475C134.224 331.462 134.224 289.458 134.224 245.908V145.515C134.224 144.086 134.224 142.674 134.224 141.236C134.263 139.785 134.498 138.345 134.921 136.957C135.368 135.575 135.993 134.256 136.779 133.035C137.574 131.817 138.533 130.714 139.629 129.757C140.721 128.793 141.946 127.989 143.265 127.371C143.924 127.057 144.601 126.782 145.293 126.549L146.356 126.273C146.707 126.174 147.065 126.102 147.428 126.058C147.785 126.005 148.142 125.942 148.509 125.897L149.599 125.844C150.331 125.799 151.046 125.844 151.769 125.844H156.093H416.419H519.921C520.484 125.844 521.038 125.844 521.609 125.844H522.503C522.78 125.844 523.057 125.924 523.342 125.969C525.59 126.299 527.73 127.146 529.596 128.443C531.447 129.727 532.985 131.413 534.094 133.374C535.203 135.336 535.855 137.522 536.001 139.771C536.081 140.887 536.001 141.968 536.055 143.058V178.05C536.055 194.571 536.055 210.404 536.055 225.549C536.055 286.063 536.001 335.036 535.983 368.893C535.983 373.121 535.983 377.112 535.983 380.864V386.313C535.983 387.206 535.983 388.046 535.92 388.895C535.92 389.314 535.921 389.743 535.831 390.154L535.644 391.369C535.15 394.355 534.023 397.2 532.338 399.713C530.936 401.784 529.186 403.598 527.166 405.073L526.505 405.564L525.826 405.975C525.37 406.243 524.932 406.529 524.504 406.752C523.692 407.17 522.857 407.54 522.002 407.86L520.814 408.253L519.733 408.53L518.751 408.78L517.857 408.923C517.286 408.995 516.794 409.102 516.365 409.12L515.285 409.164L514.382 409.218Z" fill="#263238"/>
<path d="M513.793 143.326H155.316C152.849 143.326 150.849 145.326 150.849 147.793V370.822C150.849 373.289 152.849 375.289 155.316 375.289H513.793C516.259 375.289 518.259 373.289 518.259 370.822V147.793C518.259 145.326 516.259 143.326 513.793 143.326Z" fill="#455A64"/>
<path d="M513.792 375.289C513.792 375.289 514.051 375.289 514.56 375.209C515.316 375.072 516.024 374.743 516.615 374.253C517.097 373.85 517.489 373.349 517.765 372.784C518.04 372.219 518.193 371.603 518.214 370.974V365.74C518.214 357.798 518.214 346.086 518.169 331.033C518.169 300.892 518.17 257.289 518.098 203.403C518.098 189.931 518.098 175.835 518.098 161.113C518.098 157.444 518.098 153.731 518.098 149.973V148.57C518.115 148.108 518.1 147.645 518.053 147.185C517.922 146.279 517.505 145.438 516.862 144.786C516.219 144.133 515.384 143.703 514.48 143.559C514.018 143.504 513.552 143.486 513.086 143.505H488.279H387.126H155.342C154.73 143.503 154.124 143.634 153.566 143.886C153.008 144.139 152.511 144.509 152.108 144.97C151.697 145.428 151.392 145.971 151.215 146.56C151.062 147.164 151.005 147.788 151.045 148.409V201.607C151.045 221.624 151.045 241.337 151.045 260.746V317.83C151.045 327.15 151.045 336.382 151.045 345.523V369.223C150.935 370.31 151.048 371.407 151.376 372.448C151.789 373.439 152.562 374.236 153.538 374.682C154.02 374.899 154.537 375.027 155.065 375.057C155.601 375.057 156.173 375.057 156.718 375.057H251.233H339.369L466.99 375.128L501.688 375.173H510.71C512.747 375.173 513.792 375.173 513.792 375.173H510.71H501.688L466.99 375.218L339.369 375.289H251.233H156.727C156.173 375.289 155.628 375.289 155.056 375.289C154.475 375.261 153.905 375.121 153.377 374.878C152.309 374.389 151.462 373.519 151.001 372.439C150.778 371.898 150.66 371.319 150.652 370.733V345.541C150.652 336.417 150.652 327.186 150.652 317.848V260.764C150.652 241.379 150.652 221.666 150.652 201.625V148.454C150.613 147.79 150.677 147.124 150.84 146.48C151.023 145.819 151.353 145.208 151.805 144.693C152.247 144.179 152.795 143.767 153.412 143.487C154.029 143.206 154.7 143.063 155.378 143.067H387.162H488.314H513.095C513.582 143.053 514.068 143.074 514.551 143.13C515.532 143.287 516.437 143.753 517.133 144.461C517.827 145.164 518.275 146.073 518.411 147.051C518.464 147.529 518.482 148.01 518.464 148.49V160.996C518.464 175.713 518.464 189.809 518.464 203.287C518.464 257.173 518.411 300.776 518.393 330.917C518.393 345.988 518.393 357.717 518.393 365.623C518.393 367.607 518.393 369.358 518.393 370.858C518.371 371.496 518.214 372.122 517.93 372.694C517.647 373.265 517.244 373.77 516.749 374.173C516.144 374.644 515.427 374.952 514.668 375.066C514.476 375.103 514.282 375.124 514.087 375.128L513.792 375.289Z" fill="#263238"/>
<path d="M338.082 135.474C338.082 136.069 337.906 136.651 337.575 137.146C337.244 137.641 336.774 138.027 336.224 138.255C335.674 138.483 335.068 138.543 334.484 138.426C333.9 138.31 333.364 138.024 332.943 137.603C332.522 137.182 332.235 136.645 332.119 136.061C332.003 135.477 332.062 134.872 332.29 134.322C332.518 133.772 332.904 133.301 333.399 132.971C333.894 132.64 334.476 132.463 335.072 132.463C335.87 132.463 336.636 132.78 337.2 133.345C337.765 133.91 338.082 134.675 338.082 135.474Z" fill="#263238"/>
<path d="M497.587 163.98H483.481C483.348 163.981 483.216 163.956 483.093 163.906C482.97 163.855 482.859 163.781 482.765 163.687C482.671 163.593 482.596 163.481 482.546 163.358C482.496 163.235 482.471 163.104 482.472 162.971V155.976C482.472 155.844 482.498 155.714 482.548 155.593C482.598 155.472 482.672 155.361 482.765 155.268C482.858 155.175 482.968 155.102 483.089 155.051C483.211 155.001 483.341 154.975 483.472 154.975H497.587C497.621 154.974 497.655 154.981 497.686 154.995C497.717 155.009 497.744 155.03 497.766 155.056C497.791 155.078 497.811 155.106 497.825 155.137C497.839 155.167 497.846 155.201 497.846 155.234V157.539H499.347C499.415 157.539 499.481 157.566 499.53 157.615C499.579 157.664 499.606 157.73 499.606 157.798V161.175C499.604 161.242 499.575 161.306 499.527 161.353C499.479 161.399 499.414 161.425 499.347 161.425H497.846V163.739C497.841 163.804 497.812 163.866 497.764 163.911C497.716 163.955 497.653 163.98 497.587 163.98ZM497.328 155.485H483.472C483.407 155.483 483.343 155.495 483.283 155.519C483.223 155.544 483.168 155.58 483.122 155.626C483.076 155.672 483.04 155.726 483.016 155.786C482.992 155.847 482.98 155.911 482.981 155.976V162.971C482.981 163.103 483.034 163.231 483.127 163.324C483.221 163.418 483.349 163.471 483.481 163.471H497.292V161.166C497.292 161.097 497.319 161.032 497.368 160.983C497.417 160.934 497.482 160.907 497.551 160.907H499.061V158.048H497.587C497.518 158.048 497.452 158.021 497.404 157.973C497.355 157.924 497.328 157.858 497.328 157.789V155.485Z" fill="#263238"/>
<path d="M484.133 161.461V157.495C484.133 157.258 484.227 157.031 484.395 156.863C484.562 156.695 484.79 156.601 485.027 156.601H491.646C491.883 156.601 492.11 156.695 492.278 156.863C492.445 157.031 492.54 157.258 492.54 157.495V161.461C492.54 161.698 492.445 161.925 492.278 162.093C492.11 162.26 491.883 162.354 491.646 162.354H484.991C484.76 162.345 484.542 162.247 484.382 162.08C484.222 161.914 484.133 161.692 484.133 161.461Z" fill="#263238"/>
<path d="M606.698 57.7629H509.834C506.568 57.7629 503.92 60.4107 503.92 63.6768V106.253C503.92 109.519 506.568 112.167 509.834 112.167H606.698C609.965 112.167 612.612 109.519 612.612 106.253V63.6768C612.612 60.4107 609.965 57.7629 606.698 57.7629Z" fill="white"/>
<path d="M503.92 99.5264H612.612V221.913C612.612 223.626 611.932 225.269 610.721 226.48C609.509 227.691 607.866 228.372 606.153 228.372H510.379C508.666 228.372 507.023 227.691 505.812 226.48C504.601 225.269 503.92 223.626 503.92 221.913V99.5264Z" fill="#F5F5F5"/>
<path d="M585.723 99.285H503.92V126.201H585.723V99.285Z" fill="#E0E0E0"/>
<path d="M606.752 228.443C611.701 228.443 612.889 225.665 612.889 221.868L612.612 99.4816H586.027V228.398L606.752 228.443Z" fill="#7F56D9"/>
<path d="M612.613 126.442C612.613 126.55 588.019 126.639 557.69 126.639C527.362 126.639 502.759 126.55 502.759 126.442C502.759 126.335 527.353 126.246 557.69 126.246C588.028 126.246 612.613 126.335 612.613 126.442Z" fill="#263238"/>
<path d="M612.613 152.626C612.613 152.733 588.019 152.823 557.69 152.823C527.362 152.823 502.759 152.733 502.759 152.626C502.759 152.519 527.353 152.429 557.69 152.429C588.028 152.429 612.613 152.519 612.613 152.626Z" fill="#263238"/>
<path d="M612.613 180.355C612.613 180.462 588.019 180.552 557.69 180.552C527.362 180.552 502.759 180.462 502.759 180.355C502.759 180.248 527.353 180.15 557.69 180.15C588.028 180.15 612.613 180.239 612.613 180.355Z" fill="#263238"/>
<path d="M612.613 206.539C612.613 206.646 588.019 206.735 557.69 206.735C527.362 206.735 502.759 206.646 502.759 206.539C502.759 206.431 527.353 206.342 557.69 206.342C588.028 206.342 612.613 206.431 612.613 206.539Z" fill="#263238"/>
<path d="M527.55 206.539C527.433 206.539 527.353 182.66 527.353 153.216C527.353 123.771 527.433 99.8926 527.55 99.8926C527.666 99.8926 527.746 123.762 527.746 153.216C527.746 182.669 527.657 206.539 527.55 206.539Z" fill="#263238"/>
<path d="M558.271 228.443C558.146 228.443 558.039 199.669 558.039 164.177C558.039 128.685 558.146 99.8568 558.271 99.8568C558.396 99.8568 558.495 128.631 558.495 164.177C558.495 199.723 558.387 228.443 558.271 228.443Z" fill="#263238"/>
<path d="M586.027 228.399C585.902 228.399 585.804 199.633 585.804 164.15C585.804 128.667 585.902 99.8926 586.027 99.8926C586.152 99.8926 586.25 128.658 586.25 164.15C586.25 199.642 586.143 228.399 586.027 228.399Z" fill="#263238"/>
<path d="M518.785 135.965V136.859L515.15 144.97H513.792L517.365 137.1H513.256V138.708H512.023V135.965H518.785Z" fill="#263238"/>
<path d="M546.559 142.415C546.559 144.041 545.175 145.095 542.986 145.095C540.797 145.095 539.413 144.077 539.413 142.415C539.406 141.931 539.558 141.458 539.845 141.067C540.132 140.677 540.539 140.391 541.003 140.253C540.621 140.096 540.296 139.826 540.071 139.48C539.847 139.134 539.732 138.727 539.743 138.315C539.743 136.814 541.039 135.876 542.977 135.876C544.916 135.876 546.238 136.769 546.238 138.315C546.246 138.733 546.125 139.143 545.891 139.49C545.658 139.836 545.324 140.103 544.934 140.253C545.404 140.386 545.817 140.67 546.111 141.06C546.405 141.451 546.562 141.927 546.559 142.415ZM545.273 142.415C545.273 141.433 544.38 140.816 542.977 140.816C541.575 140.816 540.708 141.433 540.708 142.415C540.708 143.398 541.601 144.059 542.977 144.059C544.353 144.059 545.273 143.389 545.273 142.371V142.415ZM541.012 138.395C541.012 139.289 541.744 139.833 542.977 139.833C544.21 139.833 544.978 139.289 544.978 138.395C544.978 137.502 544.183 136.948 542.977 136.948C541.771 136.948 541.012 137.457 541.012 138.351V138.395Z" fill="#263238"/>
<path d="M574.923 139.61C574.923 142.674 573.19 144.318 570.68 144.318C569.901 144.351 569.128 144.168 568.446 143.791L568.929 142.79C569.453 143.099 570.055 143.248 570.662 143.219C572.449 143.219 573.646 142.076 573.646 139.825V139.503C573.345 139.901 572.95 140.218 572.496 140.425C572.042 140.633 571.544 140.724 571.046 140.691C569.259 140.691 567.982 139.619 567.982 137.966C567.988 137.566 568.076 137.172 568.242 136.808C568.407 136.444 568.647 136.118 568.945 135.851C569.243 135.584 569.593 135.382 569.973 135.257C570.353 135.132 570.755 135.087 571.153 135.126C573.565 135.126 574.923 136.743 574.923 139.61ZM573.351 137.904C573.351 137.011 572.6 136.171 571.207 136.171C570.96 136.143 570.71 136.168 570.473 136.242C570.236 136.317 570.018 136.44 569.831 136.604C569.644 136.768 569.494 136.969 569.389 137.195C569.285 137.42 569.228 137.664 569.224 137.913C569.224 138.967 570.01 139.646 571.269 139.646C571.522 139.676 571.778 139.653 572.021 139.581C572.265 139.508 572.491 139.386 572.685 139.223C572.88 139.06 573.04 138.859 573.154 138.632C573.269 138.405 573.336 138.158 573.351 137.904Z" fill="#263238"/>
<path d="M567.499 110.666C567.537 110.297 567.682 109.946 567.915 109.657C568.148 109.368 568.46 109.153 568.813 109.037C569.166 108.922 569.545 108.911 569.904 109.007C570.263 109.102 570.587 109.3 570.835 109.576C571.084 109.851 571.248 110.193 571.307 110.56C571.365 110.927 571.316 111.303 571.165 111.642C571.015 111.982 570.769 112.27 570.457 112.473C570.146 112.675 569.783 112.783 569.411 112.783C569.142 112.785 568.875 112.73 568.629 112.621C568.382 112.512 568.162 112.353 567.981 112.153C567.801 111.953 567.664 111.717 567.581 111.461C567.498 111.205 567.47 110.934 567.499 110.666ZM570.179 110.666C570.179 109.835 569.858 109.442 569.375 109.442C568.893 109.442 568.571 109.853 568.571 110.666C568.571 111.479 568.902 111.881 569.375 111.881C569.849 111.881 570.215 111.488 570.215 110.666H570.179ZM573.949 108.629H575.307L570.063 116.312H568.759L573.949 108.629ZM572.69 114.284C572.729 113.917 572.874 113.569 573.108 113.283C573.341 112.997 573.652 112.784 574.003 112.67C574.354 112.557 574.731 112.548 575.088 112.644C575.444 112.74 575.765 112.937 576.012 113.212C576.259 113.486 576.421 113.827 576.479 114.191C576.536 114.556 576.487 114.93 576.337 115.267C576.187 115.604 575.942 115.891 575.632 116.092C575.323 116.294 574.962 116.401 574.592 116.401C574.326 116.398 574.064 116.339 573.822 116.228C573.581 116.117 573.365 115.957 573.189 115.757C573.013 115.558 572.881 115.324 572.801 115.07C572.721 114.816 572.695 114.548 572.725 114.284H572.69ZM575.37 114.284C575.37 113.471 575.057 113.069 574.575 113.069C574.092 113.069 573.771 113.462 573.771 114.284C573.771 115.106 574.101 115.499 574.575 115.499C575.048 115.499 575.423 115.097 575.423 114.284H575.37Z" fill="#263238"/>
<path d="M511.88 113.185C511.874 112.653 511.976 112.124 512.181 111.633C512.386 111.141 512.69 110.697 513.073 110.327C513.456 109.957 513.911 109.67 514.41 109.482C514.908 109.295 515.44 109.211 515.972 109.237C516.52 109.215 517.066 109.311 517.573 109.519C518.08 109.727 518.536 110.042 518.911 110.443L518.196 111.14C517.917 110.845 517.578 110.613 517.202 110.459C516.826 110.305 516.422 110.232 516.016 110.246C515.524 110.248 515.039 110.372 514.607 110.608C514.174 110.843 513.806 111.182 513.537 111.595C513.268 112.008 513.105 112.48 513.064 112.971C513.022 113.462 513.104 113.956 513.3 114.408C513.497 114.859 513.802 115.255 514.189 115.56C514.577 115.864 515.034 116.068 515.519 116.152C516.004 116.236 516.503 116.199 516.97 116.043C517.438 115.887 517.859 115.617 518.196 115.258L518.911 115.955C518.535 116.357 518.078 116.674 517.569 116.883C517.061 117.093 516.513 117.191 515.963 117.17C515.429 117.194 514.895 117.109 514.395 116.919C513.895 116.728 513.439 116.437 513.057 116.064C512.674 115.69 512.372 115.242 512.17 114.747C511.967 114.252 511.869 113.72 511.88 113.185Z" fill="#263238"/>
<path d="M519.367 169.832H517.66V172.038H516.419V169.832H511.425V168.938L516.017 163.06H517.401L512.997 168.733H516.454V166.785H517.66V168.733H519.367V169.832Z" fill="#263238"/>
<path d="M546.345 169.34C546.345 170.895 545.237 172.145 542.941 172.145C541.748 172.176 540.581 171.787 539.645 171.047L540.235 170.037C540.98 170.675 541.933 171.018 542.915 171.002C544.281 171.002 545.05 170.368 545.05 169.394C545.05 168.42 544.406 167.75 542.37 167.75H540.333L540.806 163.051H545.827V164.168H541.834L541.584 166.634H542.593C545.291 166.634 546.345 167.75 546.345 169.34Z" fill="#263238"/>
<path d="M575.2 168.572C575.2 170.305 573.797 171.404 572.011 171.404C569.599 171.404 568.241 169.787 568.241 166.937C568.241 163.864 569.974 162.22 572.484 162.22C573.262 162.192 574.034 162.374 574.717 162.748L574.235 163.748C573.712 163.447 573.114 163.301 572.511 163.328C570.724 163.328 569.518 164.472 569.518 166.714C569.51 166.821 569.51 166.929 569.518 167.036C569.817 166.641 570.21 166.326 570.66 166.12C571.111 165.915 571.606 165.824 572.1 165.856C573.895 165.847 575.2 166.91 575.2 168.572ZM573.949 168.617C573.949 167.572 573.154 166.884 571.894 166.884C571.64 166.857 571.382 166.882 571.138 166.959C570.894 167.035 570.668 167.161 570.474 167.329C570.281 167.496 570.124 167.702 570.013 167.933C569.902 168.163 569.84 168.415 569.831 168.67C569.831 169.564 570.572 170.403 571.957 170.403C572.208 170.432 572.463 170.408 572.704 170.331C572.945 170.255 573.167 170.128 573.355 169.959C573.544 169.79 573.694 169.583 573.796 169.351C573.899 169.12 573.951 168.87 573.949 168.617Z" fill="#263238"/>
<path d="M517.044 189.619V198.606H515.775V190.736H513.748V189.619H517.044Z" fill="#263238"/>
<path d="M546.372 197.489V198.606H539.913V197.712L543.567 194.139C544.522 193.246 544.701 192.647 544.701 192.084C544.701 191.191 544.04 190.593 542.789 190.593C542.357 190.57 541.924 190.645 541.525 190.814C541.126 190.983 540.77 191.24 540.485 191.566L539.591 190.816C540.002 190.357 540.511 189.995 541.08 189.759C541.649 189.522 542.263 189.417 542.879 189.449C544.746 189.449 545.952 190.414 545.952 191.959C545.952 192.853 545.702 193.612 544.478 194.782L541.735 197.462L546.372 197.489Z" fill="#263238"/>
<path d="M574.414 195.22C574.414 196.739 573.297 197.972 571.01 197.972C569.818 198.006 568.651 197.62 567.714 196.882L568.303 195.863C569.049 196.502 570.002 196.845 570.983 196.828C572.332 196.828 573.101 196.212 573.101 195.238C573.101 194.264 572.422 193.666 570.885 193.666H570.162V192.772L572.422 189.994H568.098V188.877H574.03V189.771L571.68 192.674C573.521 192.826 574.414 193.853 574.414 195.22Z" fill="#263238"/>
<path d="M529.22 218.42C529.22 215.49 530.783 213.819 532.891 213.819C535 213.819 536.545 215.49 536.545 218.42C536.545 221.35 534.982 223.012 532.891 223.012C530.801 223.012 529.22 221.341 529.22 218.42ZM535.268 218.42C535.268 216.115 534.285 214.963 532.891 214.963C531.498 214.963 530.506 216.115 530.506 218.42C530.506 220.725 531.48 221.868 532.891 221.868C534.303 221.868 535.268 220.716 535.268 218.42Z" fill="#263238"/>
<path d="M572.439 217.08C572.418 217.389 572.343 217.691 572.216 217.973L571.617 219.76H570.84L571.313 217.848C571.151 217.79 571.012 217.681 570.916 217.538C570.819 217.395 570.771 217.225 570.777 217.053C570.777 216.816 570.872 216.589 571.039 216.422C571.207 216.254 571.434 216.16 571.671 216.16C571.782 216.168 571.891 216.198 571.991 216.249C572.091 216.3 572.179 216.37 572.251 216.456C572.323 216.542 572.376 216.642 572.409 216.749C572.441 216.856 572.451 216.969 572.439 217.08Z" fill="#263238"/>
<path d="M603.697 215.177H594.934V216.097H603.697V215.177Z" fill="#263238"/>
<path d="M603.697 217.955H594.934V218.875H603.697V217.955Z" fill="#263238"/>
<path d="M602.598 193.281H596.032V193.969H602.598V193.281Z" fill="#263238"/>
<path d="M602.938 194.309H595.693V192.96H602.938V194.309Z" fill="#263238"/>
<path d="M598.972 190.343V196.909H599.66V190.343H598.972Z" fill="#263238"/>
<path d="M599.999 197.248H598.632V190.003H599.999V197.248Z" fill="#263238"/>
<path d="M602.357 137.886L601.392 136.921L599.32 139.003L597.238 136.921L596.273 137.886L598.346 139.968L596.273 142.04L597.238 143.005L599.32 140.932L601.392 143.005L602.357 142.04L600.285 139.968L602.357 137.886Z" fill="#263238"/>
<path d="M602.598 167.295H596.032V167.982H602.598V167.295Z" fill="#263238"/>
<path d="M602.938 168.322H595.693V166.955H602.938V168.322Z" fill="#263238"/>
<path d="M602.598 113.293H596.032V113.98H602.598V113.293Z" fill="#263238"/>
<path d="M602.938 114.347H595.693V112.98H602.938V114.347Z" fill="#263238"/>
<path d="M600.419 110.032C600.42 110.252 600.357 110.467 600.236 110.651C600.115 110.834 599.942 110.977 599.739 111.062C599.536 111.147 599.313 111.17 599.097 111.128C598.881 111.085 598.683 110.979 598.528 110.824C598.372 110.669 598.266 110.47 598.224 110.255C598.182 110.039 598.204 109.815 598.289 109.613C598.374 109.41 598.517 109.237 598.701 109.116C598.885 108.995 599.1 108.931 599.32 108.933C599.611 108.933 599.891 109.049 600.097 109.255C600.303 109.461 600.419 109.74 600.419 110.032Z" fill="#263238"/>
<path d="M600.419 117.027C600.394 117.302 600.267 117.558 600.063 117.745C599.859 117.932 599.592 118.035 599.316 118.035C599.039 118.035 598.773 117.932 598.568 117.745C598.364 117.558 598.237 117.302 598.212 117.027C598.199 116.873 598.217 116.719 598.266 116.573C598.315 116.427 598.394 116.294 598.498 116.18C598.602 116.066 598.728 115.976 598.869 115.914C599.01 115.852 599.162 115.82 599.316 115.82C599.47 115.82 599.622 115.852 599.763 115.914C599.903 115.976 600.03 116.066 600.133 116.18C600.237 116.294 600.316 116.427 600.365 116.573C600.415 116.719 600.433 116.873 600.419 117.027Z" fill="#263238"/>
<path d="M546.47 111.72L545.881 111.14L544.621 112.399L543.37 111.14L542.781 111.72L544.04 112.98L542.781 114.239L543.37 114.829L544.621 113.569L545.881 114.829L546.47 114.239L545.211 112.98L546.47 111.72Z" fill="#263238"/>
<path d="M547.998 116.535H541.744C541.59 116.534 541.438 116.502 541.297 116.44C541.156 116.379 541.028 116.29 540.923 116.178L538.707 113.766C538.514 113.55 538.407 113.27 538.407 112.98C538.407 112.69 538.514 112.41 538.707 112.194L540.923 109.791C541.027 109.677 541.154 109.586 541.295 109.524C541.437 109.463 541.59 109.432 541.744 109.433H547.998C548.147 109.434 548.294 109.465 548.431 109.523C548.568 109.581 548.693 109.666 548.797 109.772C548.902 109.878 548.984 110.004 549.04 110.142C549.096 110.28 549.124 110.428 549.123 110.577V115.392C549.124 115.541 549.096 115.689 549.04 115.827C548.984 115.965 548.902 116.09 548.797 116.197C548.693 116.303 548.568 116.387 548.431 116.446C548.294 116.504 548.147 116.534 547.998 116.535ZM541.744 110.193C541.695 110.193 541.647 110.203 541.602 110.223C541.558 110.243 541.518 110.272 541.485 110.309L539.27 112.712C539.205 112.788 539.169 112.884 539.169 112.984C539.169 113.084 539.205 113.181 539.27 113.257L541.485 115.66C541.518 115.696 541.558 115.725 541.602 115.745C541.647 115.765 541.695 115.776 541.744 115.776H547.998C548.047 115.775 548.096 115.764 548.141 115.744C548.186 115.724 548.226 115.695 548.26 115.66C548.294 115.624 548.321 115.582 548.339 115.536C548.357 115.49 548.365 115.441 548.364 115.392V110.577C548.365 110.527 548.357 110.478 548.339 110.432C548.321 110.386 548.294 110.344 548.26 110.309C548.226 110.273 548.186 110.244 548.141 110.225C548.096 110.205 548.047 110.194 547.998 110.193H541.744Z" fill="#263238"/>
<path d="M558.155 71.9402V87.913H556.985V72.9854H553.09V71.9402H558.155Z" fill="#263238"/>
<path d="M573.172 71.9402V72.7621L566.303 87.9487H565.025L571.823 72.9854H562.89V76.0406H561.747V71.9402H573.172Z" fill="#263238"/>
<path d="M585.518 83.4195C585.518 86.0995 583.597 88.0291 579.926 88.0291C578.89 88.0715 577.856 87.9033 576.887 87.5348C575.918 87.1663 575.034 86.6051 574.289 85.8851L574.878 84.9918C575.541 85.6469 576.33 86.1593 577.198 86.4973C578.066 86.8354 578.995 86.9918 579.926 86.9571C582.802 86.9571 584.33 85.5814 584.33 83.3838C584.33 81.1862 582.865 79.8104 579.675 79.8104H578.666V78.9171L583.392 72.8693H574.878V71.9402H584.901V72.7621L580.104 78.8993C583.731 78.9886 585.518 80.811 585.518 83.4195Z" fill="#263238"/>
<path d="M599.98 83.5266C599.98 86.3138 597.676 87.9932 593.906 87.9932C590.136 87.9932 587.885 86.278 587.885 83.5266C587.885 81.5255 589.118 80.1319 591.288 79.5601C590.481 79.3738 589.761 78.9187 589.247 78.2694C588.732 77.6201 588.453 76.8153 588.456 75.9868C588.456 73.4319 590.6 71.8596 593.906 71.8596C597.211 71.8596 599.427 73.3962 599.427 75.9332C599.424 76.7669 599.138 77.575 598.615 78.2244C598.092 78.8738 597.364 79.326 596.55 79.5066C598.73 80.1319 599.98 81.5434 599.98 83.5266ZM598.819 83.5266C598.819 81.4094 596.988 80.0604 593.906 80.0604C590.824 80.0604 589.046 81.4094 589.046 83.5266C589.046 85.6438 590.833 87.0195 593.906 87.0195C596.979 87.0195 598.819 85.6795 598.819 83.5266ZM593.906 79.0599C596.586 79.0599 598.247 77.8449 598.247 75.9511C598.247 74.0572 596.559 72.7798 593.906 72.7798C591.253 72.7798 589.618 73.9947 589.618 75.9332C589.618 77.8718 591.19 79.1046 593.906 79.1046V79.0599Z" fill="#263238"/>
<path d="M511.88 68.2061C513.36 68.2061 514.56 67.0062 514.56 65.5261C514.56 64.0459 513.36 62.8461 511.88 62.8461C510.4 62.8461 509.2 64.0459 509.2 65.5261C509.2 67.0062 510.4 68.2061 511.88 68.2061Z" fill="#E0E0E0"/>
<path d="M520.903 68.2061C522.383 68.2061 523.583 67.0062 523.583 65.5261C523.583 64.0459 522.383 62.8461 520.903 62.8461C519.423 62.8461 518.223 64.0459 518.223 65.5261C518.223 67.0062 519.423 68.2061 520.903 68.2061Z" fill="#E0E0E0"/>
<path d="M532.606 65.5261C532.606 66.0561 532.448 66.5743 532.154 67.015C531.859 67.4557 531.441 67.7992 530.951 68.0021C530.461 68.2049 529.923 68.258 529.403 68.1546C528.883 68.0512 528.405 67.7959 528.031 67.4211C527.656 67.0463 527.401 66.5688 527.297 66.0489C527.194 65.529 527.247 64.9902 527.45 64.5005C527.652 64.0108 527.996 63.5922 528.437 63.2977C528.877 63.0032 529.396 62.8461 529.926 62.8461C530.636 62.8461 531.318 63.1284 531.821 63.631C532.323 64.1336 532.606 64.8153 532.606 65.5261Z" fill="#E0E0E0"/>
<path d="M606.824 228.443H607.181C607.534 228.422 607.883 228.368 608.226 228.282C609.576 227.951 610.769 227.161 611.603 226.049C612.222 225.241 612.622 224.287 612.764 223.28C612.828 222.686 612.849 222.089 612.827 221.493C612.827 220.877 612.827 220.233 612.827 219.563C612.827 216.883 612.827 213.81 612.827 210.335C612.827 196.444 612.782 176.389 612.746 151.518C612.711 126.648 612.746 97.1232 612.746 64.2932C612.814 63.2919 612.626 62.2899 612.201 61.3807C611.776 60.4716 611.128 59.6848 610.317 59.094C609.474 58.5054 608.491 58.1509 607.467 58.0667C606.475 57.9863 605.385 58.0667 604.349 58.0667H509.995C508.851 58.0759 507.734 58.419 506.782 59.0537C505.83 59.6885 505.084 60.5873 504.635 61.64C504.426 62.1653 504.282 62.7143 504.206 63.2748C504.206 63.8287 504.206 64.4272 504.206 65.0079V82.3564C504.206 91.5875 504.206 100.673 504.206 109.612C504.206 127.479 504.206 144.711 504.206 161.131C504.206 177.55 504.206 193.148 504.206 207.754C504.206 211.404 504.206 214.978 504.206 218.474V221.154C504.158 222.005 504.206 222.859 504.349 223.7C504.539 224.51 504.896 225.273 505.397 225.937C505.899 226.602 506.534 227.154 507.262 227.559C507.984 227.953 508.782 228.19 509.602 228.256C510.406 228.3 511.264 228.256 512.086 228.256H526.549L585.357 228.327H601.348L585.357 228.372L526.549 228.443H511.987C511.157 228.443 510.344 228.443 509.477 228.443C508.606 228.38 507.76 228.13 506.994 227.711C506.221 227.283 505.547 226.699 505.013 225.996C504.479 225.294 504.098 224.487 503.894 223.628C503.743 222.758 503.689 221.874 503.733 220.993V218.313C503.733 214.793 503.733 211.22 503.733 207.593C503.733 192.987 503.733 177.389 503.733 160.97C503.733 144.55 503.733 127.318 503.733 109.451V64.7845C503.702 64.1894 503.702 63.593 503.733 62.9979C503.899 61.4581 504.63 60.0346 505.786 59.0032C506.941 57.9717 508.438 57.4056 509.986 57.4145H604.349C605.412 57.4145 606.422 57.4145 607.512 57.4145C608.589 57.5335 609.617 57.9306 610.495 58.5669C611.392 59.2169 612.104 60.0891 612.562 61.0979C613.019 62.1066 613.206 63.2171 613.104 64.32C613.104 97.15 613.104 126.71 613.05 151.545C612.997 176.38 612.997 196.471 612.979 210.362C612.979 213.837 612.979 216.919 612.979 219.59C612.979 220.26 612.979 220.903 612.979 221.52C613.003 222.117 612.976 222.714 612.898 223.307C612.722 224.514 612.186 225.641 611.358 226.538C610.531 227.436 609.452 228.062 608.262 228.336C607.916 228.418 607.563 228.466 607.208 228.479L606.824 228.443Z" fill="#263238"/>
<path d="M57.9064 118.724H294.238C295.393 118.724 296.537 118.952 297.605 119.394C298.673 119.836 299.643 120.484 300.46 121.301C301.277 122.119 301.925 123.089 302.367 124.156C302.809 125.224 303.037 126.368 303.037 127.523V276.219C303.037 279.003 301.931 281.673 299.963 283.641C297.994 285.61 295.324 286.715 292.54 286.715H59.9342C58.7775 286.715 57.6321 286.488 56.5635 286.045C55.4948 285.602 54.5238 284.954 53.7059 284.136C52.8879 283.318 52.2391 282.347 51.7965 281.278C51.3538 280.209 51.126 279.064 51.126 277.907V125.496C51.126 123.697 51.8403 121.973 53.1119 120.701C54.3835 119.43 56.1081 118.715 57.9064 118.715V118.724Z" fill="white"/>
<path d="M139.315 178.828H97.8735V195.452H139.315V178.828Z" fill="#7F56D9"/>
<path d="M263.65 178.828H222.208V195.452H263.65V178.828Z" fill="#7F56D9"/>
<path d="M263.65 211.845H222.208V228.47H263.65V211.845Z" fill="#7F56D9"/>
<path d="M263.65 228.363H222.208V244.988H263.65V228.363Z" fill="#7F56D9"/>
<path d="M180.766 212.149H139.325V228.774H180.766V212.149Z" fill="#7F56D9"/>
<path d="M222.137 228.97H180.695V245.595H222.137V228.97Z" fill="#7F56D9"/>
<path d="M180.766 261.952H139.325V279.247H180.766V261.952Z" fill="#EBEBEB"/>
<path d="M263.65 262.184H222.208V278.809H263.65V262.184Z" fill="#7F56D9"/>
<path d="M295.39 162.578H71.6187V178.828H295.39V162.578Z" fill="#E0E0E0"/>
<path d="M97.8827 162.578H58.6475V279.596H97.8827V162.578Z" fill="#E0E0E0"/>
<path d="M98.4456 280.167H58.0669V162.015H98.4456V280.167ZM59.2104 279.033H97.311V163.141H59.2104V279.033Z" fill="#E0E0E0"/>
<path d="M57.906 118.724H294.237C295.393 118.724 296.537 118.952 297.605 119.394C298.672 119.836 299.642 120.484 300.459 121.301C301.277 122.118 301.925 123.089 302.367 124.156C302.809 125.224 303.037 126.368 303.037 127.523V137.779H51.1167V125.496C51.1179 124.605 51.2944 123.724 51.6362 122.902C51.9781 122.079 52.4785 121.333 53.1089 120.704C53.7394 120.075 54.4875 119.576 55.3106 119.237C56.1337 118.897 57.0156 118.723 57.906 118.724Z" fill="#E0E0E0"/>
<path d="M97.8828 144.729H59.0942V155.637H97.8828V144.729Z" fill="#EBEBEB"/>
<path d="M139.825 144.729H102.421V155.637H139.825V144.729Z" fill="#EBEBEB"/>
<path d="M180.847 144.729H143.443V155.637H180.847V144.729Z" fill="#EBEBEB"/>
<path d="M221.869 144.729H184.465V155.637H221.869V144.729Z" fill="#EBEBEB"/>
<path d="M262.89 144.729H225.486V155.637H262.89V144.729Z" fill="#EBEBEB"/>
<path d="M297.257 144.729H266.508V155.637H297.257V144.729Z" fill="#EBEBEB"/>
<path d="M58.6482 279.256C58.6482 279.256 59.0413 279.256 59.8006 279.256H63.1864H76.2737L125.309 279.185L295.39 279.051L295.114 279.328C295.114 243.237 295.114 203.769 295.114 162.667L295.408 162.962L58.675 162.891L58.8894 162.667C58.8894 198.633 58.8001 227.773 58.7733 247.936C58.7733 258.022 58.7286 265.865 58.7197 271.163C58.7197 273.825 58.7197 275.85 58.7197 277.237C58.7197 278.604 58.7197 279.319 58.7197 279.319C58.7197 279.319 58.7197 278.631 58.7197 277.282C58.7197 275.933 58.7197 273.896 58.7197 271.252C58.7197 265.937 58.7197 258.111 58.6572 248.025C58.6572 227.827 58.5946 198.642 58.541 162.623V162.408H58.7643L295.498 162.328H295.694V162.587C295.694 203.68 295.694 243.157 295.694 279.247V279.524H295.417L125.148 279.39L76.1754 279.31H63.1506H59.7738L58.6482 279.256Z" fill="#263238"/>
<path d="M295.837 178.828C295.837 178.988 242.835 179.122 177.47 179.122C112.105 179.122 59.0942 178.988 59.0942 178.828C59.0942 178.667 112.078 178.533 177.47 178.533C242.862 178.533 295.837 178.667 295.837 178.828Z" fill="#263238"/>
<path d="M295.837 195.453C295.837 195.613 242.835 195.747 177.47 195.747C112.105 195.747 59.0942 195.64 59.0942 195.453C59.0942 195.265 112.078 195.158 177.47 195.158C242.862 195.158 295.837 195.292 295.837 195.453Z" fill="#263238"/>
<path d="M295.837 212.077C295.837 212.238 242.835 212.372 177.47 212.372C112.105 212.372 59.0942 212.238 59.0942 212.077C59.0942 211.917 112.078 211.783 177.47 211.783C242.862 211.783 295.837 211.917 295.837 212.077Z" fill="#263238"/>
<path d="M295.837 228.693C295.837 228.854 242.835 228.988 177.47 228.988C112.105 228.988 59.0942 228.863 59.0942 228.693C59.0942 228.524 112.078 228.399 177.47 228.399C242.862 228.399 295.837 228.541 295.837 228.693Z" fill="#263238"/>
<path d="M295.837 245.327C295.837 245.488 242.835 245.622 177.47 245.622C112.105 245.622 59.0942 245.488 59.0942 245.327C59.0942 245.166 112.078 245.032 177.47 245.032C242.862 245.032 295.837 245.166 295.837 245.327Z" fill="#263238"/>
<path d="M295.837 261.952C295.837 262.113 242.835 262.247 177.47 262.247C112.105 262.247 59.0942 262.113 59.0942 261.952C59.0942 261.791 112.078 261.657 177.47 261.657C242.862 261.657 295.837 261.791 295.837 261.952Z" fill="#263238"/>
<path d="M97.8739 279.613C97.7131 279.613 97.5791 253.555 97.5791 221.431C97.5791 189.306 97.7131 163.239 97.8739 163.239C98.0347 163.239 98.1687 189.288 98.1687 221.431C98.1687 253.573 98.0436 279.613 97.8739 279.613Z" fill="#263238"/>
<path d="M139.36 279.256C139.199 279.256 139.065 253.278 139.065 221.243C139.065 189.208 139.199 163.23 139.36 163.23C139.521 163.23 139.655 189.199 139.655 221.243C139.655 253.287 139.485 279.256 139.36 279.256Z" fill="#263238"/>
<path d="M180.766 279.613C180.606 279.613 180.472 253.555 180.472 221.431C180.472 189.306 180.606 163.239 180.766 163.239C180.927 163.239 181.061 189.288 181.061 221.431C181.061 253.573 180.927 279.613 180.766 279.613Z" fill="#263238"/>
<path d="M222.208 279.613C222.047 279.613 221.913 253.555 221.913 221.431C221.913 189.306 222.047 163.239 222.208 163.239C222.369 163.239 222.503 189.288 222.503 221.431C222.503 253.573 222.378 279.613 222.208 279.613Z" fill="#263238"/>
<path d="M263.659 279.613C263.498 279.613 263.364 253.555 263.364 221.431C263.364 189.306 263.498 163.239 263.659 163.239C263.819 163.239 263.953 189.288 263.953 221.431C263.953 253.573 263.819 279.613 263.659 279.613Z" fill="#263238"/>
<path d="M65.8568 128.256C65.8428 128.727 65.6907 129.183 65.4194 129.568C65.1481 129.953 64.7697 130.25 64.3311 130.422C63.8925 130.594 63.413 130.633 62.9524 130.534C62.4918 130.436 62.0702 130.204 61.7402 129.868C61.4102 129.532 61.1862 129.106 61.0961 128.644C61.006 128.181 61.0538 127.703 61.2335 127.267C61.4133 126.832 61.717 126.459 62.1069 126.195C62.4969 125.931 62.9559 125.787 63.427 125.781C63.7495 125.783 64.0686 125.848 64.3658 125.973C64.663 126.098 64.9324 126.281 65.1584 126.511C65.3844 126.742 65.5625 127.014 65.6824 127.314C65.8023 127.613 65.8616 127.933 65.8568 128.256Z" fill="white"/>
<path d="M74.0224 128.256C74.0083 128.728 73.8555 129.185 73.5831 129.571C73.3106 129.957 72.9306 130.253 72.4905 130.424C72.0503 130.595 71.5695 130.633 71.1082 130.532C70.6468 130.432 70.2254 130.197 69.8964 129.859C69.5675 129.52 69.3456 129.092 69.2585 128.628C69.1714 128.163 69.223 127.684 69.4068 127.249C69.5906 126.814 69.8985 126.443 70.2919 126.182C70.6854 125.921 71.1471 125.782 71.6193 125.781C71.9396 125.786 72.2558 125.854 72.5499 125.981C72.844 126.108 73.1102 126.291 73.3334 126.521C73.5565 126.751 73.7322 127.022 73.8505 127.32C73.9687 127.618 74.0271 127.936 74.0224 128.256Z" fill="white"/>
<path d="M82.1869 128.256C82.1729 128.728 82.0201 129.185 81.7476 129.571C81.4752 129.957 81.0952 130.253 80.655 130.424C80.2149 130.595 79.7341 130.633 79.2727 130.532C78.8114 130.432 78.3899 130.197 78.061 129.859C77.732 129.52 77.5101 129.092 77.4231 128.628C77.336 128.163 77.3876 127.684 77.5713 127.249C77.7551 126.814 78.063 126.443 78.4565 126.182C78.85 125.921 79.3116 125.782 79.7838 125.781C80.1041 125.786 80.4203 125.854 80.7145 125.981C81.0086 126.108 81.2748 126.291 81.4979 126.521C81.7211 126.751 81.8968 127.022 82.015 127.32C82.1332 127.618 82.1916 127.936 82.1869 128.256Z" fill="white"/>
<path d="M292.549 286.76L293.085 286.715C293.614 286.692 294.14 286.627 294.658 286.519C296.43 286.146 298.076 285.319 299.433 284.12C300.791 282.92 301.814 281.389 302.403 279.676C302.564 279.283 302.626 278.854 302.751 278.434C302.837 277.991 302.899 277.544 302.939 277.094C303.001 276.201 302.939 275.2 302.939 274.2C302.939 270.18 302.939 265.558 302.939 260.335C302.939 239.458 302.894 209.263 302.867 171.949C302.867 162.622 302.867 152.861 302.867 142.665C302.867 137.573 302.867 132.365 302.867 127.095C302.763 125.109 301.971 123.221 300.628 121.755C299.286 120.288 297.475 119.334 295.506 119.055C294.154 118.95 292.797 118.917 291.442 118.956H221.386H60.8811H58.2011C57.3402 118.934 56.4826 119.073 55.673 119.367C54.8672 119.662 54.1273 120.113 53.4958 120.694C52.8643 121.275 52.3534 121.974 51.9925 122.753C51.6334 123.53 51.433 124.372 51.4029 125.227C51.4029 126.121 51.4029 127.014 51.4029 127.863V195.05C51.4029 221.85 51.4029 247.757 51.4029 272.467V277.085C51.3102 278.585 51.5766 280.086 52.1801 281.463C52.7894 282.804 53.7328 283.967 54.9199 284.84C56.107 285.712 57.4983 286.266 58.9605 286.447C59.7004 286.506 60.443 286.524 61.1849 286.501H110.72H171.762L260.139 286.581H284.17H290.423H292.558C292.558 286.581 291.835 286.581 290.423 286.581H284.17L260.139 286.626L171.762 286.697H110.72H76.7199H61.1849C60.4279 286.716 59.6705 286.696 58.9158 286.635C57.3697 286.457 55.8956 285.884 54.6358 284.97C53.3761 284.056 52.3734 282.832 51.7245 281.418C51.1015 279.984 50.8231 278.423 50.9115 276.862V272.467C50.9115 247.802 50.9115 221.895 50.9115 195.05C50.9115 181.627 50.9115 167.974 50.9115 154.091V127.863C50.9115 126.97 50.9115 126.076 50.9115 125.183C50.9683 123.805 51.4334 122.474 52.2478 121.361C53.0622 120.247 54.1891 119.401 55.4854 118.93C56.3444 118.621 57.2528 118.472 58.1654 118.492H60.8454H221.351H291.406C292.78 118.456 294.154 118.492 295.524 118.599C296.899 118.792 298.209 119.306 299.348 120.1C300.475 120.877 301.409 121.904 302.076 123.099C302.744 124.295 303.128 125.629 303.198 126.996C303.251 132.303 303.198 137.484 303.198 142.585C303.198 152.769 303.198 162.53 303.198 171.868C303.198 209.183 303.135 239.378 303.126 260.255C303.126 265.472 303.126 270.093 303.126 274.119C303.126 275.129 303.126 276.085 303.082 277.023C303.04 277.476 302.974 277.926 302.885 278.372C302.792 278.798 302.672 279.219 302.528 279.631C302.019 281.093 301.196 282.426 300.116 283.535C298.635 285.033 296.746 286.061 294.684 286.492C294.162 286.589 293.634 286.646 293.103 286.662L292.549 286.76Z" fill="#263238"/>
<path d="M260.854 65.1508H453.921C454.984 65.1508 456.037 65.3605 457.019 65.7679C458.001 66.1753 458.893 66.7724 459.644 67.525C460.395 68.2776 460.99 69.171 461.395 70.1539C461.801 71.1369 462.008 72.1901 462.006 73.2533V340.047C461.999 342.027 461.208 343.922 459.807 345.32C458.406 346.718 456.508 347.504 454.528 347.507H260.925C259.129 347.507 257.407 346.793 256.137 345.523C254.867 344.253 254.154 342.531 254.154 340.735V71.8418C254.166 70.0693 254.875 68.3729 256.13 67.1203C257.384 65.8678 259.081 65.1601 260.854 65.1508Z" fill="white"/>
<path d="M260.854 65.1508H453.921C454.984 65.1508 456.037 65.3605 457.019 65.7679C458.001 66.1753 458.893 66.7724 459.644 67.525C460.395 68.2776 460.99 69.171 461.395 70.1539C461.801 71.1369 462.008 72.1901 462.006 73.2533V90.9056H254.154V71.8865C254.154 70.1062 254.859 68.3984 256.114 67.1362C257.369 65.874 259.074 65.1602 260.854 65.1508Z" fill="#E0E0E0"/>
<path d="M268.197 80.793C270.081 80.793 271.609 79.3411 271.609 77.5502C271.609 75.7592 270.081 74.3074 268.197 74.3074C266.312 74.3074 264.784 75.7592 264.784 77.5502C264.784 79.3411 266.312 80.793 268.197 80.793Z" fill="white"/>
<path d="M279.703 80.793C281.588 80.793 283.116 79.3411 283.116 77.5502C283.116 75.7592 281.588 74.3074 279.703 74.3074C277.818 74.3074 276.291 75.7592 276.291 77.5502C276.291 79.3411 277.818 80.793 279.703 80.793Z" fill="white"/>
<path d="M294.631 77.5501C294.665 78.2316 294.494 78.9077 294.14 79.491C293.785 80.0742 293.264 80.5379 292.644 80.8222C292.024 81.1064 291.332 81.1982 290.659 81.0856C289.986 80.973 289.363 80.6612 288.869 80.1905C288.375 79.7198 288.033 79.1118 287.888 78.4451C287.743 77.7783 287.801 77.0833 288.055 76.45C288.309 75.8166 288.747 75.2739 289.312 74.892C289.878 74.51 290.545 74.3064 291.227 74.3073C292.108 74.2881 292.961 74.6185 293.598 75.2262C294.236 75.8339 294.607 76.6694 294.631 77.5501Z" fill="white"/>
<path d="M293.613 136.876H285.242V198.088H293.613V136.876Z" fill="#7F56D9"/>
<path d="M309.773 157.664H301.402V198.088H309.773V157.664Z" fill="#7F56D9"/>
<path d="M325.924 144.479H317.554V198.391H325.924V144.479Z" fill="#7F56D9"/>
<path d="M342.076 139.235H333.705V198.079H342.076V139.235Z" fill="#7F56D9"/>
<path d="M358.227 158.906H349.857V198.079H358.227V158.906Z" fill="#7F56D9"/>
<path d="M374.388 166.589H366.017V198.079H374.388V166.589Z" fill="#7F56D9"/>
<path d="M390.539 143.157H382.168V198.079H390.539V143.157Z" fill="#7F56D9"/>
<path d="M406.691 153.055H398.32V198.079H406.691V153.055Z" fill="#7F56D9"/>
<path d="M422.842 145.149H414.471V198.088H422.842V145.149Z" fill="#7F56D9"/>
<path d="M439.002 162.015H430.632V198.079H439.002V162.015Z" fill="#7F56D9"/>
<g opacity="0.3">
<path d="M309.772 157.664H301.402V198.088H309.772V157.664Z" fill="white"/>
</g>
<g opacity="0.3">
<path d="M342.076 139.235H333.705V198.079H342.076V139.235Z" fill="white"/>
</g>
<g opacity="0.3">
<path d="M374.388 166.589H366.017V198.079H374.388V166.589Z" fill="white"/>
</g>
<g opacity="0.3">
<path d="M406.69 153.055H398.32V198.079H406.69V153.055Z" fill="white"/>
</g>
<g opacity="0.3">
<path d="M439.002 162.015H430.632V198.079H439.002V162.015Z" fill="white"/>
</g>
<path d="M276.612 139.235C276.612 139.235 276.612 139.333 276.612 139.512C276.612 139.69 276.612 139.976 276.612 140.325C276.612 141.057 276.612 142.111 276.612 143.505C276.612 146.301 276.612 150.366 276.665 155.538C276.665 165.919 276.71 180.703 276.746 198.418L276.549 198.213H332.052L413.149 198.284L437.715 198.356L444.398 198.4H446.184C446.577 198.4 446.774 198.4 446.774 198.4H446.184H444.398L437.715 198.445L413.149 198.525L332.052 198.588H276.549H276.344V198.382C276.344 180.694 276.406 165.91 276.424 155.502C276.424 150.33 276.469 146.265 276.487 143.469C276.487 142.085 276.487 141.022 276.487 140.289C276.487 139.941 276.487 139.673 276.487 139.476C276.522 139.392 276.564 139.312 276.612 139.235Z" fill="#263238"/>
<path d="M324.433 116.142H279.337C278.074 116.142 277.05 117.166 277.05 118.429V119.001C277.05 120.264 278.074 121.288 279.337 121.288H324.433C325.696 121.288 326.72 120.264 326.72 119.001V118.429C326.72 117.166 325.696 116.142 324.433 116.142Z" fill="#E0E0E0"/>
<path d="M433.482 219.706H274.674C273.411 219.706 272.387 220.73 272.387 221.993V222.565C272.387 223.828 273.411 224.852 274.674 224.852H433.482C434.745 224.852 435.768 223.828 435.768 222.565V221.993C435.768 220.73 434.745 219.706 433.482 219.706Z" fill="#E0E0E0"/>
<path d="M433.482 248.32H274.674C273.411 248.32 272.387 249.344 272.387 250.607V251.179C272.387 252.442 273.411 253.465 274.674 253.465H433.482C434.745 253.465 435.768 252.442 435.768 251.179V250.607C435.768 249.344 434.745 248.32 433.482 248.32Z" fill="#E0E0E0"/>
<path d="M358.79 233.946H274.674C273.411 233.946 272.387 234.97 272.387 236.233V236.805C272.387 238.068 273.411 239.092 274.674 239.092H358.79C360.053 239.092 361.077 238.068 361.077 236.805V236.233C361.077 234.97 360.053 233.946 358.79 233.946Z" fill="#E0E0E0"/>
<path d="M432.419 233.946H373.084C371.821 233.946 370.797 234.97 370.797 236.233V236.805C370.797 238.068 371.821 239.092 373.084 239.092H432.419C433.682 239.092 434.706 238.068 434.706 236.805V236.233C434.706 234.97 433.682 233.946 432.419 233.946Z" fill="#E0E0E0"/>
<path d="M335.081 262.685H275.746C274.483 262.685 273.459 263.708 273.459 264.972V265.543C273.459 266.806 274.483 267.83 275.746 267.83H335.081C336.344 267.83 337.368 266.806 337.368 265.543V264.972C337.368 263.708 336.344 262.685 335.081 262.685Z" fill="#E0E0E0"/>
<path d="M454.528 347.507C455.359 347.483 456.181 347.335 456.967 347.069C458.118 346.658 459.151 345.973 459.977 345.074C460.804 344.174 461.399 343.087 461.711 341.905C461.917 341.082 461.998 340.233 461.952 339.386V336.536C461.952 334.553 461.952 332.374 461.952 330.015C461.952 325.298 461.952 319.873 461.952 313.739C461.952 289.243 461.907 253.805 461.881 210.023C461.881 188.127 461.881 164.141 461.881 138.395C461.881 125.519 461.881 112.218 461.881 98.49V75.04C461.881 74.1466 461.881 73.2533 461.827 72.36C461.623 70.6223 460.854 68.9996 459.638 67.7414C458.406 66.4867 456.79 65.6788 455.047 65.4456C454.156 65.3642 453.261 65.3373 452.367 65.3652H449.687H261.318C259.781 65.2764 258.263 65.7358 257.032 66.6617C255.802 67.5875 254.941 68.9198 254.6 70.4214C254.426 71.4299 254.369 72.4551 254.431 73.4766C254.431 77.6455 254.431 81.7846 254.431 85.894V158.54C254.431 190.048 254.431 220.439 254.431 249.392C254.431 278.345 254.431 305.859 254.431 331.578C254.431 334.794 254.431 338.002 254.431 341.146C254.52 342.687 255.153 344.146 256.217 345.264C257.274 346.372 258.682 347.079 260.202 347.265C260.943 347.337 261.729 347.31 262.506 347.319H278.461H312.828L416.544 347.39L444.746 347.435H452.081C453.733 347.435 454.582 347.435 454.582 347.435H452.081H444.746H416.544L312.828 347.516H262.453C261.676 347.516 260.907 347.516 260.103 347.462C258.489 347.269 256.994 346.516 255.878 345.334C254.761 344.152 254.094 342.617 253.993 340.994C253.948 337.814 253.993 334.634 253.993 331.409C253.993 305.663 253.993 278.148 253.993 249.222C253.993 220.296 253.993 189.878 253.993 158.37V110.309C253.993 102.168 253.993 93.9727 253.993 85.7242V71.9222C254.001 71.3842 254.064 70.8485 254.181 70.3232C254.56 68.7366 255.482 67.3325 256.787 66.3537C258.092 65.3749 259.698 64.883 261.327 64.9632H449.696H452.376C453.285 64.9366 454.194 64.9634 455.1 65.0436C456.935 65.2875 458.636 66.1386 459.931 67.4614C461.226 68.7841 462.042 70.5023 462.247 72.3421C462.327 73.2354 462.247 74.1288 462.3 75.0221V77.7021C462.3 84.7594 462.3 91.7155 462.3 98.5704C462.3 112.268 462.3 125.57 462.3 138.476C462.3 164.221 462.3 188.207 462.3 210.103C462.3 253.876 462.238 289.324 462.22 313.819C462.22 319.947 462.22 325.373 462.22 330.096C462.22 332.454 462.22 334.634 462.22 336.617V339.467C462.26 340.323 462.172 341.181 461.961 342.013C461.593 343.389 460.836 344.629 459.781 345.586C459.019 346.284 458.122 346.819 457.146 347.158C456.554 347.36 455.938 347.486 455.315 347.533L454.528 347.507Z" fill="#263238"/>
<path d="M321.404 308.111C321.457 312.382 320.242 316.574 317.914 320.156C315.586 323.738 312.249 326.551 308.324 328.238C304.399 329.925 300.062 330.411 295.861 329.635C291.66 328.859 287.783 326.856 284.719 323.878C281.656 320.901 279.543 317.082 278.648 312.905C277.753 308.728 278.116 304.379 279.691 300.407C281.265 296.436 283.981 293.02 287.496 290.591C291.01 288.162 295.166 286.829 299.437 286.76C305.178 286.688 310.714 288.895 314.832 292.897C318.949 296.899 321.312 302.37 321.404 308.111ZM289.45 308.629C289.492 310.67 290.138 312.653 291.307 314.328C292.475 316.002 294.113 317.293 296.015 318.038C297.916 318.782 299.995 318.947 301.99 318.511C303.985 318.075 305.806 317.058 307.223 315.588C308.64 314.119 309.591 312.262 309.954 310.253C310.317 308.244 310.078 306.172 309.265 304.299C308.452 302.426 307.103 300.835 305.387 299.728C303.671 298.621 301.666 298.047 299.625 298.079C296.875 298.128 294.258 299.267 292.349 301.245C290.439 303.224 289.393 305.879 289.441 308.629H289.45Z" fill="#E0E0E0"/>
<path d="M321.404 308.111C321.502 313.851 319.321 319.396 315.34 323.531C311.358 327.667 305.9 330.056 300.16 330.176L299.981 318.839C301.345 318.818 302.69 318.528 303.941 317.986C305.192 317.444 306.325 316.661 307.273 315.682C308.222 314.703 308.968 313.546 309.47 312.279C309.971 311.011 310.218 309.657 310.197 308.294C310.175 306.93 309.885 305.585 309.343 304.334C308.802 303.083 308.019 301.95 307.039 301.002C306.06 300.053 304.904 299.307 303.636 298.805C302.368 298.304 301.014 298.057 299.651 298.078L299.437 286.76C305.179 286.686 310.716 288.892 314.834 292.894C318.951 296.897 321.314 302.369 321.404 308.111Z" fill="#455A64"/>
<path d="M302.073 331.918C298.787 331.996 295.519 331.418 292.46 330.218C289.4 329.017 286.611 327.218 284.256 324.926C281.901 322.634 280.027 319.895 278.743 316.87C277.46 313.844 276.793 310.593 276.782 307.307L289.977 307.092C290.084 313.792 295.185 318.009 301.849 317.902L302.073 331.918Z" fill="#7F56D9"/>
<path d="M336.466 310.549C336.417 306.278 337.634 302.088 339.965 298.509C342.295 294.929 345.633 292.119 349.558 290.435C353.484 288.751 357.82 288.267 362.02 289.045C366.22 289.823 370.095 291.827 373.157 294.806C376.219 297.784 378.33 301.603 379.223 305.779C380.117 309.956 379.753 314.304 378.178 318.275C376.603 322.245 373.887 325.66 370.372 328.088C366.858 330.516 362.704 331.849 358.433 331.918C352.689 331.987 347.152 329.777 343.035 325.772C338.917 321.767 336.555 316.293 336.466 310.549ZM368.42 310.031C368.376 307.991 367.729 306.01 366.56 304.337C365.392 302.664 363.754 301.374 361.854 300.63C359.953 299.887 357.875 299.722 355.882 300.158C353.888 300.593 352.068 301.609 350.65 303.077C349.233 304.545 348.282 306.4 347.917 308.408C347.553 310.416 347.79 312.487 348.601 314.36C349.411 316.232 350.758 317.824 352.471 318.932C354.184 320.041 356.187 320.618 358.227 320.59C359.59 320.567 360.935 320.275 362.185 319.732C363.435 319.189 364.566 318.404 365.513 317.424C366.459 316.443 367.203 315.285 367.702 314.017C368.201 312.748 368.445 311.394 368.42 310.031Z" fill="#455A64"/>
<path d="M336.466 310.549C336.37 304.806 338.555 299.258 342.542 295.122C346.529 290.986 351.993 288.599 357.736 288.484L357.915 299.821C355.206 299.93 352.647 301.095 350.785 303.065C348.923 305.036 347.905 307.656 347.948 310.367C347.991 313.078 349.092 315.664 351.016 317.574C352.94 319.484 355.534 320.567 358.245 320.591L358.433 331.918C352.687 331.994 347.146 329.787 343.027 325.78C338.908 321.773 336.548 316.295 336.466 310.549Z" fill="#7F56D9"/>
<path d="M355.798 286.76C359.083 286.681 362.351 287.259 365.411 288.46C368.47 289.66 371.259 291.459 373.614 293.751C375.97 296.043 377.844 298.782 379.127 301.808C380.41 304.833 381.077 308.085 381.088 311.371L367.894 311.577C367.786 304.885 362.685 300.66 356.021 300.776L355.798 286.76Z" fill="#E0E0E0"/>
<path d="M418.733 287.019C423.004 286.97 427.194 288.188 430.773 290.518C434.353 292.848 437.163 296.186 438.847 300.112C440.531 304.037 441.015 308.373 440.237 312.573C439.459 316.773 437.455 320.649 434.476 323.71C431.498 326.772 427.679 328.883 423.502 329.777C419.325 330.67 414.978 330.306 411.007 328.731C407.037 327.156 403.622 324.44 401.194 320.926C398.766 317.412 397.433 313.257 397.364 308.986C397.292 303.242 399.502 297.703 403.507 293.585C407.513 289.467 412.988 287.106 418.733 287.019ZM419.251 318.974C421.292 318.931 423.276 318.284 424.95 317.116C426.625 315.947 427.916 314.308 428.66 312.406C429.404 310.505 429.568 308.425 429.132 306.43C428.695 304.435 427.677 302.614 426.207 301.197C424.736 299.78 422.879 298.83 420.869 298.468C418.859 298.106 416.787 298.347 414.914 299.161C413.041 299.975 411.452 301.326 410.346 303.043C409.24 304.76 408.667 306.765 408.7 308.807C408.752 311.554 409.892 314.168 411.871 316.075C413.849 317.981 416.504 319.024 419.251 318.974Z" fill="#455A64"/>
<path d="M418.732 287.019C424.477 286.921 430.026 289.105 434.162 293.092C438.299 297.08 440.685 302.545 440.798 308.289L429.461 308.468C429.416 305.715 428.28 303.092 426.301 301.178C424.322 299.263 421.664 298.212 418.911 298.257C416.158 298.302 413.536 299.439 411.621 301.418C409.706 303.396 408.655 306.054 408.7 308.807L397.364 308.986C397.295 303.242 399.505 297.705 403.51 293.588C407.515 289.471 412.989 287.108 418.732 287.019Z" fill="#7F56D9"/>
<path d="M442.54 306.351C442.618 309.635 442.041 312.903 440.841 315.962C439.641 319.02 437.843 321.809 435.551 324.164C433.26 326.519 430.522 328.394 427.498 329.677C424.473 330.961 421.223 331.629 417.938 331.641L417.723 318.446C424.423 318.339 428.64 313.238 428.532 306.574L442.54 306.351Z" fill="#E0E0E0"/>
<path d="M225.683 35.653H164.177C162.036 35.653 160.3 37.3888 160.3 39.53V96.8731C160.3 99.0143 162.036 100.75 164.177 100.75H225.683C227.824 100.75 229.56 99.0143 229.56 96.8731V39.53C229.56 37.3888 227.824 35.653 225.683 35.653Z" fill="#FAFAFA"/>
<path d="M160.299 39.53C160.268 39.3048 160.268 39.0763 160.299 38.8511C160.409 38.196 160.686 37.5804 161.103 37.0644C161.447 36.6371 161.877 36.2873 162.365 36.0378C162.853 35.7884 163.388 35.6451 163.935 35.6172C165.222 35.6172 166.687 35.6172 168.348 35.6172L196.426 35.5457H215.82H225.236C225.713 35.5246 226.191 35.5697 226.656 35.6797C227.62 35.9246 228.462 36.5121 229.024 37.3324C229.304 37.7482 229.507 38.2113 229.622 38.6992C229.718 39.1814 229.757 39.673 229.738 40.1643V45.962C229.738 61.64 229.738 78.8724 229.738 96.9624C229.737 97.5614 229.605 98.153 229.352 98.696C229.099 99.2391 228.731 99.7205 228.273 100.107C227.822 100.497 227.287 100.779 226.71 100.929C226.142 101.062 225.559 101.113 224.977 101.081H169.313C167.455 101.081 165.651 101.081 163.81 101.081C162.869 100.989 161.987 100.579 161.309 99.9193C160.65 99.2607 160.234 98.3976 160.13 97.4716C160.085 90.4589 160.13 83.9912 160.13 78.0594C160.13 66.2139 160.183 56.6195 160.201 49.982C160.201 46.6767 160.201 44.1039 160.201 42.344C160.201 41.4864 160.201 40.8253 160.201 40.3608C160.201 40.8075 160.201 41.4864 160.201 42.344C160.201 44.1307 160.201 46.6767 160.201 49.982C160.201 56.6195 160.246 66.2139 160.273 78.0594C160.273 83.9823 160.273 90.4678 160.326 97.4269C160.423 98.2703 160.807 99.0547 161.414 99.6484C162.021 100.242 162.813 100.609 163.658 100.688C165.445 100.688 167.276 100.688 169.126 100.688H180.587H205.181H224.834C225.373 100.717 225.915 100.672 226.442 100.554C227.215 100.346 227.898 99.888 228.382 99.251C228.867 98.6141 229.127 97.8344 229.122 97.0339C229.122 78.9439 229.122 61.7115 229.122 46.0335C229.122 44.0771 229.122 42.1385 229.122 40.2357C229.204 39.3228 228.981 38.4084 228.488 37.6361C227.981 36.8993 227.227 36.3696 226.361 36.1443C225.928 36.0466 225.483 36.0075 225.039 36.0281H215.856H196.462L168.384 35.7333H163.98C163.449 35.7571 162.929 35.8909 162.452 36.1262C161.975 36.3614 161.553 36.6931 161.211 37.1001C160.785 37.6144 160.499 38.2297 160.38 38.8868C160.299 39.3067 160.317 39.53 160.299 39.53Z" fill="#263238"/>
<path d="M212.301 91.1646C212.301 91.2807 204.386 91.37 194.622 91.37C184.857 91.37 176.934 91.2807 176.934 91.1646C176.934 91.0484 184.849 90.9591 194.622 90.9591C204.395 90.9591 212.301 91.0574 212.301 91.1646Z" fill="#263238"/>
<path d="M204.43 94.4165C204.43 94.5237 200.035 94.6131 194.604 94.6131C189.172 94.6131 184.777 94.5237 184.777 94.4165C184.777 94.3093 189.163 94.2111 194.604 94.2111C200.044 94.2111 204.43 94.3004 204.43 94.4165Z" fill="#263238"/>
<path d="M196.015 65.9014L213.596 66.1068C213.456 70.6695 211.54 74.9972 208.256 78.1677C204.972 81.3382 200.58 83.1009 196.015 83.0802H195.908L196.015 65.9014Z" fill="#455A64"/>
<path d="M193.228 63.4267L192.96 80.6502C189.576 80.5292 186.302 79.4149 183.547 77.4462C180.792 75.4775 178.677 72.7414 177.466 69.5791C176.255 66.4168 176.002 62.968 176.738 59.6627C177.474 56.3574 179.166 53.3418 181.604 50.9916C184.042 48.6415 187.117 47.0609 190.447 46.4467C193.777 45.8326 197.215 46.2121 200.33 47.538C203.446 48.8639 206.103 51.0775 207.969 53.9029C209.836 56.7283 210.829 60.0405 210.826 63.4267H193.228Z" fill="#7F56D9"/>
<path d="M180.213 144.068L173.539 144.72C170.226 148.982 165.439 151.85 160.118 152.761C154.797 153.672 149.328 152.559 144.786 149.642C140.245 146.724 136.959 142.213 135.575 136.995C134.191 131.777 134.809 126.231 137.308 121.446C139.806 116.66 144.005 112.983 149.077 111.137C154.15 109.291 159.73 109.41 164.72 111.469C169.709 113.529 173.748 117.381 176.041 122.268C178.335 127.155 178.717 132.723 177.113 137.877L180.213 144.068Z" fill="white"/>
<path d="M180.32 143.827L180.097 143.407L179.489 142.228C178.953 141.164 178.176 139.646 177.176 137.663H177.345C177.327 137.68 177.303 137.689 177.278 137.689C177.254 137.689 177.23 137.68 177.211 137.663C177.194 137.649 177.18 137.632 177.172 137.611C177.164 137.59 177.162 137.568 177.167 137.546C178.213 134.15 178.409 130.549 177.739 127.059C176.761 122.237 174.179 117.888 170.413 114.722C167.983 112.691 165.131 111.227 162.065 110.437C158.998 109.647 155.794 109.551 152.686 110.155C149.577 110.759 146.642 112.049 144.095 113.93C141.547 115.811 139.451 118.236 137.958 121.029L137.351 122.199L136.86 123.414C136.546 124.22 136.278 125.043 136.056 125.88C135.055 129.824 135.207 133.973 136.495 137.834C137.782 141.694 140.15 145.104 143.318 147.659C145.518 149.439 148.048 150.766 150.762 151.564C153.477 152.362 156.323 152.614 159.135 152.307C161.948 152 164.672 151.139 167.15 149.774C169.629 148.409 171.812 146.567 173.576 144.354H173.647L178.578 143.934L179.874 143.836C180.168 143.836 180.329 143.836 180.329 143.836L179.918 143.889L178.659 144.032L173.665 144.577H173.727C171.529 147.416 168.65 149.656 165.357 151.089C160.23 153.312 154.445 153.479 149.197 151.557C143.95 149.636 139.642 145.771 137.163 140.762C135.698 137.73 134.946 134.402 134.966 131.034C134.972 129.29 135.188 127.554 135.609 125.862C135.83 125.007 136.101 124.165 136.422 123.342L136.922 122.101L137.539 120.904C139.063 118.059 141.202 115.59 143.8 113.675C146.398 111.76 149.39 110.448 152.559 109.834C155.727 109.22 158.993 109.319 162.118 110.124C165.244 110.929 168.15 112.421 170.628 114.49C174.448 117.723 177.051 122.163 178.007 127.077C178.664 130.613 178.431 134.257 177.328 137.68L177.14 137.6C177.16 137.582 177.185 137.573 177.211 137.573C177.238 137.573 177.263 137.582 177.283 137.6V137.645L179.516 142.317C179.757 142.817 179.936 143.21 180.07 143.496C180.159 143.602 180.243 143.712 180.32 143.827Z" fill="#263238"/>
<path d="M167.59 130.605H164.293V139.896H167.59V130.605Z" fill="#E0E0E0"/>
<path d="M163.069 131.383H168.706L165.83 128.408L163.069 131.383Z" fill="#E0E0E0"/>
<path d="M159.442 117.849H155.029V143.603H159.442V117.849Z" fill="#E0E0E0"/>
<path d="M153.395 118.885H160.935L157.084 114.918L153.395 118.885Z" fill="#E0E0E0"/>
<path d="M158.12 139.53V141.96H155.959V139.601C154.039 139.523 152.181 138.903 150.599 137.815L151.822 135.188C153.054 136.072 154.495 136.62 156.003 136.778L156.048 133.205C153.654 132.589 150.983 131.749 151.027 128.658C151.027 126.362 152.743 124.423 156.173 124.075V121.672H158.335V124.03C159.88 124.138 161.378 124.613 162.703 125.415L161.587 128.095C160.58 127.489 159.462 127.092 158.299 126.925L158.246 130.605C160.64 131.195 163.266 132.035 163.23 135.072C163.221 137.243 161.551 139.163 158.12 139.53ZM156.084 129.944V126.871C154.94 127.112 154.476 127.765 154.467 128.452C154.458 129.14 155.172 129.632 156.119 129.944H156.084ZM159.737 135.206C159.737 134.447 159.121 134.027 158.192 133.696V136.68C159.273 136.457 159.755 135.903 159.773 135.206H159.737Z" fill="#7F56D9"/>
<path d="M149.339 124.861H145.533V135.581H149.339V124.861Z" fill="#E0E0E0"/>
<path d="M144.122 125.763H150.626L147.302 122.324L144.122 125.763Z" fill="#E0E0E0"/>
<path d="M241.924 253.805C243.703 260.357 244.498 267.137 244.282 273.923C244.131 278.229 234.688 397.533 234.688 397.533L215.151 398.364L215.91 286.608L214.329 287.028C214.329 287.028 205.682 335.036 205.137 342.781C204.645 349.731 197.784 400.401 197.784 400.401L179.989 399.91L182.812 334.607L186.743 270.501L188.494 251.786L241.924 253.805Z" fill="#263238"/>
<path d="M212.355 275.325C212.609 275.509 212.889 275.654 213.186 275.754C213.967 276.113 214.793 276.363 215.642 276.496C216.237 276.583 216.842 276.561 217.429 276.433C218.123 276.285 218.761 275.945 219.269 275.45C219.793 274.872 220.157 274.167 220.324 273.405C220.52 272.636 220.618 271.841 220.752 271.037C221.235 267.785 221.53 264.829 221.69 262.685C221.771 261.613 221.815 260.746 221.833 260.147C221.866 259.851 221.866 259.551 221.833 259.254C221.753 259.546 221.705 259.845 221.69 260.147C221.619 260.826 221.521 261.675 221.413 262.667C221.19 264.802 220.842 267.741 220.359 270.984C220.109 272.583 219.966 274.209 219.01 275.191C218.566 275.598 218.036 275.902 217.46 276.079C216.883 276.257 216.275 276.305 215.678 276.219C214.848 276.109 214.033 275.905 213.248 275.611C212.961 275.487 212.661 275.391 212.355 275.325Z" fill="#455A64"/>
<path d="M217.589 259.96C217.589 259.96 217.455 259.862 217.187 259.862C216.793 259.87 216.413 260.008 216.106 260.255C215.868 260.436 215.676 260.67 215.544 260.938C215.413 261.206 215.345 261.501 215.347 261.8C215.388 262.169 215.535 262.519 215.769 262.807C216.004 263.095 216.316 263.31 216.669 263.425C217.022 263.541 217.401 263.553 217.76 263.46C218.12 263.366 218.445 263.172 218.697 262.899C218.874 262.658 218.993 262.38 219.046 262.086C219.098 261.791 219.083 261.489 219 261.202C218.9 260.822 218.677 260.486 218.366 260.246C218.134 260.085 217.982 260.067 217.973 260.085C218.339 260.393 218.599 260.809 218.715 261.273C218.76 261.513 218.755 261.76 218.702 261.998C218.648 262.236 218.546 262.461 218.402 262.658C218.203 262.876 217.943 263.028 217.656 263.095C217.369 263.162 217.068 263.141 216.794 263.033C216.51 262.958 216.256 262.798 216.066 262.574C215.876 262.351 215.759 262.074 215.731 261.782C215.727 261.537 215.775 261.294 215.872 261.07C215.969 260.845 216.113 260.643 216.294 260.478C216.659 260.172 217.113 259.991 217.589 259.96Z" fill="#455A64"/>
<path d="M186.966 269.313C187.184 269.372 187.41 269.397 187.636 269.385C188.247 269.412 188.859 269.394 189.467 269.331C193.537 268.922 197.341 267.124 200.241 264.239C200.677 263.809 201.083 263.35 201.456 262.863C201.605 262.695 201.729 262.505 201.822 262.3C201.759 262.256 201.17 262.997 200.035 264.033C197.086 266.737 193.385 268.481 189.422 269.036C187.922 269.251 186.966 269.233 186.966 269.313Z" fill="#455A64"/>
<path d="M261.354 192.513L272.181 170.957L280.409 175.138L273.369 199.24L261.354 192.513Z" fill="#C8856A"/>
<path d="M283.125 174.129C284.349 172.119 285.805 169.912 285.805 169.912L286.984 167.893C287.086 168.012 287.176 168.14 287.252 168.277C287.379 168.547 287.577 168.779 287.824 168.947C288.087 169.049 288.376 169.068 288.651 169.001C288.925 168.934 289.173 168.784 289.36 168.572C289.794 168.186 290.119 167.692 290.302 167.141C290.485 166.589 290.52 166 290.404 165.43C290.287 164.861 290.022 164.333 289.637 163.898C289.252 163.463 288.759 163.137 288.208 162.953C288.05 162.669 287.841 162.418 287.591 162.212C285.876 160.836 282.83 161.783 282.83 161.783L283.143 161.014C283.143 161.014 284.929 159.228 288.985 160.612C289.583 160.841 290.245 160.841 290.843 160.612C291.029 160.548 291.198 160.444 291.339 160.306C291.479 160.169 291.588 160.002 291.656 159.817C291.978 158.835 291.352 158.361 288.86 157.45C286.367 156.539 283.643 156.494 282.142 157.45C281.438 157.89 280.766 158.379 280.132 158.915C280.132 158.915 282.571 151.849 282.705 151.393C283.098 150.08 282.848 148.812 281.99 148.472C281.445 148.249 280.597 148.374 280.087 149.892C279.65 151.197 273.459 164.052 273.459 164.052L271.047 169.894L269.841 175.031L277.345 178.443L279.23 177.264C280.857 176.711 282.237 175.6 283.125 174.129Z" fill="#C8856A"/>
<path d="M272.369 169.787C272.735 169.966 273.148 170.026 273.55 169.958C273.952 169.891 274.323 169.7 274.611 169.412C275.227 168.885 275.656 168.17 276.237 167.625C277.979 165.928 280.864 165.785 282.49 163.998C282.722 163.757 282.937 163.373 282.74 163.105C282.544 162.837 282.177 162.881 281.847 162.944L273.977 164.373" fill="#C8856A"/>
<path d="M273.977 164.373C274.246 164.258 274.528 164.174 274.816 164.123C275.361 163.998 276.156 163.819 277.139 163.614L280.596 162.908L281.597 162.703C281.99 162.561 282.423 162.581 282.803 162.756C282.911 162.837 282.992 162.948 283.035 163.076C283.078 163.204 283.081 163.342 283.044 163.471C282.985 163.686 282.878 163.884 282.731 164.052C282.461 164.341 282.162 164.601 281.838 164.829C280.572 165.535 279.258 166.153 277.907 166.678C277.356 166.936 276.847 167.277 276.398 167.688C275.978 168.081 275.656 168.518 275.317 168.903C275.069 169.235 274.752 169.51 274.389 169.709C274.025 169.908 273.622 170.026 273.208 170.055C272.601 170.055 272.315 169.76 272.378 169.751C272.642 169.841 272.92 169.884 273.199 169.876C273.575 169.817 273.935 169.681 274.256 169.476C274.578 169.272 274.853 169.004 275.067 168.688C275.399 168.248 275.754 167.824 276.13 167.42C276.599 166.968 277.135 166.591 277.72 166.303C279.041 165.762 280.329 165.144 281.579 164.454C281.875 164.25 282.148 164.013 282.392 163.748C282.615 163.498 282.705 163.203 282.544 163.114C282.383 163.024 282.017 163.114 281.65 163.114L280.641 163.301L277.175 163.909C276.183 164.079 275.388 164.204 274.825 164.284C274.549 164.357 274.262 164.387 273.977 164.373Z" fill="#FF9A6C"/>
<path d="M282.714 161.792C282.909 161.321 283.215 160.904 283.607 160.577C284.054 160.254 284.592 160.082 285.143 160.085C285.825 160.102 286.499 160.223 287.144 160.443C287.815 160.667 288.506 160.826 289.208 160.916C289.815 160.996 290.433 160.91 290.995 160.666C291.179 160.584 291.343 160.461 291.473 160.306C291.603 160.151 291.696 159.969 291.745 159.773C291.79 159.496 291.745 159.344 291.745 159.344C291.702 159.476 291.666 159.61 291.638 159.746C291.579 159.917 291.485 160.074 291.36 160.205C291.235 160.336 291.083 160.439 290.914 160.505C290.394 160.691 289.836 160.749 289.288 160.675C288.608 160.573 287.938 160.408 287.287 160.184C286.612 159.953 285.902 159.838 285.188 159.844C284.586 159.852 284.003 160.063 283.535 160.443C283.227 160.7 282.984 161.028 282.83 161.399C282.705 161.631 282.696 161.783 282.714 161.792Z" fill="#FF9A6C"/>
<path d="M282.839 150.884C282.638 151.338 282.474 151.807 282.347 152.286C282.035 153.26 281.66 154.413 281.24 155.69L280.087 159.076C279.902 159.537 279.753 160.012 279.641 160.496C279.908 160.074 280.124 159.621 280.284 159.147C280.632 158.254 281.079 157.11 281.526 155.779C281.972 154.448 282.321 153.233 282.544 152.349C282.697 151.873 282.796 151.382 282.839 150.884Z" fill="#FF9A6C"/>
<path d="M283.776 163.909C283.776 163.909 283.946 163.909 284.241 163.909C284.437 163.878 284.636 163.89 284.827 163.942C285.018 163.994 285.196 164.087 285.349 164.213C285.436 164.307 285.497 164.423 285.525 164.548C285.553 164.674 285.548 164.804 285.509 164.927C285.421 165.237 285.298 165.537 285.143 165.821C284.932 166.168 284.858 166.583 284.938 166.982C285.006 167.19 285.123 167.38 285.278 167.535C285.433 167.69 285.623 167.807 285.831 167.875C286.041 167.942 286.262 167.966 286.482 167.946C286.701 167.926 286.914 167.863 287.109 167.759C287.464 167.576 287.759 167.293 287.957 166.946C288.238 166.383 288.434 165.78 288.538 165.159C288.612 164.734 288.612 164.299 288.538 163.873C288.516 163.716 288.458 163.566 288.368 163.435C288.378 163.588 288.396 163.74 288.422 163.891C288.441 164.306 288.399 164.721 288.297 165.124C288.173 165.723 287.968 166.303 287.689 166.848C287.519 167.157 287.252 167.401 286.929 167.543C286.606 167.685 286.245 167.717 285.903 167.634C285.736 167.579 285.584 167.486 285.46 167.362C285.336 167.238 285.242 167.086 285.188 166.919C285.129 166.585 285.189 166.24 285.358 165.946C285.522 165.641 285.648 165.317 285.733 164.981C285.775 164.822 285.772 164.654 285.725 164.496C285.677 164.339 285.587 164.197 285.465 164.087C285.289 163.946 285.083 163.848 284.863 163.8C284.643 163.752 284.415 163.755 284.196 163.811C284.051 163.816 283.909 163.849 283.776 163.909Z" fill="#FF9A6C"/>
<path d="M287.055 167.5C287.055 167.5 286.948 167.625 286.957 167.911C286.969 168.111 287.028 168.306 287.129 168.48C287.229 168.654 287.37 168.802 287.538 168.911C287.801 169.055 288.096 169.131 288.395 169.131C288.695 169.131 288.99 169.055 289.253 168.911C289.88 168.55 290.349 167.967 290.566 167.277C290.784 166.597 290.784 165.866 290.566 165.186C290.399 164.64 290.091 164.147 289.673 163.757C289.389 163.498 289.059 163.294 288.699 163.158C288.571 163.096 288.43 163.066 288.288 163.069C288.74 163.288 289.159 163.57 289.53 163.909C289.91 164.285 290.187 164.752 290.334 165.267C290.515 165.893 290.499 166.561 290.289 167.178C290.094 167.802 289.678 168.332 289.119 168.67C288.893 168.793 288.639 168.857 288.382 168.857C288.125 168.857 287.871 168.793 287.645 168.67C287.495 168.581 287.367 168.461 287.268 168.317C287.169 168.174 287.103 168.011 287.073 167.839C287.029 167.652 287.082 167.5 287.055 167.5Z" fill="#FF9A6C"/>
<path d="M280.578 170.627C280.578 170.627 280.355 170.466 279.9 170.412C279.275 170.347 278.646 170.491 278.113 170.823L278.327 170.966C278.402 170.639 278.455 170.308 278.488 169.974C278.659 168.81 278.498 167.621 278.024 166.544C278.2 167.669 278.257 168.81 278.193 169.948C278.166 170.272 278.119 170.594 278.05 170.912L277.988 171.243L278.265 171.055C278.748 170.75 279.309 170.588 279.882 170.591C280.319 170.627 280.57 170.671 280.578 170.627Z" fill="#FF9A6C"/>
<path d="M284.769 158.629C284.688 158.629 284.769 159.237 285.323 159.701C285.466 159.857 285.645 159.978 285.843 160.054C286.041 160.13 286.255 160.159 286.466 160.139C286.466 160.049 285.984 159.898 285.528 159.487C285.072 159.076 284.849 158.593 284.769 158.629Z" fill="#FF9A6C"/>
<path d="M280.784 180.668L269.832 175.031L260.452 190.11L243.612 176.389C240.689 174.144 237.325 172.54 233.741 171.681L232.785 174.682L235.715 199.428C235.715 199.428 254.618 211.398 259.549 211.89C269.832 212.908 280.784 180.668 280.784 180.668Z" fill="#455A64"/>
<path d="M240.924 224.763L238.807 189.923L233.742 171.69L217.822 169.814L198.866 170.966L182.857 179.899L185.493 207.87L189.388 237.18L187.065 260.407C190.344 263.453 200.822 267.321 216.545 266.365C225.808 265.86 234.797 263.044 242.693 258.173L240.924 224.763Z" fill="#455A64"/>
<path d="M172.217 272.994C172.217 272.279 164.686 235.474 164.811 233.767C165.856 220.224 172.44 198.516 174.441 191.709C177.47 181.436 183.589 179.605 183.589 179.605C183.589 179.605 186.269 183.508 188.404 191.218C190.539 198.927 188.404 207.209 188.404 207.209L182.24 232.267L186.117 271.948L172.217 272.994Z" fill="#455A64"/>
<path d="M236.609 185.099C236.808 185.548 236.967 186.014 237.082 186.492C237.359 187.386 237.708 188.717 238.083 190.36C238.458 192.004 238.842 193.934 239.146 196.194C239.45 198.454 239.673 200.857 239.834 203.43C240.129 208.567 240.254 213.256 240.441 216.589C240.531 218.206 240.611 219.546 240.665 220.564C240.706 221.054 240.706 221.547 240.665 222.038C240.563 221.558 240.495 221.071 240.459 220.582C240.343 219.688 240.227 218.286 240.084 216.607C239.807 213.248 239.637 208.567 239.343 203.457C239.182 200.893 238.967 198.454 238.69 196.256C238.413 194.059 238.065 192.076 237.734 190.423C237.404 188.77 237.109 187.448 236.841 186.537C236.73 186.064 236.653 185.583 236.609 185.099Z" fill="#263238"/>
<path d="M261.577 201.59C261.237 201.086 260.981 200.531 260.818 199.946C260.346 198.555 260.046 197.112 259.925 195.649C259.793 194.187 259.832 192.715 260.041 191.263C260.081 190.645 260.232 190.04 260.487 189.476C260.315 191.508 260.282 193.55 260.389 195.586C260.642 197.613 261.039 199.619 261.577 201.59Z" fill="#263238"/>
<path d="M188.369 207.879C188.494 207.879 187.27 213.239 185.626 219.858C183.982 226.478 182.562 231.757 182.437 231.731C182.312 231.704 183.545 226.371 185.179 219.751C186.814 213.131 188.244 207.852 188.369 207.879Z" fill="#263238"/>
<path d="M188.154 195.292C188.029 195.354 187.064 193.139 185.305 190.771C183.545 188.404 181.731 186.832 181.812 186.725C183.341 187.708 184.657 188.991 185.68 190.494C186.824 191.908 187.666 193.54 188.154 195.292Z" fill="#263238"/>
<path d="M222.593 269.447C228.239 268.389 234.055 268.679 239.568 270.293C245.081 271.908 250.135 274.803 254.317 278.74C258.5 282.678 261.693 287.548 263.637 292.954C265.581 298.359 266.221 304.148 265.504 309.847C264.787 315.547 262.735 320.997 259.513 325.753C256.291 330.509 251.992 334.437 246.965 337.217C241.938 339.997 236.325 341.55 230.584 341.75C224.843 341.95 219.136 340.791 213.927 338.368C206.922 335.109 201.133 329.709 197.395 322.948C193.656 316.187 192.161 308.413 193.124 300.747C194.088 293.081 197.461 285.92 202.757 280.294C208.053 274.669 214.999 270.871 222.593 269.447ZM235.6 338.734C243.564 337.231 250.729 332.932 255.804 326.613C260.879 320.293 263.53 312.369 263.278 304.268C263.026 296.167 259.889 288.422 254.431 282.43C248.974 276.437 241.555 272.592 233.513 271.586C225.471 270.58 217.334 272.481 210.569 276.944C203.804 281.408 198.856 288.142 196.617 295.931C194.378 303.721 194.995 312.054 198.357 319.429C201.72 326.803 207.606 332.734 214.955 336.152C221.398 339.147 228.617 340.05 235.6 338.734Z" fill="#455A64"/>
<path d="M229.266 343.549C219.658 343.53 210.407 339.911 203.336 333.406C196.265 326.901 191.889 317.983 191.07 308.411C190.251 298.838 193.048 289.306 198.911 281.695C204.774 274.084 213.276 268.945 222.741 267.294C232.205 265.643 241.945 267.598 250.039 272.774C258.133 277.951 263.993 285.972 266.464 295.256C268.935 304.541 267.837 314.414 263.387 322.929C258.937 331.443 251.458 337.982 242.424 341.253C238.208 342.79 233.753 343.567 229.266 343.549ZM229.337 272.976C224.14 272.97 219.019 274.219 214.408 276.615C209.797 279.012 205.832 282.486 202.851 286.742C199.87 290.999 197.959 295.912 197.283 301.064C196.606 306.217 197.183 311.456 198.964 316.338C201.577 323.523 206.66 329.545 213.304 333.329C219.948 337.112 227.72 338.41 235.233 336.992C240.279 336.045 245.027 333.913 249.087 330.771C253.147 327.629 256.402 323.567 258.585 318.92C260.868 314 261.876 308.585 261.517 303.174C261.158 297.762 259.442 292.528 256.529 287.953C253.616 283.378 249.598 279.61 244.846 276.996C240.094 274.382 234.761 273.005 229.337 272.994V272.976Z" fill="#E0E0E0"/>
<path d="M140.575 269.653L140.897 268.858C141.593 267.151 143.112 266.178 144.282 266.642L197.596 288.332C197.864 288.439 197.954 288.832 197.793 289.226L195.524 294.8C195.372 295.175 195.033 295.398 194.765 295.291L141.459 273.601C140.253 273.119 139.887 271.35 140.575 269.653Z" fill="#E0E0E0"/>
<path d="M241.852 292.924C241.942 293.022 234.992 299.097 226.353 306.494C217.715 313.891 210.63 319.804 210.55 319.715C210.47 319.626 217.402 313.56 226.014 306.145C234.625 298.731 241.772 292.826 241.852 292.924Z" fill="white"/>
<path d="M250.786 292.924C250.866 293.022 245.024 298.177 237.725 304.448C230.427 310.719 224.45 315.722 224.325 315.633C224.2 315.543 230.087 310.371 237.386 304.1C244.684 297.828 250.705 292.826 250.786 292.924Z" fill="white"/>
<path d="M263.936 305.297C263.936 305.297 263.936 305.1 263.882 304.734C263.829 304.368 263.82 303.841 263.775 303.09C263.775 302.724 263.775 302.322 263.704 301.884C263.632 301.446 263.561 300.991 263.489 300.437C263.418 299.883 263.31 299.347 263.221 298.749C263.132 298.15 262.917 297.534 262.766 296.864C261.963 293.617 260.671 290.511 258.933 287.653C256.651 283.871 253.663 280.563 250.134 277.907L248.642 276.799C248.115 276.46 247.57 276.147 247.025 275.808C246.48 275.468 245.935 275.111 245.337 274.834L243.55 273.941L242.657 273.512L241.701 273.163L239.762 272.458C239.101 272.243 238.413 272.1 237.734 271.913C237.048 271.716 236.349 271.561 235.644 271.448C234.207 271.178 232.754 271.008 231.293 270.939C230.552 270.939 229.81 270.841 229.051 270.859L226.773 270.975C226.398 270.975 226.005 270.975 225.63 271.046L224.477 271.225C223.709 271.35 222.932 271.439 222.164 271.6C220.608 271.947 219.077 272.398 217.581 272.949C216.047 273.5 214.554 274.16 213.114 274.923C212.39 275.316 211.694 275.772 210.979 276.201C210.622 276.424 210.246 276.621 209.916 276.871L208.898 277.63C206.089 279.665 203.633 282.146 201.626 284.973L200.84 286.036L200.143 287.162L199.455 288.305C199.209 288.678 198.994 289.069 198.812 289.476L197.642 291.906L196.748 294.452C194.378 301.49 194.378 309.112 196.748 316.151C197.061 316.999 197.374 317.848 197.642 318.697C197.91 319.545 198.428 320.314 198.812 321.127L199.107 321.725L199.455 322.297L200.107 323.387L200.804 324.521L201.59 325.584C203.595 328.402 206.052 330.868 208.862 332.883L209.871 333.642C210.211 333.901 210.586 334.089 210.934 334.312C211.658 334.741 212.355 335.205 213.078 335.599C215.952 337.081 219.002 338.194 222.155 338.913C222.923 339.074 223.7 339.163 224.468 339.288L225.621 339.467C225.996 339.52 226.389 339.467 226.764 339.538L229.042 339.663C229.802 339.663 230.543 339.601 231.284 339.574C232.747 339.503 234.203 339.336 235.644 339.074C236.346 338.953 237.04 338.795 237.725 338.6C238.404 338.413 239.092 338.27 239.753 338.055L241.692 337.349L242.648 337.001L243.541 336.572L245.328 335.679C245.917 335.411 246.444 335.027 247.007 334.705C247.57 334.384 248.097 334.053 248.624 333.714L250.134 332.677C253.653 330.01 256.628 326.693 258.897 322.904C260.632 320.055 261.925 316.958 262.73 313.721C262.882 313.051 263.114 312.443 263.185 311.836C263.257 311.228 263.364 310.675 263.453 310.147C263.543 309.62 263.623 309.147 263.668 308.709C263.712 308.271 263.721 307.861 263.739 307.494C263.784 306.789 263.82 306.244 263.846 305.851C263.873 305.457 263.9 305.297 263.9 305.297C263.9 305.297 263.9 305.484 263.9 305.851C263.9 306.217 263.9 306.789 263.846 307.503L263.793 308.718C263.793 309.165 263.668 309.611 263.596 310.174C263.525 310.737 263.436 311.264 263.346 311.863C263.236 312.505 263.09 313.14 262.908 313.765C262.132 317.029 260.857 320.154 259.13 323.029C256.867 326.869 253.882 330.233 250.339 332.936L248.865 334.107C248.338 334.455 247.784 334.777 247.23 335.116C246.677 335.456 246.141 335.822 245.542 336.099L243.755 336.992L242.862 337.43L241.897 337.787L239.941 338.502C239.28 338.725 238.583 338.868 237.895 339.056C237.204 339.263 236.499 339.424 235.787 339.538C234.336 339.815 232.867 339.991 231.392 340.065C230.641 340.065 229.882 340.163 229.123 340.155L226.818 340.038C226.434 340.038 226.041 340.038 225.656 339.967L224.495 339.797C223.718 339.663 222.932 339.574 222.155 339.413C220.575 339.066 219.02 338.616 217.5 338.064C215.944 337.504 214.428 336.839 212.962 336.072C212.221 335.679 211.515 335.179 210.782 334.786C210.434 334.553 210.05 334.357 209.71 334.107L208.683 333.338C205.835 331.297 203.344 328.797 201.313 325.942L200.509 324.87L199.803 323.726L199.107 322.574L198.749 321.993L198.454 321.386C198.061 320.573 197.668 319.751 197.266 318.929C196.864 318.107 196.641 317.214 196.319 316.347C195.179 312.791 194.576 309.085 194.533 305.35C194.572 301.619 195.174 297.914 196.319 294.362C196.632 293.469 196.945 292.638 197.266 291.781L198.446 289.324C198.632 288.912 198.85 288.515 199.098 288.136L199.794 286.983L200.5 285.831L201.304 284.759C203.339 281.909 205.829 279.413 208.674 277.371L209.702 276.612C210.041 276.353 210.425 276.156 210.782 275.933C211.506 275.495 212.212 275.039 212.953 274.637C214.419 273.871 215.935 273.205 217.491 272.645C219.009 272.095 220.561 271.644 222.137 271.296C222.923 271.136 223.709 271.046 224.486 270.921L225.648 270.743C226.032 270.689 226.425 270.698 226.809 270.671L229.114 270.555C229.873 270.555 230.632 270.617 231.383 270.653C232.858 270.72 234.327 270.893 235.778 271.171C236.49 271.287 237.195 271.448 237.886 271.654C238.574 271.841 239.271 271.984 239.932 272.208L241.888 272.922L242.853 273.28L243.746 273.717L245.533 274.611C246.132 274.888 246.659 275.272 247.222 275.593C247.784 275.915 248.329 276.254 248.856 276.603L250.357 277.728C253.9 280.432 256.885 283.796 259.148 287.635C260.875 290.511 262.15 293.636 262.926 296.899C263.108 297.525 263.254 298.16 263.364 298.802C263.453 299.41 263.534 299.972 263.614 300.499C263.695 301.027 263.775 301.509 263.811 301.947C263.846 302.384 263.811 302.84 263.864 303.162C263.864 303.876 263.909 304.421 263.918 304.814C263.927 305.207 263.936 305.297 263.936 305.297Z" fill="#263238"/>
<path d="M251.162 323.673C251.428 323.257 251.726 322.862 252.055 322.493C252.856 321.437 253.593 320.333 254.261 319.188C256.49 315.426 257.882 311.228 258.345 306.879C258.807 302.531 258.329 298.134 256.941 293.987C256.5 292.741 255.987 291.521 255.405 290.333C255.176 289.902 254.973 289.458 254.797 289.002C254.797 289.002 254.887 289.101 255.021 289.315C255.155 289.529 255.351 289.833 255.566 290.253C256.194 291.433 256.734 292.657 257.183 293.916C258.682 298.09 259.219 302.55 258.755 306.961C258.291 311.372 256.837 315.622 254.503 319.394C253.803 320.533 253.018 321.617 252.153 322.636C251.858 323.003 251.599 323.262 251.43 323.449C251.35 323.535 251.26 323.61 251.162 323.673Z" fill="#263238"/>
<path d="M203.931 320.117C203.931 320.117 203.841 319.983 203.716 319.706C203.591 319.429 203.395 319.018 203.198 318.473C202.606 316.948 202.14 315.376 201.805 313.774C200.637 308.461 200.766 302.945 202.181 297.692C203.596 292.44 206.255 287.605 209.934 283.597C211.034 282.384 212.229 281.261 213.507 280.238C213.954 279.872 214.329 279.622 214.57 279.443C214.811 279.265 214.954 279.175 214.963 279.193C214.972 279.211 214.49 279.622 213.623 280.381C208.329 284.989 204.502 291.049 202.617 297.81C201.241 303 201.064 308.435 202.099 313.703C202.411 315.298 202.829 316.871 203.35 318.411C203.734 319.5 203.966 320.099 203.931 320.117Z" fill="white"/>
<path d="M224.37 276.933C223.728 277.211 223.033 277.348 222.333 277.335C221.644 277.469 220.934 277.45 220.252 277.282C220.893 276.999 221.589 276.862 222.289 276.88C222.978 276.746 223.688 276.765 224.37 276.933Z" fill="white"/>
<path d="M184.25 272.056L184.5 274.039L188.351 278.64L191.102 285.706L186.948 284.08C186.948 284.08 185.161 292.584 184.473 292.817C183.786 293.049 181.793 292.343 181.981 290.708C181.688 290.996 181.332 291.213 180.942 291.342C180.551 291.47 180.137 291.507 179.73 291.45C178.488 291.191 178.184 290.387 178.327 288.832C178.327 288.832 176.871 290.021 176.005 289.279C175.739 289.017 175.531 288.701 175.394 288.354C175.257 288.006 175.194 287.634 175.21 287.26C175.21 287.26 173.316 287.421 173.057 286.438C172.784 284.832 172.747 283.195 172.949 281.579L174.084 276.147L173.387 273.003L184.25 272.056Z" fill="#C8856A"/>
<path d="M182.91 285.804C182.352 287.381 182.05 289.036 182.017 290.708C182.361 289.94 182.584 289.124 182.678 288.288C182.887 287.477 182.965 286.639 182.91 285.804Z" fill="#FF9A6C"/>
<path d="M179.051 284.821C178.53 286.063 178.262 287.396 178.265 288.743C178.787 287.502 179.054 286.168 179.051 284.821Z" fill="#FF9A6C"/>
<path d="M175.835 283.91C175.629 284.444 175.511 285.009 175.487 285.581C175.333 286.126 175.24 286.686 175.21 287.251C175.606 286.805 175.842 286.239 175.88 285.643C176.024 285.072 176.009 284.473 175.835 283.91Z" fill="#FF9A6C"/>
<path d="M187.27 281.623C186.714 283.17 186.328 284.773 186.118 286.403C186.533 285.682 186.815 284.892 186.948 284.071C187.206 283.282 187.315 282.452 187.27 281.623Z" fill="#FF9A6C"/>
<path d="M197.534 153.108C196.231 149.826 195.215 146.436 194.497 142.978C193.779 139.501 193.935 135.901 194.952 132.499C195.122 131.999 196.596 128.577 197.123 128.604C197.507 128.604 196.641 131.802 196.846 132.124C198.701 135.302 199.546 138.969 199.267 142.639C199.079 146.182 198.498 149.693 197.534 153.108Z" fill="#263238"/>
<path d="M225.907 137.448C225.66 133.515 223.941 129.82 221.092 127.098C218.242 124.376 214.472 122.828 210.532 122.762H209.576C200.724 123.128 196.766 131.052 197.374 139.887L198.865 170.975L201.876 173.887C203.06 175.036 204.52 175.863 206.114 176.288C207.709 176.712 209.386 176.721 210.986 176.314C212.585 175.906 214.053 175.095 215.25 173.959C216.446 172.823 217.332 171.399 217.822 169.823C217.759 167.33 217.92 167.509 217.938 167.509C217.956 167.509 226.46 166.33 226.72 157.834C226.836 153.653 226.398 145.14 225.907 137.448Z" fill="#C8856A"/>
<path d="M217.974 167.491C214.053 167.409 210.237 166.206 206.977 164.025C206.977 164.025 209.559 170.278 218.054 169.635L217.974 167.491Z" fill="#C8856A"/>
<path d="M223.334 145.488C223.331 145.806 223.205 146.11 222.981 146.335C222.757 146.561 222.454 146.69 222.136 146.694C221.982 146.704 221.828 146.682 221.682 146.631C221.536 146.58 221.402 146.5 221.288 146.395C221.174 146.291 221.082 146.165 221.017 146.025C220.953 145.884 220.917 145.732 220.913 145.578C220.915 145.262 221.04 144.959 221.262 144.734C221.484 144.508 221.785 144.379 222.101 144.372C222.255 144.363 222.41 144.385 222.556 144.437C222.701 144.489 222.835 144.569 222.95 144.673C223.065 144.777 223.158 144.902 223.223 145.042C223.289 145.182 223.327 145.334 223.334 145.488Z" fill="#263238"/>
<path d="M212.024 145.39C212.022 145.708 211.895 146.012 211.671 146.237C211.448 146.463 211.145 146.591 210.827 146.596C210.672 146.607 210.516 146.586 210.37 146.536C210.223 146.485 210.088 146.405 209.973 146.301C209.857 146.196 209.764 146.07 209.699 145.929C209.634 145.787 209.599 145.635 209.594 145.479C209.595 145.319 209.628 145.161 209.691 145.013C209.754 144.865 209.845 144.732 209.96 144.62C210.074 144.508 210.21 144.419 210.359 144.36C210.508 144.3 210.667 144.271 210.827 144.273C210.979 144.267 211.131 144.292 211.274 144.345C211.416 144.398 211.547 144.478 211.658 144.582C211.77 144.686 211.859 144.811 211.922 144.95C211.985 145.088 212.02 145.238 212.024 145.39Z" fill="#263238"/>
<path d="M223.762 142.129C223.611 142.29 222.708 141.593 221.395 141.575C220.082 141.558 219.126 142.192 218.983 142.022C218.84 141.852 219.072 141.674 219.501 141.379C220.07 140.996 220.745 140.799 221.431 140.816C222.111 140.826 222.771 141.051 223.316 141.459C223.709 141.772 223.843 142.04 223.762 142.129Z" fill="#263238"/>
<path d="M211.604 142.174C211.452 142.335 210.541 141.638 209.237 141.62C207.933 141.602 206.968 142.237 206.825 142.076C206.682 141.915 206.914 141.718 207.334 141.424C207.907 141.041 208.584 140.845 209.273 140.861C209.951 140.869 210.608 141.095 211.149 141.504C211.551 141.817 211.72 142.111 211.604 142.174Z" fill="#263238"/>
<path d="M215.812 152.42C216.501 152.209 217.217 152.092 217.938 152.072C218.268 152.072 218.581 151.983 218.644 151.759C218.68 151.416 218.608 151.069 218.438 150.768C218.143 149.955 217.831 149.097 217.5 148.213C216.196 144.568 215.249 141.584 215.401 141.531C215.553 141.477 216.723 144.389 218.027 148.025C218.349 148.919 218.644 149.812 218.92 150.598C219.127 151 219.181 151.464 219.072 151.902C219.023 152.019 218.947 152.124 218.851 152.207C218.755 152.291 218.641 152.352 218.519 152.385C218.332 152.432 218.14 152.456 217.947 152.456C217.236 152.531 216.519 152.519 215.812 152.42Z" fill="#263238"/>
<path d="M211.497 138.011C211.336 138.351 210.059 138.065 208.514 138.109C206.968 138.154 205.7 138.458 205.53 138.109C205.449 137.949 205.691 137.636 206.218 137.341C206.917 136.97 207.695 136.773 208.487 136.769C209.277 136.745 210.061 136.911 210.774 137.252C211.31 137.573 211.569 137.841 211.497 138.011Z" fill="#263238"/>
<path d="M224.281 137.243C224.084 137.591 222.994 137.511 221.762 137.77C220.529 138.029 219.537 138.458 219.233 138.208C219.091 138.083 219.233 137.752 219.591 137.377C220.144 136.909 220.814 136.601 221.529 136.483C222.238 136.333 222.974 136.383 223.655 136.626C224.156 136.814 224.361 137.082 224.281 137.243Z" fill="#263238"/>
<path d="M197.954 146.114C197.811 146.042 192.148 144.282 192.237 150.089C192.326 155.896 198.133 154.618 198.142 154.457C198.151 154.297 197.954 146.114 197.954 146.114Z" fill="#C8856A"/>
<path d="M196.239 152.304C196.239 152.304 196.141 152.376 195.971 152.456C195.728 152.554 195.455 152.554 195.212 152.456C194.834 152.222 194.525 151.892 194.316 151.5C194.107 151.108 194.006 150.667 194.024 150.223C194 149.724 194.088 149.227 194.283 148.767C194.336 148.585 194.431 148.419 194.562 148.282C194.693 148.145 194.854 148.042 195.033 147.981C195.149 147.949 195.271 147.959 195.38 148.008C195.489 148.057 195.578 148.142 195.632 148.249C195.712 148.409 195.632 148.525 195.712 148.534C195.793 148.543 195.837 148.436 195.784 148.204C195.749 148.059 195.667 147.931 195.551 147.838C195.388 147.723 195.186 147.675 194.989 147.704C194.752 147.75 194.532 147.857 194.349 148.013C194.166 148.17 194.026 148.371 193.943 148.597C193.707 149.105 193.594 149.662 193.613 150.223C193.59 150.741 193.723 151.254 193.993 151.696C194.264 152.138 194.66 152.49 195.131 152.706C195.283 152.746 195.442 152.753 195.596 152.725C195.75 152.697 195.897 152.636 196.025 152.545C196.23 152.438 196.257 152.313 196.239 152.304Z" fill="#FF9A6C"/>
<path d="M221.931 128.05C222.824 127.505 219.966 124.531 217.634 123.539C214.061 122.029 208.701 121.181 205.547 122.172C201.697 123.36 198.526 125.361 196.614 128.935C194.822 132.572 194.03 136.62 194.318 140.664C194.296 141.899 194.604 143.117 195.212 144.193C196.051 145.461 197.632 146.239 197.606 148.007C197.587 148.333 197.635 148.659 197.745 148.966C197.856 149.273 198.027 149.555 198.249 149.794C199.339 150.902 200.616 149.794 201.188 148.731C202.412 146.426 202.492 143.702 202.537 141.093C202.679 139.238 202.513 137.373 202.046 135.572C201.742 134.616 201.259 133.705 201.009 132.731C200.851 132.25 200.8 131.741 200.859 131.238C200.917 130.735 201.084 130.251 201.349 129.819C201.489 129.645 201.644 129.483 201.813 129.337C202.607 128.61 203.579 128.108 204.631 127.882C205.683 127.656 206.777 127.714 207.799 128.05C211.095 129.131 216.732 130.73 218.152 129.587C219.176 128.878 220.043 127.966 220.698 126.907L221.931 128.05Z" fill="#263238"/>
<path d="M216.651 155.949C216.651 156.047 216.357 156.235 215.758 156.306C214.992 156.375 214.222 156.237 213.528 155.907C212.834 155.577 212.24 155.067 211.809 154.43C211.497 153.93 211.443 153.537 211.533 153.537C211.622 153.537 212.426 154.582 213.855 155.234C215.285 155.887 216.607 155.735 216.651 155.949Z" fill="#263238"/>
<path d="M196.355 172.36L198.705 167.536L212.48 174.093L218.019 168.34L219.457 171.681L212.48 179.605H209.479L203.189 178.497L196.355 172.36Z" fill="#455A64"/>
<path d="M211.988 174.137C211.893 174.711 211.715 175.268 211.461 175.79C210.879 177.163 210.136 178.462 209.245 179.658L209.129 179.801L208.959 179.712C207.914 179.095 206.78 178.443 205.592 177.755C203.206 176.344 201.053 175.075 199.508 174.093C198.648 173.615 197.827 173.072 197.051 172.467C197.962 172.834 198.838 173.283 199.669 173.807C201.259 174.7 203.439 175.942 205.833 177.38L209.183 179.363L208.906 179.417C210.11 177.767 211.143 175.998 211.988 174.137Z" fill="#263238"/>
<path d="M219.045 169.564C219.225 170.273 219.258 171.012 219.143 171.734C218.98 173.5 218.415 175.206 217.491 176.719C217.046 177.456 216.519 178.139 215.918 178.756L215.758 178.908L215.606 178.765C214.769 177.944 214.029 177.03 213.399 176.04C213.121 175.675 212.909 175.264 212.774 174.825C213.743 176.095 214.791 177.303 215.91 178.443H215.597C216.164 177.839 216.667 177.177 217.098 176.469C217.994 175.01 218.595 173.389 218.866 171.699C219.018 170.394 218.965 169.573 219.045 169.564Z" fill="#263238"/>
<path d="M221.86 264.471C221.849 264.394 221.849 264.316 221.86 264.239C221.86 264.06 221.86 263.828 221.86 263.551C221.86 262.917 221.86 262.041 221.806 260.925C221.806 258.647 221.69 255.341 221.565 251.259C221.297 243.103 220.743 231.838 219.403 219.456C218.724 213.265 217.911 207.387 217.063 202.063C216.214 196.739 215.276 191.959 214.454 187.966C214.061 185.965 213.641 184.17 213.293 182.606C212.944 181.043 212.623 179.667 212.399 178.55C212.176 177.434 211.944 176.612 211.801 175.996C211.738 175.728 211.694 175.504 211.649 175.326C211.637 175.249 211.637 175.17 211.649 175.093C211.687 175.163 211.714 175.239 211.729 175.317C211.729 175.486 211.837 175.701 211.917 175.969C212.078 176.585 212.31 177.434 212.605 178.515C212.9 179.596 213.248 180.962 213.614 182.544C213.981 184.125 214.436 185.92 214.847 187.904C215.74 191.888 216.634 196.667 217.527 201.992C218.42 207.316 219.215 213.212 219.894 219.412C221.243 231.802 221.753 243.085 221.931 251.25C222.012 255.332 222.038 258.638 222.021 260.925C222.021 262.041 222.021 262.917 222.021 263.551C222.021 263.828 222.021 264.06 222.021 264.239C221.981 264.325 221.927 264.404 221.86 264.471Z" fill="#263238"/>
</svg>
