<svg width="28" height="28" viewBox="0 0 28 28" fill="none" xmlns="http://www.w3.org/2000/svg">
<g clip-path="url(#clip0_114_169)">
<path d="M23.3335 2.33331H4.66683C3.50016 2.33331 2.3335 3.38331 2.3335 4.66665V8.17831C2.3335 9.01831 2.83516 9.74165 3.50016 10.15V23.3333C3.50016 24.6166 4.7835 25.6666 5.8335 25.6666H22.1668C23.2168 25.6666 24.5002 24.6166 24.5002 23.3333V10.15C25.1652 9.74165 25.6668 9.01831 25.6668 8.17831V4.66665C25.6668 3.38331 24.5002 2.33331 23.3335 2.33331ZM17.5002 16.3333H10.5002V14H17.5002V16.3333ZM23.3335 8.16665H4.66683V4.66665L23.3335 4.64331V8.16665Z" fill="#7F56D9"/>
</g>
<defs>
<clipPath id="clip0_114_169">
<rect width="28" height="28" fill="white"/>
</clipPath>
</defs>
</svg>
