<svg width="24" height="23" viewBox="0 0 24 23" fill="none" xmlns="http://www.w3.org/2000/svg">
<path d="M4.75 13.5645C4.75 13.0122 4.30229 12.5645 3.75 12.5645C3.19772 12.5645 2.75 13.0122 2.75 13.5645H4.75ZM4.85557 18.1173L4.40836 19.0117H4.40836L4.85557 18.1173ZM10.7468 21.0629L11.194 20.1684H11.194L10.7468 21.0629ZM12.7012 20.97L12.2361 20.0847L12.2029 20.1022L12.1712 20.122L12.7012 20.97ZM18.81 17.7604L19.2751 18.6457L19.3083 18.6283L19.34 18.6084L18.81 17.7604ZM20.75 13.0645C20.75 12.5122 20.3023 12.0645 19.75 12.0645C19.1977 12.0645 18.75 12.5122 18.75 13.0645H20.75ZM11.75 12.5645L12.4571 11.8574L11.75 11.1503L11.0429 11.8574L11.75 12.5645ZM11.9736 12.4527L12.4208 13.3471L11.9736 12.4527ZM19.5711 8.65393L19.1239 7.7595L19.5711 8.65393ZM19.5711 8.47504L19.1239 9.36947L19.5711 8.47504ZM11.9736 4.67629L12.4208 3.78186L12.4208 3.78186L11.9736 4.67629ZM11.5264 4.67629L11.0792 3.78186L11.5264 4.67629ZM3.92889 8.47504L4.3761 9.36947H4.3761L3.92889 8.47504ZM3.92889 8.65393L4.3761 7.7595H4.3761L3.92889 8.65393ZM11.5264 12.4527L11.9736 11.5583L11.9736 11.5583L11.5264 12.4527ZM15.0769 15.3901L15.5475 16.2725L15.5475 16.2725L15.0769 15.3901ZM21.7078 11.8537L21.2372 10.9713L21.7078 11.8537ZM21.8566 11.0924L21.0884 11.7326V11.7326L21.8566 11.0924ZM19.75 8.56449L19.0429 7.85738L18.3972 8.50312L18.9818 9.20467L19.75 8.56449ZM8.42312 15.3901L7.95253 16.2725L7.95253 16.2725L8.42312 15.3901ZM1.79222 11.8537L2.26281 10.9713H2.26281L1.79222 11.8537ZM1.64341 11.0924L2.41163 11.7326L2.41163 11.7326L1.64341 11.0924ZM3.75 8.56449L4.51822 9.20467L5.10285 8.50312L4.45711 7.85738L3.75 8.56449ZM14.4952 1.81931L13.7881 1.11221V1.11221L14.4952 1.81931ZM15.0723 1.72565L15.5195 0.831225V0.831224L15.0723 1.72565ZM22.1295 5.25425L21.6823 6.14867L22.1295 5.25425ZM22.2595 6.05501L21.5524 5.34791V5.34791L22.2595 6.05501ZM9.00483 1.81931L9.71194 1.11221V1.11221L9.00483 1.81931ZM8.42767 1.72565L7.98045 0.831224V0.831225L8.42767 1.72565ZM1.37048 5.25425L0.923264 4.35982L1.37048 5.25425ZM1.24053 6.05501L1.94764 5.34791L1.24053 6.05501ZM12.1036 4.21093L12.8107 4.91804L12.1036 4.21093ZM11.3964 4.21093L10.6893 4.91804L11.3964 4.21093ZM2.75 13.5645V16.3284H4.75V13.5645H2.75ZM4.40836 19.0117L10.2995 21.9573L11.194 20.1684L5.30279 17.2228L4.40836 19.0117ZM13.1663 21.8553L19.2751 18.6457L18.3449 16.8752L12.2361 20.0847L13.1663 21.8553ZM20.75 16.0645V13.0645H18.75V16.0645H20.75ZM19.34 18.6084C20.2171 18.0602 20.75 17.0988 20.75 16.0645H18.75C18.75 16.4092 18.5724 16.7297 18.28 16.9124L19.34 18.6084ZM10.2995 21.9573C11.2343 22.4247 12.3449 22.3719 13.2312 21.818L12.1712 20.122C11.8758 20.3066 11.5056 20.3242 11.194 20.1684L10.2995 21.9573ZM2.75 16.3284C2.75 17.4647 3.39201 18.5035 4.40836 19.0117L5.30279 17.2228C4.964 17.0535 4.75 16.7072 4.75 16.3284H2.75ZM12.75 21.5645V12.5645H10.75V21.5645H12.75ZM12.4208 13.3471L20.0183 9.54836L19.1239 7.7595L11.5264 11.5583L12.4208 13.3471ZM20.0183 7.58062L12.4208 3.78186L11.5264 5.57072L19.1239 9.36947L20.0183 7.58062ZM11.0792 3.78186L3.48167 7.58062L4.3761 9.36947L11.9736 5.57072L11.0792 3.78186ZM3.48167 9.54836L11.0792 13.3471L11.9736 11.5583L4.3761 7.7595L3.48167 9.54836ZM3.48167 7.58062C2.67091 7.986 2.67093 9.14298 3.48167 9.54836L4.3761 7.7595C5.03944 8.09117 5.03945 9.03779 4.3761 9.36947L3.48167 7.58062ZM12.4208 3.78186C11.9985 3.57072 11.5015 3.57072 11.0792 3.78186L11.9736 5.57072C11.8328 5.6411 11.6672 5.6411 11.5264 5.57072L12.4208 3.78186ZM20.0183 9.54836C20.8291 9.14297 20.8291 7.98599 20.0183 7.58062L19.1239 9.36947C18.4606 9.0378 18.4606 8.09118 19.1239 7.7595L20.0183 9.54836ZM11.5264 11.5583C11.6672 11.4879 11.8328 11.4879 11.9736 11.5583L11.0792 13.3471C11.5015 13.5583 11.9985 13.5583 12.4208 13.3471L11.5264 11.5583ZM11.0429 13.2716L13.7809 16.0096L15.1951 14.5954L12.4571 11.8574L11.0429 13.2716ZM15.5475 16.2725L22.1784 12.736L21.2372 10.9713L14.6063 14.5078L15.5475 16.2725ZM22.6248 10.4522L20.5182 7.9243L18.9818 9.20467L21.0884 11.7326L22.6248 10.4522ZM22.1784 12.736C23.0176 12.2885 23.2337 11.1829 22.6248 10.4522L21.0884 11.7326C20.8854 11.489 20.9575 11.1205 21.2372 10.9713L22.1784 12.736ZM13.7809 16.0096C14.2478 16.4765 14.9649 16.5832 15.5475 16.2725L14.6063 14.5078C14.8005 14.4042 15.0395 14.4398 15.1951 14.5954L13.7809 16.0096ZM11.0429 11.8574L8.30486 14.5954L9.71907 16.0096L12.4571 13.2716L11.0429 11.8574ZM8.8937 14.5078L2.26281 10.9713L1.32163 12.736L7.95253 16.2725L8.8937 14.5078ZM2.41163 11.7326L4.51822 9.20467L2.98178 7.9243L0.875184 10.4522L2.41163 11.7326ZM2.26281 10.9713C2.54254 11.1205 2.61459 11.489 2.41163 11.7326L0.875186 10.4522C0.266308 11.1829 0.482433 12.2884 1.32163 12.736L2.26281 10.9713ZM8.30486 14.5954C8.46047 14.4398 8.69953 14.4042 8.8937 14.5078L7.95253 16.2725C8.53506 16.5832 9.25224 16.4765 9.71907 16.0096L8.30486 14.5954ZM12.8107 4.91804L15.2023 2.52642L13.7881 1.11221L11.3964 3.50382L12.8107 4.91804ZM14.6251 2.62008L21.6823 6.14867L22.5767 4.35982L15.5195 0.831225L14.6251 2.62008ZM21.5524 5.34791L19.0429 7.85738L20.4571 9.27159L22.9666 6.76212L21.5524 5.34791ZM21.6823 6.14867C21.3771 5.99605 21.311 5.58923 21.5524 5.34791L22.9666 6.76212C23.6905 6.03816 23.4925 4.8177 22.5767 4.35982L21.6823 6.14867ZM15.2023 2.52642C15.0501 2.6786 14.8176 2.71633 14.6251 2.62008L15.5195 0.831224C14.9421 0.542483 14.2446 0.655665 13.7881 1.11221L15.2023 2.52642ZM12.1036 3.50382L9.71194 1.11221L8.29772 2.52642L10.6893 4.91804L12.1036 3.50382ZM7.98045 0.831225L0.923264 4.35982L1.81769 6.14867L8.87488 2.62008L7.98045 0.831225ZM0.533424 6.76212L3.04289 9.27159L4.45711 7.85738L1.94764 5.34791L0.533424 6.76212ZM0.923264 4.35982C0.00751662 4.81769 -0.190538 6.03816 0.533424 6.76212L1.94764 5.34791C2.18896 5.58923 2.12294 5.99605 1.81769 6.14867L0.923264 4.35982ZM9.71194 1.11221C9.2554 0.655665 8.55794 0.542483 7.98045 0.831224L8.87488 2.62008C8.68239 2.71633 8.4499 2.6786 8.29772 2.52642L9.71194 1.11221ZM11.3964 3.50382C11.5917 3.30856 11.9083 3.30856 12.1036 3.50382L10.6893 4.91804C11.2751 5.50382 12.2249 5.50382 12.8107 4.91804L11.3964 3.50382Z" fill="#F8F8FA"/>
</svg>
