<svg width="25" height="25" viewBox="0 0 25 25" fill="none" xmlns="http://www.w3.org/2000/svg">
<path d="M18.8508 17.7822C18.8508 17.2299 18.4031 16.7822 17.8508 16.7822C17.2985 16.7822 16.8508 17.2299 16.8508 17.7822H18.8508ZM16.8508 7.78223C16.8508 8.33451 17.2985 8.78223 17.8508 8.78223C18.4031 8.78223 18.8508 8.33451 18.8508 7.78223H16.8508ZM16.7588 4.00021L16.3048 4.89122L16.3048 4.89122L16.7588 4.00021ZM17.6328 4.87424L18.5238 4.42025L17.6328 4.87424ZM4.06882 4.87424L3.17781 4.42025L4.06882 4.87424ZM4.94285 4.00021L5.39684 4.89122L5.39684 4.89122L4.94285 4.00021ZM4.94285 21.5642L5.39684 20.6732V20.6732L4.94285 21.5642ZM4.06882 20.6902L4.95982 20.2362V20.2362L4.06882 20.6902ZM17.6328 20.6902L16.7418 20.2362L17.6328 20.6902ZM16.7588 21.5642L17.2128 22.4552V22.4552L16.7588 21.5642ZM10.8508 11.7822C10.2985 11.7822 9.85083 12.2299 9.85083 12.7822C9.85083 13.3345 10.2985 13.7822 10.8508 13.7822V11.7822ZM21.8508 13.7822C22.4031 13.7822 22.8508 13.3345 22.8508 12.7822C22.8508 12.2299 22.4031 11.7822 21.8508 11.7822V13.7822ZM20.0188 15.2275C19.7124 15.6871 19.8366 16.3079 20.2961 16.6143C20.7557 16.9206 21.3765 16.7965 21.6829 16.3369L20.0188 15.2275ZM22.6659 13.0596L21.8339 12.5049H21.8339L22.6659 13.0596ZM22.6659 12.5049L21.8339 13.0596L22.6659 12.5049ZM21.6829 9.22753C21.3765 8.768 20.7557 8.64382 20.2961 8.95018C19.8366 9.25653 19.7124 9.8774 20.0188 10.3369L21.6829 9.22753ZM16.8508 17.7822V18.5822H18.8508V17.7822H16.8508ZM14.6508 20.7822L7.05083 20.7822V22.7822L14.6508 22.7822V20.7822ZM4.85083 18.5822L4.85083 6.98223H2.85083L2.85083 18.5822H4.85083ZM7.05083 4.78223L14.6508 4.78223V2.78223L7.05083 2.78223V4.78223ZM16.8508 6.98223V7.78223H18.8508V6.98223H16.8508ZM14.6508 4.78223C15.2274 4.78223 15.5997 4.783 15.883 4.80615C16.1547 4.82835 16.2554 4.86603 16.3048 4.89122L17.2128 3.10921C16.8344 2.91641 16.4412 2.8451 16.0459 2.8128C15.6622 2.78145 15.1944 2.78223 14.6508 2.78223V4.78223ZM18.8508 6.98223C18.8508 6.43867 18.8516 5.97087 18.8203 5.5872C18.788 5.19185 18.7166 4.79863 18.5238 4.42025L16.7418 5.32824C16.767 5.37768 16.8047 5.4784 16.8269 5.75006C16.8501 6.0334 16.8508 6.40567 16.8508 6.98223H18.8508ZM16.3048 4.89122C16.493 4.98709 16.646 5.14007 16.7418 5.32824L18.5238 4.42025C18.2362 3.85577 17.7773 3.39683 17.2128 3.10921L16.3048 4.89122ZM4.85083 6.98223C4.85083 6.40567 4.85161 6.0334 4.87476 5.75006C4.89695 5.4784 4.93463 5.37768 4.95982 5.32824L3.17781 4.42025C2.98502 4.79863 2.9137 5.19185 2.8814 5.5872C2.85005 5.97087 2.85083 6.43867 2.85083 6.98223H4.85083ZM7.05083 2.78223C6.50728 2.78223 6.03947 2.78145 5.6558 2.8128C5.26046 2.8451 4.86724 2.91641 4.48886 3.10921L5.39684 4.89122C5.44628 4.86603 5.547 4.82835 5.81866 4.80615C6.102 4.783 6.47428 4.78223 7.05083 4.78223V2.78223ZM4.95982 5.32824C5.0557 5.14007 5.20868 4.98709 5.39684 4.89122L4.48886 3.10921C3.92437 3.39683 3.46543 3.85577 3.17781 4.42025L4.95982 5.32824ZM7.05083 20.7822C6.47428 20.7822 6.102 20.7814 5.81866 20.7583C5.547 20.7361 5.44628 20.6984 5.39684 20.6732L4.48886 22.4552C4.86724 22.648 5.26046 22.7194 5.6558 22.7517C6.03947 22.783 6.50728 22.7822 7.05083 22.7822V20.7822ZM2.85083 18.5822C2.85083 19.1258 2.85005 19.5936 2.8814 19.9773C2.9137 20.3726 2.98502 20.7658 3.17781 21.1442L4.95982 20.2362C4.93463 20.1868 4.89695 20.0861 4.87476 19.8144C4.85161 19.5311 4.85083 19.1588 4.85083 18.5822H2.85083ZM5.39684 20.6732C5.20868 20.5774 5.0557 20.4244 4.95982 20.2362L3.17781 21.1442C3.46543 21.7087 3.92437 22.1676 4.48886 22.4552L5.39684 20.6732ZM16.8508 18.5822C16.8508 19.1588 16.8501 19.5311 16.8269 19.8144C16.8047 20.0861 16.767 20.1868 16.7418 20.2362L18.5238 21.1442C18.7166 20.7658 18.788 20.3726 18.8203 19.9773C18.8516 19.5936 18.8508 19.1258 18.8508 18.5822H16.8508ZM14.6508 22.7822C15.1944 22.7822 15.6622 22.783 16.0459 22.7517C16.4412 22.7194 16.8344 22.648 17.2128 22.4552L16.3048 20.6732C16.2554 20.6984 16.1547 20.7361 15.883 20.7583C15.5997 20.7814 15.2274 20.7822 14.6508 20.7822V22.7822ZM16.7418 20.2362C16.646 20.4244 16.493 20.5774 16.3048 20.6732L17.2128 22.4552C17.7773 22.1676 18.2362 21.7087 18.5238 21.1442L16.7418 20.2362ZM10.8508 13.7822L21.8508 13.7822V11.7822L10.8508 11.7822V13.7822ZM21.6829 16.3369L23.498 13.6143L21.8339 12.5049L20.0188 15.2275L21.6829 16.3369ZM23.498 11.9502L21.6829 9.22753L20.0188 10.3369L21.8339 13.0596L23.498 11.9502ZM23.498 13.6143C23.8339 13.1104 23.8339 12.454 23.498 11.9502L21.8339 13.0596C21.7219 12.8916 21.7219 12.6728 21.8339 12.5049L23.498 13.6143Z" fill="#FF3048"/>
</svg>
