<svg width="400" height="400" viewBox="0 0 400 400" fill="none" xmlns="http://www.w3.org/2000/svg">
<path d="M109.416 279.36H80.968V291.176H109.416V279.36Z" fill="#F5F5F5"/>
<path d="M319.36 279.36H290.912V291.176H319.36V279.36Z" fill="#F5F5F5"/>
<path d="M55.9038 350.376C55.8958 350.024 54.7038 314.872 48.9838 309.312C43.4238 303.904 37.0398 309.112 36.7678 309.336L36.1918 308.648C36.2638 308.584 43.4638 302.704 49.5998 308.672C55.5758 314.48 56.7438 348.888 56.7918 350.352L55.8958 350.376H55.9038Z" fill="#263238"/>
<path d="M56.3919 357.288C56.3519 356.864 52.4879 315.088 67.7439 297.576L68.4159 298.16C53.4079 315.384 57.2399 356.776 57.2799 357.192L56.3919 357.28V357.288Z" fill="#263238"/>
<path d="M55.8239 352.865L54.9279 352.809C54.9599 352.337 57.9119 305.313 46.7199 295.017L47.3279 294.361C58.8319 304.945 55.9519 350.921 55.8239 352.873V352.865Z" fill="#263238"/>
<path d="M57.28 352.84H56.384C56.392 351.536 56.752 321.072 65.408 316.112C67.328 315.008 69.216 314.824 71.008 315.568C76.24 317.736 78.832 327.048 78.944 327.44L78.08 327.672C78.056 327.576 75.496 318.384 70.664 316.392C69.144 315.76 67.52 315.928 65.856 316.888C57.64 321.592 57.288 352.528 57.28 352.84Z" fill="#263238"/>
<path d="M53.9119 352.864L53.0159 352.816C53.0319 352.576 54.3199 328.736 47.8879 320.344C46.3279 318.312 44.6399 317.336 42.8479 317.464C38.6319 317.76 35.0959 323.928 35.0639 323.992L34.2879 323.552C34.4399 323.28 38.0959 316.904 42.7839 316.576C44.8879 316.424 46.8399 317.512 48.5999 319.808C55.2319 328.472 53.9679 351.888 53.9119 352.88V352.864Z" fill="#263238"/>
<path d="M55.3279 356.104C55.1519 353.792 51.1199 299.368 58.2159 289.776L58.9359 290.304C52.0399 299.632 56.1839 355.472 56.2239 356.032L55.3279 356.104Z" fill="#263238"/>
<path d="M72.944 321.08C72.944 321.08 68.688 322.648 69.952 326.352C71.216 330.056 84.664 336.144 84.664 336.144C84.664 336.144 90.296 330.984 85.12 322.584C79.944 314.184 73.048 318.432 72.936 321.08H72.944Z" fill="#7F56D9"/>
<path d="M54.448 314.032C54.448 314.032 58.976 313.84 59.232 317.744C59.488 321.648 49.416 332.448 49.416 332.448C49.416 332.448 42.232 329.848 43.776 320.104C45.32 310.36 53.32 311.624 54.448 314.024V314.032Z" fill="#7F56D9"/>
<path d="M50.6161 295.344C50.6161 295.344 53.6401 295.016 53.3921 293.184C53.1521 291.344 41.6561 286.608 34.8721 294.264C34.8721 294.264 39.2161 301.728 45.4961 301.824C51.7761 301.92 50.6241 295.344 50.6241 295.344H50.6161Z" fill="#7F56D9"/>
<path d="M56.24 290.88C56.24 290.88 53.504 292.2 52.736 290.512C51.968 288.824 59.224 278.72 69.032 281.632C69.032 281.632 69.288 290.264 64.016 293.664C58.736 297.064 56.24 290.88 56.24 290.88Z" fill="#7F56D9"/>
<path d="M41.944 319.592C41.944 319.592 44.032 317.912 41.776 317.088C39.528 316.264 28.488 316.496 28.376 327.432C28.376 327.432 41.232 329.568 42.824 325.4C44.416 321.232 41.944 319.584 41.944 319.584V319.592Z" fill="#7F56D9"/>
<path d="M68.1519 295.073C68.1519 295.073 66.0639 293.393 68.3199 292.569C70.5679 291.745 81.6079 291.985 81.7199 302.913C81.7199 302.913 68.8639 305.049 67.2719 300.881C65.6799 296.713 68.1519 295.065 68.1519 295.065V295.073Z" fill="#7F56D9"/>
<path d="M61.36 303.88C61.36 303.88 61.176 301.832 62.832 302.64C64.488 303.448 70.24 309.648 64.272 315.536C64.272 315.536 56.24 309.592 57.688 306.496C59.136 303.4 61.36 303.88 61.36 303.88Z" fill="#7F56D9"/>
<path d="M40.0799 306.792C40.0799 306.792 41.3279 305.16 39.5039 304.96C37.6799 304.76 29.5039 306.944 31.4079 315.104C31.4079 315.104 41.3679 314.352 41.7999 310.968C42.2239 307.576 40.0879 306.8 40.0879 306.8L40.0799 306.792Z" fill="#7F56D9"/>
<path d="M74.6 383.144H40.424L36.736 345.72H78.288L74.6 383.144Z" fill="#263238"/>
<path d="M79.248 341.592H34.04V349.848H79.248V341.592Z" fill="#263238"/>
<path d="M315.336 222.656H83.984V229.88H315.336V222.656Z" fill="#E0E0E0"/>
<path d="M302.944 229.736H96.384V263.112H302.944V229.736Z" fill="#E0E0E0"/>
<path d="M105.52 263.12H96.704V384.736H105.52V263.12Z" fill="#E0E0E0"/>
<path d="M133.832 263.12H125.016V384.736H133.832V263.12Z" fill="#E0E0E0"/>
<path d="M300.96 263.12H292.144V384.736H300.96V263.12Z" fill="#E0E0E0"/>
<path d="M277.864 263.12H269.048V384.736H277.864V263.12Z" fill="#E0E0E0"/>
<path d="M296.56 312.52H102.768V318.2H296.56V312.52Z" fill="#E0E0E0"/>
<path d="M298.68 230.409H125.016V258.417H298.68V230.409Z" fill="#EBEBEB"/>
<path d="M295.632 211.6H274.696V222.656H295.632V211.6Z" fill="#EBEBEB"/>
<path d="M269.32 204.121H257.304V222.649H269.32V204.121Z" fill="#E6E6E6"/>
<path d="M265.288 200.601H261.328V204.393H265.288V200.601Z" fill="#E6E6E6"/>
<path d="M134.248 204.121H122.232V222.649H134.248V204.121Z" fill="#E6E6E6"/>
<path d="M130.216 200.601H126.256V204.393H130.216V200.601Z" fill="#E6E6E6"/>
<path d="M116.144 209.952H107.904V222.656H116.144V209.952Z" fill="#E6E6E6"/>
<path d="M113.384 207.536H110.664V210.136H113.384V207.536Z" fill="#E6E6E6"/>
<path d="M355.136 264.16H210.536C207.952 264.16 205.848 262.056 205.848 259.472V48.8482C205.848 46.2642 207.952 44.1602 210.536 44.1602H355.136C357.72 44.1602 359.824 46.2642 359.824 48.8482V259.472C359.824 262.056 357.72 264.16 355.136 264.16ZM210.536 44.3602C208.064 44.3602 206.048 46.3762 206.048 48.8482V259.472C206.048 261.944 208.064 263.96 210.536 263.96H355.136C357.608 263.96 359.624 261.944 359.624 259.472V48.8482C359.624 46.3762 357.608 44.3602 355.136 44.3602H210.536Z" fill="#E0E0E0"/>
<path d="M188.392 264.16H43.8C41.216 264.16 39.112 262.056 39.112 259.472V48.8482C39.112 46.2642 41.216 44.1602 43.8 44.1602H188.392C190.976 44.1602 193.08 46.2642 193.08 48.8482V259.472C193.08 262.056 190.976 264.16 188.392 264.16ZM43.8 44.3602C41.328 44.3602 39.312 46.3762 39.312 48.8482V259.472C39.312 261.944 41.328 263.96 43.8 263.96H188.392C190.864 263.96 192.88 261.944 192.88 259.472V48.8482C192.88 46.3762 190.864 44.3602 188.392 44.3602H43.8Z" fill="#E0E0E0"/>
<path d="M400 313.017H0V313.217H400V313.017Z" fill="#E0E0E0"/>
<path d="M54.1839 324.424H41.3359V324.624H54.1839V324.424Z" fill="#E0E0E0"/>
<path d="M179.104 322.256H136.28V322.456H179.104V322.256Z" fill="#E0E0E0"/>
<path d="M83.984 331.856H54.984V332.056H83.984V331.856Z" fill="#E0E0E0"/>
<path d="M337.232 322.152H302.68V322.352H337.232V322.152Z" fill="#E0E0E0"/>
<path d="M349.424 322.152H344.36V322.352H349.424V322.152Z" fill="#E0E0E0"/>
<path d="M296.08 327.136H252.968V327.336H296.08V327.136Z" fill="#E0E0E0"/>
<path d="M361.456 60.2324H333.008V72.0484H361.456V60.2324Z" fill="#E6E6E6"/>
<path d="M375.68 72.0479H347.232V83.8639H375.68V72.0479Z" fill="#F5F5F5"/>
<path d="M196.432 82.5435H167.984V94.3595H196.432V82.5435Z" fill="#E6E6E6"/>
<path d="M210.656 94.3589H182.208V106.175H210.656V94.3589Z" fill="#F5F5F5"/>
<path d="M366.936 199.784H338.488V211.6H366.936V199.784Z" fill="#E6E6E6"/>
<path d="M381.16 211.6H352.712V223.416H381.16V211.6Z" fill="#F5F5F5"/>
<path d="M64.696 190.688H36.248V202.504H64.696V190.688Z" fill="#E6E6E6"/>
<path d="M78.928 202.496H50.48V214.312H78.928V202.496Z" fill="#F5F5F5"/>
<path d="M333.28 137.192H308.984V147.28H333.28V137.192Z" fill="#F5F5F5"/>
<path d="M137.704 27.1279H113.408V37.2159H137.704V27.1279Z" fill="#F5F5F5"/>
<path d="M367.104 385.224C367.104 387.936 292.288 390.128 200 390.128C107.712 390.128 32.8961 387.928 32.8961 385.224C32.8961 382.52 107.712 380.32 200 380.32C292.288 380.32 367.104 382.52 367.104 385.224Z" fill="#F5F5F5"/>
<path d="M345.808 255.921C332.344 271.673 328.408 294.985 335.968 314.273C344.36 306.785 350.272 295.369 350.64 285.385C351.016 275.401 348.4 265.569 345.808 255.921Z" fill="#7F56D9"/>
<path d="M343.456 316.097C338.888 323.097 336.704 331.625 337.336 339.953C344.616 337.417 351.032 329.201 354.88 322.521C358.728 315.841 360.88 308.345 362.832 300.889C354.944 303.665 348.024 309.097 343.456 316.097Z" fill="#7F56D9"/>
<path d="M341.752 283.417C336.336 302.889 333.576 323.081 333.6 343.289C333.6 349.001 333.84 354.705 334.288 360.401C334.32 360.785 334.92 360.785 334.888 360.401C333.312 340.305 334.48 320.017 338.368 300.241C339.472 294.641 340.792 289.081 342.328 283.577C342.432 283.201 341.856 283.049 341.752 283.417Z" fill="#263238"/>
<path d="M334.488 346.545C340.016 333.393 347.28 321.073 355.672 309.553C355.896 309.241 355.376 308.937 355.152 309.249C346.72 320.809 339.456 333.177 333.904 346.385C333.752 346.737 334.336 346.897 334.48 346.545H334.488Z" fill="#263238"/>
<path d="M326.632 327.001C330.44 332.841 332.264 339.945 331.736 346.897C325.664 344.785 320.32 337.929 317.112 332.361C313.904 326.793 312.112 320.537 310.48 314.321C317.056 316.633 322.824 321.169 326.64 327.001H326.632Z" fill="#7F56D9"/>
<path d="M334.328 351.497C329.792 340.713 323.8 330.713 316.92 321.273C316.696 320.961 316.176 321.265 316.4 321.577C323.248 330.977 329.232 340.921 333.744 351.657C333.888 352.009 334.472 351.857 334.32 351.497H334.328Z" fill="#263238"/>
<path d="M334.528 355.106C343.096 346.298 351.84 337.658 360.4 328.85C360.672 328.57 360.248 328.146 359.976 328.426C351.408 337.234 342.664 345.874 334.104 354.682C333.832 354.962 334.256 355.386 334.528 355.106Z" fill="#263238"/>
<path d="M360.712 324.778C353.28 331.946 346.512 339.794 340.512 348.202H341.872C347.528 347.938 353.016 345.146 356.568 340.738C360.12 336.33 361.664 330.362 360.712 324.786V324.778Z" fill="#7F56D9"/>
<path d="M325.52 307.706C328.712 312.922 331.72 318.25 334.536 323.682C334.712 324.026 335.232 323.722 335.056 323.378C332.24 317.946 329.232 312.618 326.04 307.402C325.84 307.074 325.32 307.378 325.52 307.706Z" fill="#263238"/>
<path d="M317.84 281.346C316.624 286.818 315.416 293.938 315.408 299.634C315.392 305.33 317.136 310.89 320.376 314.714C323.616 318.53 330.152 320.202 332.784 318.018L317.84 281.346Z" fill="#7F56D9"/>
<path d="M350.752 357.625H317.68V363.641H350.752V357.625Z" fill="#263238"/>
<path d="M344.88 385.073H324.72L321.064 362.265H347.776L344.88 385.073Z" fill="#263238"/>
<path opacity="0.2" d="M321.296 363.753H347.584L347.256 366.337H321.712L321.296 363.753Z" fill="black"/>
<path d="M315.336 82.4241H316.016V87.0241H315.336V82.4241ZM315.336 78.8001H316.016V67.1841H315.336V78.8001Z" fill="#7F56D9"/>
<path d="M313.64 45.7998H223.248V194.072H313.64V45.7998Z" fill="#7F56D9"/>
<g opacity="0.8">
<path d="M313.64 45.7998H223.248V194.072H313.64V45.7998Z" fill="white"/>
</g>
<path d="M223.248 45.7998H222.2V194.072H223.248V45.7998Z" fill="#7F56D9"/>
<path d="M186.728 47.2642H96.336V194.08H186.728V47.2642Z" fill="#7F56D9"/>
<g opacity="0.8">
<path d="M186.728 47.2646H96.3359V194.081H186.728V47.2646Z" fill="white"/>
</g>
<path d="M96.328 47.2642H95.28V194.08H96.328V47.2642Z" fill="#7F56D9"/>
<path opacity="0.2" d="M96.336 194.08H95.288V47.2642H96.336V194.08ZM157.424 47.9922H138.488L123.656 193.328H142.584L157.424 47.9922ZM171.984 47.9922H164L149.16 193.328H157.144L171.984 47.9922Z" fill="white"/>
<path d="M70.0081 60.9839H39.9681V133.248H70.0081V60.9839Z" fill="#7F56D9"/>
<path opacity="0.8" d="M70.0081 60.9839H39.9681V133.248H70.0081V60.9839Z" fill="white"/>
<path d="M53.3441 48.2397L39.9681 60.0477V80.3917L69.6241 56.1197L53.3441 48.2397Z" fill="#263238"/>
<path d="M73.6721 58.3594H36.2961V63.6154H73.6721V58.3594Z" fill="#7F56D9"/>
<path d="M70.0081 60.9838H40.1121V58.2878C40.1121 50.0318 46.8001 43.3438 55.0561 43.3438C63.3121 43.3438 70.0001 50.0318 70.0001 58.2878V60.9838H70.0081Z" fill="#7F56D9"/>
<path d="M70.0082 69.832L39.9682 96.328V116.68L70.0082 91.336V69.832Z" fill="#7F56D9"/>
<path d="M39.9682 133.192L40.1682 136.928L58.5042 137.904L70.0082 128.2V106.696L39.9682 133.192Z" fill="#263238"/>
<path d="M36.296 137.08H73.672V131.824H36.296V137.08Z" fill="#7F56D9"/>
<path d="M54.912 152.088C46.664 152.088 39.968 145.392 39.968 137.144V134.448H69.856V137.144C69.856 145.392 63.16 152.088 54.912 152.088Z" fill="#7F56D9"/>
<path opacity="0.3" d="M39.9681 137.144H70.0081C70.0081 137.144 60.2321 138.496 55.3121 138.504C47.4161 138.512 39.9681 137.144 39.9681 137.144Z" fill="black"/>
<path opacity="0.3" d="M70.0082 58.36H39.9682C39.9682 58.36 49.7442 57.008 54.6642 57C62.5602 56.992 70.0082 58.36 70.0082 58.36Z" fill="black"/>
<path opacity="0.5" d="M48.8721 63.6157H43.8321V131.824H48.8721V63.6157Z" fill="white"/>
<path d="M164.984 178.937L172.088 156.057L185.024 158.337C185.024 158.337 178.56 183.809 175.64 186.225C172.72 188.649 164.984 178.929 164.984 178.929V178.937Z" fill="#CE7A63"/>
<path d="M175.352 354.041L167.648 375.641L160.664 373.297L163.072 350.489L175.352 354.041Z" fill="#CE7A63"/>
<path d="M168.4 384.737L162.064 384.689C162.064 384.689 160.792 383.969 160.032 384.057C159.28 384.145 156.672 384.641 156.672 384.641L139.856 384.513C139.992 383.785 140.168 383.129 140.36 382.553C140.592 381.849 140.864 381.257 141.168 380.753C142.224 378.993 143.648 378.377 145.192 378.289C147.552 378.153 155 373.073 155 373.073C155 373.073 157.696 372.121 157.864 369.145C157.928 368.033 159.52 366.681 160.28 366.577C161.816 366.361 162.664 367.377 162.88 368.977L163.128 370.833L166.688 370.289C166.688 370.289 170.312 368.425 170.128 370.265C170.016 371.313 169.376 375.969 168.968 379.673C168.872 380.537 168.784 381.353 168.704 382.065C168.528 383.657 168.408 384.745 168.408 384.745L168.4 384.737Z" fill="#263238"/>
<g opacity="0.4">
<path d="M168.4 384.737L162.064 384.689C162.064 384.689 160.792 383.969 160.032 384.057C159.28 384.145 156.672 384.641 156.672 384.641L139.856 384.513C139.992 383.785 140.168 383.129 140.36 382.553C140.592 381.849 140.864 381.257 141.168 380.753C142.224 378.993 143.648 378.377 145.192 378.289C147.552 378.153 155 373.073 155 373.073C155 373.073 157.696 372.121 157.864 369.145C157.928 368.033 159.52 366.681 160.28 366.577C161.816 366.361 162.664 367.377 162.88 368.977L163.128 370.833L166.688 370.289C166.688 370.289 170.312 368.425 170.128 370.265C170.016 371.313 169.376 375.969 168.968 379.673C168.872 380.537 168.784 381.353 168.704 382.065C168.528 383.657 168.408 384.745 168.408 384.745L168.4 384.737Z" fill="#263238"/>
</g>
<g opacity="0.3">
<path d="M139.856 384.513L156.672 384.641C156.672 384.641 159.288 384.145 160.032 384.057C160.784 383.969 162.056 384.689 162.056 384.689L168.392 384.737C168.392 384.737 168.512 383.649 168.688 382.057L140.352 382.553C140.16 383.129 139.984 383.777 139.848 384.513H139.856Z" fill="white"/>
</g>
<path d="M150.8 375.329C150.904 375.225 151.056 375.217 151.176 375.297C151.712 375.673 152.168 376.209 152.472 376.873C152.632 377.225 152.136 377.553 151.976 377.201C151.704 376.609 151.312 376.137 150.84 375.809C150.68 375.697 150.656 375.465 150.792 375.329H150.8Z" fill="white"/>
<path d="M152.552 374.281C152.656 374.177 152.808 374.169 152.928 374.249C153.464 374.625 153.92 375.161 154.224 375.825C154.384 376.177 153.888 376.505 153.728 376.153C153.456 375.561 153.064 375.089 152.592 374.761C152.432 374.649 152.408 374.417 152.544 374.281H152.552Z" fill="white"/>
<path d="M154.352 373.305C154.456 373.201 154.608 373.193 154.728 373.273C155.264 373.649 155.72 374.185 156.024 374.849C156.184 375.201 155.688 375.529 155.528 375.177C155.256 374.585 154.864 374.121 154.392 373.785C154.232 373.673 154.208 373.441 154.344 373.305H154.352Z" fill="white"/>
<path d="M244.04 195.089C246.56 193.321 249.792 193.369 252.736 193.505C254.392 193.577 256.072 193.737 257.664 194.217C259.056 194.641 260.816 195.681 260.584 197.401C260.376 198.953 258.496 199.593 257.184 199.841C255.544 200.161 253.848 199.993 252.248 199.553C249.104 198.697 246.4 196.777 243.784 194.913C243.152 194.465 242.552 195.505 243.176 195.953C247.656 199.153 253.88 203.145 259.536 200.329C261.832 199.185 262.536 196.561 260.72 194.617C258.832 192.585 255.304 192.425 252.728 192.313C249.576 192.169 246.112 192.177 243.424 194.057C242.8 194.497 243.392 195.537 244.032 195.097L244.04 195.089Z" fill="#263238"/>
<path d="M243.656 193.233C243.504 190.601 244.792 188.257 246.168 186.121C247.472 184.097 249.008 181.681 251.144 180.449C252.12 179.889 253.504 179.641 254.416 180.465C255.288 181.249 255.184 182.641 254.92 183.673C254.344 185.889 252.88 187.753 251.144 189.193C248.904 191.057 246.16 192.217 243.496 193.329C242.792 193.625 243.104 194.785 243.816 194.489C248.816 192.401 254.912 189.569 256.152 183.673C256.4 182.497 256.392 181.161 255.696 180.129C255 179.097 253.736 178.641 252.52 178.753C249.688 179.017 247.624 181.889 246.128 184.025C244.24 186.713 242.248 189.817 242.448 193.241C242.496 194.009 243.696 194.017 243.648 193.241L243.656 193.233Z" fill="#263238"/>
<path d="M224.92 350.185L228.128 373.705L235.792 374.089L238.272 351.425L224.92 350.185Z" fill="#CE7A63"/>
<path d="M242.312 384.617H225.168C225.168 384.617 224.792 383.897 225.224 381.977C225.288 381.681 225.376 381.353 225.488 380.993C225.488 380.977 225.496 380.961 225.504 380.937C225.664 380.409 225.848 379.753 226.04 379.049C226.824 376.177 227.752 372.433 227.752 372.433C227.752 372.433 230.6 366.329 233.944 367.849C236.872 369.185 236.176 373.009 236.176 373.009C236.176 373.009 236.464 375.257 238.68 377.241C240.056 378.465 241.416 379.409 242.072 380.937C242.192 381.225 242.288 381.521 242.36 381.849C242.36 381.889 242.376 381.929 242.384 381.969C242.52 382.705 242.512 383.561 242.312 384.609V384.617Z" fill="#263238"/>
<g opacity="0.4">
<path d="M242.312 384.617H225.168C225.168 384.617 224.792 383.897 225.224 381.977C225.288 381.681 225.376 381.353 225.488 380.993C225.488 380.977 225.496 380.961 225.504 380.937C225.664 380.409 225.848 379.753 226.04 379.049C226.824 376.177 227.752 372.433 227.752 372.433C227.752 372.433 230.6 366.329 233.944 367.849C236.872 369.185 236.176 373.009 236.176 373.009C236.176 373.009 236.464 375.257 238.68 377.241C240.056 378.465 241.416 379.409 242.072 380.937C242.192 381.225 242.288 381.521 242.36 381.849C242.36 381.889 242.376 381.929 242.384 381.969C242.52 382.705 242.512 383.561 242.312 384.609V384.617Z" fill="#263238"/>
</g>
<g opacity="0.3">
<path d="M225.224 381.985C224.8 383.905 225.168 384.625 225.168 384.625H242.312C242.512 383.585 242.52 382.721 242.384 381.985H225.224Z" fill="white"/>
</g>
<path d="M235.48 373.985C234.512 373.233 233.248 373.329 232.384 374.177C232.152 374.401 231.792 374.049 232.024 373.817C233.104 372.761 234.648 372.705 235.832 373.625C236.088 373.825 235.728 374.177 235.472 373.985H235.48Z" fill="white"/>
<path d="M235.968 375.585C235 374.833 233.736 374.929 232.872 375.777C232.64 376.001 232.28 375.649 232.512 375.417C233.592 374.361 235.136 374.305 236.32 375.225C236.576 375.425 236.216 375.777 235.96 375.585H235.968Z" fill="white"/>
<path d="M236.448 377.057C235.48 376.305 234.216 376.401 233.352 377.249C233.12 377.473 232.76 377.121 232.992 376.889C234.072 375.833 235.616 375.777 236.8 376.697C237.056 376.897 236.696 377.249 236.44 377.057H236.448Z" fill="white"/>
<path d="M183.552 205.089C183.552 205.089 169.296 268.313 168.008 281.153C166.72 293.993 157.728 361.177 157.728 361.177L174.584 365.025C174.584 365.025 193.752 292.729 195.136 285.777C196.52 278.833 213.848 228.745 213.848 228.745L211.624 209.513L183.544 205.089H183.552Z" fill="#7F56D9"/>
<g opacity="0.2">
<path d="M193.488 210.857C191.472 217.737 186.088 223.265 179.44 225.273C179.08 225.385 179.232 225.961 179.592 225.857C186.432 223.785 191.968 218.105 194.048 211.025C194.16 210.649 193.6 210.497 193.488 210.865V210.857Z" fill="black"/>
</g>
<g opacity="0.2">
<path d="M209.928 229.889C202.488 245.409 198.2 262.289 192.944 278.681C187.488 295.681 183.128 313.041 179.208 330.489C177 340.313 174.944 350.169 172.904 360.033C172.824 360.409 173.384 360.577 173.464 360.193C177.072 342.729 180.76 325.281 185.168 308.017C189.512 291.009 194.896 274.321 200.12 257.585C203.032 248.249 206.216 239.001 210.432 230.201C210.6 229.857 210.096 229.545 209.928 229.897V229.889Z" fill="black"/>
</g>
<g opacity="0.2">
<path d="M159.096 357.225C164.472 358.641 169.848 360.048 175.216 361.464C175.576 361.56 175.736 360.977 175.368 360.881C169.992 359.465 164.616 358.057 159.248 356.641C158.888 356.545 158.728 357.129 159.096 357.225Z" fill="black"/>
</g>
<path d="M243.336 258.409C245.344 240.689 243.928 203.121 243.928 203.121L208.328 201.345C208.328 201.345 213.384 237.705 217.776 256.401L243.336 258.409Z" fill="#7F56D9"/>
<g opacity="0.2">
<path d="M213.632 210.857C213.24 216.873 212.856 222.905 212.464 228.921C212.448 229.313 211.864 229.313 211.888 228.921C212.096 225.833 212.288 222.737 212.488 219.641C211.056 220.785 209.384 219.401 208.92 217.865C208.152 215.377 208.44 212.433 209.04 209.945C209.136 209.569 209.696 209.729 209.6 210.097C209.176 211.841 209 213.633 209.12 215.425C209.176 216.337 209.264 217.385 209.672 218.217C210.128 219.145 211.288 219.937 212.216 219.089C212.32 219.001 212.432 218.993 212.528 219.041C212.704 216.313 212.88 213.577 213.064 210.849C213.08 210.457 213.664 210.457 213.64 210.849L213.632 210.857Z" fill="black"/>
</g>
<g opacity="0.2">
<path d="M230.672 211.88C230.592 219.856 236.504 226.536 244.144 227.168C244.512 227.2 244.512 226.608 244.144 226.576C236.808 225.976 231.16 219.52 231.24 211.88C231.24 211.496 230.672 211.496 230.672 211.88Z" fill="black"/>
</g>
<path d="M224.576 366.585L240.44 366.617C242.536 341.185 243.88 251.865 243.88 251.865L213.856 235.289C213.856 235.289 217.504 274.105 218.936 286.985C218.936 286.985 221.544 348.665 224.576 366.577V366.585Z" fill="#7F56D9"/>
<g opacity="0.2">
<path d="M216.336 230.696C218.288 247.664 219.856 264.68 221.216 281.704C222.576 298.688 223.736 315.68 224.88 332.68C225.528 342.32 226.176 351.96 226.856 361.6C226.88 361.984 227.464 361.992 227.44 361.6C226.24 344.52 225.136 327.44 223.936 310.36C222.744 293.376 221.456 276.4 219.888 259.448C219 249.856 218.024 240.264 216.92 230.696C216.88 230.312 216.296 230.312 216.336 230.696Z" fill="black"/>
</g>
<g opacity="0.2">
<path d="M224.176 361.881C229.624 361.897 235.08 361.905 240.528 361.921C240.904 361.921 240.904 361.321 240.528 361.321C235.08 361.305 229.624 361.297 224.176 361.281C223.8 361.281 223.8 361.881 224.176 361.881Z" fill="black"/>
</g>
<g opacity="0.2">
<path d="M234.416 289.712C236.8 290.624 239.352 290.64 241.744 289.752C242.088 289.624 241.936 289.048 241.592 289.176C239.288 290.032 236.864 290.016 234.568 289.136C234.224 289 234.072 289.576 234.416 289.712Z" fill="black"/>
</g>
<path d="M245.008 217.617C244.416 209.729 242.072 186.945 242.008 162.193C242.008 161.497 242.08 160.817 242.144 160.145C242.752 153.273 244.264 148.097 245.368 143.537C246.592 138.481 247.296 134.177 245.688 129.145C244.368 125.025 242.224 122.857 239.552 121.505C239.312 121.385 239.072 121.273 238.824 121.169C235.392 119.665 231.2 119.297 226.856 117.913C224.856 117.273 222.832 116.425 220.824 115.145C210.64 108.657 205.112 115.145 205.112 115.145C205.112 115.145 203.496 115.497 201.224 116.089C200.312 116.329 199.288 116.601 198.216 116.905C198 116.969 197.776 117.033 197.56 117.097C193.928 118.161 189.944 119.553 187.992 120.961C185.288 122.913 184.584 132.057 184.392 141.761C184.392 142.001 184.392 142.241 184.376 142.481C184.36 143.313 184.352 144.153 184.344 144.985C184.328 146.241 184.32 147.497 184.32 148.745V149.561C184.312 152.689 184.32 155.689 184.272 158.321C184.272 158.617 184.264 158.905 184.256 159.193C184.232 160.713 185.024 162.281 184.952 163.473C184.92 163.985 184.728 175.049 184.688 175.489C184.232 180.169 182 206.729 180.552 213.201C199.168 217.449 217.512 217.545 245.008 217.625V217.617Z" fill="#7F56D9"/>
<g opacity="0.6">
<path d="M245.008 217.617C244.416 209.729 242.072 186.945 242.008 162.193C242.008 161.497 242.08 160.817 242.144 160.145C242.752 153.273 244.264 148.097 245.368 143.537C246.592 138.481 247.296 134.177 245.688 129.145C244.368 125.025 242.224 122.857 239.552 121.505C239.312 121.385 239.072 121.273 238.824 121.169C235.392 119.665 231.2 119.297 226.856 117.913C224.856 117.273 222.832 116.425 220.824 115.145C210.64 108.657 205.112 115.145 205.112 115.145C205.112 115.145 203.496 115.497 201.224 116.089C200.312 116.329 199.288 116.601 198.216 116.905C198 116.969 197.776 117.033 197.56 117.097C193.928 118.161 189.944 119.553 187.992 120.961C185.288 122.913 184.584 132.057 184.392 141.761C184.392 142.001 184.392 142.241 184.376 142.481C184.36 143.313 184.352 144.153 184.344 144.985C184.328 146.241 184.32 147.497 184.32 148.745V149.561C184.312 152.689 184.32 155.689 184.272 158.321C184.272 158.617 184.264 158.905 184.256 159.193C184.232 160.713 185.024 162.281 184.952 163.473C184.92 163.985 184.728 175.049 184.688 175.489C184.232 180.169 182 206.729 180.552 213.201C199.168 217.449 217.512 217.545 245.008 217.625V217.617Z" fill="white"/>
</g>
<path d="M186.304 161.513L170.56 156.881C170.56 156.881 177.768 125.017 187.992 120.961C198.224 116.905 186.304 161.513 186.304 161.513Z" fill="#7F56D9"/>
<path opacity="0.6" d="M186.304 161.513L170.56 156.881C170.56 156.881 177.768 125.017 187.992 120.961C198.224 116.905 186.304 161.513 186.304 161.513Z" fill="white"/>
<path d="M190.36 143.329L187.04 175.929L184.512 177.369L183.256 190.969L164.088 295.081H238.768C239.832 277.441 237.368 199.233 237.368 199.233L243.48 198.113L243.176 188.281C243.176 188.281 234.064 178.297 234.216 176.337C234.368 174.377 229.728 143.321 229.728 143.321L190.36 143.337V143.329Z" fill="#263238"/>
<path d="M224.952 117.225C224.952 117.225 222.456 136.977 221.904 147.273H227.064L230.632 119.049C230.632 119.049 227.488 117.233 224.944 117.233L224.952 117.225Z" fill="#7F56D9"/>
<path d="M193.048 148.065L192.144 119.001C192.144 119.001 194.192 116.313 196.808 117.233C197.688 117.545 198.264 148.065 198.264 148.065H193.056H193.048Z" fill="#7F56D9"/>
<path d="M197.336 156.753C197.336 156.753 195.224 175.441 210.44 175.441C225.656 175.441 223.392 156.753 223.392 156.753H197.336Z" fill="#263238"/>
<path d="M196.392 145.545C196.392 146.153 195.896 146.649 195.288 146.649C194.68 146.649 194.184 146.153 194.184 145.545C194.184 144.937 194.68 144.441 195.288 144.441C195.896 144.441 196.392 144.937 196.392 145.545Z" fill="#263238"/>
<path d="M225.6 144.441C225.6 145.049 225.104 145.545 224.496 145.545C223.888 145.545 223.392 145.049 223.392 144.441C223.392 143.833 223.888 143.337 224.496 143.337C225.104 143.337 225.6 143.833 225.6 144.441Z" fill="#263238"/>
<path d="M218.384 117.609C218.384 117.609 217.056 111.953 219.488 101.713C219.488 101.705 218.944 101.489 218.944 101.481C219.28 100.049 219.648 98.721 219.992 97.569C219.992 97.537 219.992 97.521 219.992 97.521L206.592 106.729C207.072 109.945 206.216 116.241 205.656 118.905C205.656 118.905 204.144 123.761 210.504 123.665C215.152 123.593 218.368 117.601 218.368 117.601L218.384 117.609Z" fill="#CE7A63"/>
<path d="M213.808 109.058C212.144 110.962 209.264 112.026 206.616 112.082C206.656 111.85 206.648 111.49 206.672 111.258C206.72 110.89 206.712 110.322 206.736 109.938C206.76 109.466 206.768 108.946 206.736 108.45C206.712 108.258 206.632 108.282 206.608 108.09L206.56 107.69L214.576 104.97C215.224 105.442 215.136 107.514 213.8 109.058H213.808Z" fill="black"/>
<path d="M224.656 89.3935C226.576 80.7855 219.104 72.8655 210.176 74.9375C201.12 77.0415 197.872 89.7455 198.496 97.8495C199.184 106.857 209.28 112.545 216.952 106.889C222.056 103.129 222.736 97.9935 224.656 89.3935Z" fill="#CE7A63"/>
<path d="M216.928 92.4489C218.328 94.0729 219.536 92.4249 222.856 90.6569C223.312 90.4169 223.816 90.2249 224.512 90.2009C223.728 93.0809 222.976 95.4649 222.368 97.1849C222.184 97.6969 221.992 98.1689 221.776 98.6009C224.352 95.5049 225.608 90.6729 226.544 89.0089C226.736 88.6729 226.88 88.3449 227 88.0329C226.952 87.9129 226.896 87.8009 226.84 87.6889C226.6 87.2009 228 87.9129 227.656 87.4969C227.112 86.8409 226.448 86.2809 225.704 85.7929C223.312 84.2089 220.624 83.5049 218.344 83.1289C218.112 85.8649 215.776 91.1129 216.92 92.4409L216.928 92.4489Z" fill="#263238"/>
<path d="M227.056 95.6491C226.12 97.9211 224.224 99.5451 222.344 100.281C219.512 101.385 218.768 98.3371 219.272 95.4971C219.728 92.9371 220.76 89.8651 223.736 89.9771C226.664 90.0811 228.128 93.0491 227.056 95.6571V95.6491Z" fill="#CE7A63"/>
<path d="M212.2 91.2976C212.12 92.1936 211.584 92.8736 210.992 92.8176C210.408 92.7616 209.992 91.9856 210.072 91.0896C210.152 90.1936 210.688 89.5136 211.28 89.5696C211.864 89.6256 212.28 90.4016 212.2 91.2976Z" fill="#263238"/>
<path d="M203.504 90.7132C203.424 91.6092 202.888 92.2892 202.296 92.2332C201.712 92.1772 201.296 91.4012 201.376 90.5052C201.456 89.6092 201.992 88.9292 202.584 88.9852C203.168 89.0412 203.584 89.8172 203.504 90.7132Z" fill="#263238"/>
<path d="M206.088 89.6338C206.088 89.6338 202.856 93.8418 201.784 95.5778C202.936 96.8178 205.128 96.4898 205.128 96.4898L206.088 89.6418V89.6338Z" fill="#A24E3F"/>
<path d="M214.504 86.4493C214.36 86.4893 214.2 86.4653 214.088 86.3533C212.736 85.0973 211.328 85.3773 211.176 85.4173C210.952 85.4733 210.72 85.3293 210.664 85.1053C210.608 84.8813 210.744 84.6493 210.968 84.6013C211.048 84.5853 212.944 84.1533 214.656 85.7453C214.824 85.9053 214.84 86.1693 214.68 86.3373C214.632 86.3933 214.568 86.4333 214.496 86.4493H214.504Z" fill="#263238"/>
<path opacity="0.2" d="M220.816 95.5132C220.816 95.5132 220.792 95.5132 220.776 95.5132C220.664 95.4892 220.6 95.3852 220.616 95.2732C220.784 94.4652 221.16 93.7052 221.704 93.0892C222.072 92.6732 222.68 92.1452 223.472 92.0252C224.248 91.9052 225.032 92.2492 225.376 92.8652C225.432 92.9612 225.392 93.0812 225.296 93.1372C225.2 93.1932 225.08 93.1532 225.024 93.0572C224.768 92.5932 224.136 92.3212 223.536 92.4172C222.856 92.5212 222.328 92.9852 222.008 93.3532C221.504 93.9212 221.16 94.6172 221.016 95.3532C221 95.4492 220.912 95.5132 220.816 95.5132Z" fill="black"/>
<path d="M199.576 85.7451C199.496 85.7211 199.432 85.6731 199.376 85.6091C199.232 85.4251 199.256 85.1611 199.432 85.0171C201.224 83.5371 203.072 84.1211 203.16 84.1371C203.384 84.2091 203.504 84.4491 203.432 84.6651C203.36 84.8891 203.128 85.0091 202.912 84.9371C202.84 84.9131 201.408 84.4731 199.968 85.6651C199.856 85.7611 199.712 85.7851 199.576 85.7451Z" fill="#263238"/>
<path d="M219.672 99.4817C219.112 98.8817 218.824 98.0657 218.696 97.2497C218.416 95.4337 218.88 93.5137 219.968 92.0337L216.928 92.4497C216.928 92.4497 216.504 96.1777 214.04 96.5217C211.576 96.8737 210.816 95.9937 208.8 96.4097C206.784 96.8257 206.568 97.9617 206.568 97.9617C206.568 97.9617 204.944 97.2337 203.512 97.5297C202.072 97.8257 199.328 99.1697 198.824 99.8897C198.32 100.61 197.96 102.642 199.432 102.93C198.824 103.026 198.072 104.498 198.12 105.106C198.168 105.714 198.592 106.25 199.112 106.578C198.488 107.106 198.312 108.09 198.712 108.81C199.112 109.522 200.048 109.882 200.824 109.618C200.656 110.234 200.904 110.914 201.352 111.37C201.8 111.826 202.408 112.09 203.024 112.242C204.16 112.514 205.384 112.442 206.48 112.034C206.784 112.594 207.536 112.706 208.176 112.746C209.344 112.826 210.544 112.89 211.656 112.53C212.768 112.17 213.784 111.274 213.936 110.114C214.944 109.954 215.984 109.754 216.824 109.178C217.664 108.602 218.256 107.546 218.008 106.554C217.96 106.37 217.888 106.17 217.968 106.002C218.024 105.89 218.128 105.818 218.232 105.754C220.112 104.49 221.464 102.458 221.912 100.242C221.112 100.458 220.24 100.106 219.68 99.4977L219.672 99.4817Z" fill="#263238"/>
<path d="M209.912 97.7212C209.912 97.7212 208.512 99.2012 205.592 99.9692C205.592 99.9692 206.648 101.833 208.48 101.177C210.696 100.377 209.912 97.7212 209.912 97.7212Z" fill="white"/>
<path d="M218.112 76.8493C218.16 76.8813 218.208 76.9133 218.248 76.9613C218.392 77.1293 218.392 77.3693 218.392 77.5853C218.368 79.6333 218.344 81.6813 218.32 83.7293C218.32 84.1933 218.32 84.6733 218.488 85.0973C218.784 85.8173 219.528 86.2333 220.224 86.5773C221.856 87.3693 223.56 88.0013 225.304 88.4733C226.112 88.6893 226.944 88.8733 227.776 88.7613C228.176 88.7053 228.552 88.5853 228.912 88.4253C230.096 87.8813 229.96 86.1853 228.744 85.7133H228.72C227.8 85.3373 226.896 84.5133 226.536 83.5933C226.128 82.5533 226.904 81.8493 226.856 79.9453C226.808 78.3133 225.96 76.6093 224.056 75.7373C222.568 75.0573 220.76 75.0813 219.128 74.9453" fill="#263238"/>
<path d="M219.112 74.2652C217.152 71.8412 213.88 70.5372 210.792 70.9452C208.944 71.1932 207.136 72.0092 205.28 71.7772C204.464 71.6812 203.688 71.3853 202.912 71.1293C202.408 70.9613 201.88 70.8172 201.352 70.8332C200.824 70.8572 200.272 71.0732 199.968 71.5052C199.664 71.9452 199.696 72.6172 200.112 72.9452C199.656 72.5612 199.176 72.1612 198.6 72.0092C197.36 71.6892 196.024 72.7372 195.832 74.0092C195.64 75.2732 196.408 76.5692 197.504 77.2252C196.896 77.3292 196.272 76.9132 195.672 77.0572C195.104 77.1852 194.744 77.8013 194.744 78.3853C194.744 78.9693 195.04 79.5132 195.4 79.9692C196.896 81.8652 199.432 82.5612 201.808 82.9932C203.272 83.2652 204.768 83.4813 206.248 83.3533C208.208 83.1933 210.08 82.4493 211.848 81.5853C214.992 80.0573 218.096 77.9932 219.648 74.8652L219.112 74.2492V74.2652Z" fill="#263238"/>
<g opacity="0.3">
<path d="M224.344 87.6893C223.744 87.2333 223.336 86.5293 223.248 85.7773C222.984 86.2413 223.032 86.8493 222.704 87.2653C222.328 87.7533 221.616 87.7933 221 87.7533C220.448 87.7133 219.84 87.6173 219.464 87.2093C219.152 86.8733 219.064 86.4013 218.976 85.9453C218.832 85.1453 218.72 84.8573 218.576 84.0493C218.752 84.9693 218.624 86.9133 218.904 87.8093C219.184 88.7053 219.664 88.8973 220.504 89.3053C221.048 89.5693 221.936 89.2973 222.544 89.3053C223.328 89.3133 224.112 89.2653 224.88 89.1533C225.528 89.0573 226.272 88.8333 226.472 88.2093C225.728 88.3293 224.936 88.1373 224.336 87.6813L224.344 87.6893Z" fill="black"/>
</g>
<path d="M215.784 183.705L243.824 171.769L241.592 157.057L255.952 151.049C255.952 151.049 260.552 172.777 257.432 179.553C254.304 186.329 219.016 192.033 219.016 192.033L215.784 183.697V183.705Z" fill="#CE7A63"/>
<path d="M239.088 161.113L259.032 151.953C259.032 151.953 245.616 121.193 238.072 121.113C230.528 121.033 235.832 149.465 239.088 161.121V161.113Z" fill="#7F56D9"/>
<path opacity="0.6" d="M239.088 161.113L259.032 151.953C259.032 151.953 245.616 121.193 238.072 121.113C230.528 121.033 235.832 149.465 239.088 161.121V161.113Z" fill="white"/>
<path opacity="0.3" d="M184.968 163.017L185.792 136.177L180.56 159.817L184.472 160.977L184.968 163.017Z" fill="black"/>
<path opacity="0.3" d="M235.144 141.921C235.144 141.921 234.904 165.609 238.04 167.065L242.04 165.945L242.144 160.153L239.088 161.121L235.144 141.929V141.921Z" fill="black"/>
<path opacity="0.3" d="M165.416 177.537C165.416 177.537 169.408 178.833 169.296 180.353H164.976V178.513L165.408 177.537H165.416Z" fill="black"/>
<path opacity="0.3" d="M164.704 308.128L164.088 312.864L172.896 312.52L172.152 318.208H186.912L189.528 308.128H164.704Z" fill="black"/>
<path opacity="0.3" d="M218.048 192.856V252.76H243.88V273.08H218.048V284.816H243.04L242.64 310.968L228.872 311.08V315.848L220.568 319.128L219.36 296.144C219.36 296.144 208.184 295.456 208.328 295.072C208.472 294.688 210.456 193.168 210.456 193.168L218.048 192.856Z" fill="black"/>
<path d="M212.152 312.521H190.056V358.401H212.152V312.521Z" fill="#263238"/>
<path opacity="0.3" d="M212.152 312.521H190.056V358.401H212.152V312.521Z" fill="white"/>
<path d="M210.656 254.505H267.368C274.104 254.505 279.568 259.977 279.568 266.705H210.656V254.505Z" fill="#7F56D9"/>
<path opacity="0.3" d="M210.656 254.505H267.368C274.104 254.505 279.568 259.977 279.568 266.705H210.656V254.505Z" fill="black"/>
<path d="M280.848 266.713H210.656V269.681H280.848V266.713Z" fill="#263238"/>
<path d="M222.76 268.648H219.944V303.64H222.76V268.648Z" fill="#263238"/>
<path d="M267.66 269.769L265.327 268.193L240.22 305.374L242.553 306.95L267.66 269.769Z" fill="#263238"/>
<path d="M141.096 287.48H255.84C260.152 287.48 263.648 290.976 263.648 295.288V303.904H141.096V287.48Z" fill="#7F56D9"/>
<path d="M150.832 180.353H205.048C210.976 180.353 215.792 185.169 215.792 191.097V288.377H141.096V190.097C141.096 184.721 145.456 180.361 150.832 180.361V180.353Z" fill="#7F56D9"/>
<path opacity="0.3" d="M150.832 180.353H152.944V303.905H141.096V190.097C141.096 184.721 145.456 180.361 150.832 180.361V180.353Z" fill="black"/>
<path d="M259.128 378.816H143.088V385.152H259.128V378.816Z" fill="#263238"/>
<path opacity="0.6" d="M259.128 378.889H143.088V385.225H259.128V378.889Z" fill="white"/>
<path d="M214.912 349.6H187.304V377.208H214.912V349.6Z" fill="#263238"/>
<path opacity="0.6" d="M214.912 349.6H187.304V377.208H214.912V349.6Z" fill="white"/>
<path d="M264.448 302.105H139.816V308.129H264.448V302.105Z" fill="#263238"/>
<path opacity="0.3" d="M215.792 284.816H152.848V287.472H215.792V284.816Z" fill="black"/>
<path d="M136.328 254.505H193.04C199.776 254.505 205.24 259.977 205.24 266.705H136.328V254.505Z" fill="#7F56D9"/>
<path opacity="0.3" d="M136.328 254.505H193.04C199.776 254.505 205.24 259.977 205.24 266.705H136.328V254.505Z" fill="black"/>
<path d="M206.52 266.713H136.328V269.681H206.52V266.713Z" fill="#263238"/>
<path d="M148.432 268.648H145.616V303.64H148.432V268.648Z" fill="#263238"/>
<path d="M193.334 269.765L191 268.189L165.893 305.37L168.226 306.946L193.334 269.765Z" fill="#263238"/>
<path d="M226.44 308.128H175.776V314.04H226.44V308.128Z" fill="#263238"/>
<path opacity="0.3" d="M226.44 308.128H175.776V314.04H226.44V308.128Z" fill="white"/>
<path d="M173.08 378.817L187.272 372.553H214.888L229.136 378.817H173.08Z" fill="#263238"/>
<path opacity="0.3" d="M212.152 314.041H190.056V315.857H212.152V314.041Z" fill="black"/>
<path opacity="0.6" d="M173.08 378.817L187.272 372.553H214.888L229.136 378.817H173.08Z" fill="white"/>
<path d="M163.48 180.329C163.48 180.329 160.728 187.377 159.216 187.865C157.704 188.353 158.088 186.121 158.088 186.121C158.088 186.121 157.512 188.553 156.448 188.449C155.168 188.321 155.584 185.985 155.584 185.985C155.584 185.985 155.032 187.953 154.088 187.801C153.112 187.641 153.384 184.961 153.384 184.961C153.384 184.961 152.736 186.273 152.144 185.793C151.552 185.313 152.032 179.625 153.296 178.081C154.56 176.545 161.84 177.425 163.392 177.945C164.944 178.465 165.888 177.921 168.056 180.209L163.48 180.329Z" fill="#CE7A63"/>
<path opacity="0.2" d="M157.968 186.097L159.168 181.889C159.184 181.833 159.248 181.801 159.312 181.817C159.376 181.833 159.416 181.897 159.4 181.953L158.2 186.153C158.184 186.209 158.12 186.241 158.056 186.225C157.992 186.209 157.96 186.153 157.968 186.105V186.097Z" fill="black"/>
<path opacity="0.2" d="M155.48 185.841L156.312 181.713C156.32 181.657 156.384 181.617 156.448 181.633C156.512 181.649 156.544 181.689 156.544 181.761L155.712 185.881C155.704 185.937 155.64 185.977 155.576 185.961C155.512 185.945 155.472 185.889 155.48 185.833V185.841Z" fill="black"/>
<path opacity="0.2" d="M153.296 184.801L153.832 181.721C153.84 181.665 153.904 181.625 153.968 181.641C154.032 181.649 154.08 181.705 154.072 181.769L153.536 184.849C153.528 184.905 153.464 184.945 153.4 184.929C153.336 184.921 153.288 184.865 153.296 184.801Z" fill="black"/>
<path d="M214.608 186.36C214.608 186.36 208.704 190.48 208.584 192.072C208.464 193.656 210.544 192.76 210.544 192.76C210.544 192.76 208.312 193.896 208.664 194.904C209.088 196.12 211.264 195.168 211.264 195.168C211.264 195.168 209.48 196.168 209.856 197.048C210.248 197.96 212.776 197.056 212.776 197.056C212.776 197.056 211.656 198 212.256 198.464C212.864 198.928 218.28 197.12 219.48 195.528C220.68 193.936 218.104 187.072 217.232 185.688C216.36 184.304 215.992 182.008 212.264 183.048L214.6 186.368L214.608 186.36Z" fill="#CE7A63"/>
<path opacity="0.2" d="M210.6 192.864H210.608L214.4 190.696C214.448 190.664 214.464 190.592 214.432 190.536C214.4 190.48 214.328 190.456 214.28 190.48L210.488 192.64C210.44 192.672 210.424 192.744 210.456 192.8C210.488 192.856 210.544 192.88 210.6 192.856V192.864Z" fill="black"/>
<path opacity="0.2" d="M211.432 195.216L215.24 193.432C215.296 193.408 215.312 193.336 215.288 193.28C215.264 193.216 215.208 193.2 215.144 193.216L211.336 195C211.28 195.024 211.264 195.096 211.288 195.152C211.312 195.208 211.376 195.24 211.432 195.216Z" fill="black"/>
<path opacity="0.2" d="M212.968 197.096L215.84 195.848C215.896 195.824 215.912 195.76 215.888 195.696C215.864 195.632 215.8 195.608 215.744 195.624L212.872 196.872C212.816 196.896 212.8 196.96 212.824 197.024C212.848 197.088 212.912 197.112 212.968 197.096Z" fill="black"/>
</svg>
