<svg width="86" height="67" viewBox="0 0 86 67" fill="none" xmlns="http://www.w3.org/2000/svg">
<g clip-path="url(#clip0_444_3167)">
<g clip-path="url(#clip1_444_3167)">
<g clip-path="url(#clip2_444_3167)">
<g clip-path="url(#clip3_444_3167)">
<g clip-path="url(#clip4_444_3167)">
<g clip-path="url(#clip5_444_3167)">
<g clip-path="url(#clip6_444_3167)">
<g clip-path="url(#clip7_444_3167)">
<g clip-path="url(#clip8_444_3167)">
<g clip-path="url(#clip9_444_3167)">
<path d="M26.581 45.6934L22.6113 40.6453L20.986 41.9894C20.9964 43.2084 21.0224 44.266 21.0641 45.162C21.0745 45.3808 21.0099 45.5705 20.8703 45.7309C20.7286 45.8934 20.5483 45.9799 20.3295 45.9903C20.1107 46.0008 19.9211 45.9351 19.7607 45.7934C19.5981 45.6538 19.5116 45.4746 19.5012 45.2558C19.47 44.6306 19.4491 44.0159 19.4387 43.4116C19.4283 42.6614 19.4231 41.8956 19.4231 41.1142C19.4231 40.3327 19.4179 39.7232 19.4074 39.2856C19.4074 39.0147 19.3866 38.4542 19.3449 37.604C19.3033 36.7558 19.2876 36.0765 19.298 35.566C19.298 35.3472 19.3762 35.1648 19.5325 35.019C19.6888 34.8731 19.8763 34.8002 20.0951 34.8002C20.3139 34.8002 20.4963 34.8783 20.6421 35.0346C20.788 35.1909 20.8609 35.3784 20.8609 35.5972C20.8505 36.0973 20.8661 36.7642 20.9078 37.5977C20.9495 38.4312 20.9703 38.9835 20.9703 39.2544C20.9703 39.4836 20.9755 39.7284 20.986 39.9889C22.6218 38.624 24.3201 36.983 26.0809 35.0658C26.2268 34.9096 26.4091 34.8262 26.6279 34.8158C26.8467 34.8054 27.0343 34.8731 27.1906 35.019C27.3469 35.1648 27.4302 35.3472 27.4406 35.566C27.451 35.7848 27.3833 35.9723 27.2375 36.1286C26.0705 37.4206 24.9192 38.5823 23.7835 39.6138L27.8001 44.7244C27.9355 44.8911 27.9908 45.0807 27.9658 45.2933C27.9387 45.5079 27.8418 45.683 27.6751 45.8184C27.5084 45.9539 27.3187 46.0091 27.1062 45.9841C26.8915 45.957 26.7165 45.8601 26.581 45.6934ZM29.0035 45.2245C28.9827 44.4431 28.9847 43.2449 29.0098 41.6299C29.0368 40.0149 29.0504 38.9574 29.0504 38.4573C29.0504 38.2385 29.1254 38.053 29.2754 37.9009C29.4276 37.7509 29.613 37.6758 29.8318 37.6758C30.0506 37.6758 30.235 37.7509 30.3851 37.9009C30.5372 38.053 30.6133 38.2385 30.6133 38.4573C30.6133 38.9574 30.5997 40.0097 30.5726 41.6143C30.5476 43.2188 30.5455 44.4118 30.5664 45.1933C30.5664 45.4121 30.4934 45.5996 30.3476 45.7559C30.2017 45.9122 30.0194 45.9903 29.8006 45.9903C29.5818 45.9903 29.3942 45.9174 29.2379 45.7715C29.0816 45.6257 29.0035 45.4433 29.0035 45.2245ZM30.457 34.9721C30.6341 35.1492 30.7227 35.368 30.7227 35.6285C30.7227 35.889 30.6341 36.1078 30.457 36.2849C30.2799 36.462 30.061 36.5506 29.8006 36.5506C29.5401 36.5506 29.3213 36.462 29.1442 36.2849C28.967 36.1078 28.8785 35.889 28.8785 35.6285C28.8785 35.368 28.967 35.1492 29.1442 34.9721C29.3213 34.7949 29.5422 34.7033 29.8068 34.697C30.0736 34.6928 30.2903 34.7845 30.457 34.9721ZM33.4733 45.9747C33.2649 45.9747 33.0826 45.9039 32.9263 45.7622C32.77 45.6225 32.6919 45.4329 32.6919 45.1933C32.6919 44.3702 32.6867 43.6617 32.6763 43.0678C32.6554 41.2965 32.645 39.7597 32.645 38.4573C32.645 38.2176 32.7179 38.0301 32.8638 37.8946C33.0097 37.7592 33.1868 37.6915 33.3952 37.6915C33.614 37.6915 33.8036 37.7613 33.9641 37.9009C34.1266 38.0426 34.2079 38.2385 34.2079 38.4885V38.973C34.8539 38.1291 35.703 37.7071 36.7554 37.7071C37.6618 37.7071 38.3568 38.0249 38.8402 38.6605C39.3258 39.296 39.5685 40.1504 39.5685 41.2236C39.5685 42.4114 39.5529 43.1928 39.5217 43.5679L39.4435 44.615L39.3966 45.287C39.3758 45.4954 39.2924 45.6621 39.1466 45.7872C39.0007 45.9122 38.8288 45.9747 38.6308 45.9747C38.4224 45.9747 38.2401 45.9039 38.0838 45.7622C37.9275 45.6225 37.8494 45.4329 37.8494 45.1933C37.8494 45.0266 37.8858 44.4483 37.9588 43.4585C38.0109 42.7812 38.0369 42.2499 38.0369 41.8644C38.0369 40.9787 37.9119 40.3244 37.6618 39.9014C37.4118 39.4804 37.0263 39.27 36.5053 39.27C36.1302 39.27 35.7416 39.3846 35.3394 39.6138C34.9393 39.843 34.5621 40.1348 34.2079 40.489L34.2391 42.7083L34.2548 45.1933C34.2548 45.4329 34.1766 45.6225 34.0203 45.7622C33.864 45.9039 33.6817 45.9747 33.4733 45.9747ZM41.2689 49.1161C41.0501 49.1369 40.8574 49.0765 40.6907 48.9348C40.524 48.7952 40.4302 48.6191 40.4094 48.4065C40.3885 48.1919 40.449 48.0012 40.5907 47.8345C40.7303 47.6678 40.9043 47.5741 41.1127 47.5532C41.2169 47.5428 41.3419 47.5324 41.4878 47.522C41.6336 47.5115 41.7305 47.5042 41.7784 47.5001C41.8243 47.4938 41.8837 47.4834 41.9566 47.4688C42.0295 47.4522 42.0869 47.4282 42.1285 47.3969L42.2848 47.3032C42.5349 47.1781 42.7589 46.8291 42.9569 46.256C43.0194 46.0789 43.0819 45.9539 43.1444 45.8809C43.0715 45.7976 43.0142 45.6986 42.9725 45.584C42.7849 44.7817 42.3994 43.5939 41.816 42.0206C41.295 40.6349 40.9095 39.5252 40.6594 38.6917C40.5969 38.4833 40.6178 38.2854 40.7219 38.0978C40.8261 37.9103 40.9824 37.7852 41.1908 37.7227C41.3992 37.6602 41.5972 37.6811 41.7847 37.7852C41.9722 37.8894 42.0973 38.0457 42.1598 38.2541C42.3578 38.9209 42.7328 39.9941 43.2851 41.4736L43.879 43.099C44.6083 40.8693 45.2751 39.197 45.8794 38.0822C45.9836 37.8946 46.1399 37.7696 46.3483 37.7071C46.5567 37.6446 46.7546 37.6654 46.9422 37.7696C47.1297 37.8738 47.2548 38.0301 47.3173 38.2385C47.3798 38.4469 47.359 38.6448 47.2548 38.8324C46.9839 39.3325 46.7025 39.942 46.4108 40.6609C46.1191 41.3799 45.8899 41.9842 45.7231 42.4739C45.5564 42.9636 45.3376 43.646 45.0667 44.5212C45.0042 44.7296 44.9625 44.8755 44.9417 44.9588C44.8896 45.0943 44.8167 45.3652 44.7229 45.7715C44.6083 46.157 44.5145 46.4696 44.4416 46.7093C44.1499 47.522 43.7539 48.1263 43.2538 48.5222C43.1079 48.6368 42.9621 48.7337 42.8162 48.8129C42.6703 48.89 42.5172 48.9473 42.3567 48.9848C42.1942 49.0202 42.066 49.0463 41.9722 49.063C41.8785 49.0775 41.7461 49.088 41.5753 49.0942C41.4023 49.0984 41.3002 49.1057 41.2689 49.1161ZM52.7717 45.8653C51.3964 46.1987 50.2972 45.9226 49.474 45.037C48.8176 44.3597 48.4113 43.4897 48.255 42.427C48.1404 41.5935 48.2394 40.8016 48.5519 40.0514C48.927 39.0929 49.5209 38.3843 50.3336 37.9259C50.5003 37.8321 50.7087 37.7644 50.9588 37.7227C50.9692 37.7227 51.0421 37.7175 51.1776 37.7071C51.2297 37.6967 51.2714 37.6863 51.3026 37.6758C51.4589 37.6446 51.6152 37.6602 51.7715 37.7227C51.8131 37.7227 51.9121 37.7248 52.0684 37.729C52.2247 37.7352 52.3289 37.7404 52.381 37.7446C52.4331 37.7509 52.5248 37.7613 52.6561 37.7759C52.7853 37.7925 52.8915 37.8113 52.9749 37.8321L53.2718 37.9415C53.3969 37.9832 53.5167 38.0353 53.6313 38.0978C53.7459 38.1603 53.8709 38.2333 54.0064 38.3166C54.6836 38.7751 55.1525 39.419 55.413 40.2483C55.6735 41.0756 55.7412 41.7445 55.6161 42.2551C55.5224 42.8177 55.3557 43.3407 55.116 43.8242C54.8764 44.3097 54.5461 44.74 54.1252 45.1151C53.7021 45.4902 53.251 45.7403 52.7717 45.8653ZM52.2872 44.2399C52.7352 44.1774 53.1187 43.9451 53.4375 43.5429C53.7542 43.1428 53.9626 42.7187 54.0626 42.2707C54.1606 41.8227 54.1241 41.3309 53.9532 40.7953C53.7803 40.2577 53.5063 39.8691 53.1312 39.6294C53.0166 39.5461 52.9228 39.4857 52.8499 39.4481C52.7769 39.4127 52.6915 39.3815 52.5935 39.3544C52.4935 39.3294 52.4154 39.3169 52.3591 39.3169C52.3008 39.3169 52.1778 39.3117 51.9903 39.3012C51.8027 39.2908 51.636 39.2804 51.4902 39.27C51.4589 39.27 51.4224 39.2648 51.3808 39.2544C51.2661 39.2648 51.2036 39.27 51.1932 39.27L51.0838 39.3012C50.6254 39.5513 50.2742 39.9493 50.0304 40.4953C49.7845 41.0433 49.7137 41.6091 49.8179 42.1926C49.9325 42.9011 50.1878 43.4376 50.5837 43.8023C51.0109 44.1982 51.5787 44.3441 52.2872 44.2399ZM60.0547 45.9747C59.2524 45.9851 58.6169 45.9747 58.148 45.9435C57.8458 45.9226 57.601 45.8914 57.4135 45.8497C57.278 45.8184 57.1582 45.782 57.054 45.7403C56.8248 45.6257 56.6633 45.459 56.5695 45.2402C56.507 45.063 56.507 44.8807 56.5695 44.6932C56.5903 44.6306 56.6164 44.5785 56.6476 44.5369C56.6685 44.4952 56.6997 44.4483 56.7414 44.3962L56.9133 44.1774L57.3978 43.6773L58.1167 42.9584C58.9711 42.0727 59.6848 41.3069 60.2579 40.6609C60.7059 40.0983 61.0237 39.6294 61.2112 39.2544C60.8153 39.2439 60.4454 39.2387 60.1016 39.2387C58.7263 39.27 57.8458 39.2648 57.4603 39.2231C57.252 39.1918 57.08 39.0929 56.9446 38.9261C56.8091 38.7594 56.7539 38.5688 56.7789 38.3541C56.806 38.1416 56.9029 37.9676 57.0696 37.8321C57.2363 37.6967 57.4291 37.6394 57.6479 37.6602C57.9813 37.7019 58.5773 37.7144 59.4358 37.6977C60.2964 37.6831 60.9716 37.6811 61.4613 37.6915H62.1333C62.1542 37.7019 62.175 37.7071 62.1959 37.7071L62.2896 37.7384C62.4042 37.7696 62.5032 37.8269 62.5866 37.9103C62.8679 38.1812 62.9825 38.5406 62.9304 38.9887C62.8991 39.2491 62.8054 39.5461 62.6491 39.8795C62.4199 40.3588 62.0344 40.8902 61.4926 41.4736C60.8882 42.2655 60.1381 43.1251 59.242 44.0524L58.8826 44.4118C59.1847 44.4223 59.5702 44.4223 60.0391 44.4118C60.5809 44.4014 61.2164 44.3806 61.9458 44.3493C62.696 44.3181 63.1127 44.3024 63.1961 44.3024C63.4149 44.3024 63.5993 44.3775 63.7493 44.5275C63.9015 44.6796 63.9775 44.8651 63.9775 45.0839C63.9775 45.3027 63.9015 45.4881 63.7493 45.6403C63.5993 45.7903 63.4149 45.8653 63.1961 45.8653C63.1127 45.8653 62.6981 45.8809 61.952 45.9122C61.2081 45.9435 60.5757 45.9643 60.0547 45.9747ZM64.884 45.2245C64.8632 44.4431 64.8652 43.2449 64.8902 41.6299C64.9173 40.0149 64.9309 38.9574 64.9309 38.4573C64.9309 38.2385 65.0059 38.053 65.1559 37.9009C65.3081 37.7509 65.4935 37.6758 65.7123 37.6758C65.9311 37.6758 66.1155 37.7509 66.2656 37.9009C66.4177 38.053 66.4938 38.2385 66.4938 38.4573C66.4938 38.9574 66.4802 40.0097 66.4531 41.6143C66.4281 43.2188 66.426 44.4118 66.4469 45.1933C66.4469 45.4121 66.3739 45.5996 66.2281 45.7559C66.0822 45.9122 65.8999 45.9903 65.6811 45.9903C65.4623 45.9903 65.2747 45.9174 65.1184 45.7715C64.9621 45.6257 64.884 45.4433 64.884 45.2245ZM66.3375 34.9721C66.5146 35.1492 66.6032 35.368 66.6032 35.6285C66.6032 35.889 66.5146 36.1078 66.3375 36.2849C66.1603 36.462 65.9415 36.5506 65.6811 36.5506C65.4206 36.5506 65.2018 36.462 65.0247 36.2849C64.8475 36.1078 64.759 35.889 64.759 35.6285C64.759 35.368 64.8475 35.1492 65.0247 34.9721C65.2018 34.7949 65.4227 34.7033 65.6873 34.697C65.954 34.6928 66.1708 34.7845 66.3375 34.9721Z" fill="white"/>
</g>
</g>
</g>
</g>
<g clip-path="url(#clip10_444_3167)">
<g clip-path="url(#clip11_444_3167)">
<path d="M48.6153 24.8026C46.857 24.8026 45.4316 26.2278 45.4316 27.9861C45.4316 29.7443 46.8572 31.1695 48.6153 31.1695C50.3733 31.1695 51.7989 29.7443 51.7989 27.9861C51.7989 26.2278 50.3735 24.8026 48.6153 24.8026ZM48.6153 29.578C47.736 29.578 47.0235 28.8653 47.0235 27.9861C47.0235 27.1069 47.736 26.3942 48.6153 26.3942C49.4945 26.3942 50.207 27.1069 50.207 27.9861C50.207 28.8653 49.4945 29.578 48.6153 29.578Z" fill="#C30662"/>
<path d="M34.1006 27.9861C34.1006 29.7445 35.5259 31.1695 37.2842 31.1695C39.0424 31.1695 40.4678 29.7443 40.4678 27.9861C40.4678 26.2276 39.0424 24.8026 37.2842 24.8026C35.5259 24.8026 34.1006 26.2278 34.1006 27.9861ZM35.6925 27.9861C35.6925 27.1069 36.4052 26.3942 37.2842 26.3942C38.1634 26.3942 38.8761 27.1069 38.8761 27.9861C38.8761 28.8653 38.1634 29.578 37.2842 29.578C36.405 29.578 35.6925 28.8653 35.6925 27.9861Z" fill="#C30662"/>
<path d="M40.6815 24.4694L40.0205 25.1304C40.6282 25.7031 41.054 26.4657 41.2039 27.3236L42.3699 26.1581L40.6815 24.4694Z" fill="#C30662"/>
<path d="M42.9865 22.2383L41.2982 20.5499L36.7957 16.0475C35.8633 16.98 37.1232 19.7518 39.6098 22.2383L44.6956 27.3236C44.8453 26.4657 45.2713 25.7033 45.879 25.1304L42.9865 22.2383ZM42.8734 24.2848C42.5952 24.2848 42.3696 24.0593 42.3696 23.7806C42.3696 23.5024 42.5952 23.2768 42.8734 23.2768C43.1518 23.2768 43.3773 23.5024 43.3773 23.7806C43.3773 24.0593 43.1518 24.2848 42.8734 24.2848Z" fill="#C30662"/>
<path d="M49.1032 16.0475L44.6007 20.5499L43.5635 21.5873L44.6243 22.6483C44.9777 22.337 45.3362 22.0011 45.6941 21.6433C47.5458 19.7918 48.825 17.9156 49.0094 16.8947C49.3207 17.6774 47.9263 19.9232 45.715 22.1344C45.4408 22.4087 45.1658 22.6697 44.8934 22.9173L45.2518 23.2759L46.2891 22.2384C48.7756 19.7518 50.0356 16.9798 49.1032 16.0475Z" fill="#C30662"/>
</g>
</g>
</g>
</g>
</g>
<path d="M30.3545 12.6031C34.1268 10.2301 38.4928 8.97113 42.9495 8.97113C47.4061 8.97113 51.7721 10.2301 55.5444 12.6031H54.2288C50.8069 10.6014 46.9139 9.54636 42.9495 9.54636C38.985 9.54636 35.0921 10.6014 31.6701 12.6031H30.3545ZM30.3545 52.6475C34.1268 55.0205 38.4928 56.2795 42.9495 56.2795C47.4061 56.2795 51.7721 55.0205 55.5444 52.6475H54.2288C50.8069 54.6493 46.9139 55.7043 42.9495 55.7043C38.985 55.7043 35.0921 54.6493 31.6701 52.6475H30.3545Z" fill="white"/>
</g>
</g>
</g>
<defs>
<clipPath id="clip0_444_3167">
<rect width="86" height="66.564" fill="white"/>
</clipPath>
<clipPath id="clip1_444_3167">
<rect width="86" height="53.6067" fill="white" transform="translate(-0.0527344 5.82199)"/>
</clipPath>
<clipPath id="clip2_444_3167">
<rect width="85.8401" height="53.6501" fill="white" transform="translate(0.0273438 5.80029)"/>
</clipPath>
<clipPath id="clip3_444_3167">
<rect width="47.3082" height="33.1557" fill="white" transform="translate(19.2949 16.0475)"/>
</clipPath>
<clipPath id="clip4_444_3167">
<rect width="47.3082" height="33.1557" fill="white" transform="translate(19.2949 16.0475)"/>
</clipPath>
<clipPath id="clip5_444_3167">
<rect width="47.3082" height="33.1557" fill="white" transform="translate(19.2949 16.0475)"/>
</clipPath>
<clipPath id="clip6_444_3167">
<rect width="47.3082" height="14.5895" fill="white" transform="translate(19.2949 34.6137)"/>
</clipPath>
<clipPath id="clip7_444_3167">
<rect width="47.3082" height="14.5895" fill="white" transform="translate(19.2949 34.6137)"/>
</clipPath>
<clipPath id="clip8_444_3167">
<rect width="47.3082" height="14.5895" fill="white" transform="translate(19.2949 34.6137)"/>
</clipPath>
<clipPath id="clip9_444_3167">
<rect width="47.3082" height="14.5895" fill="white" transform="translate(19.2949 34.6137)"/>
</clipPath>
<clipPath id="clip10_444_3167">
<rect width="17.6975" height="15.122" fill="white" transform="translate(34.0996 16.0475)"/>
</clipPath>
<clipPath id="clip11_444_3167">
<rect width="17.6975" height="15.122" fill="white" transform="translate(34.1006 16.0475)"/>
</clipPath>
</defs>
</svg>
