<svg width="25" height="25" viewBox="0 0 25 25" fill="none" xmlns="http://www.w3.org/2000/svg">
<path d="M18.75 8.56445C18.75 6.97315 18.1179 5.44703 16.9926 4.32181C15.8674 3.19659 14.3413 2.56445 12.75 2.56445C11.1587 2.56445 9.63258 3.19659 8.50736 4.32181C7.38214 5.44703 6.75 6.97315 6.75 8.56445C6.75 15.5645 3.75 17.5645 3.75 17.5645H21.75C21.75 17.5645 18.75 15.5645 18.75 8.56445Z" stroke="#F8F8FA" stroke-width="2" stroke-linecap="round" stroke-linejoin="round"/>
<path d="M14.48 21.5645C14.3042 21.8675 14.0518 22.1191 13.7482 22.294C13.4446 22.4689 13.1004 22.5609 12.75 22.5609C12.3996 22.5609 12.0554 22.4689 11.7518 22.294C11.4482 22.1191 11.1958 21.8675 11.02 21.5645" stroke="white" stroke-width="2" stroke-linecap="round" stroke-linejoin="round"/>
</svg>
