<svg width="12" height="12" viewBox="0 0 12 12" fill="none" xmlns="http://www.w3.org/2000/svg">
<path fill-rule="evenodd" clip-rule="evenodd" d="M5.99999 0C6.4142 0 6.74999 0.335786 6.74999 0.75V5.25H11.25C11.6642 5.25 12 5.58579 12 6C12 6.41422 11.6642 6.75 11.25 6.75H6.74999V11.25C6.74999 11.6642 6.4142 12 5.99999 12C5.58578 12 5.24999 11.6642 5.24999 11.25V6.75H0.75C0.335786 6.75 0 6.41422 0 6C0 5.58579 0.335786 5.25 0.75 5.25H5.24999V0.75C5.24999 0.335786 5.58578 0 5.99999 0Z" fill="white"/>
</svg>
