<svg width="24" height="24" viewBox="0 0 24 24" fill="none" xmlns="http://www.w3.org/2000/svg">
<path d="M17.9047 20.249C18.0422 20.7839 18.5873 21.106 19.1222 20.9685C19.6571 20.831 19.9792 20.2859 19.8417 19.751L17.9047 20.249ZM4.15834 19.751C4.0208 20.2859 4.34291 20.831 4.8778 20.9685C5.41269 21.106 5.95779 20.7839 6.09533 20.249L4.15834 19.751ZM5.18404 20.564L5.63803 19.673L5.18404 20.564ZM3.43597 18.816L4.32698 18.362L3.43597 18.816ZM20.564 18.816L19.673 18.362L20.564 18.816ZM18.816 20.564L18.362 19.673L18.816 20.564ZM18.816 3.43597L18.362 4.32698L18.816 3.43597ZM20.564 5.18404L19.673 5.63803L20.564 5.18404ZM5.18404 3.43597L5.63803 4.32698L5.18404 3.43597ZM3.43597 5.18404L4.32698 5.63803L3.43597 5.18404ZM15.375 11.375C15.375 13.239 13.864 14.75 12 14.75V16.75C14.9685 16.75 17.375 14.3435 17.375 11.375H15.375ZM12 14.75C10.136 14.75 8.625 13.239 8.625 11.375H6.625C6.625 14.3435 9.03147 16.75 12 16.75V14.75ZM8.625 11.375C8.625 9.51104 10.136 8 12 8V6C9.03147 6 6.625 8.40647 6.625 11.375H8.625ZM12 8C13.864 8 15.375 9.51104 15.375 11.375H17.375C17.375 8.40647 14.9685 6 12 6V8ZM19.8417 19.751C19.0661 16.7346 15.6864 14.75 12 14.75V16.75C15.1337 16.75 17.4351 18.423 17.9047 20.249L19.8417 19.751ZM6.09533 20.249C6.56487 18.423 8.86627 16.75 12 16.75V14.75C8.31362 14.75 4.93394 16.7346 4.15834 19.751L6.09533 20.249ZM9.4 4H14.6V2H9.4V4ZM20 9.4V14.6H22V9.4H20ZM14.6 20H9.4V22H14.6V20ZM4 14.6V9.4H2V14.6H4ZM9.4 20C8.26339 20 7.47108 19.9992 6.85424 19.9488C6.24907 19.8994 5.90138 19.8072 5.63803 19.673L4.73005 21.455C5.32234 21.7568 5.96253 21.8826 6.69138 21.9422C7.40855 22.0008 8.2964 22 9.4 22V20ZM2 14.6C2 15.7036 1.99922 16.5914 2.05782 17.3086C2.11737 18.0375 2.24318 18.6777 2.54497 19.27L4.32698 18.362C4.19279 18.0986 4.10062 17.7509 4.05118 17.1458C4.00078 16.5289 4 15.7366 4 14.6H2ZM5.63803 19.673C5.07354 19.3854 4.6146 18.9265 4.32698 18.362L2.54497 19.27C3.02433 20.2108 3.78924 20.9757 4.73005 21.455L5.63803 19.673ZM20 14.6C20 15.7366 19.9992 16.5289 19.9488 17.1458C19.8994 17.7509 19.8072 18.0986 19.673 18.362L21.455 19.27C21.7568 18.6777 21.8826 18.0375 21.9422 17.3086C22.0008 16.5914 22 15.7036 22 14.6H20ZM14.6 22C15.7036 22 16.5914 22.0008 17.3086 21.9422C18.0375 21.8826 18.6777 21.7568 19.27 21.455L18.362 19.673C18.0986 19.8072 17.7509 19.8994 17.1458 19.9488C16.5289 19.9992 15.7366 20 14.6 20V22ZM19.673 18.362C19.3854 18.9265 18.9265 19.3854 18.362 19.673L19.27 21.455C20.2108 20.9757 20.9757 20.2108 21.455 19.27L19.673 18.362ZM14.6 4C15.7366 4 16.5289 4.00078 17.1458 4.05118C17.7509 4.10062 18.0986 4.19279 18.362 4.32698L19.27 2.54497C18.6777 2.24318 18.0375 2.11737 17.3086 2.05782C16.5914 1.99922 15.7036 2 14.6 2V4ZM22 9.4C22 8.2964 22.0008 7.40855 21.9422 6.69138C21.8826 5.96253 21.7568 5.32234 21.455 4.73005L19.673 5.63803C19.8072 5.90138 19.8994 6.24907 19.9488 6.85424C19.9992 7.47108 20 8.26339 20 9.4H22ZM18.362 4.32698C18.9265 4.6146 19.3854 5.07354 19.673 5.63803L21.455 4.73005C20.9757 3.78924 20.2108 3.02433 19.27 2.54497L18.362 4.32698ZM9.4 2C8.2964 2 7.40855 1.99922 6.69138 2.05782C5.96253 2.11737 5.32234 2.24318 4.73005 2.54497L5.63803 4.32698C5.90138 4.19279 6.24907 4.10062 6.85424 4.05118C7.47108 4.00078 8.26339 4 9.4 4V2ZM4 9.4C4 8.26339 4.00078 7.47108 4.05118 6.85424C4.10062 6.24907 4.19279 5.90138 4.32698 5.63803L2.54497 4.73005C2.24318 5.32234 2.11737 5.96253 2.05782 6.69138C1.99922 7.40855 2 8.2964 2 9.4H4ZM4.73005 2.54497C3.78924 3.02433 3.02433 3.78924 2.54497 4.73005L4.32698 5.63803C4.6146 5.07354 5.07354 4.6146 5.63803 4.32698L4.73005 2.54497Z" fill="#F8F8FA"/>
</svg>
