<svg width="19" height="23" viewBox="0 0 19 23" fill="none" xmlns="http://www.w3.org/2000/svg">
<path d="M5.75 5.56445H13.75M5.75 9.56445H13.75M5.75 13.5645H13.75M3.75 1.56445H15.75C16.8546 1.56445 17.75 2.45988 17.75 3.56445V18.3284C17.75 19.8151 16.1854 20.7821 14.8556 20.1172L14.6444 20.0117C14.0814 19.7301 13.4186 19.7301 12.8556 20.0117L10.6444 21.1172C10.0814 21.3988 9.41863 21.3988 8.85557 21.1172L6.64443 20.0117C6.08137 19.7301 5.41863 19.7301 4.85557 20.0117L4.64443 20.1172C3.31462 20.7821 1.75 19.8151 1.75 18.3284V3.56445C1.75 2.45988 2.64543 1.56445 3.75 1.56445Z" stroke="#F8F8FA" stroke-width="2" stroke-linecap="round"/>
</svg>
