<svg width="490" height="272" viewBox="0 0 490 272" fill="none" xmlns="http://www.w3.org/2000/svg">
<g clip-path="url(#clip0_149_9677)">
<path d="M174.58 227.539C99.8652 185.928 94.8084 32.3422 203.794 45.8368C241.926 50.5604 269.65 85.125 305.146 96.7968C346.159 110.233 375.912 88.2316 414.906 90.5738C507.594 96.1402 510.789 211.604 431.566 241.592C388.897 257.752 347.707 254.724 304.852 248.589C267.592 243.189 209.772 247.119 174.58 227.539Z" fill="#7F56D9"/>
<path opacity="0.9" d="M174.58 227.539C99.8652 185.928 94.8084 32.3422 203.794 45.8368C241.926 50.5604 269.65 85.125 305.146 96.7968C346.159 110.233 375.912 88.2316 414.906 90.5738C507.594 96.1402 510.789 211.604 431.566 241.592C388.897 257.752 347.707 254.724 304.852 248.589C267.592 243.189 209.772 247.119 174.58 227.539Z" fill="#7F56D9"/>
<path d="M220.283 105.208C219.702 105.17 219.157 104.912 218.759 104.487C218.361 104.062 218.139 103.502 218.139 102.919C218.139 102.337 218.361 101.777 218.759 101.352C219.157 100.927 219.702 100.669 220.283 100.631C225.888 100.631 230.612 92.6049 230.612 83.0989C230.65 82.5179 230.907 81.9731 231.332 81.5751C231.757 81.1771 232.318 80.9556 232.9 80.9556C233.482 80.9556 234.043 81.1771 234.468 81.5751C234.893 81.9731 235.15 82.5179 235.188 83.0989C235.188 95.4959 228.662 105.208 220.283 105.208Z" fill="#7F56D9"/>
<path d="M254.867 105.208C254.286 105.17 253.741 104.912 253.343 104.487C252.945 104.062 252.723 103.502 252.723 102.919C252.723 102.337 252.945 101.777 253.343 101.352C253.741 100.927 254.286 100.669 254.867 100.631C260.472 100.631 265.196 92.6049 265.196 83.0989C265.234 82.5179 265.491 81.9731 265.916 81.5751C266.341 81.1771 266.902 80.9556 267.484 80.9556C268.066 80.9556 268.627 81.1771 269.052 81.5751C269.477 81.9731 269.734 82.5179 269.772 83.0989C269.821 95.4959 263.226 105.208 254.867 105.208Z" fill="#7F56D9"/>
<path d="M289.421 105.208C288.84 105.17 288.295 104.912 287.897 104.487C287.499 104.062 287.278 103.502 287.278 102.919C287.278 102.337 287.499 101.777 287.897 101.352C288.295 100.927 288.84 100.669 289.421 100.631C295.017 100.631 299.75 92.605 299.75 83.099C299.75 82.4934 299.991 81.9126 300.419 81.4843C300.847 81.0561 301.428 80.8156 302.034 80.8156C302.639 80.8156 303.22 81.0561 303.648 81.4843C304.077 81.9126 304.317 82.4934 304.317 83.099C304.347 95.496 297.81 105.208 289.421 105.208Z" fill="#7F56D9"/>
<path d="M324.035 105.208C323.722 105.228 323.408 105.184 323.112 105.079C322.817 104.973 322.546 104.808 322.317 104.593C322.088 104.379 321.906 104.119 321.781 103.832C321.656 103.544 321.592 103.233 321.592 102.919C321.592 102.606 321.656 102.295 321.781 102.007C321.906 101.719 322.088 101.46 322.317 101.246C322.546 101.031 322.817 100.866 323.112 100.76C323.408 100.655 323.722 100.611 324.035 100.631C329.631 100.631 334.364 92.605 334.364 83.099C334.364 82.4934 334.605 81.9126 335.033 81.4843C335.461 81.0561 336.042 80.8156 336.647 80.8156C337.253 80.8156 337.834 81.0561 338.262 81.4843C338.69 81.9126 338.931 82.4934 338.931 83.099C338.931 95.496 332.384 105.208 324.035 105.208Z" fill="#7F56D9"/>
<path d="M358.609 105.208C358.028 105.17 357.483 104.912 357.085 104.487C356.687 104.062 356.466 103.502 356.466 102.919C356.466 102.337 356.687 101.777 357.085 101.352C357.483 100.927 358.028 100.669 358.609 100.631C364.215 100.631 368.938 92.6049 368.938 83.0989C368.976 82.5179 369.234 81.9731 369.659 81.5751C370.084 81.1771 370.644 80.9556 371.227 80.9556C371.809 80.9556 372.369 81.1771 372.794 81.5751C373.219 81.9731 373.477 82.5179 373.515 83.0989C373.515 95.4959 366.969 105.208 358.609 105.208Z" fill="#7F56D9"/>
<path d="M393.193 105.208C392.612 105.17 392.067 104.912 391.669 104.487C391.271 104.062 391.05 103.502 391.05 102.919C391.05 102.337 391.271 101.777 391.669 101.352C392.067 100.927 392.612 100.669 393.193 100.631C398.789 100.631 403.522 92.6049 403.522 83.0989C403.56 82.5179 403.818 81.9731 404.243 81.5751C404.668 81.1771 405.228 80.9556 405.811 80.9556C406.393 80.9556 406.953 81.1771 407.378 81.5751C407.803 81.9731 408.061 82.5179 408.099 83.0989C408.099 95.4959 401.553 105.208 393.193 105.208Z" fill="#7F56D9"/>
<g opacity="0.3">
<path d="M220.283 105.208C219.702 105.17 219.157 104.912 218.759 104.487C218.361 104.062 218.139 103.502 218.139 102.919C218.139 102.337 218.361 101.777 218.759 101.352C219.157 100.927 219.702 100.669 220.283 100.631C225.888 100.631 230.612 92.6049 230.612 83.0989C230.65 82.5179 230.907 81.9731 231.332 81.5751C231.757 81.1771 232.318 80.9556 232.9 80.9556C233.482 80.9556 234.043 81.1771 234.468 81.5751C234.893 81.9731 235.15 82.5179 235.188 83.0989C235.188 95.4959 228.662 105.208 220.283 105.208Z" fill="black"/>
<path d="M254.867 105.208C254.286 105.17 253.741 104.912 253.343 104.487C252.945 104.062 252.723 103.502 252.723 102.919C252.723 102.337 252.945 101.777 253.343 101.352C253.741 100.927 254.286 100.669 254.867 100.631C260.472 100.631 265.196 92.6049 265.196 83.0989C265.234 82.5179 265.491 81.9731 265.916 81.5751C266.341 81.1771 266.902 80.9556 267.484 80.9556C268.066 80.9556 268.627 81.1771 269.052 81.5751C269.477 81.9731 269.734 82.5179 269.772 83.0989C269.821 95.4959 263.226 105.208 254.867 105.208Z" fill="black"/>
<path d="M289.421 105.208C288.84 105.17 288.295 104.912 287.897 104.487C287.499 104.062 287.278 103.502 287.278 102.919C287.278 102.337 287.499 101.777 287.897 101.352C288.295 100.927 288.84 100.669 289.421 100.631C295.017 100.631 299.75 92.605 299.75 83.099C299.75 82.4934 299.991 81.9126 300.419 81.4843C300.847 81.0561 301.428 80.8156 302.034 80.8156C302.639 80.8156 303.22 81.0561 303.648 81.4843C304.077 81.9126 304.317 82.4934 304.317 83.099C304.347 95.496 297.81 105.208 289.421 105.208Z" fill="black"/>
<path d="M324.035 105.208C323.722 105.228 323.408 105.184 323.113 105.079C322.817 104.973 322.547 104.808 322.318 104.593C322.089 104.379 321.906 104.119 321.781 103.832C321.657 103.544 321.592 103.233 321.592 102.919C321.592 102.606 321.657 102.295 321.781 102.007C321.906 101.719 322.089 101.46 322.318 101.246C322.547 101.031 322.817 100.866 323.113 100.76C323.408 100.655 323.722 100.611 324.035 100.631C329.631 100.631 334.364 92.605 334.364 83.099C334.364 82.4934 334.605 81.9126 335.033 81.4843C335.462 81.0561 336.042 80.8156 336.648 80.8156C337.254 80.8156 337.834 81.0561 338.263 81.4843C338.691 81.9126 338.931 82.4934 338.931 83.099C338.931 95.496 332.385 105.208 324.035 105.208Z" fill="black"/>
<path d="M358.609 105.208C358.028 105.17 357.483 104.912 357.085 104.487C356.687 104.062 356.466 103.502 356.466 102.919C356.466 102.337 356.687 101.777 357.085 101.352C357.483 100.927 358.028 100.669 358.609 100.631C364.215 100.631 368.938 92.6049 368.938 83.0989C368.976 82.5179 369.234 81.9731 369.659 81.5751C370.084 81.1771 370.644 80.9556 371.227 80.9556C371.809 80.9556 372.369 81.1771 372.794 81.5751C373.219 81.9731 373.477 82.5179 373.515 83.0989C373.515 95.4959 366.969 105.208 358.609 105.208Z" fill="black"/>
<path d="M393.194 105.208C392.613 105.17 392.068 104.912 391.67 104.487C391.272 104.062 391.05 103.502 391.05 102.919C391.05 102.337 391.272 101.777 391.67 101.352C392.068 100.927 392.613 100.669 393.194 100.631C398.789 100.631 403.523 92.6049 403.523 83.0989C403.561 82.5179 403.819 81.9731 404.244 81.5751C404.668 81.1771 405.229 80.9556 405.811 80.9556C406.393 80.9556 406.954 81.1771 407.379 81.5751C407.804 81.9731 408.061 82.5179 408.099 83.0989C408.099 95.4959 401.553 105.208 393.194 105.208Z" fill="black"/>
</g>
<path d="M198.614 85.4412H421.251C424.236 85.5009 427.097 86.648 429.296 88.667C431.496 90.686 432.883 93.4383 433.197 96.4074L445.526 235.401C445.676 236.795 445.528 238.206 445.092 239.539C444.656 240.873 443.942 242.098 442.997 243.135C442.052 244.171 440.898 244.996 439.61 245.553C438.323 246.11 436.932 246.388 435.529 246.367H212.883C209.899 246.303 207.041 245.155 204.843 243.136C202.644 241.118 201.256 238.368 200.937 235.401L188.618 96.4074C188.467 95.0124 188.614 93.6011 189.049 92.2672C189.484 90.9332 190.198 89.7071 191.143 88.6701C192.089 87.6331 193.244 86.8089 194.532 86.2522C195.82 85.6955 197.211 85.4191 198.614 85.4412Z" fill="#7F56D9"/>
<path opacity="0.4" d="M198.614 85.4412H421.251C424.236 85.5009 427.097 86.648 429.296 88.667C431.496 90.686 432.883 93.4383 433.197 96.4074L445.526 235.401C445.676 236.795 445.528 238.206 445.092 239.539C444.656 240.873 443.942 242.098 442.997 243.135C442.052 244.171 440.898 244.996 439.61 245.553C438.323 246.11 436.932 246.388 435.529 246.367H212.883C209.899 246.303 207.041 245.155 204.843 243.136C202.644 241.118 201.256 238.368 200.937 235.401L188.618 96.4074C188.467 95.0124 188.614 93.6011 189.049 92.2672C189.484 90.9332 190.198 89.7071 191.143 88.6701C192.089 87.6331 193.244 86.8089 194.532 86.2522C195.82 85.6955 197.211 85.4191 198.614 85.4412Z" fill="#FAFAFA"/>
<path d="M419.399 85.4412H196.752C193.808 85.4763 190.986 86.628 188.857 88.6636C186.729 90.6992 185.453 93.467 185.286 96.4074L179.014 235.401C178.94 236.817 179.155 238.233 179.647 239.563C180.139 240.893 180.897 242.108 181.875 243.135C182.853 244.162 184.03 244.978 185.335 245.534C186.639 246.089 188.043 246.373 189.461 246.367H412.127C415.072 246.332 417.894 245.18 420.022 243.145C422.151 241.109 423.427 238.341 423.593 235.401L429.875 96.4074C429.948 94.9893 429.731 93.5711 429.237 92.2398C428.743 90.9086 427.982 89.6923 427.001 88.6655C426.02 87.6387 424.84 86.8231 423.533 86.2686C422.225 85.7142 420.819 85.4327 419.399 85.4412Z" fill="#7F56D9"/>
<path opacity="0.2" d="M419.399 85.4412H196.752C193.808 85.4763 190.986 86.628 188.857 88.6636C186.729 90.6992 185.453 93.467 185.286 96.4074L179.014 235.401C178.94 236.817 179.155 238.233 179.647 239.563C180.139 240.893 180.897 242.108 181.875 243.135C182.853 244.162 184.03 244.978 185.335 245.534C186.639 246.089 188.043 246.373 189.461 246.367H412.127C415.072 246.332 417.894 245.18 420.022 243.145C422.151 241.109 423.427 238.341 423.593 235.401L429.875 96.4074C429.948 94.9893 429.731 93.5711 429.237 92.2398C428.743 90.9086 427.982 89.6923 427.001 88.6655C426.02 87.6387 424.84 86.8231 423.533 86.2686C422.225 85.7142 420.819 85.4327 419.399 85.4412Z" fill="#FAFAFA"/>
<path d="M200.839 209.637L206.023 94.8491C206.086 93.7231 206.574 92.663 207.389 91.884C208.205 91.105 209.286 90.6655 210.414 90.6547H405.267C405.811 90.6513 406.349 90.7589 406.849 90.971C407.349 91.183 407.801 91.4949 408.176 91.8876C408.551 92.2804 408.842 92.7456 409.031 93.2549C409.22 93.7641 409.304 94.3066 409.275 94.8491L404.082 209.637C404.019 210.763 403.531 211.823 402.716 212.602C401.9 213.381 400.819 213.82 399.691 213.831H204.847C204.304 213.834 203.766 213.727 203.266 213.515C202.766 213.303 202.314 212.991 201.939 212.598C201.564 212.205 201.273 211.74 201.083 211.231C200.894 210.722 200.811 210.179 200.839 209.637Z" fill="#7F56D9"/>
<path opacity="0.1" d="M200.839 209.637L206.023 94.8491C206.086 93.7231 206.574 92.663 207.389 91.884C208.205 91.105 209.286 90.6655 210.414 90.6547H405.267C405.811 90.6513 406.349 90.7589 406.849 90.971C407.349 91.183 407.801 91.4949 408.176 91.8876C408.551 92.2804 408.842 92.7456 409.031 93.2549C409.22 93.7641 409.304 94.3066 409.275 94.8491L404.082 209.637C404.019 210.763 403.531 211.823 402.716 212.602C401.9 213.381 400.819 213.82 399.691 213.831H204.847C204.304 213.834 203.766 213.727 203.266 213.515C202.766 213.303 202.314 212.991 201.939 212.598C201.564 212.205 201.273 211.74 201.083 211.231C200.894 210.722 200.811 210.179 200.839 209.637Z" fill="#FAFAFA"/>
<path opacity="0.1" d="M195.341 219.005L200.78 98.4654C200.843 97.2831 201.354 96.1693 202.21 95.3515C203.066 94.5336 204.202 94.0736 205.386 94.0652H410.01C410.58 94.0604 411.146 94.1724 411.671 94.3943C412.196 94.6163 412.67 94.9435 413.064 95.3558C413.458 95.7681 413.763 96.2567 413.961 96.7915C414.159 97.3263 414.245 97.896 414.214 98.4654L408.766 219.005C408.703 220.187 408.194 221.3 407.34 222.12C406.486 222.939 405.353 223.402 404.169 223.415H199.526C198.956 223.419 198.391 223.306 197.867 223.083C197.343 222.859 196.87 222.531 196.478 222.117C196.085 221.704 195.782 221.215 195.587 220.679C195.391 220.144 195.308 219.574 195.341 219.005Z" fill="black"/>
<path d="M190.284 228.727L195.958 102.993C196.035 101.764 196.571 100.608 197.461 99.7561C198.351 98.9044 199.529 98.419 200.76 98.3968H414.214C414.81 98.3919 415.4 98.509 415.948 98.741C416.497 98.9729 416.992 99.3147 417.404 99.7453C417.815 100.176 418.134 100.686 418.34 101.245C418.547 101.803 418.637 102.398 418.605 102.993L412.901 228.727C412.825 229.956 412.288 231.112 411.399 231.964C410.509 232.816 409.331 233.301 408.099 233.323H194.675C194.079 233.329 193.488 233.213 192.939 232.982C192.39 232.75 191.894 232.409 191.482 231.978C191.071 231.547 190.752 231.036 190.546 230.477C190.34 229.918 190.251 229.322 190.284 228.727Z" fill="#FAFAFA"/>
<path d="M393.164 105.933C392.763 105.934 392.365 105.852 391.997 105.694C391.628 105.535 391.296 105.302 391.02 105.01C390.745 104.719 390.532 104.373 390.395 103.996C390.258 103.619 390.2 103.217 390.224 102.817C390.261 102.03 390.598 101.288 391.164 100.742C391.731 100.195 392.485 99.8857 393.272 99.8766C393.673 99.8759 394.071 99.9573 394.439 100.116C394.808 100.275 395.14 100.507 395.416 100.799C395.691 101.091 395.904 101.436 396.041 101.814C396.178 102.191 396.236 102.592 396.212 102.993C396.174 103.779 395.838 104.521 395.272 105.068C394.705 105.614 393.951 105.924 393.164 105.933Z" fill="#7F56D9"/>
<path d="M358.58 105.933C358.179 105.934 357.781 105.852 357.413 105.694C357.044 105.535 356.712 105.302 356.436 105.01C356.161 104.719 355.948 104.373 355.811 103.996C355.674 103.619 355.616 103.217 355.64 102.817C355.677 102.03 356.014 101.288 356.58 100.742C357.147 100.195 357.901 99.8857 358.688 99.8766C359.089 99.8759 359.487 99.9573 359.855 100.116C360.224 100.275 360.556 100.507 360.832 100.799C361.107 101.091 361.32 101.436 361.457 101.814C361.594 102.191 361.652 102.592 361.628 102.993C361.593 103.78 361.257 104.524 360.69 105.071C360.123 105.618 359.368 105.926 358.58 105.933Z" fill="#7F56D9"/>
<path d="M323.996 105.933C323.594 105.934 323.197 105.852 322.828 105.694C322.46 105.535 322.127 105.302 321.852 105.01C321.576 104.719 321.364 104.373 321.227 103.996C321.09 103.619 321.032 103.217 321.056 102.817C321.095 102.031 321.432 101.29 321.998 100.744C322.564 100.198 323.317 99.888 324.103 99.8766C324.505 99.8759 324.902 99.9573 325.271 100.116C325.639 100.275 325.972 100.507 326.247 100.799C326.523 101.091 326.735 101.436 326.872 101.814C327.009 102.191 327.067 102.592 327.043 102.993C327.008 103.78 326.673 104.524 326.106 105.071C325.539 105.618 324.783 105.926 323.996 105.933Z" fill="#7F56D9"/>
<path d="M289.421 105.933C289.02 105.934 288.623 105.852 288.254 105.694C287.885 105.535 287.553 105.302 287.278 105.01C287.002 104.719 286.789 104.373 286.652 103.996C286.515 103.619 286.457 103.217 286.481 102.817C286.524 102.03 286.863 101.289 287.43 100.744C287.998 100.198 288.752 99.8879 289.539 99.8766C289.94 99.8759 290.338 99.9573 290.706 100.116C291.075 100.275 291.407 100.507 291.683 100.799C291.958 101.091 292.171 101.436 292.308 101.814C292.445 102.191 292.503 102.592 292.479 102.993C292.444 103.782 292.107 104.527 291.538 105.074C290.969 105.621 290.211 105.929 289.421 105.933Z" fill="#7F56D9"/>
<path d="M254.837 105.933C254.436 105.934 254.038 105.852 253.67 105.694C253.301 105.535 252.969 105.302 252.693 105.01C252.418 104.719 252.205 104.373 252.068 103.996C251.931 103.619 251.873 103.217 251.897 102.817C251.934 102.03 252.271 101.288 252.837 100.742C253.404 100.195 254.158 99.8857 254.945 99.8766C255.346 99.8759 255.743 99.9573 256.112 100.116C256.481 100.275 256.813 100.507 257.089 100.799C257.364 101.091 257.577 101.436 257.714 101.814C257.851 102.191 257.909 102.592 257.885 102.993C257.847 103.779 257.511 104.521 256.944 105.068C256.378 105.614 255.624 105.924 254.837 105.933Z" fill="#7F56D9"/>
<path d="M220.253 105.933C219.852 105.934 219.454 105.852 219.086 105.694C218.717 105.535 218.385 105.302 218.109 105.01C217.834 104.719 217.621 104.373 217.484 103.996C217.347 103.619 217.289 103.217 217.313 102.817C217.35 102.03 217.687 101.288 218.253 100.742C218.82 100.195 219.574 99.8857 220.361 99.8766C220.762 99.8759 221.159 99.9573 221.528 100.116C221.897 100.275 222.229 100.507 222.505 100.799C222.78 101.091 222.993 101.436 223.13 101.814C223.267 102.191 223.325 102.592 223.301 102.993C223.266 103.78 222.93 104.524 222.363 105.071C221.796 105.618 221.041 105.926 220.253 105.933Z" fill="#7F56D9"/>
<g opacity="0.1">
<path d="M393.164 105.933C392.763 105.934 392.365 105.852 391.997 105.694C391.628 105.535 391.296 105.302 391.02 105.01C390.745 104.719 390.532 104.373 390.395 103.996C390.258 103.619 390.2 103.217 390.224 102.817C390.261 102.03 390.598 101.288 391.164 100.742C391.731 100.195 392.485 99.8857 393.272 99.8766C393.673 99.8759 394.071 99.9573 394.439 100.116C394.808 100.275 395.14 100.507 395.416 100.799C395.691 101.091 395.904 101.436 396.041 101.814C396.178 102.191 396.236 102.592 396.212 102.993C396.174 103.779 395.838 104.521 395.272 105.068C394.705 105.614 393.951 105.924 393.164 105.933Z" fill="#FAFAFA"/>
<path d="M358.58 105.933C358.179 105.934 357.781 105.852 357.413 105.694C357.044 105.535 356.712 105.302 356.436 105.01C356.161 104.719 355.948 104.373 355.811 103.996C355.674 103.619 355.616 103.217 355.64 102.817C355.677 102.03 356.014 101.288 356.58 100.742C357.147 100.195 357.901 99.8857 358.688 99.8766C359.089 99.8759 359.487 99.9573 359.855 100.116C360.224 100.275 360.556 100.507 360.832 100.799C361.107 101.091 361.32 101.436 361.457 101.814C361.594 102.191 361.652 102.592 361.628 102.993C361.593 103.78 361.257 104.524 360.69 105.071C360.123 105.618 359.368 105.926 358.58 105.933Z" fill="#FAFAFA"/>
<path d="M323.996 105.933C323.594 105.934 323.197 105.852 322.828 105.694C322.46 105.535 322.127 105.302 321.852 105.01C321.576 104.719 321.364 104.373 321.227 103.996C321.09 103.619 321.032 103.217 321.056 102.817C321.095 102.031 321.432 101.29 321.998 100.744C322.564 100.198 323.317 99.888 324.103 99.8766C324.505 99.8759 324.902 99.9573 325.271 100.116C325.639 100.275 325.972 100.507 326.247 100.799C326.523 101.091 326.735 101.436 326.872 101.814C327.009 102.191 327.067 102.592 327.043 102.993C327.008 103.78 326.673 104.524 326.106 105.071C325.539 105.618 324.783 105.926 323.996 105.933Z" fill="#FAFAFA"/>
<path d="M289.421 105.933C289.02 105.934 288.623 105.852 288.254 105.694C287.885 105.535 287.553 105.302 287.278 105.01C287.002 104.719 286.789 104.373 286.652 103.996C286.515 103.619 286.457 103.217 286.481 102.817C286.524 102.03 286.863 101.289 287.43 100.744C287.998 100.198 288.752 99.8879 289.539 99.8766C289.94 99.8759 290.338 99.9573 290.706 100.116C291.075 100.275 291.407 100.507 291.683 100.799C291.958 101.091 292.171 101.436 292.308 101.814C292.445 102.191 292.503 102.592 292.479 102.993C292.444 103.782 292.107 104.527 291.538 105.074C290.969 105.621 290.211 105.929 289.421 105.933Z" fill="#FAFAFA"/>
<path d="M254.837 105.933C254.436 105.934 254.038 105.852 253.67 105.694C253.301 105.535 252.969 105.302 252.693 105.01C252.418 104.719 252.205 104.373 252.068 103.996C251.931 103.619 251.873 103.217 251.897 102.817C251.934 102.03 252.271 101.288 252.837 100.742C253.404 100.195 254.158 99.8857 254.945 99.8766C255.346 99.8759 255.743 99.9573 256.112 100.116C256.481 100.275 256.813 100.507 257.089 100.799C257.364 101.091 257.577 101.436 257.714 101.814C257.851 102.191 257.909 102.592 257.885 102.993C257.847 103.779 257.511 104.521 256.944 105.068C256.378 105.614 255.624 105.924 254.837 105.933Z" fill="#FAFAFA"/>
<path d="M220.253 105.933C219.852 105.934 219.454 105.852 219.086 105.694C218.717 105.535 218.385 105.302 218.109 105.01C217.834 104.719 217.621 104.373 217.484 103.996C217.347 103.619 217.289 103.217 217.313 102.817C217.35 102.03 217.687 101.288 218.253 100.742C218.82 100.195 219.574 99.8857 220.361 99.8766C220.762 99.8759 221.159 99.9573 221.528 100.116C221.897 100.275 222.229 100.507 222.505 100.799C222.78 101.091 222.993 101.436 223.13 101.814C223.267 102.191 223.325 102.592 223.301 102.993C223.266 103.78 222.93 104.524 222.363 105.071C221.796 105.618 221.041 105.926 220.253 105.933Z" fill="#FAFAFA"/>
</g>
<path d="M228.896 116.889H211.501C211.249 116.891 210.999 116.841 210.768 116.742C210.536 116.642 210.327 116.496 210.155 116.312C209.983 116.127 209.851 115.909 209.767 115.672C209.683 115.434 209.65 115.181 209.669 114.929C209.688 114.416 209.901 113.928 210.264 113.565C210.628 113.202 211.115 112.989 211.629 112.969H229.024C229.276 112.967 229.526 113.018 229.758 113.117C229.989 113.217 230.198 113.363 230.37 113.547C230.542 113.731 230.675 113.949 230.758 114.187C230.842 114.425 230.875 114.678 230.856 114.929C230.837 115.443 230.624 115.93 230.261 116.294C229.897 116.657 229.41 116.87 228.896 116.889Z" fill="#7F56D9"/>
<path d="M263.481 116.889H246.086C245.834 116.891 245.584 116.841 245.352 116.742C245.12 116.642 244.912 116.496 244.739 116.312C244.567 116.127 244.435 115.909 244.351 115.672C244.268 115.434 244.234 115.181 244.253 114.929C244.273 114.408 244.493 113.913 244.867 113.549C245.24 113.184 245.74 112.977 246.262 112.969H263.647C263.9 112.967 264.15 113.018 264.383 113.117C264.615 113.216 264.824 113.363 264.997 113.547C265.17 113.731 265.303 113.949 265.388 114.187C265.473 114.425 265.507 114.677 265.49 114.929C265.47 115.451 265.25 115.946 264.876 116.31C264.503 116.675 264.003 116.882 263.481 116.889Z" fill="#7F56D9"/>
<path d="M298.065 116.889H280.67C280.417 116.891 280.167 116.841 279.935 116.742C279.703 116.642 279.494 116.496 279.321 116.312C279.148 116.128 279.014 115.91 278.93 115.672C278.845 115.434 278.81 115.181 278.828 114.929C278.848 114.408 279.067 113.913 279.441 113.549C279.815 113.184 280.314 112.977 280.837 112.969H298.241C298.494 112.967 298.744 113.018 298.975 113.117C299.207 113.217 299.416 113.363 299.588 113.547C299.76 113.731 299.892 113.949 299.976 114.187C300.06 114.425 300.093 114.678 300.074 114.929C300.056 115.452 299.838 115.948 299.463 116.313C299.089 116.678 298.588 116.885 298.065 116.889Z" fill="#7F56D9"/>
<path d="M332.64 116.889H315.245C314.992 116.891 314.742 116.841 314.511 116.742C314.279 116.642 314.07 116.496 313.898 116.312C313.726 116.127 313.594 115.909 313.51 115.672C313.426 115.434 313.393 115.181 313.412 114.929C313.431 114.416 313.644 113.928 314.007 113.565C314.371 113.202 314.858 112.989 315.372 112.969H332.767C333.019 112.967 333.269 113.018 333.501 113.117C333.733 113.217 333.941 113.363 334.113 113.547C334.286 113.731 334.418 113.949 334.501 114.187C334.585 114.425 334.618 114.678 334.6 114.929C334.58 115.443 334.367 115.93 334.004 116.294C333.64 116.657 333.153 116.87 332.64 116.889Z" fill="#7F56D9"/>
<path d="M367.224 116.889H349.829C349.576 116.891 349.326 116.841 349.095 116.742C348.863 116.642 348.654 116.496 348.482 116.312C348.31 116.127 348.178 115.909 348.094 115.672C348.01 115.434 347.977 115.181 347.996 114.929C348.016 114.408 348.236 113.913 348.609 113.549C348.983 113.184 349.483 112.977 350.005 112.969H367.4C367.652 112.967 367.902 113.018 368.134 113.117C368.366 113.217 368.574 113.363 368.746 113.547C368.919 113.731 369.051 113.949 369.134 114.187C369.218 114.425 369.252 114.678 369.233 114.929C369.212 115.451 368.993 115.946 368.619 116.31C368.245 116.675 367.746 116.882 367.224 116.889Z" fill="#7F56D9"/>
<path d="M401.807 116.889H384.412C384.16 116.891 383.91 116.841 383.679 116.742C383.447 116.642 383.238 116.496 383.066 116.312C382.894 116.127 382.762 115.909 382.678 115.672C382.594 115.434 382.561 115.181 382.58 114.929C382.6 114.408 382.819 113.913 383.193 113.549C383.567 113.184 384.067 112.977 384.589 112.969H401.974C402.227 112.967 402.477 113.018 402.709 113.117C402.941 113.216 403.151 113.363 403.324 113.547C403.497 113.731 403.63 113.949 403.715 114.187C403.799 114.425 403.834 114.677 403.816 114.929C403.796 115.451 403.577 115.946 403.203 116.31C402.829 116.675 402.33 116.882 401.807 116.889Z" fill="#7F56D9"/>
<g opacity="0.3">
<path d="M228.897 116.889H211.502C211.25 116.891 211 116.841 210.768 116.742C210.536 116.642 210.328 116.496 210.155 116.312C209.983 116.127 209.851 115.909 209.767 115.672C209.684 115.434 209.65 115.181 209.669 114.929C209.689 114.416 209.901 113.928 210.265 113.565C210.628 113.202 211.116 112.989 211.629 112.969H229.024C229.276 112.967 229.526 113.018 229.758 113.117C229.99 113.217 230.198 113.363 230.371 113.547C230.543 113.731 230.675 113.949 230.759 114.187C230.842 114.425 230.876 114.678 230.857 114.929C230.837 115.443 230.625 115.93 230.261 116.294C229.898 116.657 229.41 116.87 228.897 116.889Z" fill="black"/>
<path d="M263.481 116.889H246.086C245.834 116.891 245.584 116.841 245.352 116.742C245.12 116.642 244.912 116.496 244.739 116.312C244.567 116.127 244.435 115.909 244.351 115.672C244.268 115.434 244.234 115.181 244.253 114.929C244.273 114.408 244.493 113.913 244.867 113.549C245.24 113.184 245.74 112.977 246.262 112.969H263.647C263.9 112.967 264.15 113.018 264.383 113.117C264.615 113.216 264.824 113.363 264.997 113.547C265.17 113.731 265.303 113.949 265.388 114.187C265.473 114.425 265.507 114.677 265.49 114.929C265.47 115.451 265.25 115.946 264.876 116.31C264.503 116.675 264.003 116.882 263.481 116.889Z" fill="black"/>
<path d="M298.065 116.889H280.67C280.417 116.891 280.167 116.841 279.935 116.742C279.703 116.642 279.494 116.496 279.321 116.312C279.148 116.128 279.014 115.91 278.93 115.672C278.845 115.434 278.81 115.181 278.828 114.929C278.848 114.408 279.067 113.913 279.441 113.549C279.815 113.184 280.314 112.977 280.837 112.969H298.241C298.494 112.967 298.744 113.018 298.975 113.117C299.207 113.217 299.416 113.363 299.588 113.547C299.76 113.731 299.892 113.949 299.976 114.187C300.06 114.425 300.093 114.678 300.074 114.929C300.056 115.452 299.838 115.948 299.463 116.313C299.089 116.678 298.588 116.885 298.065 116.889Z" fill="black"/>
<path d="M332.64 116.889H315.245C314.992 116.891 314.742 116.841 314.511 116.742C314.279 116.642 314.07 116.496 313.898 116.312C313.726 116.127 313.594 115.909 313.51 115.672C313.426 115.434 313.393 115.181 313.412 114.929C313.431 114.416 313.644 113.928 314.007 113.565C314.371 113.202 314.858 112.989 315.372 112.969H332.767C333.019 112.967 333.269 113.018 333.501 113.117C333.733 113.217 333.941 113.363 334.113 113.547C334.286 113.731 334.418 113.949 334.501 114.187C334.585 114.425 334.618 114.678 334.6 114.929C334.58 115.443 334.367 115.93 334.004 116.294C333.64 116.657 333.153 116.87 332.64 116.889Z" fill="black"/>
<path d="M367.224 116.889H349.829C349.577 116.891 349.327 116.841 349.095 116.742C348.863 116.642 348.655 116.496 348.483 116.312C348.31 116.127 348.178 115.909 348.094 115.672C348.011 115.434 347.977 115.181 347.996 114.929C348.016 114.408 348.236 113.913 348.61 113.549C348.984 113.184 349.483 112.977 350.005 112.969H367.4C367.653 112.967 367.902 113.018 368.134 113.117C368.366 113.217 368.575 113.363 368.747 113.547C368.919 113.731 369.051 113.949 369.135 114.187C369.219 114.425 369.252 114.678 369.233 114.929C369.213 115.451 368.993 115.946 368.62 116.31C368.246 116.675 367.746 116.882 367.224 116.889Z" fill="black"/>
<path d="M401.808 116.889H384.413C384.161 116.891 383.911 116.841 383.679 116.742C383.447 116.642 383.239 116.496 383.067 116.312C382.894 116.127 382.762 115.909 382.678 115.672C382.595 115.434 382.561 115.181 382.58 114.929C382.6 114.408 382.82 113.913 383.194 113.549C383.568 113.184 384.067 112.977 384.589 112.969H401.975C402.227 112.967 402.477 113.018 402.71 113.117C402.942 113.216 403.151 113.363 403.324 113.547C403.497 113.731 403.63 113.949 403.715 114.187C403.8 114.425 403.835 114.677 403.817 114.929C403.797 115.451 403.577 115.946 403.204 116.31C402.83 116.675 402.33 116.882 401.808 116.889Z" fill="black"/>
</g>
<path d="M229.857 153.904H207.199C206.702 153.906 206.21 153.807 205.753 153.612C205.296 153.417 204.883 153.132 204.54 152.772C204.197 152.412 203.931 151.987 203.758 151.521C203.585 151.055 203.509 150.559 203.534 150.062L204.514 127.405C204.573 126.375 205.021 125.406 205.767 124.693C206.512 123.98 207.501 123.576 208.532 123.563H231.19C231.687 123.561 232.179 123.661 232.636 123.855C233.093 124.05 233.506 124.336 233.849 124.695C234.192 125.055 234.458 125.481 234.631 125.946C234.804 126.412 234.88 126.909 234.855 127.405L233.875 150.062C233.813 151.092 233.365 152.059 232.62 152.772C231.875 153.484 230.888 153.889 229.857 153.904Z" fill="#7F56D9"/>
<path d="M264.441 153.904H241.783C241.286 153.907 240.793 153.809 240.335 153.615C239.877 153.421 239.464 153.135 239.121 152.775C238.777 152.415 238.511 151.989 238.339 151.522C238.166 151.056 238.091 150.559 238.118 150.062L239.098 127.405C239.158 126.375 239.605 125.406 240.351 124.693C241.096 123.98 242.085 123.576 243.116 123.563H265.803C266.3 123.561 266.793 123.661 267.251 123.855C267.708 124.05 268.122 124.335 268.466 124.695C268.809 125.054 269.076 125.48 269.251 125.946C269.425 126.412 269.502 126.908 269.478 127.405L268.449 150.062C268.392 151.091 267.946 152.06 267.202 152.774C266.458 153.487 265.471 153.891 264.441 153.904Z" fill="#7F56D9"/>
<path d="M299.016 153.904H276.368C275.87 153.906 275.378 153.807 274.92 153.612C274.462 153.417 274.049 153.132 273.705 152.772C273.361 152.413 273.094 151.987 272.92 151.522C272.746 151.056 272.669 150.559 272.693 150.062L273.673 127.405C273.732 126.375 274.18 125.406 274.925 124.693C275.671 123.98 276.659 123.576 277.691 123.563H300.339C300.836 123.56 301.329 123.658 301.787 123.852C302.244 124.046 302.658 124.332 303.001 124.692C303.344 125.052 303.61 125.478 303.783 125.945C303.955 126.411 304.03 126.908 304.004 127.405L303.024 150.062C302.964 151.091 302.518 152.058 301.775 152.771C301.031 153.484 300.045 153.888 299.016 153.904Z" fill="#7F56D9"/>
<path d="M333.6 153.904H310.982C310.484 153.907 309.991 153.809 309.532 153.615C309.074 153.421 308.66 153.135 308.316 152.776C307.972 152.416 307.705 151.99 307.531 151.523C307.358 151.057 307.281 150.56 307.307 150.062L308.287 127.405C308.344 126.376 308.789 125.407 309.533 124.694C310.277 123.981 311.264 123.577 312.295 123.563H334.952C335.449 123.561 335.941 123.661 336.399 123.855C336.856 124.05 337.269 124.336 337.612 124.695C337.955 125.055 338.221 125.481 338.394 125.946C338.567 126.412 338.643 126.909 338.618 127.405L337.638 150.062C337.578 151.096 337.127 152.068 336.378 152.781C335.628 153.494 334.635 153.896 333.6 153.904Z" fill="#7F56D9"/>
<path d="M368.183 153.904H345.526C345.029 153.906 344.537 153.807 344.08 153.612C343.622 153.417 343.21 153.131 342.867 152.772C342.524 152.412 342.257 151.987 342.084 151.521C341.912 151.055 341.835 150.559 341.861 150.062L342.841 127.405C342.9 126.375 343.348 125.406 344.093 124.693C344.839 123.98 345.827 123.576 346.859 123.563H369.506C370.004 123.56 370.497 123.658 370.956 123.852C371.414 124.046 371.828 124.332 372.172 124.692C372.516 125.051 372.783 125.478 372.957 125.944C373.13 126.411 373.207 126.908 373.181 127.405L372.201 150.062C372.14 151.091 371.691 152.059 370.946 152.772C370.201 153.484 369.214 153.889 368.183 153.904Z" fill="#7F56D9"/>
<path d="M402.758 153.904H380.11C379.613 153.907 379.12 153.809 378.662 153.615C378.205 153.421 377.791 153.135 377.448 152.775C377.105 152.415 376.838 151.989 376.666 151.522C376.494 151.056 376.418 150.559 376.445 150.062L377.425 127.405C377.485 126.375 377.932 125.406 378.678 124.693C379.424 123.98 380.412 123.576 381.443 123.563H404.091C404.588 123.561 405.081 123.661 405.539 123.855C405.996 124.05 406.41 124.335 406.754 124.695C407.097 125.054 407.364 125.48 407.539 125.946C407.713 126.412 407.79 126.908 407.766 127.405L406.737 150.062C406.68 151.086 406.239 152.051 405.501 152.764C404.763 153.476 403.784 153.883 402.758 153.904Z" fill="#7F56D9"/>
<g opacity="0.8">
<path d="M229.857 153.904H207.199C206.702 153.906 206.21 153.807 205.753 153.612C205.296 153.417 204.883 153.132 204.54 152.772C204.197 152.412 203.931 151.987 203.758 151.521C203.585 151.055 203.509 150.559 203.534 150.062L204.514 127.405C204.573 126.375 205.021 125.406 205.767 124.693C206.512 123.98 207.501 123.576 208.532 123.563H231.19C231.687 123.561 232.179 123.661 232.636 123.855C233.093 124.05 233.506 124.336 233.849 124.695C234.192 125.055 234.458 125.481 234.631 125.946C234.804 126.412 234.88 126.909 234.855 127.405L233.875 150.062C233.813 151.092 233.365 152.059 232.62 152.772C231.875 153.484 230.888 153.889 229.857 153.904Z" fill="#FAFAFA"/>
<path d="M264.441 153.904H241.783C241.286 153.907 240.793 153.809 240.335 153.615C239.877 153.421 239.464 153.135 239.121 152.775C238.777 152.415 238.511 151.989 238.339 151.522C238.166 151.056 238.091 150.559 238.118 150.062L239.098 127.405C239.158 126.375 239.605 125.406 240.351 124.693C241.096 123.98 242.085 123.576 243.116 123.563H265.803C266.3 123.561 266.793 123.661 267.251 123.855C267.708 124.05 268.122 124.335 268.466 124.695C268.809 125.054 269.076 125.48 269.251 125.946C269.425 126.411 269.502 126.908 269.478 127.405L268.449 150.062C268.392 151.091 267.946 152.06 267.202 152.773C266.458 153.487 265.471 153.891 264.441 153.904Z" fill="#FAFAFA"/>
<path d="M299.015 153.904H276.367C275.87 153.906 275.377 153.807 274.92 153.612C274.462 153.417 274.049 153.132 273.705 152.772C273.361 152.413 273.094 151.987 272.92 151.522C272.746 151.056 272.668 150.559 272.692 150.062L273.672 127.405C273.732 126.375 274.179 125.406 274.925 124.693C275.671 123.98 276.659 123.576 277.69 123.563H300.338C300.835 123.56 301.328 123.658 301.786 123.852C302.244 124.046 302.657 124.332 303.001 124.692C303.344 125.052 303.61 125.478 303.782 125.945C303.955 126.411 304.03 126.908 304.003 127.405L303.023 150.062C302.964 151.091 302.518 152.058 301.774 152.771C301.031 153.484 300.045 153.888 299.015 153.904Z" fill="#FAFAFA"/>
<path d="M333.599 153.904H310.981C310.483 153.907 309.99 153.809 309.532 153.615C309.073 153.421 308.659 153.135 308.315 152.775C307.971 152.416 307.704 151.99 307.531 151.523C307.357 151.057 307.281 150.559 307.306 150.062L308.286 127.405C308.343 126.376 308.789 125.407 309.533 124.694C310.277 123.98 311.264 123.576 312.294 123.563H334.952C335.449 123.561 335.941 123.661 336.398 123.855C336.855 124.05 337.268 124.336 337.611 124.695C337.954 125.055 338.22 125.48 338.393 125.946C338.566 126.412 338.642 126.908 338.617 127.405L337.637 150.062C337.577 151.096 337.127 152.067 336.377 152.781C335.627 153.494 334.634 153.896 333.599 153.904Z" fill="#FAFAFA"/>
<path d="M368.183 153.904H345.526C345.029 153.906 344.537 153.807 344.08 153.612C343.622 153.417 343.21 153.131 342.867 152.772C342.524 152.412 342.257 151.987 342.084 151.521C341.912 151.055 341.835 150.559 341.861 150.062L342.841 127.405C342.9 126.375 343.348 125.406 344.093 124.693C344.839 123.98 345.827 123.576 346.859 123.563H369.506C370.004 123.56 370.497 123.658 370.956 123.852C371.414 124.046 371.828 124.332 372.172 124.692C372.516 125.051 372.783 125.478 372.957 125.944C373.13 126.411 373.207 126.908 373.181 127.405L372.201 150.062C372.14 151.091 371.691 152.059 370.946 152.772C370.201 153.484 369.214 153.889 368.183 153.904Z" fill="#FAFAFA"/>
<path d="M402.758 153.904H380.11C379.613 153.907 379.12 153.809 378.662 153.615C378.205 153.421 377.791 153.135 377.448 152.775C377.105 152.415 376.838 151.989 376.666 151.522C376.494 151.056 376.418 150.559 376.445 150.062L377.425 127.405C377.485 126.375 377.932 125.406 378.678 124.693C379.424 123.98 380.412 123.576 381.443 123.563H404.091C404.588 123.561 405.081 123.661 405.539 123.855C405.996 124.05 406.41 124.335 406.754 124.695C407.097 125.054 407.364 125.48 407.539 125.946C407.713 126.411 407.79 126.908 407.766 127.405L406.737 150.062C406.68 151.086 406.239 152.051 405.501 152.764C404.763 153.476 403.784 153.883 402.758 153.904Z" fill="#FAFAFA"/>
</g>
<path d="M228.269 189.057H205.612C205.115 189.059 204.623 188.959 204.166 188.765C203.708 188.57 203.296 188.284 202.953 187.925C202.609 187.565 202.343 187.139 202.17 186.673C201.997 186.208 201.921 185.711 201.947 185.215L202.927 162.557C202.988 161.528 203.437 160.561 204.182 159.848C204.927 159.136 205.914 158.731 206.945 158.716H229.641C230.138 158.714 230.631 158.813 231.088 159.008C231.545 159.203 231.958 159.488 232.301 159.848C232.644 160.207 232.91 160.633 233.083 161.099C233.256 161.565 233.332 162.061 233.307 162.557L232.327 185.215C232.264 186.251 231.811 187.224 231.057 187.938C230.304 188.651 229.307 189.051 228.269 189.057Z" fill="#7F56D9"/>
<path d="M262.853 189.057H240.196C239.699 189.059 239.207 188.959 238.75 188.765C238.292 188.57 237.88 188.284 237.537 187.925C237.193 187.565 236.927 187.139 236.754 186.674C236.581 186.208 236.505 185.711 236.531 185.215L237.511 162.557C237.57 161.528 238.018 160.559 238.763 159.846C239.509 159.133 240.497 158.729 241.529 158.716H264.176C264.678 158.712 265.175 158.812 265.637 159.008C266.098 159.205 266.515 159.494 266.86 159.857C267.206 160.221 267.473 160.652 267.645 161.123C267.817 161.594 267.891 162.096 267.861 162.597L266.881 185.215C266.824 186.247 266.376 187.219 265.627 187.933C264.879 188.646 263.887 189.048 262.853 189.057Z" fill="#7F56D9"/>
<path d="M297.428 189.057H274.78C274.283 189.06 273.79 188.962 273.332 188.767C272.874 188.573 272.461 188.287 272.117 187.928C271.774 187.568 271.508 187.141 271.335 186.675C271.163 186.208 271.088 185.712 271.115 185.215L272.095 162.557C272.154 161.527 272.602 160.558 273.347 159.846C274.093 159.133 275.081 158.729 276.113 158.716H298.76C299.258 158.712 299.751 158.811 300.208 159.005C300.666 159.199 301.08 159.485 301.423 159.845C301.766 160.205 302.032 160.631 302.205 161.097C302.377 161.564 302.452 162.061 302.426 162.557L301.446 185.215C301.386 186.245 300.939 187.214 300.193 187.927C299.447 188.64 298.459 189.043 297.428 189.057Z" fill="#7F56D9"/>
<path d="M332.012 189.057H309.364C308.867 189.058 308.374 188.959 307.917 188.765C307.459 188.57 307.046 188.284 306.702 187.925C306.358 187.566 306.091 187.14 305.917 186.674C305.743 186.208 305.665 185.712 305.689 185.215L306.669 162.557C306.726 161.528 307.172 160.559 307.916 159.846C308.66 159.133 309.647 158.729 310.678 158.716H333.335C333.84 158.707 334.341 158.802 334.806 158.996C335.272 159.19 335.693 159.479 336.042 159.843C336.391 160.208 336.66 160.641 336.834 161.114C337.007 161.588 337.081 162.093 337.049 162.597L336.069 185.254C336 186.284 335.543 187.249 334.79 187.954C334.037 188.66 333.044 189.054 332.012 189.057Z" fill="#7F56D9"/>
<path d="M366.596 189.057H343.938C343.442 189.059 342.949 188.959 342.492 188.764C342.035 188.57 341.622 188.284 341.279 187.924C340.936 187.565 340.67 187.139 340.497 186.673C340.324 186.207 340.248 185.711 340.273 185.215L341.253 162.557C341.306 161.52 341.751 160.541 342.499 159.82C343.247 159.099 344.242 158.69 345.281 158.677H367.939C368.436 158.675 368.928 158.774 369.385 158.969C369.842 159.163 370.255 159.449 370.598 159.809C370.941 160.168 371.207 160.594 371.38 161.06C371.553 161.526 371.629 162.022 371.604 162.518L370.624 185.176C370.572 186.213 370.126 187.192 369.378 187.913C368.63 188.634 367.635 189.043 366.596 189.057Z" fill="#7F56D9"/>
<path d="M401.141 189.057H378.523C378.026 189.06 377.533 188.962 377.075 188.767C376.617 188.573 376.204 188.288 375.86 187.928C375.517 187.568 375.251 187.142 375.079 186.675C374.906 186.209 374.831 185.712 374.858 185.215L375.838 162.557C375.897 161.528 376.345 160.559 377.091 159.846C377.836 159.133 378.824 158.729 379.856 158.716H402.504C403.001 158.714 403.494 158.813 403.951 159.008C404.409 159.202 404.822 159.488 405.166 159.847C405.51 160.207 405.777 160.632 405.951 161.098C406.125 161.564 406.203 162.061 406.179 162.557L405.15 185.215C405.093 186.244 404.647 187.213 403.903 187.926C403.159 188.639 402.172 189.043 401.141 189.057Z" fill="#7F56D9"/>
<g opacity="0.8">
<path d="M228.269 189.057H205.612C205.115 189.058 204.623 188.959 204.166 188.764C203.708 188.57 203.296 188.284 202.953 187.924C202.609 187.565 202.343 187.139 202.17 186.673C201.997 186.207 201.921 185.711 201.947 185.215L202.927 162.557C202.988 161.528 203.437 160.561 204.182 159.848C204.927 159.136 205.914 158.731 206.945 158.716H229.641C230.138 158.714 230.631 158.813 231.088 159.008C231.545 159.202 231.958 159.488 232.301 159.848C232.644 160.207 232.91 160.633 233.083 161.099C233.256 161.565 233.332 162.061 233.307 162.557L232.327 185.215C232.264 186.251 231.811 187.224 231.057 187.937C230.304 188.651 229.307 189.051 228.269 189.057Z" fill="#FAFAFA"/>
<path d="M262.853 189.057H240.196C239.699 189.059 239.207 188.959 238.75 188.765C238.292 188.57 237.88 188.284 237.537 187.925C237.193 187.565 236.927 187.139 236.754 186.673C236.581 186.208 236.505 185.711 236.531 185.215L237.511 162.557C237.57 161.527 238.018 160.558 238.763 159.846C239.509 159.133 240.497 158.729 241.529 158.716H264.176C264.678 158.712 265.175 158.812 265.637 159.008C266.098 159.204 266.515 159.493 266.86 159.857C267.206 160.221 267.473 160.652 267.645 161.123C267.817 161.594 267.891 162.096 267.861 162.597L266.881 185.215C266.824 186.247 266.376 187.219 265.627 187.933C264.879 188.646 263.887 189.048 262.853 189.057Z" fill="#FAFAFA"/>
<path d="M297.428 189.057H274.78C274.283 189.06 273.79 188.962 273.332 188.768C272.874 188.573 272.461 188.288 272.118 187.928C271.774 187.568 271.508 187.142 271.336 186.675C271.164 186.209 271.088 185.712 271.115 185.215L272.095 162.557C272.155 161.528 272.602 160.559 273.348 159.846C274.093 159.133 275.082 158.729 276.113 158.716H298.761C299.258 158.713 299.751 158.811 300.209 159.005C300.667 159.199 301.08 159.485 301.423 159.845C301.767 160.205 302.033 160.631 302.205 161.098C302.378 161.564 302.453 162.061 302.426 162.557L301.446 185.215C301.387 186.245 300.939 187.214 300.193 187.927C299.448 188.64 298.46 189.044 297.428 189.057Z" fill="#FAFAFA"/>
<path d="M332.012 189.057H309.364C308.867 189.058 308.374 188.959 307.917 188.765C307.459 188.57 307.046 188.284 306.702 187.925C306.358 187.566 306.091 187.14 305.917 186.674C305.743 186.208 305.665 185.712 305.689 185.215L306.669 162.557C306.726 161.528 307.172 160.559 307.916 159.846C308.66 159.133 309.647 158.729 310.678 158.716H333.335C333.84 158.707 334.341 158.802 334.806 158.996C335.272 159.19 335.693 159.479 336.042 159.843C336.391 160.208 336.66 160.641 336.834 161.114C337.007 161.588 337.081 162.093 337.049 162.597L336.069 185.254C336 186.284 335.543 187.249 334.79 187.954C334.037 188.66 333.044 189.054 332.012 189.057Z" fill="#FAFAFA"/>
<path d="M366.597 189.057H343.939C343.442 189.059 342.95 188.959 342.493 188.764C342.035 188.57 341.623 188.284 341.28 187.924C340.937 187.565 340.671 187.139 340.498 186.673C340.325 186.207 340.248 185.711 340.274 185.215L341.254 162.557C341.306 161.52 341.752 160.541 342.5 159.82C343.248 159.099 344.243 158.69 345.282 158.677H367.939C368.436 158.675 368.928 158.774 369.385 158.969C369.843 159.163 370.255 159.449 370.598 159.809C370.942 160.168 371.208 160.594 371.381 161.06C371.554 161.526 371.63 162.022 371.604 162.518L370.624 185.176C370.572 186.213 370.127 187.192 369.378 187.913C368.63 188.634 367.635 189.043 366.597 189.057Z" fill="#FAFAFA"/>
<path d="M401.141 189.057H378.523C378.026 189.06 377.533 188.961 377.075 188.767C376.617 188.573 376.204 188.287 375.86 187.928C375.517 187.568 375.251 187.141 375.079 186.675C374.906 186.208 374.831 185.712 374.858 185.215L375.838 162.557C375.897 161.527 376.345 160.558 377.091 159.846C377.836 159.133 378.824 158.729 379.856 158.716H402.504C403.001 158.714 403.494 158.813 403.951 159.008C404.409 159.202 404.822 159.488 405.166 159.847C405.51 160.207 405.777 160.632 405.951 161.098C406.125 161.564 406.203 162.061 406.179 162.557L405.15 185.215C405.093 186.244 404.647 187.213 403.903 187.926C403.159 188.639 402.172 189.043 401.141 189.057Z" fill="#FAFAFA"/>
</g>
<path d="M226.701 224.199H204.024C203.527 224.203 203.034 224.104 202.576 223.91C202.118 223.716 201.705 223.43 201.361 223.07C201.018 222.711 200.752 222.284 200.58 221.818C200.407 221.351 200.332 220.854 200.359 220.358L201.339 197.71C201.398 196.68 201.846 195.711 202.592 194.998C203.337 194.285 204.325 193.882 205.357 193.868H228.014C228.512 193.865 229.005 193.963 229.462 194.158C229.92 194.352 230.334 194.637 230.677 194.997C231.02 195.357 231.286 195.783 231.459 196.25C231.631 196.716 231.706 197.213 231.68 197.71L230.7 220.358C230.643 221.385 230.199 222.353 229.457 223.066C228.715 223.778 227.73 224.184 226.701 224.199Z" fill="#7F56D9"/>
<path d="M261.266 224.199H238.608C238.111 224.203 237.618 224.104 237.16 223.91C236.703 223.716 236.289 223.43 235.946 223.07C235.603 222.711 235.337 222.284 235.164 221.818C234.992 221.351 234.917 220.854 234.943 220.358L235.923 197.71C235.98 196.679 236.427 195.709 237.173 194.996C237.92 194.282 238.909 193.879 239.941 193.868H262.589C263.087 193.864 263.581 193.961 264.04 194.155C264.499 194.348 264.914 194.634 265.258 194.994C265.602 195.354 265.869 195.78 266.042 196.248C266.215 196.715 266.291 197.212 266.264 197.71L265.284 220.358C265.229 221.389 264.783 222.361 264.036 223.075C263.29 223.789 262.299 224.191 261.266 224.199Z" fill="#7F56D9"/>
<path d="M295.84 224.199H273.192C272.695 224.203 272.202 224.104 271.744 223.91C271.287 223.716 270.873 223.43 270.53 223.07C270.187 222.711 269.921 222.284 269.748 221.818C269.576 221.351 269.5 220.854 269.527 220.358L270.507 197.71C270.564 196.679 271.011 195.709 271.757 194.996C272.504 194.282 273.493 193.879 274.525 193.868H297.261C297.759 193.865 298.252 193.963 298.711 194.157C299.169 194.352 299.583 194.637 299.927 194.997C300.271 195.357 300.538 195.783 300.712 196.249C300.885 196.716 300.962 197.213 300.936 197.71L299.907 220.358C299.85 221.397 299.396 222.374 298.639 223.089C297.883 223.804 296.881 224.201 295.84 224.199Z" fill="#7F56D9"/>
<path d="M330.425 224.199H307.777C307.279 224.203 306.786 224.104 306.328 223.91C305.869 223.716 305.455 223.431 305.111 223.071C304.767 222.711 304.5 222.285 304.327 221.818C304.153 221.352 304.077 220.855 304.102 220.358L305.082 197.71C305.137 196.68 305.581 195.71 306.326 194.996C307.071 194.283 308.059 193.879 309.09 193.868H331.748C332.245 193.865 332.738 193.963 333.196 194.158C333.654 194.352 334.067 194.637 334.41 194.997C334.754 195.357 335.02 195.783 335.192 196.25C335.364 196.716 335.44 197.213 335.413 197.71L334.433 220.358C334.376 221.387 333.93 222.356 333.186 223.069C332.442 223.782 331.455 224.186 330.425 224.199Z" fill="#7F56D9"/>
<path d="M365.008 224.199H342.341C341.844 224.203 341.351 224.104 340.893 223.91C340.435 223.716 340.022 223.43 339.678 223.07C339.335 222.711 339.069 222.284 338.897 221.818C338.724 221.351 338.649 220.854 338.676 220.358L339.656 197.71C339.715 196.68 340.163 195.711 340.908 194.998C341.654 194.285 342.642 193.882 343.674 193.868H366.331C366.829 193.865 367.321 193.963 367.779 194.158C368.237 194.352 368.651 194.637 368.994 194.997C369.337 195.357 369.603 195.783 369.776 196.25C369.948 196.716 370.023 197.213 369.996 197.71L369.016 220.358C368.957 221.386 368.511 222.354 367.767 223.066C367.024 223.779 366.038 224.184 365.008 224.199Z" fill="#7F56D9"/>
<path d="M399.593 224.199H376.935C376.438 224.203 375.945 224.104 375.487 223.91C375.029 223.716 374.616 223.43 374.273 223.07C373.929 222.711 373.663 222.284 373.491 221.818C373.318 221.351 373.243 220.854 373.27 220.358L374.25 197.71C374.307 196.679 374.754 195.709 375.5 194.996C376.246 194.282 377.236 193.879 378.268 193.868H400.916C401.413 193.865 401.907 193.963 402.365 194.157C402.823 194.352 403.237 194.637 403.581 194.997C403.926 195.357 404.193 195.783 404.366 196.249C404.54 196.716 404.616 197.213 404.591 197.71L403.562 220.358C403.507 221.381 403.068 222.346 402.332 223.058C401.596 223.771 400.617 224.179 399.593 224.199Z" fill="#7F56D9"/>
<g opacity="0.8">
<path d="M226.701 224.199H204.024C203.527 224.203 203.034 224.104 202.576 223.91C202.118 223.716 201.705 223.43 201.361 223.07C201.018 222.711 200.752 222.284 200.58 221.818C200.407 221.351 200.332 220.854 200.359 220.358L201.339 197.71C201.398 196.68 201.846 195.711 202.592 194.998C203.337 194.285 204.325 193.882 205.357 193.868H228.014C228.512 193.865 229.005 193.963 229.462 194.158C229.92 194.352 230.334 194.637 230.677 194.997C231.02 195.357 231.286 195.783 231.459 196.25C231.631 196.716 231.706 197.213 231.68 197.71L230.7 220.358C230.643 221.385 230.199 222.353 229.457 223.066C228.715 223.778 227.73 224.184 226.701 224.199Z" fill="#FAFAFA"/>
<path d="M261.266 224.199H238.608C238.111 224.203 237.618 224.104 237.16 223.91C236.702 223.716 236.289 223.43 235.945 223.07C235.602 222.711 235.336 222.284 235.164 221.818C234.991 221.351 234.916 220.854 234.943 220.358L235.923 197.71C235.98 196.679 236.427 195.709 237.173 194.996C237.919 194.282 238.909 193.879 239.941 193.868H262.589C263.087 193.864 263.581 193.961 264.04 194.155C264.499 194.348 264.913 194.634 265.258 194.994C265.602 195.354 265.869 195.78 266.042 196.248C266.215 196.715 266.29 197.212 266.264 197.71L265.284 220.358C265.229 221.389 264.782 222.361 264.036 223.075C263.289 223.789 262.298 224.191 261.266 224.199Z" fill="#FAFAFA"/>
<path d="M295.84 224.199H273.192C272.695 224.203 272.202 224.104 271.744 223.91C271.287 223.716 270.873 223.43 270.53 223.07C270.187 222.711 269.921 222.284 269.748 221.818C269.576 221.351 269.5 220.854 269.527 220.358L270.507 197.71C270.564 196.679 271.011 195.709 271.757 194.996C272.504 194.282 273.493 193.879 274.525 193.868H297.261C297.759 193.865 298.252 193.963 298.711 194.157C299.169 194.352 299.583 194.637 299.927 194.997C300.271 195.357 300.538 195.783 300.712 196.249C300.885 196.716 300.962 197.213 300.936 197.71L299.907 220.358C299.85 221.397 299.396 222.374 298.639 223.089C297.883 223.804 296.881 224.201 295.84 224.199Z" fill="#FAFAFA"/>
<path d="M330.424 224.199H307.776C307.279 224.203 306.785 224.104 306.327 223.91C305.869 223.716 305.455 223.431 305.111 223.071C304.767 222.711 304.5 222.285 304.326 221.818C304.152 221.352 304.076 220.855 304.101 220.358L305.081 197.71C305.136 196.68 305.581 195.71 306.326 194.996C307.07 194.283 308.058 193.879 309.09 193.868H331.747C332.245 193.865 332.737 193.963 333.195 194.158C333.653 194.352 334.066 194.637 334.41 194.997C334.753 195.357 335.019 195.783 335.192 196.25C335.364 196.716 335.439 197.213 335.412 197.71L334.432 220.358C334.375 221.387 333.93 222.356 333.186 223.069C332.442 223.782 331.455 224.186 330.424 224.199Z" fill="#FAFAFA"/>
<path d="M365.009 224.199H342.341C341.844 224.203 341.351 224.104 340.893 223.91C340.435 223.716 340.022 223.43 339.679 223.07C339.335 222.711 339.069 222.284 338.897 221.818C338.725 221.351 338.649 220.854 338.676 220.358L339.656 197.71C339.716 196.68 340.163 195.711 340.909 194.998C341.654 194.285 342.643 193.882 343.674 193.868H366.332C366.829 193.865 367.322 193.963 367.78 194.158C368.238 194.352 368.651 194.637 368.994 194.997C369.338 195.357 369.604 195.783 369.776 196.25C369.949 196.716 370.024 197.213 369.997 197.71L369.017 220.358C368.958 221.386 368.511 222.354 367.768 223.066C367.024 223.779 366.039 224.184 365.009 224.199Z" fill="#FAFAFA"/>
<path d="M399.593 224.199H376.935C376.438 224.203 375.945 224.104 375.487 223.91C375.029 223.716 374.616 223.43 374.273 223.07C373.929 222.711 373.663 222.284 373.491 221.818C373.318 221.351 373.243 220.854 373.27 220.358L374.25 197.71C374.307 196.679 374.754 195.709 375.5 194.996C376.246 194.282 377.236 193.879 378.268 193.868H400.916C401.413 193.865 401.907 193.963 402.365 194.157C402.823 194.352 403.237 194.637 403.581 194.997C403.926 195.357 404.193 195.783 404.366 196.249C404.54 196.716 404.616 197.213 404.591 197.71L403.562 220.358C403.507 221.381 403.068 222.346 402.332 223.058C401.596 223.771 400.617 224.179 399.593 224.199Z" fill="#FAFAFA"/>
</g>
<path d="M220.282 105.208C211.933 105.208 205.386 95.496 205.386 83.099C205.386 70.702 211.933 61 220.282 61C228.632 61 235.188 70.7118 235.188 83.099C235.15 83.68 234.892 84.2248 234.467 84.6228C234.042 85.0209 233.482 85.2424 232.9 85.2424C232.317 85.2424 231.757 85.0209 231.332 84.6228C230.907 84.2248 230.649 83.68 230.611 83.099C230.611 73.6028 225.888 65.5668 220.282 65.5668C214.677 65.5668 209.953 73.6028 209.953 83.099C209.953 92.5952 214.686 100.631 220.282 100.631C220.595 100.611 220.909 100.655 221.205 100.76C221.5 100.866 221.771 101.031 222 101.246C222.229 101.46 222.411 101.72 222.536 102.007C222.661 102.295 222.725 102.606 222.725 102.92C222.725 103.233 222.661 103.544 222.536 103.832C222.411 104.119 222.229 104.379 222 104.593C221.771 104.808 221.5 104.973 221.205 105.079C220.909 105.184 220.595 105.228 220.282 105.208Z" fill="#7F56D9"/>
<path d="M254.867 105.208C246.517 105.208 239.971 95.496 239.971 83.099C239.971 70.702 246.517 61 254.867 61C263.216 61 269.822 70.7118 269.822 83.099C269.783 83.68 269.526 84.2248 269.101 84.6228C268.676 85.0209 268.115 85.2424 267.533 85.2424C266.951 85.2424 266.39 85.0209 265.966 84.6228C265.541 84.2248 265.283 83.68 265.245 83.099C265.245 73.6028 260.521 65.5668 254.916 65.5668C249.31 65.5668 244.587 73.6028 244.587 83.099C244.587 92.5952 249.32 100.631 254.916 100.631C255.497 100.669 256.042 100.927 256.44 101.352C256.838 101.777 257.059 102.337 257.059 102.92C257.059 103.502 256.838 104.062 256.44 104.487C256.042 104.912 255.497 105.17 254.916 105.208H254.867Z" fill="#7F56D9"/>
<path d="M289.421 105.208C281.062 105.208 274.516 95.496 274.516 83.099C274.516 70.702 281.062 61 289.421 61C297.781 61 304.317 70.7118 304.317 83.099C304.317 83.7046 304.077 84.2854 303.649 84.7136C303.22 85.1418 302.64 85.3824 302.034 85.3824C301.428 85.3824 300.848 85.1418 300.419 84.7136C299.991 84.2854 299.751 83.7046 299.751 83.099C299.751 73.6028 295.017 65.5668 289.421 65.5668C283.826 65.5668 279.092 73.6028 279.092 83.099C279.092 92.5952 283.826 100.631 289.421 100.631C290.002 100.669 290.547 100.927 290.945 101.352C291.343 101.777 291.565 102.337 291.565 102.92C291.565 103.502 291.343 104.062 290.945 104.487C290.547 104.912 290.002 105.17 289.421 105.208Z" fill="#7F56D9"/>
<path d="M324.035 105.208C315.675 105.208 309.129 95.496 309.129 83.099C309.129 70.702 315.675 61 324.035 61C332.394 61 338.931 70.7118 338.931 83.099C338.931 83.7046 338.69 84.2854 338.262 84.7136C337.834 85.1418 337.253 85.3824 336.647 85.3824C336.042 85.3824 335.461 85.1418 335.033 84.7136C334.605 84.2854 334.364 83.7046 334.364 83.099C334.364 73.6028 329.631 65.5668 324.035 65.5668C318.439 65.5668 313.706 73.6028 313.706 83.099C313.706 92.5952 318.429 100.631 324.035 100.631C324.616 100.669 325.161 100.927 325.559 101.352C325.957 101.777 326.178 102.337 326.178 102.92C326.178 103.502 325.957 104.062 325.559 104.487C325.161 104.912 324.616 105.17 324.035 105.208Z" fill="#7F56D9"/>
<path d="M358.609 105.208C350.26 105.208 343.713 95.496 343.713 83.099C343.713 70.702 350.26 61 358.609 61C366.959 61 373.515 70.7118 373.515 83.099C373.477 83.68 373.22 84.2248 372.795 84.6228C372.37 85.0209 371.809 85.2424 371.227 85.2424C370.645 85.2424 370.084 85.0209 369.659 84.6228C369.234 84.2248 368.977 83.68 368.939 83.099C368.939 73.6028 364.215 65.5668 358.609 65.5668C353.004 65.5668 348.28 73.6028 348.28 83.099C348.28 92.5952 353.014 100.631 358.609 100.631C358.922 100.611 359.236 100.655 359.532 100.76C359.827 100.866 360.098 101.031 360.327 101.246C360.556 101.46 360.738 101.72 360.863 102.007C360.988 102.295 361.052 102.606 361.052 102.92C361.052 103.233 360.988 103.544 360.863 103.832C360.738 104.119 360.556 104.379 360.327 104.593C360.098 104.808 359.827 104.973 359.532 105.079C359.236 105.184 358.922 105.228 358.609 105.208Z" fill="#7F56D9"/>
<path d="M393.193 105.208C384.844 105.208 378.297 95.496 378.297 83.099C378.297 70.702 384.844 61 393.193 61C401.543 61 408.099 70.7118 408.099 83.099C408.061 83.68 407.803 84.2248 407.379 84.6228C406.954 85.0209 406.393 85.2424 405.811 85.2424C405.229 85.2424 404.668 85.0209 404.243 84.6228C403.818 84.2248 403.561 83.68 403.523 83.099C403.523 73.6028 398.789 65.5668 393.193 65.5668C387.598 65.5668 382.864 73.6028 382.864 83.099C382.864 92.5952 387.598 100.631 393.193 100.631C393.774 100.669 394.319 100.927 394.717 101.352C395.115 101.777 395.337 102.337 395.337 102.92C395.337 103.502 395.115 104.062 394.717 104.487C394.319 104.912 393.774 105.17 393.193 105.208Z" fill="#7F56D9"/>
<g opacity="0.3">
<path d="M220.282 105.208C211.933 105.208 205.386 95.496 205.386 83.099C205.386 70.702 211.933 61 220.282 61C228.632 61 235.188 70.7118 235.188 83.099C235.15 83.68 234.892 84.2248 234.467 84.6228C234.042 85.0209 233.482 85.2424 232.9 85.2424C232.317 85.2424 231.757 85.0209 231.332 84.6228C230.907 84.2248 230.649 83.68 230.611 83.099C230.611 73.6028 225.888 65.5668 220.282 65.5668C214.677 65.5668 209.953 73.6028 209.953 83.099C209.953 92.5952 214.686 100.631 220.282 100.631C220.595 100.611 220.909 100.655 221.205 100.76C221.5 100.866 221.771 101.031 222 101.246C222.229 101.46 222.411 101.72 222.536 102.007C222.661 102.295 222.725 102.606 222.725 102.92C222.725 103.233 222.661 103.544 222.536 103.832C222.411 104.119 222.229 104.379 222 104.593C221.771 104.808 221.5 104.973 221.205 105.079C220.909 105.184 220.595 105.228 220.282 105.208Z" fill="black"/>
<path d="M254.866 105.208C246.517 105.208 239.97 95.496 239.97 83.099C239.97 70.702 246.517 61 254.866 61C263.216 61 269.821 70.7118 269.821 83.099C269.783 83.68 269.525 84.2248 269.1 84.6228C268.675 85.0209 268.115 85.2424 267.533 85.2424C266.95 85.2424 266.39 85.0209 265.965 84.6228C265.54 84.2248 265.282 83.68 265.244 83.099C265.244 73.6028 260.521 65.5668 254.915 65.5668C249.31 65.5668 244.586 73.6028 244.586 83.099C244.586 92.5952 249.319 100.631 254.915 100.631C255.496 100.669 256.041 100.927 256.439 101.352C256.837 101.777 257.059 102.337 257.059 102.92C257.059 103.502 256.837 104.062 256.439 104.487C256.041 104.912 255.496 105.17 254.915 105.208H254.866Z" fill="black"/>
<path d="M289.421 105.208C281.062 105.208 274.516 95.496 274.516 83.099C274.516 70.702 281.062 61 289.421 61C297.781 61 304.317 70.7118 304.317 83.099C304.317 83.7046 304.077 84.2854 303.649 84.7136C303.22 85.1418 302.64 85.3824 302.034 85.3824C301.428 85.3824 300.848 85.1418 300.419 84.7136C299.991 84.2854 299.751 83.7046 299.751 83.099C299.751 73.6028 295.017 65.5668 289.421 65.5668C283.826 65.5668 279.092 73.6028 279.092 83.099C279.092 92.5952 283.826 100.631 289.421 100.631C290.002 100.669 290.547 100.927 290.945 101.352C291.343 101.777 291.565 102.337 291.565 102.92C291.565 103.502 291.343 104.062 290.945 104.487C290.547 104.912 290.002 105.17 289.421 105.208Z" fill="black"/>
<path d="M324.035 105.208C315.675 105.208 309.129 95.496 309.129 83.099C309.129 70.702 315.675 61 324.035 61C332.394 61 338.931 70.7118 338.931 83.099C338.931 83.7046 338.69 84.2854 338.262 84.7136C337.834 85.1418 337.253 85.3824 336.647 85.3824C336.042 85.3824 335.461 85.1418 335.033 84.7136C334.605 84.2854 334.364 83.7046 334.364 83.099C334.364 73.6028 329.631 65.5668 324.035 65.5668C318.439 65.5668 313.706 73.6028 313.706 83.099C313.706 92.5952 318.429 100.631 324.035 100.631C324.616 100.669 325.161 100.927 325.559 101.352C325.957 101.777 326.178 102.337 326.178 102.92C326.178 103.502 325.957 104.062 325.559 104.487C325.161 104.912 324.616 105.17 324.035 105.208Z" fill="black"/>
<path d="M358.609 105.208C350.26 105.208 343.713 95.496 343.713 83.099C343.713 70.702 350.26 61 358.609 61C366.959 61 373.515 70.7118 373.515 83.099C373.477 83.68 373.22 84.2248 372.795 84.6228C372.37 85.0209 371.809 85.2424 371.227 85.2424C370.645 85.2424 370.084 85.0209 369.659 84.6228C369.234 84.2248 368.977 83.68 368.939 83.099C368.939 73.6028 364.215 65.5668 358.609 65.5668C353.004 65.5668 348.28 73.6028 348.28 83.099C348.28 92.5952 353.014 100.631 358.609 100.631C358.922 100.611 359.236 100.655 359.532 100.76C359.827 100.866 360.098 101.031 360.327 101.246C360.556 101.46 360.738 101.72 360.863 102.007C360.988 102.295 361.052 102.606 361.052 102.92C361.052 103.233 360.988 103.544 360.863 103.832C360.738 104.119 360.556 104.379 360.327 104.593C360.098 104.808 359.827 104.973 359.532 105.079C359.236 105.184 358.922 105.228 358.609 105.208Z" fill="black"/>
<path d="M393.193 105.208C384.844 105.208 378.297 95.496 378.297 83.099C378.297 70.702 384.844 61 393.193 61C401.543 61 408.099 70.7118 408.099 83.099C408.061 83.68 407.803 84.2248 407.379 84.6228C406.954 85.0209 406.393 85.2424 405.811 85.2424C405.229 85.2424 404.668 85.0209 404.243 84.6228C403.818 84.2248 403.561 83.68 403.523 83.099C403.523 73.6028 398.789 65.5668 393.193 65.5668C387.598 65.5668 382.864 73.6028 382.864 83.099C382.864 92.5952 387.598 100.631 393.193 100.631C393.774 100.669 394.319 100.927 394.717 101.352C395.115 101.777 395.337 102.337 395.337 102.92C395.337 103.502 395.115 104.062 394.717 104.487C394.319 104.912 393.774 105.17 393.193 105.208Z" fill="black"/>
</g>
<path d="M326.347 155.168C318.351 153.581 309.374 155.433 306.169 163.861C303.592 170.642 306.894 177.992 314.009 179.786C320.281 181.364 331.1 179.433 333.335 172.201C335.893 163.929 325.495 161.244 319.664 160.754C317.91 160.607 317.919 163.351 319.664 163.498C322.32 163.724 325.358 163.871 327.71 165.331C332.61 168.398 330.591 173.318 326.416 175.67C322.241 178.022 315.842 178.61 311.716 176.003C307.208 173.132 307.061 166.82 309.756 162.704C313.294 157.265 319.752 156.658 325.573 157.804C327.298 158.147 328.033 155.501 326.298 155.158L326.347 155.168Z" fill="#7F56D9"/>
<path opacity="0.1" d="M326.347 155.168C318.351 153.581 309.374 155.433 306.169 163.861C303.592 170.642 306.894 177.992 314.009 179.786C320.281 181.364 331.1 179.433 333.335 172.201C335.893 163.929 325.495 161.244 319.664 160.754C317.91 160.607 317.919 163.351 319.664 163.498C322.32 163.724 325.358 163.871 327.71 165.331C332.61 168.398 330.591 173.318 326.416 175.67C322.241 178.022 315.842 178.61 311.716 176.003C307.208 173.132 307.061 166.82 309.756 162.704C313.294 157.265 319.752 156.658 325.573 157.804C327.298 158.147 328.033 155.501 326.298 155.158L326.347 155.168Z" fill="#FAFAFA"/>
<path d="M238.118 123.602C245.766 133.741 254.292 143.185 263.598 151.826C264.892 153.032 266.842 151.091 265.558 149.866C256.411 141.396 248.026 132.138 240.499 122.201C239.451 120.809 237.069 122.201 238.138 123.583L238.118 123.602Z" fill="#7F56D9"/>
<path d="M240.951 150.68C246.733 140.4 256.856 131.629 266.431 124.916C267.861 123.936 266.499 121.525 265.049 122.544C255.092 129.541 244.626 138.577 238.589 149.288C238.423 149.6 238.384 149.964 238.48 150.304C238.576 150.644 238.8 150.934 239.104 151.114C239.409 151.293 239.77 151.348 240.114 151.267C240.458 151.186 240.758 150.976 240.951 150.68Z" fill="#7F56D9"/>
<g opacity="0.2">
<path d="M238.119 123.602C245.766 133.741 254.293 143.185 263.599 151.826C264.892 153.032 266.842 151.091 265.559 149.866C256.412 141.396 248.027 132.139 240.5 122.201C239.451 120.809 237.07 122.201 238.138 123.583L238.119 123.602Z" fill="black"/>
<path d="M240.951 150.68C246.733 140.4 256.856 131.629 266.431 124.916C267.861 123.936 266.499 121.525 265.049 122.544C255.092 129.541 244.626 138.577 238.589 149.288C238.423 149.6 238.384 149.964 238.48 150.304C238.576 150.644 238.8 150.934 239.104 151.114C239.409 151.293 239.77 151.348 240.114 151.267C240.458 151.186 240.758 150.976 240.951 150.68Z" fill="black"/>
</g>
<path d="M347.114 132.373H364.999C365.342 132.344 365.661 132.188 365.893 131.935C366.126 131.681 366.255 131.35 366.255 131.006C366.255 130.662 366.126 130.331 365.893 130.078C365.661 129.825 365.342 129.668 364.999 129.639H347.114C346.771 129.668 346.452 129.825 346.22 130.078C345.987 130.331 345.858 130.662 345.858 131.006C345.858 131.35 345.987 131.681 346.22 131.935C346.452 132.188 346.771 132.344 347.114 132.373Z" fill="#7F56D9"/>
<path d="M346.908 137.46H357.276C357.64 137.46 357.989 137.315 358.246 137.058C358.503 136.801 358.648 136.452 358.648 136.088C358.648 135.724 358.503 135.375 358.246 135.118C357.989 134.86 357.64 134.716 357.276 134.716H346.908C346.544 134.716 346.195 134.86 345.937 135.118C345.68 135.375 345.536 135.724 345.536 136.088C345.536 136.452 345.68 136.801 345.937 137.058C346.195 137.315 346.544 137.46 346.908 137.46Z" fill="#7F56D9"/>
<g opacity="0.1">
<path d="M347.114 132.373H364.999C365.342 132.344 365.661 132.188 365.893 131.935C366.126 131.681 366.255 131.35 366.255 131.006C366.255 130.662 366.126 130.331 365.893 130.078C365.661 129.825 365.342 129.668 364.999 129.639H347.114C346.771 129.668 346.452 129.825 346.22 130.078C345.987 130.331 345.858 130.662 345.858 131.006C345.858 131.35 345.987 131.681 346.22 131.935C346.452 132.188 346.771 132.344 347.114 132.373Z" fill="#FAFAFA"/>
<path d="M346.908 137.46H357.277C357.64 137.46 357.989 137.315 358.247 137.058C358.504 136.8 358.649 136.451 358.649 136.088C358.649 135.724 358.504 135.375 358.247 135.117C357.989 134.86 357.64 134.716 357.277 134.716H346.908C346.544 134.716 346.195 134.86 345.938 135.117C345.681 135.375 345.536 135.724 345.536 136.088C345.536 136.451 345.681 136.8 345.938 137.058C346.195 137.315 346.544 137.46 346.908 137.46Z" fill="#FAFAFA"/>
</g>
<path d="M239.99 202.581H255.327C255.691 202.581 256.04 202.436 256.297 202.179C256.555 201.921 256.699 201.572 256.699 201.209C256.699 200.845 256.555 200.496 256.297 200.238C256.04 199.981 255.691 199.837 255.327 199.837H239.99C239.626 199.837 239.277 199.981 239.02 200.238C238.763 200.496 238.618 200.845 238.618 201.209C238.618 201.572 238.763 201.921 239.02 202.179C239.277 202.436 239.626 202.581 239.99 202.581Z" fill="#7F56D9"/>
<path d="M239.441 208.47H259.335C259.699 208.47 260.048 208.326 260.305 208.069C260.563 207.811 260.707 207.462 260.707 207.098C260.707 206.735 260.563 206.386 260.305 206.128C260.048 205.871 259.699 205.726 259.335 205.726H239.441C239.077 205.726 238.728 205.871 238.471 206.128C238.214 206.386 238.069 206.735 238.069 207.098C238.069 207.462 238.214 207.811 238.471 208.069C238.728 208.326 239.077 208.47 239.441 208.47Z" fill="#7F56D9"/>
<path d="M239.441 214.537H249.388C249.752 214.537 250.101 214.392 250.358 214.135C250.616 213.877 250.76 213.528 250.76 213.165C250.76 212.801 250.616 212.452 250.358 212.194C250.101 211.937 249.752 211.793 249.388 211.793H239.441C239.077 211.793 238.728 211.937 238.471 212.194C238.214 212.452 238.069 212.801 238.069 213.165C238.069 213.528 238.214 213.877 238.471 214.135C238.728 214.392 239.077 214.537 239.441 214.537Z" fill="#7F56D9"/>
<g opacity="0.1">
<path d="M239.99 202.581H255.327C255.691 202.581 256.04 202.436 256.297 202.179C256.555 201.921 256.699 201.572 256.699 201.209C256.699 200.845 256.555 200.496 256.297 200.238C256.04 199.981 255.691 199.837 255.327 199.837H239.99C239.626 199.837 239.277 199.981 239.02 200.238C238.763 200.496 238.618 200.845 238.618 201.209C238.618 201.572 238.763 201.921 239.02 202.179C239.277 202.436 239.626 202.581 239.99 202.581Z" fill="#FAFAFA"/>
<path d="M239.441 208.47H259.335C259.699 208.47 260.048 208.326 260.305 208.068C260.563 207.811 260.707 207.462 260.707 207.098C260.707 206.734 260.563 206.385 260.305 206.128C260.048 205.871 259.699 205.726 259.335 205.726H239.441C239.077 205.726 238.728 205.871 238.471 206.128C238.214 206.385 238.069 206.734 238.069 207.098C238.069 207.462 238.214 207.811 238.471 208.068C238.728 208.326 239.077 208.47 239.441 208.47Z" fill="#FAFAFA"/>
<path d="M239.441 214.537H249.388C249.752 214.537 250.101 214.392 250.358 214.135C250.616 213.877 250.76 213.528 250.76 213.165C250.76 212.801 250.616 212.452 250.358 212.194C250.101 211.937 249.752 211.793 249.388 211.793H239.441C239.077 211.793 238.728 211.937 238.471 212.194C238.214 212.452 238.069 212.801 238.069 213.165C238.069 213.528 238.214 213.877 238.471 214.135C238.728 214.392 239.077 214.537 239.441 214.537Z" fill="#FAFAFA"/>
</g>
<path d="M81.3984 137.711L86.0338 137.505L83.9366 146.325C82.2823 145.193 80.7747 143.859 79.4482 142.356C79.0656 141.906 78.8758 141.324 78.9198 140.735C78.9639 140.146 79.2382 139.598 79.6834 139.21L81.3984 137.711Z" fill="#E4897B"/>
<path d="M91.4139 142.258L89.3363 149.432L83.9365 146.306L86.0337 137.505L91.4139 142.258Z" fill="#E4897B"/>
<path d="M90.4997 99.671L81.0146 100.549L102.769 335.499L112.254 334.621L90.4997 99.671Z" fill="#7F56D9"/>
<path opacity="0.3" d="M90.4997 99.671L81.0146 100.549L102.769 335.499L112.254 334.621L90.4997 99.671Z" fill="black"/>
<path d="M109.474 97.9097L99.9893 98.788L121.744 333.738L131.229 332.859L109.474 97.9097Z" fill="#7F56D9"/>
<path opacity="0.3" d="M109.474 97.9097L99.9893 98.788L121.744 333.738L131.229 332.859L109.474 97.9097Z" fill="black"/>
<path d="M99.9919 98.7903L90.5068 99.6686L112.261 334.618L121.746 333.74L99.9919 98.7903Z" fill="#7F56D9"/>
<path opacity="0.1" d="M99.9919 98.7903L90.5068 99.6686L112.261 334.618L121.746 333.74L99.9919 98.7903Z" fill="black"/>
<path d="M97.9897 82.3605L89.4539 83.1543L81.0161 100.549L109.475 97.9131L97.9897 82.3605Z" fill="#7F56D9"/>
<g opacity="0.8">
<path d="M97.9897 82.3605L89.4539 83.1543L81.0161 100.549L109.475 97.9131L97.9897 82.3605Z" fill="#FAFAFA"/>
</g>
<path d="M93.0698 75.6965L89.4536 83.1543L97.9894 82.3605L93.0698 75.6965Z" fill="#263238"/>
<path d="M164.786 88.9753C165.766 89.9553 166.58 90.8863 167.423 91.9153C168.265 92.9443 169.069 93.8753 169.873 94.8553C171.49 96.8153 172.999 98.8832 174.469 100.99C177.499 105.274 180.056 109.874 182.093 114.71C182.338 115.337 182.564 115.994 182.799 116.67L183.152 117.65C183.346 118.237 183.484 118.841 183.563 119.453C183.776 121.404 183.517 123.376 182.809 125.206C181.751 127.906 180.269 130.421 178.418 132.654C175.146 136.658 171.379 140.231 167.207 143.287L163.512 139.367C166.42 135.732 169.079 131.904 171.47 127.911C172.518 126.205 173.322 124.361 173.861 122.433C174.01 121.959 174.027 121.454 173.91 120.972L173.577 120.247C173.352 119.767 173.156 119.267 172.911 118.797C170.836 114.771 168.409 110.938 165.659 107.341C164.287 105.469 162.836 103.646 161.366 101.823C160.631 100.922 159.886 100.02 159.122 99.1379L156.888 96.5605L164.786 88.9753Z" fill="#E4897B"/>
<path d="M157.583 142.356L161.758 150.617L165.845 147.099L162.493 141.229L157.583 142.356Z" fill="#E4897B"/>
<path d="M126.135 93.8167C123.594 98.6579 120.954 103.444 118.217 108.174C116.874 110.555 115.463 112.897 114.091 115.259L111.984 118.787L111.455 119.669C111.19 120.091 110.896 120.59 110.632 120.924C110.367 121.257 110.103 121.659 109.848 121.962C109.593 122.266 109.319 122.609 109.064 122.893C107.084 125.05 104.977 127.085 102.753 128.989C100.606 130.822 98.4601 132.605 96.2453 134.301C91.8647 137.721 87.3665 140.906 82.7017 143.944L79.3403 139.71L90.9533 128.274C92.8545 126.314 94.7753 124.471 96.5883 122.531C98.3697 120.705 100.048 118.781 101.616 116.768C101.805 116.533 101.972 116.308 102.116 116.092C102.282 115.857 102.4 115.661 102.517 115.465C102.619 115.307 102.71 115.144 102.792 114.975L103.243 114.064L105.056 110.369C106.3 107.929 107.515 105.469 108.78 103.048C111.282 98.1679 113.895 93.3431 116.62 88.5737L126.135 93.8167Z" fill="#E4897B"/>
<path d="M153.644 60.7124C153.516 61.2808 153.722 61.8198 154.085 61.9178C154.447 62.0158 154.849 61.6238 154.977 61.0554C155.104 60.487 154.888 59.948 154.526 59.85C154.163 59.752 153.732 60.144 153.644 60.7124Z" fill="#263238"/>
<path d="M153.664 61.8099C153.971 63.7214 154.531 65.5835 155.33 67.3469C154.879 67.5255 154.394 67.6031 153.91 67.5743C153.426 67.5455 152.954 67.411 152.527 67.1803L153.664 61.8099Z" fill="#DE5753"/>
<path d="M155.143 57.2627C155.074 57.2629 155.005 57.2425 154.947 57.2039C154.585 56.9827 154.175 56.8529 153.751 56.8255C153.328 56.7982 152.904 56.8743 152.517 57.0471C152.432 57.0801 152.338 57.0792 152.254 57.0445C152.17 57.0098 152.103 56.9441 152.066 56.8609C152.033 56.7763 152.034 56.6822 152.069 56.5982C152.103 56.5142 152.169 56.4469 152.252 56.4101C152.748 56.1974 153.287 56.1077 153.825 56.1487C154.362 56.1897 154.882 56.3601 155.339 56.6454C155.376 56.67 155.408 56.7018 155.433 56.739C155.458 56.7762 155.475 56.818 155.483 56.8619C155.491 56.9057 155.491 56.9508 155.481 56.9944C155.471 57.0381 155.453 57.0793 155.427 57.1157C155.396 57.1615 155.353 57.1988 155.304 57.2244C155.254 57.25 155.199 57.2632 155.143 57.2627Z" fill="#263238"/>
<path d="M133.819 62.8781C135.053 68.1505 136.455 77.7937 132.907 81.3119C132.907 81.3119 134.554 86.6529 144.344 86.6529C155.124 86.6529 149.244 81.3119 149.244 81.3119C143.315 79.9105 143.295 75.5495 144.158 71.4629L133.819 62.8781Z" fill="#E4897B"/>
<path d="M131.574 83.1444C130.731 81.4588 129.81 79.5184 131.574 78.9108C133.475 78.2444 144.03 77.5682 147.725 78.8128C148.709 79.0762 149.552 79.7125 150.075 80.587C150.599 81.4615 150.761 82.5053 150.527 83.4972L131.574 83.1444Z" fill="#7F56D9"/>
<path opacity="0.6" d="M131.574 83.1444C130.731 81.4588 129.81 79.5184 131.574 78.9108C133.475 78.2444 144.03 77.5682 147.725 78.8128C148.709 79.0762 149.552 79.7125 150.075 80.587C150.599 81.4615 150.761 82.5053 150.527 83.4972L131.574 83.1444Z" fill="#FAFAFA"/>
<path d="M119.177 82.9387C112.484 84.4871 105.457 102.882 105.457 102.882L119.363 112.172C122.556 107.331 125.355 102.242 127.732 96.9527C131.407 88.5345 126.008 81.3609 119.177 82.9387Z" fill="#7F56D9"/>
<path opacity="0.7" d="M119.177 82.9387C112.484 84.4871 105.457 102.882 105.457 102.882L119.363 112.172C122.556 107.331 125.355 102.242 127.732 96.9527C131.407 88.5345 126.008 81.3609 119.177 82.9387Z" fill="black"/>
<path d="M124.46 94.6693L118.707 111.731L119.364 112.172C119.364 112.172 121.99 108.252 124.783 103.029L124.46 94.6693Z" fill="#7F56D9"/>
<path opacity="0.8" d="M124.46 94.6693L118.707 111.731L119.364 112.172C119.364 112.172 121.99 108.252 124.783 103.029L124.46 94.6693Z" fill="black"/>
<path d="M164.091 115.102C164.032 123.138 163.552 133.134 162.356 145.541H123.842C123.342 139.661 125.949 110.79 119.177 82.9386C123.413 82.1174 127.699 81.574 132.005 81.3118C137.456 80.998 142.921 80.998 148.371 81.3118C152.131 81.6772 155.856 82.3325 159.514 83.2718C159.514 83.2718 162.807 86.839 163.806 103.568C164.002 106.909 164.11 110.712 164.091 115.102Z" fill="#7F56D9"/>
<path opacity="0.7" d="M164.091 115.102C164.032 123.138 163.552 133.134 162.356 145.541H123.842C123.342 139.661 125.949 110.79 119.177 82.9386C123.413 82.1174 127.699 81.574 132.005 81.3118C137.456 80.998 142.921 80.998 148.371 81.3118C152.131 81.6772 155.856 82.3325 159.514 83.2718C159.514 83.2718 162.807 86.839 163.806 103.568C164.002 106.909 164.11 110.712 164.091 115.102Z" fill="black"/>
<path d="M164.09 115.102C161.758 110.849 157.524 102.313 158.122 97.4623L163.806 103.617C164.002 106.909 164.11 110.712 164.09 115.102Z" fill="#7F56D9"/>
<path opacity="0.8" d="M164.09 115.102C161.758 110.849 157.524 102.313 158.122 97.4623L163.806 103.617C164.002 106.909 164.11 110.712 164.09 115.102Z" fill="black"/>
<path d="M151.968 89.8183C151.36 96.6783 166.913 113.182 166.913 113.182L179.379 103.029C176.114 97.5192 172.202 92.4197 167.726 87.8387C160.435 80.7925 152.654 82.1351 151.968 89.8183Z" fill="#7F56D9"/>
<path opacity="0.7" d="M151.968 89.8183C151.36 96.6783 166.913 113.182 166.913 113.182L179.379 103.029C176.114 97.5192 172.202 92.4197 167.726 87.8387C160.435 80.7925 152.654 82.1351 151.968 89.8183Z" fill="black"/>
<path d="M135.112 54.7636C134.064 61.8588 133.093 65.9356 135.818 70.4436C136.684 71.9035 137.933 73.0986 139.43 73.8993C140.926 74.6999 142.614 75.0757 144.309 74.9859C146.004 74.896 147.642 74.344 149.046 73.3895C150.449 72.4351 151.565 71.1147 152.272 69.5714C155.085 63.6914 156.339 53.0682 150.155 48.5798C148.85 47.5723 147.303 46.9261 145.669 46.7063C144.035 46.4865 142.373 46.7007 140.848 47.3275C139.323 47.9543 137.99 48.9715 136.983 50.2769C135.977 51.5822 135.331 53.1297 135.112 54.7636Z" fill="#E4897B"/>
<path d="M156.427 51.4022C154.306 52.5605 151.972 53.2773 149.567 53.5092C147.773 61.7118 143.001 71.1492 135.278 68.4346C132.338 67.4546 129.398 60.33 129.095 54.009C128.585 54.6264 128.242 55.43 127.977 55.7632C127.537 52.954 127.855 50.0781 128.899 47.4332C131.035 41.3768 132.456 45.3948 134.779 41.7198C136.278 39.2894 138.944 38.035 143.599 37.8782C142.295 38.5544 142.05 39.6422 143.981 39.4854C145.911 39.3286 154.153 38.8778 158.955 42.1216C155.711 42.8566 157.691 48.0016 162.023 45.2576C160.445 47.8154 158.485 50.2458 156.427 51.4022Z" fill="#444C51"/>
<path d="M144.021 59.1542C144.048 60.9584 144.652 62.7065 145.745 64.1424C147.206 66.024 148.881 65.1224 149.283 63.0056C149.636 61.124 149.283 57.8704 147.46 56.7336C145.638 55.5968 144.011 56.9982 144.021 59.1542Z" fill="#E4897B"/>
<path d="M135.24 42.4843C134.262 42.4223 133.314 42.122 132.479 41.6095C131.643 41.0971 130.946 40.3881 130.448 39.5443C130.448 39.5443 130.32 45.2871 135.24 42.4843Z" fill="#444C51"/>
<path d="M148.685 145.541C148.685 145.541 142.649 200.558 138.954 221.168C134.916 243.708 119.354 318.933 119.354 318.933H106.124C106.124 318.933 115.512 245.56 117.472 223.177C119.579 198.922 123.882 145.502 123.882 145.502L148.685 145.541Z" fill="#7F56D9"/>
<path opacity="0.6" d="M148.685 145.541C148.685 145.541 142.649 200.558 138.954 221.168C134.916 243.708 119.354 318.933 119.354 318.933H106.124C106.124 318.933 115.512 245.56 117.472 223.177C119.579 198.922 123.882 145.502 123.882 145.502L148.685 145.541Z" fill="#FAFAFA"/>
<path d="M144.285 165.141C134.906 166.993 137.268 202.224 139.101 220.345C141.335 207.536 144.373 182.889 146.421 165.396C145.758 165.073 145.005 164.983 144.285 165.141Z" fill="#7F56D9"/>
<path opacity="0.4" d="M144.285 165.141C134.906 166.993 137.268 202.224 139.101 220.345C141.335 207.536 144.373 182.889 146.421 165.396C145.758 165.073 145.005 164.983 144.285 165.141Z" fill="#FAFAFA"/>
<path d="M162.347 145.541C162.347 145.541 165.424 199.363 165.483 221.325C165.551 244.159 160.465 318.933 160.465 318.933H148.264C148.264 318.933 144.981 245.491 143.57 223.069C142.041 198.618 137.033 145.541 137.033 145.541H162.347Z" fill="#7F56D9"/>
<path opacity="0.6" d="M162.347 145.541C162.347 145.541 165.424 199.363 165.483 221.325C165.551 244.159 160.465 318.933 160.465 318.933H148.264C148.264 318.933 144.981 245.491 143.57 223.069C142.041 198.618 137.033 145.541 137.033 145.541H162.347Z" fill="#FAFAFA"/>
<path d="M165.296 138.622L161.876 138.897C161.598 138.92 161.328 139.005 161.086 139.146C160.844 139.287 160.637 139.48 160.48 139.711C160.322 139.941 160.218 140.205 160.174 140.481C160.131 140.757 160.15 141.039 160.23 141.308L161.641 146.061C161.76 146.447 161.971 146.798 162.255 147.086C162.539 147.373 162.889 147.587 163.274 147.71C163.659 147.834 164.068 147.862 164.466 147.793C164.864 147.724 165.24 147.56 165.561 147.315C167.328 145.671 168.595 143.561 169.216 141.229L165.296 138.622Z" fill="#E4897B"/>
<path d="M157.574 310.171C157.541 310.167 157.511 310.15 157.489 310.125C157.467 310.1 157.456 310.067 157.456 310.034C158.808 289.346 161.944 239.278 161.886 221.324C161.886 202.949 159.651 161.848 158.946 149.686C158.944 149.67 158.946 149.654 158.952 149.638C158.957 149.623 158.965 149.609 158.976 149.597C158.987 149.585 159.001 149.575 159.016 149.569C159.031 149.562 159.047 149.559 159.063 149.559C159.095 149.559 159.126 149.571 159.15 149.593C159.174 149.615 159.188 149.645 159.191 149.677C159.857 161.838 162.042 202.94 162.131 221.324C162.189 239.288 159.053 289.356 157.701 310.054C157.701 310.07 157.698 310.086 157.691 310.101C157.685 310.116 157.675 310.129 157.663 310.14C157.651 310.152 157.637 310.16 157.622 310.165C157.606 310.171 157.59 310.173 157.574 310.171Z" fill="#7F56D9"/>
<path opacity="0.3" d="M157.574 310.171C157.541 310.167 157.511 310.15 157.489 310.125C157.467 310.1 157.456 310.067 157.456 310.034C158.808 289.346 161.944 239.278 161.886 221.324C161.886 202.949 159.651 161.848 158.946 149.686C158.944 149.67 158.946 149.654 158.952 149.638C158.957 149.623 158.965 149.609 158.976 149.597C158.987 149.585 159.001 149.575 159.016 149.569C159.031 149.562 159.047 149.559 159.063 149.559C159.095 149.559 159.126 149.571 159.15 149.593C159.174 149.615 159.188 149.645 159.191 149.677C159.857 161.838 162.042 202.94 162.131 221.324C162.189 239.288 159.053 289.356 157.701 310.054C157.701 310.07 157.698 310.086 157.691 310.101C157.685 310.116 157.675 310.129 157.663 310.14C157.651 310.152 157.637 310.16 157.622 310.165C157.606 310.171 157.59 310.173 157.574 310.171Z" fill="#FAFAFA"/>
</g>
<defs>
<clipPath id="clip0_149_9677">
<rect width="490" height="272" fill="white"/>
</clipPath>
</defs>
</svg>
