<svg width="21" height="23" viewBox="0 0 21 23" fill="none" xmlns="http://www.w3.org/2000/svg">
<path d="M1.75 9.56445H19.75M6.75 5.56445V1.56445M14.75 5.56445V1.56445M8.15 21.5645H13.35C15.5902 21.5645 16.7103 21.5645 17.566 21.1285C18.3186 20.745 18.9305 20.1331 19.314 19.3804C19.75 18.5248 19.75 17.4047 19.75 15.1645V9.96445C19.75 7.72424 19.75 6.60414 19.314 5.74849C18.9305 4.99584 18.3186 4.38392 17.566 4.00043C16.7103 3.56445 15.5902 3.56445 13.35 3.56445H8.15C5.90979 3.56445 4.78968 3.56445 3.93404 4.00043C3.18139 4.38392 2.56947 4.99584 2.18597 5.74849C1.75 6.60414 1.75 7.72424 1.75 9.96445V15.1645C1.75 17.4047 1.75 18.5248 2.18597 19.3804C2.56947 20.1331 3.18139 20.745 3.93404 21.1285C4.78968 21.5645 5.90979 21.5645 8.15 21.5645Z" stroke="#F8F8FA" stroke-width="2" stroke-linecap="round"/>
</svg>
