<svg width="25" height="25" viewBox="0 0 25 25" fill="none" xmlns="http://www.w3.org/2000/svg">
<path d="M4.23005 22.955L4.68404 22.064H4.68404L4.23005 22.955ZM2.04497 20.77L2.93597 20.316H2.93597L2.04497 20.77ZM22.955 20.77L22.064 20.316V20.316L22.955 20.77ZM20.77 22.955L20.316 22.064H20.316L20.77 22.955ZM20.77 2.04497L20.316 2.93597V2.93597L20.77 2.04497ZM22.955 4.23005L22.064 4.68404V4.68404L22.955 4.23005ZM4.23005 2.04497L4.68404 2.93597L4.23005 2.04497ZM2.04497 4.23005L2.93597 4.68404L2.04497 4.23005ZM19.1013 16.4171C19.6078 16.6373 20.1969 16.4052 20.4171 15.8987C20.6373 15.3922 20.4052 14.8031 19.8987 14.5829L19.1013 16.4171ZM19.9626 9.38658C20.4522 9.13112 20.6421 8.52708 20.3866 8.03743C20.1311 7.54779 19.5271 7.35795 19.0374 7.61342L19.9626 9.38658ZM9.5 2.5H15.5V0.5H9.5V2.5ZM22.5 9.5V15.5H24.5V9.5H22.5ZM15.5 22.5H9.5V24.5H15.5V22.5ZM2.5 15.5V9.5H0.5V15.5H2.5ZM9.5 22.5C8.08337 22.5 7.08104 22.4992 6.29744 22.4352C5.52552 22.3721 5.05435 22.2527 4.68404 22.064L3.77606 23.846C4.4753 24.2023 5.23898 24.3554 6.13458 24.4286C7.01851 24.5008 8.11637 24.5 9.5 24.5V22.5ZM0.5 15.5C0.5 16.8836 0.499222 17.9815 0.571442 18.8654C0.644616 19.761 0.797677 20.5247 1.15396 21.2239L2.93597 20.316C2.74729 19.9457 2.62787 19.4745 2.5648 18.7026C2.50078 17.919 2.5 16.9166 2.5 15.5H0.5ZM4.68404 22.064C3.93139 21.6805 3.31947 21.0686 2.93597 20.316L1.15396 21.2239C1.7292 22.3529 2.64708 23.2708 3.77606 23.846L4.68404 22.064ZM22.5 15.5C22.5 16.9166 22.4992 17.919 22.4352 18.7026C22.3721 19.4745 22.2527 19.9457 22.064 20.316L23.846 21.2239C24.2023 20.5247 24.3554 19.761 24.4286 18.8654C24.5008 17.9815 24.5 16.8836 24.5 15.5H22.5ZM15.5 24.5C16.8836 24.5 17.9815 24.5008 18.8654 24.4286C19.761 24.3554 20.5247 24.2023 21.2239 23.846L20.316 22.064C19.9457 22.2527 19.4745 22.3721 18.7026 22.4352C17.919 22.4992 16.9166 22.5 15.5 22.5V24.5ZM22.064 20.316C21.6805 21.0686 21.0686 21.6805 20.316 22.064L21.2239 23.846C22.3529 23.2708 23.2708 22.3529 23.846 21.2239L22.064 20.316ZM15.5 2.5C16.9166 2.5 17.919 2.50078 18.7026 2.5648C19.4745 2.62787 19.9457 2.74729 20.316 2.93597L21.2239 1.15396C20.5247 0.797677 19.761 0.644616 18.8654 0.571442C17.9815 0.499222 16.8836 0.5 15.5 0.5V2.5ZM24.5 9.5C24.5 8.11637 24.5008 7.01851 24.4286 6.13458C24.3554 5.23898 24.2023 4.4753 23.846 3.77606L22.064 4.68404C22.2527 5.05435 22.3721 5.52552 22.4352 6.29744C22.4992 7.08104 22.5 8.08337 22.5 9.5H24.5ZM20.316 2.93597C21.0686 3.31947 21.6805 3.93139 22.064 4.68404L23.846 3.77606C23.2708 2.64708 22.3529 1.7292 21.2239 1.15396L20.316 2.93597ZM9.5 0.5C8.11637 0.5 7.01851 0.499222 6.13458 0.571442C5.23898 0.644616 4.4753 0.797677 3.77606 1.15396L4.68404 2.93597C5.05435 2.74729 5.52552 2.62787 6.29744 2.5648C7.08104 2.50078 8.08337 2.5 9.5 2.5V0.5ZM2.5 9.5C2.5 8.08337 2.50078 7.08104 2.5648 6.29744C2.62787 5.52552 2.74729 5.05435 2.93597 4.68404L1.15396 3.77606C0.797677 4.4753 0.644616 5.23898 0.571442 6.13458C0.499222 7.01851 0.5 8.11637 0.5 9.5H2.5ZM3.77606 1.15396C2.64708 1.7292 1.7292 2.64708 1.15396 3.77606L2.93597 4.68404C3.31947 3.93139 3.93139 3.31947 4.68404 2.93597L3.77606 1.15396ZM9.5 8C9.5 8.82843 8.82843 9.5 8 9.5V11.5C9.933 11.5 11.5 9.933 11.5 8H9.5ZM8 9.5C7.17157 9.5 6.5 8.82843 6.5 8H4.5C4.5 9.933 6.067 11.5 8 11.5V9.5ZM6.5 8C6.5 7.17157 7.17157 6.5 8 6.5V4.5C6.067 4.5 4.5 6.067 4.5 8H6.5ZM8 6.5C8.82843 6.5 9.5 7.17157 9.5 8H11.5C11.5 6.067 9.933 4.5 8 4.5V6.5ZM9.5 17C9.5 17.8284 8.82843 18.5 8 18.5V20.5C9.933 20.5 11.5 18.933 11.5 17H9.5ZM8 18.5C7.17157 18.5 6.5 17.8284 6.5 17H4.5C4.5 18.933 6.067 20.5 8 20.5V18.5ZM6.5 17C6.5 16.1716 7.17157 15.5 8 15.5V13.5C6.067 13.5 4.5 15.067 4.5 17H6.5ZM8 15.5C8.82843 15.5 9.5 16.1716 9.5 17H11.5C11.5 15.067 9.933 13.5 8 13.5V15.5ZM7.60127 11.4171L11.7831 13.2353L12.5805 11.4011L8.39873 9.58293L7.60127 11.4171ZM11.7831 13.2353L19.1013 16.4171L19.8987 14.5829L12.5805 11.4011L11.7831 13.2353ZM8.46257 15.3866L12.6444 13.2048L11.7193 11.4316L7.53743 13.6134L8.46257 15.3866ZM12.6444 13.2048L19.9626 9.38658L19.0374 7.61342L11.7193 11.4316L12.6444 13.2048Z" fill="#F8F8FA"/>
</svg>
