<svg width="25" height="25" viewBox="0 0 25 25" fill="none" xmlns="http://www.w3.org/2000/svg">
<g clip-path="url(#clip0_567_2856)">
<path d="M12.75 15.5645C14.4069 15.5645 15.75 14.2213 15.75 12.5645C15.75 10.9076 14.4069 9.56445 12.75 9.56445C11.0931 9.56445 9.75 10.9076 9.75 12.5645C9.75 14.2213 11.0931 15.5645 12.75 15.5645Z" stroke="#F8F8FA" stroke-width="2" stroke-linecap="round" stroke-linejoin="round"/>
<path d="M20.15 15.5645C20.0169 15.8661 19.9772 16.2006 20.036 16.525C20.0948 16.8494 20.2495 17.1488 20.48 17.3845L20.54 17.4445C20.726 17.6302 20.8735 17.8508 20.9741 18.0936C21.0748 18.3364 21.1266 18.5966 21.1266 18.8595C21.1266 19.1223 21.0748 19.3825 20.9741 19.6253C20.8735 19.8681 20.726 20.0887 20.54 20.2745C20.3543 20.4604 20.1337 20.6079 19.8909 20.7086C19.6481 20.8092 19.3878 20.861 19.125 20.861C18.8622 20.861 18.6019 20.8092 18.3591 20.7086C18.1163 20.6079 17.8957 20.4604 17.71 20.2745L17.65 20.2145C17.4143 19.9839 17.115 19.8293 16.7906 19.7704C16.4662 19.7116 16.1316 19.7513 15.83 19.8845C15.5342 20.0112 15.282 20.2217 15.1043 20.49C14.9266 20.7583 14.8313 21.0727 14.83 21.3945V21.5645C14.83 22.0949 14.6193 22.6036 14.2442 22.9787C13.8691 23.3537 13.3604 23.5645 12.83 23.5645C12.2996 23.5645 11.7909 23.3537 11.4158 22.9787C11.0407 22.6036 10.83 22.0949 10.83 21.5645V21.4745C10.8223 21.1435 10.7151 20.8224 10.5225 20.5532C10.3299 20.2839 10.0607 20.0787 9.75 19.9645C9.44838 19.8313 9.11381 19.7916 8.78941 19.8504C8.46502 19.9093 8.16568 20.0639 7.93 20.2945L7.87 20.3545C7.68425 20.5404 7.46368 20.6879 7.22088 20.7886C6.97808 20.8892 6.71783 20.941 6.455 20.941C6.19217 20.941 5.93192 20.8892 5.68912 20.7886C5.44632 20.6879 5.22575 20.5404 5.04 20.3545C4.85405 20.1687 4.70653 19.9481 4.60588 19.7053C4.50523 19.4625 4.45343 19.2023 4.45343 18.9395C4.45343 18.6766 4.50523 18.4164 4.60588 18.1736C4.70653 17.9308 4.85405 17.7102 5.04 17.5245L5.1 17.4645C5.33054 17.2288 5.48519 16.9294 5.544 16.605C5.60282 16.2806 5.56312 15.9461 5.43 15.6445C5.30324 15.3487 5.09276 15.0964 4.82447 14.9188C4.55618 14.7411 4.24179 14.6457 3.92 14.6445H3.75C3.21957 14.6445 2.71086 14.4337 2.33579 14.0587C1.96071 13.6836 1.75 13.1749 1.75 12.6445C1.75 12.114 1.96071 11.6053 2.33579 11.2302C2.71086 10.8552 3.21957 10.6445 3.75 10.6445H3.84C4.17099 10.6367 4.492 10.5296 4.7613 10.337C5.03059 10.1444 5.23572 9.87519 5.35 9.56445C5.48312 9.26284 5.52282 8.92826 5.464 8.60386C5.40519 8.27947 5.25054 7.98013 5.02 7.74445L4.96 7.68445C4.77405 7.49871 4.62653 7.27813 4.52588 7.03533C4.42523 6.79254 4.37343 6.53228 4.37343 6.26945C4.37343 6.00662 4.42523 5.74637 4.52588 5.50357C4.62653 5.26078 4.77405 5.0402 4.96 4.85445C5.14575 4.6685 5.36632 4.52098 5.60912 4.42033C5.85192 4.31969 6.11217 4.26788 6.375 4.26788C6.63783 4.26788 6.89808 4.31969 7.14088 4.42033C7.38368 4.52098 7.60425 4.6685 7.79 4.85445L7.85 4.91445C8.08568 5.14499 8.38502 5.29964 8.70941 5.35846C9.03381 5.41728 9.36838 5.37757 9.67 5.24445H9.75C10.0458 5.11769 10.298 4.90721 10.4757 4.63892C10.6534 4.37063 10.7487 4.05624 10.75 3.73445V3.56445C10.75 3.03402 10.9607 2.52531 11.3358 2.15024C11.7109 1.77517 12.2196 1.56445 12.75 1.56445C13.2804 1.56445 13.7891 1.77517 14.1642 2.15024C14.5393 2.52531 14.75 3.03402 14.75 3.56445V3.65445C14.7513 3.97624 14.8466 4.29063 15.0243 4.55892C15.202 4.82721 15.4542 5.03769 15.75 5.16445C16.0516 5.29757 16.3862 5.33728 16.7106 5.27846C17.035 5.21964 17.3343 5.06499 17.57 4.83445L17.63 4.77445C17.8157 4.5885 18.0363 4.44098 18.2791 4.34033C18.5219 4.23969 18.7822 4.18788 19.045 4.18788C19.3078 4.18788 19.5681 4.23969 19.8109 4.34033C20.0537 4.44098 20.2743 4.5885 20.46 4.77445C20.646 4.9602 20.7935 5.18078 20.8941 5.42357C20.9948 5.66637 21.0466 5.92662 21.0466 6.18945C21.0466 6.45228 20.9948 6.71254 20.8941 6.95533C20.7935 7.19813 20.646 7.41871 20.46 7.60445L20.4 7.66445C20.1695 7.90013 20.0148 8.19947 19.956 8.52386C19.8972 8.84826 19.9369 9.18284 20.07 9.48445V9.56445C20.1968 9.86022 20.4072 10.1125 20.6755 10.2901C20.9438 10.4678 21.2582 10.5632 21.58 10.5645H21.75C22.2804 10.5645 22.7891 10.7752 23.1642 11.1502C23.5393 11.5253 23.75 12.034 23.75 12.5645C23.75 13.0949 23.5393 13.6036 23.1642 13.9787C22.7891 14.3537 22.2804 14.5645 21.75 14.5645H21.66C21.3382 14.5657 21.0238 14.6611 20.7555 14.8388C20.4872 15.0164 20.2768 15.2687 20.15 15.5645V15.5645Z" stroke="#F8F8FA" stroke-width="2" stroke-linecap="round" stroke-linejoin="round"/>
</g>
<defs>
<clipPath id="clip0_567_2856">
<rect width="24" height="24" fill="white" transform="translate(0.75 0.564453)"/>
</clipPath>
</defs>
</svg>
