<svg width="21" height="21" viewBox="0 0 21 21" fill="none" xmlns="http://www.w3.org/2000/svg">
<path d="M16.6547 19.0313C16.7922 19.5661 17.3373 19.8883 17.8722 19.7507C18.4071 19.6132 18.7292 19.0681 18.5917 18.5332L16.6547 19.0313ZM2.90834 18.5332C2.7708 19.0681 3.09291 19.6132 3.6278 19.7507C4.16269 19.8883 4.70779 19.5661 4.84533 19.0313L2.90834 18.5332ZM3.93404 19.3463L4.38803 18.4552L3.93404 19.3463ZM2.18597 17.5982L3.07698 17.1442L2.18597 17.5982ZM19.314 17.5982L18.423 17.1442L19.314 17.5982ZM17.566 19.3463L17.112 18.4552L17.566 19.3463ZM17.566 2.2182L17.112 3.10921L17.566 2.2182ZM19.314 3.96626L18.423 4.42025L19.314 3.96626ZM3.93404 2.2182L4.38803 3.10921L3.93404 2.2182ZM2.18597 3.96626L3.07698 4.42025L2.18597 3.96626ZM14.125 10.1572C14.125 12.0212 12.614 13.5322 10.75 13.5322V15.5322C13.7185 15.5322 16.125 13.1258 16.125 10.1572H14.125ZM10.75 13.5322C8.88604 13.5322 7.375 12.0212 7.375 10.1572H5.375C5.375 13.1258 7.78147 15.5322 10.75 15.5322V13.5322ZM7.375 10.1572C7.375 8.29327 8.88604 6.78223 10.75 6.78223V4.78223C7.78147 4.78223 5.375 7.1887 5.375 10.1572H7.375ZM10.75 6.78223C12.614 6.78223 14.125 8.29327 14.125 10.1572H16.125C16.125 7.1887 13.7185 4.78223 10.75 4.78223V6.78223ZM18.5917 18.5332C17.8161 15.5168 14.4364 13.5322 10.75 13.5322V15.5322C13.8837 15.5322 16.1851 17.2052 16.6547 19.0313L18.5917 18.5332ZM4.84533 19.0313C5.31487 17.2052 7.61627 15.5322 10.75 15.5322V13.5322C7.06362 13.5322 3.68394 15.5168 2.90834 18.5332L4.84533 19.0313ZM8.15 2.78223H13.35V0.782227H8.15V2.78223ZM18.75 8.18223V13.3822H20.75V8.18223H18.75ZM13.35 18.7822H8.15V20.7822H13.35V18.7822ZM2.75 13.3822V8.18223H0.75V13.3822H2.75ZM8.15 18.7822C7.01339 18.7822 6.22108 18.7814 5.60424 18.7311C4.99907 18.6816 4.65138 18.5894 4.38803 18.4552L3.48005 20.2373C4.07234 20.539 4.71253 20.6649 5.44138 20.7244C6.15855 20.783 7.0464 20.7822 8.15 20.7822V18.7822ZM0.75 13.3822C0.75 14.4858 0.749222 15.3737 0.807818 16.0908C0.867367 16.8197 0.99318 17.4599 1.29497 18.0522L3.07698 17.1442C2.94279 16.8808 2.85062 16.5332 2.80118 15.928C2.75078 15.3111 2.75 14.5188 2.75 13.3822H0.75ZM4.38803 18.4552C3.82354 18.1676 3.3646 17.7087 3.07698 17.1442L1.29497 18.0522C1.77433 18.993 2.53924 19.7579 3.48005 20.2373L4.38803 18.4552ZM18.75 13.3822C18.75 14.5188 18.7492 15.3111 18.6988 15.928C18.6494 16.5332 18.5572 16.8808 18.423 17.1442L20.205 18.0522C20.5068 17.4599 20.6326 16.8197 20.6922 16.0909C20.7508 15.3737 20.75 14.4858 20.75 13.3822H18.75ZM13.35 20.7822C14.4536 20.7822 15.3414 20.783 16.0586 20.7244C16.7875 20.6649 17.4277 20.539 18.02 20.2373L17.112 18.4552C16.8486 18.5894 16.5009 18.6816 15.8958 18.7311C15.2789 18.7814 14.4866 18.7822 13.35 18.7822V20.7822ZM18.423 17.1442C18.1354 17.7087 17.6765 18.1676 17.112 18.4552L18.02 20.2373C18.9608 19.7579 19.7257 18.993 20.205 18.0522L18.423 17.1442ZM13.35 2.78223C14.4866 2.78223 15.2789 2.783 15.8958 2.8334C16.5009 2.88285 16.8486 2.97502 17.112 3.10921L18.02 1.32719C17.4277 1.02541 16.7875 0.899594 16.0586 0.840044C15.3414 0.781449 14.4536 0.782227 13.35 0.782227V2.78223ZM20.75 8.18223C20.75 7.07862 20.7508 6.19078 20.6922 5.4736C20.6326 4.74475 20.5068 4.10457 20.205 3.51227L18.423 4.42025C18.5572 4.68361 18.6494 5.0313 18.6988 5.63647C18.7492 6.25331 18.75 7.04562 18.75 8.18223H20.75ZM17.112 3.10921C17.6765 3.39683 18.1354 3.85577 18.423 4.42025L20.205 3.51227C19.7257 2.57146 18.9608 1.80656 18.02 1.32719L17.112 3.10921ZM8.15 0.782227C7.0464 0.782227 6.15855 0.781449 5.44138 0.840044C4.71253 0.899594 4.07234 1.02541 3.48005 1.32719L4.38803 3.10921C4.65138 2.97502 4.99907 2.88285 5.60424 2.8334C6.22108 2.783 7.01339 2.78223 8.15 2.78223V0.782227ZM2.75 8.18223C2.75 7.04562 2.75078 6.25331 2.80118 5.63647C2.85062 5.0313 2.94279 4.68361 3.07698 4.42025L1.29497 3.51227C0.99318 4.10457 0.867367 4.74475 0.807818 5.4736C0.749222 6.19078 0.75 7.07862 0.75 8.18223H2.75ZM3.48005 1.32719C2.53924 1.80656 1.77433 2.57146 1.29497 3.51227L3.07698 4.42025C3.3646 3.85577 3.82354 3.39683 4.38803 3.10921L3.48005 1.32719Z" fill="#F8F8FA"/>
</svg>
