<svg width="21" height="21" viewBox="0 0 21 21" fill="none" xmlns="http://www.w3.org/2000/svg">
<path d="M16.6547 18.8135C16.7922 19.3484 17.3373 19.6705 17.8722 19.5329C18.4071 19.3954 18.7292 18.8503 18.5917 18.3154L16.6547 18.8135ZM2.90834 18.3154C2.7708 18.8503 3.09291 19.3954 3.6278 19.5329C4.16269 19.6705 4.70779 19.3484 4.84533 18.8135L2.90834 18.3154ZM3.93404 19.1285L4.38803 18.2375L3.93404 19.1285ZM2.18597 17.3804L3.07698 16.9264L2.18597 17.3804ZM19.314 17.3804L18.423 16.9264L19.314 17.3804ZM17.566 19.1285L17.112 18.2375L17.566 19.1285ZM17.566 2.00043L17.112 2.89143L17.566 2.00043ZM19.314 3.74849L18.423 4.20248L19.314 3.74849ZM3.93404 2.00043L4.38803 2.89143L3.93404 2.00043ZM2.18597 3.74849L3.07698 4.20248L2.18597 3.74849ZM14.125 9.93945C14.125 11.8034 12.614 13.3145 10.75 13.3145V15.3145C13.7185 15.3145 16.125 12.908 16.125 9.93945H14.125ZM10.75 13.3145C8.88604 13.3145 7.375 11.8034 7.375 9.93945H5.375C5.375 12.908 7.78147 15.3145 10.75 15.3145V13.3145ZM7.375 9.93945C7.375 8.07549 8.88604 6.56445 10.75 6.56445V4.56445C7.78147 4.56445 5.375 6.97092 5.375 9.93945H7.375ZM10.75 6.56445C12.614 6.56445 14.125 8.07549 14.125 9.93945H16.125C16.125 6.97092 13.7185 4.56445 10.75 4.56445V6.56445ZM18.5917 18.3154C17.8161 15.2991 14.4364 13.3145 10.75 13.3145V15.3145C13.8837 15.3145 16.1851 16.9874 16.6547 18.8135L18.5917 18.3154ZM4.84533 18.8135C5.31487 16.9874 7.61627 15.3145 10.75 15.3145V13.3145C7.06362 13.3145 3.68394 15.2991 2.90834 18.3154L4.84533 18.8135ZM8.15 2.56445H13.35V0.564453H8.15V2.56445ZM18.75 7.96445V13.1645H20.75V7.96445H18.75ZM13.35 18.5645H8.15V20.5645H13.35V18.5645ZM2.75 13.1645V7.96445H0.75V13.1645H2.75ZM8.15 18.5645C7.01339 18.5645 6.22108 18.5637 5.60424 18.5133C4.99907 18.4638 4.65138 18.3717 4.38803 18.2375L3.48005 20.0195C4.07234 20.3213 4.71253 20.4471 5.44138 20.5066C6.15855 20.5652 7.0464 20.5645 8.15 20.5645V18.5645ZM0.75 13.1645C0.75 14.2681 0.749222 15.1559 0.807818 15.8731C0.867367 16.6019 0.99318 17.2421 1.29497 17.8344L3.07698 16.9264C2.94279 16.6631 2.85062 16.3154 2.80118 15.7102C2.75078 15.0934 2.75 14.3011 2.75 13.1645H0.75ZM4.38803 18.2375C3.82354 17.9499 3.3646 17.4909 3.07698 16.9264L1.29497 17.8344C1.77433 18.7752 2.53924 19.5401 3.48005 20.0195L4.38803 18.2375ZM18.75 13.1645C18.75 14.3011 18.7492 15.0934 18.6988 15.7102C18.6494 16.3154 18.5572 16.6631 18.423 16.9264L20.205 17.8344C20.5068 17.2421 20.6326 16.6019 20.6922 15.8731C20.7508 15.1559 20.75 14.2681 20.75 13.1645H18.75ZM13.35 20.5645C14.4536 20.5645 15.3414 20.5652 16.0586 20.5066C16.7875 20.4471 17.4277 20.3213 18.02 20.0195L17.112 18.2375C16.8486 18.3717 16.5009 18.4638 15.8958 18.5133C15.2789 18.5637 14.4866 18.5645 13.35 18.5645V20.5645ZM18.423 16.9264C18.1354 17.4909 17.6765 17.9499 17.112 18.2375L18.02 20.0195C18.9608 19.5401 19.7257 18.7752 20.205 17.8344L18.423 16.9264ZM13.35 2.56445C14.4866 2.56445 15.2789 2.56523 15.8958 2.61563C16.5009 2.66507 16.8486 2.75725 17.112 2.89143L18.02 1.10942C17.4277 0.807633 16.7875 0.68182 16.0586 0.622271C15.3414 0.563675 14.4536 0.564453 13.35 0.564453V2.56445ZM20.75 7.96445C20.75 6.86085 20.7508 5.973 20.6922 5.25583C20.6326 4.52698 20.5068 3.88679 20.205 3.2945L18.423 4.20248C18.5572 4.46584 18.6494 4.81353 18.6988 5.41869C18.7492 6.03553 18.75 6.82785 18.75 7.96445H20.75ZM17.112 2.89143C17.6765 3.17905 18.1354 3.638 18.423 4.20248L20.205 3.2945C19.7257 2.35369 18.9608 1.58879 18.02 1.10942L17.112 2.89143ZM8.15 0.564453C7.0464 0.564453 6.15855 0.563675 5.44138 0.622271C4.71253 0.68182 4.07234 0.807633 3.48005 1.10942L4.38803 2.89143C4.65138 2.75725 4.99907 2.66507 5.60424 2.61563C6.22108 2.56523 7.01339 2.56445 8.15 2.56445V0.564453ZM2.75 7.96445C2.75 6.82785 2.75078 6.03553 2.80118 5.41869C2.85062 4.81353 2.94279 4.46584 3.07698 4.20248L1.29497 3.2945C0.99318 3.88679 0.867367 4.52698 0.807818 5.25583C0.749222 5.973 0.75 6.86085 0.75 7.96445H2.75ZM3.48005 1.10942C2.53924 1.58879 1.77433 2.35369 1.29497 3.2945L3.07698 4.20248C3.3646 3.638 3.82354 3.17905 4.38803 2.89143L3.48005 1.10942Z" fill="#F8F8FA"/>
</svg>
